<?xml version="1.0" encoding="utf-8"?>
<!-- Generator: Adobe Illustrator 23.0.1, SVG Export Plug-In . SVG Version: 6.00 Build 0)  -->
<svg version="1.1" id="Layer_1" xmlns="http://www.w3.org/2000/svg" xmlns:xlink="http://www.w3.org/1999/xlink" x="0px" y="0px"
	 viewBox="0 0 1000 1000" style="enable-background:new 0 0 1000 1000;" xml:space="preserve">
<style type="text/css">
	.st0{fill:#A4CE4E;}
	.st1{fill:#1992D1;}
	.st2{fill:#0466A6;}
	.st3{fill:#010101;}
</style>
<g>
	<path class="st0" d="M221.8,392.5c-3.8,0-8.7,1.2-15.2,3.4c-27.3,9.4-51.7,25.2-74,47.9l-15.5,18.3l6,8.6c10.3,14.5,21,39,26,59.7
		c3.1,11.9,4.3,19.2,4.8,31.4c0.1,2.1,0.2,4.2,0.2,6.6c0.1,2.4,0.1,4.9,0.1,7.7c0.1,14.7,0.3,31.4-1.2,31.4h73.2l4.2-4.2
		c2.6-3.7,3-16.8,3-104.1c0-90.3-0.3-100.2-3.1-103.4C228.2,393.6,225.5,392.5,221.8,392.5L221.8,392.5z"/>
	<path class="st1" d="M12,392.5c-3.7-0.1-6.3,0.9-8.6,3c-3.3,3-3.4,8.7-3.4,103.4c0,87.6,0.4,100.7,3,104.4l3,4.2h72.8
		c56.2,0,73.1-0.5,74.3-2.4c0.8-1.3,1.4-14.4,1.2-29c-0.2-22.2-1-29.9-5.2-45.7c-9-34.6-26-65.8-50.4-89.1
		c-21.3-20.2-45.7-36.3-71.9-45.4C20.4,393.7,15.7,392.6,12,392.5L12,392.5z"/>
	<path class="st2" d="M117.1,462.1l-4.6,5.6c-8.2,10.1-23.2,43.4-28.2,62.7c-4.1,15.8-5,23.5-5.1,45.8c-0.1,14.7-0.4,31.3,1.1,31.3
		H153c1.5,0,1.4-16.8,1.2-31.4c-0.2-22.2-1.3-29.8-5.2-45.7c-5-20.7-15.7-45.2-26-59.7L117.1,462.1L117.1,462.1z"/>
	<g>
		<path class="st3" d="M879.8,426.7c-10.2,0-20.2,3.6-27.3,9.9c-8.5,7.5-11.6,13.6-13.2,25.9l-1.3,9.8h-14.7v24.8h15.2v36.8
			c0,20.2,0.5,37.4,1.2,38.1c0.7,0.7,7.5,1.3,15.2,1.3h13.9v-76.2h22.8v-24.8h-22.8V466c0-9.3,7-15.3,16.5-14.2
			c4,0.5,8.6,1.5,10.3,2.2c2.2,1,4.6-1,9-7.8l6-9.2l-4.3-3.2C901.2,430.1,888.6,426.6,879.8,426.7L879.8,426.7z M790.7,426.8
			c-14.8,0.8-22.2,23.2-7.6,31.2c7.4,4,12.6,3.4,19.1-2.1c4.7-4,5.9-6.4,5.9-12.4c0-8.4-4.5-14.2-12.6-16.2
			C793.8,427,792.2,426.8,790.7,426.8z M445.8,430.3l-15.4,0.5l-15.4,0.5l-17,31.4c-9.4,17.3-17.6,32-18.3,32.7
			c-0.7,0.7-9.4-13.6-19.3-31.9l-18-33.2l-15.2,0.5l-15.2,0.5l-2.2,48.6c-1.2,26.7-2.7,58.6-3.4,70.9l-1.2,22.4h29.9l1.2-24.3
			c0.7-13.4,1.4-31.6,1.5-40.5c0.4-30.7,0.6-30.7,17.7-0.2l15.1,26.9h15.9l14.9-28.1l14.8-28.1l1.4,33.3c0.8,18.3,1.9,39.5,2.5,47.1
			l1.1,13.8h30.1l-0.1-9c0-5-1.3-34.3-2.8-65.2c-1.5-30.9-2.8-59-2.8-62.4L445.8,430.3L445.8,430.3z M669.6,430.4v70.2
			c0,38.6,0.5,70.7,1.2,71.4c0.7,0.7,21.6,1.3,46.5,1.3h45.2v-26.7h-60.7V430.4L669.6,430.4L669.6,430.4z M589.9,445.5v26.6
			l-8.1,0.5l-8.1,0.6v22.9l8.1,0.6l8.1,0.6l0.1,25.1c0.1,33.3,3.4,42.7,17.6,49.7c9.8,4.9,29.9,4,41.2-1.7l9.4-4.8l-5.7-9.3
			l-5.7-9.3l-8.2,3c-7.7,2.8-8.7,2.7-13.3-0.3c-5-3.3-5-3.4-5-28v-24.8h24.7v-24.8h-24.5l-0.6-12.9l-0.5-12.9l-14.7-0.5L589.9,445.5
			L589.9,445.5z M515.8,470c-20.6,0.1-36.9,10.6-45.2,29c-5.7,12.7-5.5,35.8,0.5,48.7c5.1,10.9,15.5,20.4,26.7,24.4
			c16.9,6,46.7,2.6,60.2-6.8l5.2-3.6l-5.8-9.3l-5.7-9.3l-9.8,4.6c-10.5,4.9-24,6.1-32.6,2.8c-6.4-2.4-14.3-11-14.3-15.5
			c0-3.3,2.2-3.6,35.1-3.6h35.1v-9.2C565.3,491,545.2,469.8,515.8,470L515.8,470z M516.1,493.1c5.9-0.1,11.3,1.9,15.2,5.7
			c3,3.1,5.6,7.3,5.6,9.5c0,3.8-1,3.9-20.9,3.9c-13.3,0-20.9-0.7-20.9-2c0-4.5,5.7-12.6,10.4-14.8
			C508.9,494,512.6,493.2,516.1,493.1L516.1,493.1z M950.9,470.1c-29.6,0-49.2,18.2-51.3,47.7c-1.7,24.4,7.2,41.8,26.4,51.5
			c11.5,5.8,12.9,6.1,30.1,5.4c15.1-0.6,19.9-1.6,28.9-6c6-2.9,10.8-6,10.8-6.7s-2.5-5.4-5.6-10.3l-5.6-8.9l-6.8,4
			c-9,5.4-28.5,7-36.2,3c-6.7-3.5-11.3-8.5-13-14.3l-1.3-4.3h72.7l-1.3-10C994.2,486.4,979,470.1,950.9,470.1L950.9,470.1z
			 M949.4,493.2c6.6,0,9.7,1.1,14,5.2c3.1,2.9,6.1,7.2,6.8,9.5c1.2,4.3,1.1,4.3-20.9,4.3c-22,0-22.1,0-20.9-4.3
			c0.7-2.4,3.8-6.6,6.8-9.5C939.7,494.4,942.7,493.2,949.4,493.2L949.4,493.2z M806.2,472.2l-14.7,0.5l-14.7,0.5l-0.5,47.6
			c-0.3,26.2-0.1,48.7,0.4,50c0.6,1.7,5.4,2.4,15.2,2.4h14.3L806.2,472.2L806.2,472.2z"/>
	</g>
</g>
</svg>
