<?xml version="1.0" encoding="utf-8"?>
<!-- Generator: Adobe Illustrator 23.0.1, SVG Export Plug-In . SVG Version: 6.00 Build 0)  -->
<svg version="1.1" id="Layer_1" xmlns="http://www.w3.org/2000/svg" xmlns:xlink="http://www.w3.org/1999/xlink" x="0px" y="0px"
	 viewBox="0 0 1000 1000" style="enable-background:new 0 0 1000 1000;" xml:space="preserve">
<style type="text/css">
	.st0{fill:#EC1C24;}
</style>
<g>
	<path class="st0" d="M977.9,614c-6.2,0-11.2-5.3-11.2-11.8V470.1l-29.9,4.6v126.5c0,18.4,14.3,33.3,31.9,33.3h16.6V614H977.9z"/>
	<polygon class="st0" points="632.2,634.5 662.1,634.5 662.1,508.8 632.2,513.4 	"/>
	<path class="st0" d="M681,530.9v8.8v94.8h29.9v-82.2l-0.2-9.7c0-15.3,34.4-12.4,34.4-12.4l10.8-23.5
		C708.3,493.2,681,530.9,681,530.9z"/>
	<path class="st0" d="M795.3,602.2v-72.8h18v-22.8h-18v-36.4l-29.9,4.6v126.5c0,18.4,14.3,33.3,31.9,33.3h16.6V614h-7.4
		C800.3,614,795.3,608.7,795.3,602.2z"/>
	<path class="st0" d="M647.2,459.1c-10.2,0-18.5,8.3-18.5,18.5c0,10.2,8.3,18.5,18.5,18.5c10.2,0,18.5-8.3,18.5-18.5
		C665.6,467.4,657.4,459.1,647.2,459.1z"/>
	<path class="st0" d="M870.5,611.3c-19.8-7.6-18.4-37.2-18.4-37.2h71.7c0-37.2-8.9-69.3-45-69.3c-36.1,0-57.5,26.5-57.5,63.7
		c0,37.2,22.9,66.1,59,66.1c14.3,0,34-4.8,44.7-12.8l-10.2-17.8C914.8,603.9,890.3,618.9,870.5,611.3z M874.6,527.5
		c17.1,0,20.6,24.2,20.6,24.2h-1h-40.1C854.1,551.7,857.5,527.5,874.6,527.5z"/>
	<path class="st0" d="M573.1,505.6c0,0-12.6,0.2-25.4,2.6c-12,2.3-23.9,10.5-23.9,10.5l9.5,19.5c0,0,12.2-11.5,31.3-11.5
		c25.5,0,21.9,25.5,21.9,25.5c-49.6-10.2-74,15.3-73.3,41.5c0.3,11.9,1.9,24,15.5,33c43.4,28.7,85.6-13.1,85.6-13.1v-69.3
		C614.3,523.7,595.9,505.6,573.1,505.6z M585.9,609.5c0,0-19.6,9.1-32.2,1.6c-12.6-7.5-11.1-28.1,0.7-34.4
		c11.8-6.4,31.4-2.4,31.4-2.4V609.5z"/>
	<path class="st0" d="M104.6,372.9C-30.6,495.3,18.2,536,50.5,551.7c32.3,15.7,75.4-5.9,129.3-48c53.9-42.1,178.6-123.4,208-82.9
		c29.4,40.5,30,120.8-96,226.6c-126,105.8-152.1,43.9-89.9-4.6c62.2-48.5,50.8-77.7,21.4-81.9c-30.8-4.5-57.5,2.9-84.9,53.2
		c0,0-42,81,11.8,101.8c37.4,14.5,147.9-30.1,229-111.8C438.8,544,482.6,472,464.3,376C440.3,250.1,239.7,250.5,104.6,372.9z"/>
</g>
</svg>
