<?xml version="1.0" encoding="utf-8"?>
<!-- Generator: Adobe Illustrator 24.2.0, SVG Export Plug-In . SVG Version: 6.00 Build 0)  -->
<svg version="1.1" id="Layer_1" xmlns="http://www.w3.org/2000/svg" xmlns:xlink="http://www.w3.org/1999/xlink" x="0px" y="0px"
	 viewBox="0 0 1000 1000" style="enable-background:new 0 0 1000 1000;" xml:space="preserve">
<style type="text/css">
	.st0{fill:#B11E44;}
</style>
<g>
	<path class="st0" d="M508.9,499c0-26.9-20.1-48.5-48-48.6h-0.2v0c-27.9,0.1-47.8,23-47.8,49.9c0,27,19.8,48,47.8,48
		c21.4,0,44.7-9.7,47.7-29.3l-16.6,0c-3.4,22.4-43,22.2-44.4,0.6c-0.2-3.6-0.2-13.6-0.2-13.6h62.1C509.5,504.1,508.9,501,508.9,499
		L508.9,499z M447.5,493.7l0.6-16.4c0,0-0.2-15,12.6-15.1c11.3,0.1,11.6,15.4,11.6,15.4l0.5,16.2L447.5,493.7L447.5,493.7z
		 M834.2,421.5h34.6V544h-34.6V421.5z M881.2,421.5h34.6V544h-34.6V421.5z M249.1,450.5c-17.6,0-50.2,12.3-50.2,49.2
		c0,40.8,32.7,48.5,50.2,48.5c17.6,0,50.3-10.2,50.2-48.8C299.2,461.9,266.6,450.5,249.1,450.5L249.1,450.5z M249.1,536.5
		c-9.5,0-13.1-14.6-13.1-36.8c0-22.2,1.9-37.1,13.1-37.1c10.5,0,12.6,14.9,12.6,37.1C261.7,521.9,259.6,536.5,249.1,536.5z
		 M84.2,421.5h37.5v50.4h29.2v-50.4h39.5V544h-39.5v-54H122v54.2H84.2V421.5 M310.2,544v-90.2h34.1v8.7c0,0,12.4-10.3,27.3-10.3
		c13.9,0,26.9,9.6,29.5,20.6c0.9,3.6,0.7,6.4,0.7,6.4V544h-33.7v-59.4c0,0,1.2-13.4-9-12.9c-8.1,0.5-13.4,4.7-14.9,7.6V544H310.2"/>
	<path class="st0" d="M500.4,558.5c0,8.1,4.7,20,19.9,20c12.4,0,24.1-7.1,28.4-16.8c3.5-7.9,43.1-107.7,43.1-107.7l26.2,90.2h28.2
		l14.5-54l17.2,54h26.9l23.1-90.2h-15.6l-12.4,47.2l-16-47.2h-27.8l-14,48.6L627.7,454h-49.3L561,497.4L544.5,454H505
		c0,0,36.6,83.6,36.4,89.9c-0.5,14.9-11.8,21.7-13.3,22.2h0.1c1.2-1.8,2.5-5.2,2.5-8.3c0-8.3-6.7-15-15-15c-8.3,0-15,6.8-15.1,15.8
		L500.4,558.5 M825.7,499c0-26.9-20.1-48.5-48-48.6h-0.2v0c-27.9,0.1-47.8,23.1-47.8,49.9c0,27,19.8,48,47.8,48
		c21.4,0,44.7-9.7,47.7-29.3l-16.6,0c-3.4,22.4-43,22.2-44.4,0.6c-0.2-3.6-0.2-13.6-0.2-13.6H826C826.3,504.1,825.7,501,825.7,499
		L825.7,499z M764.3,493.7l0.6-16.4c0,0-0.2-15,12.6-15.1c11.3,0.1,11.6,15.4,11.6,15.4l0.5,16.2L764.3,493.7L764.3,493.7z"/>
</g>
</svg>
