<?xml version="1.0" encoding="utf-8"?>
<!-- Generator: Adobe Illustrator 24.0.2, SVG Export Plug-In . SVG Version: 6.00 Build 0)  -->
<svg version="1.0" id="Layer_1" xmlns="http://www.w3.org/2000/svg" xmlns:xlink="http://www.w3.org/1999/xlink" x="0px" y="0px"
	 viewBox="0 0 300 280" enable-background="new 0 0 300 280" xml:space="preserve">
<g>
	<path fill-rule="evenodd" clip-rule="evenodd" fill="#CB242D" d="M69.01,121.79c3.13-0.59,3.11,2.53,1.92,4.48
		c-0.9,1.46-2.53,3.13-4.63,3.6c-2.72,0.61-3.67-1.69-2.04-4.53C65.1,123.86,66.86,122.2,69.01,121.79L69.01,121.79z M58.6,123.08
		c-0.29,0.38-1.33,1.16-1.74,1.53c-0.87,0.79-2.41,2.52-3.18,3.4c-4.4,5.01-9.31,14.89-6.37,21.73c1.58,3.66,4.7,4.69,8.4,4.84
		c1.06-2.14,2.34-7.52,2.67-10.02c0.13-0.96,0.24-2.03,0.19-3.04c-0.06-1.04-0.33-1.67-1.29-1.84c-2.03-0.35-3.93,1.8-4.9,1.01
		c-0.35-0.78,0.58-1.67,0.92-2.04c1.64-1.8,6.99-5.69,9.19-6.56c1.69-0.68,4.09-0.39,4.64,1.08c0.43,1.15-0.78,3.7-1.16,4.81
		c-1.22,3.58-3.98,11.67-3.94,14.99l0.05,0.15c3.83-1.78,7.48-4.18,10.32-7.23c0.41-0.44,0.84-0.82,1.22-1.29
		c0.37-0.46,0.79-0.85,1.16-1.34c0.37-0.48,0.72-0.92,1.09-1.4c1.46-1.89,2.7-4.06,3.73-6.28c0.25-0.54,1.32-3.54,1.42-3.66
		c0.73-5.55-0.63-11.12-6.11-12.93c-0.65-0.22-1.61-0.24-2.19-0.53h-2.23c-0.25,0.08-1.44,0.17-1.85,0.24
		C65.54,119.23,60.7,121.3,58.6,123.08L58.6,123.08z"/>
	<path fill-rule="evenodd" clip-rule="evenodd" fill="#2E3192" d="M111.65,153.4c-0.71,1.32-1.12,1.97-2.26,2.71
		c-1.07,0.7-2.58,1-4.1,0.86c-3.29-0.32-4.05-2.86-3.11-6.13c0.79-2.74,2.17-4.69,4.3-5.7c1.18-0.55,2.8-0.88,4.28-0.57
		c2.17,0.45,1.92,1.88,2.07,2.84l7.38-0.02c0.46-1.63,0.11-3.38-0.71-4.44c-2.47-3.18-9.6-2.98-13.21-2.26
		c-5.98,1.19-9.87,4.8-11.48,10.19c-1.09,3.66-0.45,6.32,1.71,8.19c3.78,3.26,16.32,3.11,20.63-2.25c0.53-0.67,1.74-2.32,1.92-3.42
		L111.65,153.4L111.65,153.4z"/>
	<path fill-rule="evenodd" clip-rule="evenodd" fill="#2E3192" d="M157.1,153.41l-7.38-0.01c-0.29,0.33-0.61,1.09-0.92,1.47
		c-1.3,1.59-3.09,2.28-5.37,2.11c-3.33-0.25-4.16-2.69-3.26-6.02c1.15-4.26,4.35-7.09,8.49-6.42c1.55,0.25,2.24,1.13,2.15,2.86
		l7.43,0c0.52-1.48,0.04-3.44-0.66-4.39c-0.71-0.97-1.85-1.66-3.36-2.11c-2.77-0.83-6.97-0.8-9.88-0.23
		c-5.94,1.17-9.92,4.83-11.5,10.18c-1.05,3.57-0.51,6.3,1.62,8.14c3.74,3.25,13.42,2.58,17.65,0.29c1.33-0.72,2.24-1.53,3.03-2.44
		C155.73,156.18,156.93,154.51,157.1,153.41L157.1,153.41z"/>
	<path fill-rule="evenodd" clip-rule="evenodd" fill="#2E3192" d="M183.52,151.72c2.07,0.03,4.51-0.13,6.5,0.08
		c2.22,0.23,3.44,1.01,2.57,3.43c-0.59,1.64-2,2.33-4.06,2.51c-2.03,0.18-4.53,0.05-6.63,0.04L183.52,151.72L183.52,151.72z
		 M185.72,143.43c1.99,0.02,4.08-0.07,6.05,0.05c1.94,0.12,3.55,0.64,2.56,2.92c-0.62,1.43-2.02,1.92-3.95,2.06
		c-1.92,0.14-4.02,0.06-5.98,0.05L185.72,143.43L185.72,143.43z M194.08,149.98c2.09-0.56,3.9-1.33,4.96-3.31
		c1.23-2.3,0.99-4.73-1.08-5.78c-1.87-0.94-5.29-0.68-7.58-0.68c-2.65,0-5.64-0.13-8.24,0.01c-0.3,0.44-1.23,4.37-1.46,5.22
		c-0.48,1.77-0.94,3.51-1.41,5.26c-0.59,2.19-2.46,8.76-2.79,10.46c3.06,0,6.12,0,9.18,0c2.97,0,5.53,0.12,7.98-1.09
		c3.69-1.82,5.42-6.44,3.46-8.59C196.02,150.27,195.1,150.36,194.08,149.98L194.08,149.98z"/>
	<path fill-rule="evenodd" clip-rule="evenodd" fill="#2E3192" d="M258.27,146.6v-0.05c-1.61-0.02-3.21,0.01-4.82-0.01
		c-0.52,0-0.6-0.01-0.94,0.23c-1.93,1.41-6.13,4.58-7.68,5.54l3.23-12.11l-4.24,0l-5.59,20.95l4.24-0.02l2.08-7.76
		c0.4,0.39,2.52,3.41,2.87,3.91l2.76,3.87l5.82,0.01l-3.17-4.19c-0.56-0.71-1.06-1.38-1.61-2.09l-1.53-2.06
		c0.27-0.34,1.69-1.25,2.11-1.57L258.27,146.6L258.27,146.6z"/>
	<path fill-rule="evenodd" clip-rule="evenodd" fill="#F15A27" d="M41.73,148.77v3.07c0.14,0.33,0.18,1.23,0.27,1.65
		c0.69,3.24,2.49,5.95,5.84,7.12c2.64,0.92,3.97,0.6,5.34-1.15c0.95-1.21,1.98-3.22,2.53-4.89c-3.7-0.14-6.82-1.18-8.4-4.84
		c-2.94-6.84,1.97-16.72,6.37-21.73c0.77-0.88,2.31-2.61,3.18-3.4c0.41-0.37,1.45-1.15,1.74-1.53c-0.67,0.27-2.55,1.82-3.11,2.29
		c-4.89,4.11-8.77,9.19-11.45,15.14c-0.78,1.72-1.56,4.13-1.92,6.05C42,147.19,41.98,148.3,41.73,148.77L41.73,148.77z"/>
	<path fill-rule="evenodd" clip-rule="evenodd" fill="#2E3192" d="M211.09,154.44c-0.43,3.77-5.65,5.56-7.58,4.06
		c-0.92-0.71-0.56-3.06,1.69-3.73C206.57,154.36,209.52,154.33,211.09,154.44L211.09,154.44z M202.54,161.53h1.76
		c0.39-0.15,1.16-0.17,1.63-0.28c0.51-0.12,0.99-0.28,1.46-0.48c1.1-0.47,1.6-0.93,2.45-1.49l-0.39,1.88l4.34-0.02
		c0.34-2.52,1.13-5.03,1.77-7.4c0.71-2.59,1.4-5.3-0.93-6.65c-1.97-1.15-5.63-1.07-7.99-0.51c-2.04,0.48-4.54,1.88-5.03,4l4.12,0
		c0.89-1.62,1.89-2.1,4-2.01c2.36,0.1,2.45,1.28,2.05,3.35c-4.12-0.02-8.61-0.16-11.38,2.05c-0.96,0.77-2.28,2.81-1.83,4.82
		C199.15,161.28,202.01,161.29,202.54,161.53L202.54,161.53z"/>
	<polygon fill-rule="evenodd" clip-rule="evenodd" fill="#2E3192" points="157.71,161.12 158.15,161.15 164.45,161.14 
		165.15,161.13 170.95,140.24 170.38,140.23 164.26,140.23 163.51,140.23 157.71,161.12 	"/>
	<path fill-rule="evenodd" clip-rule="evenodd" fill="#2E3192" d="M94.85,140.23h-7.28c-0.24,0.06-0.38,0.85-0.49,1.27
		c-0.68,2.5-5.34,18.96-5.42,19.64l7.41,0.01L94.85,140.23L94.85,140.23z"/>
	<polygon fill-rule="evenodd" clip-rule="evenodd" fill="#2E3192" points="132.9,140.23 125.48,140.24 119.72,161.14 127.1,161.13 
		132.9,140.23 	"/>
	<path fill-rule="evenodd" clip-rule="evenodd" fill="#2E3192" d="M225.38,146.55l-4.24,0c-0.33,1.08-0.53,2.63-0.8,3.82
		c-0.72,3.17-2.26,7.86-2.87,10.8l4.35,0c0.67-2.39,1.26-4.86,1.94-7.29c1.49-5.28,7.04-5.54,8.25-3.87
		c0.74,1.02,0.43,2.64,0.09,3.88l-1.93,7.28l4.28-0.03c0.5-2.13,1.13-4.31,1.71-6.43c0.55-1.99,1.56-4.67,0.32-6.57
		c-1.08-1.66-3.6-2.14-6.21-1.82c-1.17,0.15-2.17,0.49-3.07,0.99c-1.07,0.59-1.5,1.1-2.27,1.71L225.38,146.55L225.38,146.55z"/>
	<path fill-rule="evenodd" clip-rule="evenodd" fill="#F15A27" d="M62.03,152.97c-0.27,0.48-0.07,2.19,0.09,2.71
		c0.86,2.8,3.84-0.19,5.34-1.39c2.2-1.76,4.13-3.91,5.9-6.05c2.97-3.57,6.92-10.21,7.66-16.32c-0.1,0.13-1.17,3.12-1.42,3.66
		c-1.03,2.22-2.28,4.39-3.73,6.28c-0.37,0.49-0.73,0.92-1.09,1.4c-0.37,0.49-0.79,0.87-1.16,1.34c-0.38,0.47-0.81,0.85-1.22,1.29
		c-2.84,3.05-6.49,5.45-10.32,7.23L62.03,152.97L62.03,152.97z"/>
	<path fill-rule="evenodd" clip-rule="evenodd" fill="#FFFFFF" d="M69.01,121.79c-2.15,0.4-3.91,2.07-4.75,3.55
		c-1.62,2.85-0.68,5.15,2.04,4.53c2.1-0.47,3.73-2.14,4.63-3.6C72.12,124.32,72.14,121.21,69.01,121.79L69.01,121.79z"/>
</g>
</svg>
