<svg id="Layer_1" data-name="Layer 1" xmlns="http://www.w3.org/2000/svg" viewBox="0 0 1000 1000"><defs><style>.cls-1{fill:#fdbb30;}.cls-2{fill:#1a75cf;}</style></defs><path class="cls-1" d="M826.4,466.51c4.8,0,8.76-2.5,9.29-5.73l4.74-53.64c0-5.3-6.21-9.65-14-9.65s-14,4.35-14,9.65l4.74,53.64c.52,3.23,4.47,5.73,9.26,5.73h0m-29,16.75c2.41-4.15,2.22-8.82-.32-10.9L753,441.43c-4.59-2.65-11.46.54-15.36,7.31s-3.22,14.3,1.35,17l48.82,22.73c3,1.13,7.21-1.05,9.6-5.2v0m58,0c2.41,4.16,6.55,6.33,9.6,5.2l48.82-22.73c4.6-2.65,5.26-10.2,1.38-17s-10.81-10-15.38-7.3l-44.09,30.92c-2.52,2.08-2.71,6.75-.31,10.9l0,0m-29,50.28c4.8,0,8.76,2.48,9.29,5.71l4.74,53.63c0,5.32-6.21,9.66-14,9.66s-14-4.34-14-9.66l4.74-53.63c.52-3.23,4.47-5.71,9.26-5.71h0m29-16.76c2.41-4.16,6.55-6.32,9.6-5.17l48.82,22.71c4.6,2.66,5.26,10.21,1.38,17s-10.81,10-15.38,7.3l-44.09-30.9c-2.52-2.09-2.71-6.76-.31-10.91h0m-58,0c2.41,4.15,2.22,8.82-.32,10.92L753,558.56c-4.59,2.65-11.46-.56-15.36-7.29s-3.22-14.32,1.35-17l48.82-22.71c3-1.15,7.21,1,9.6,5.18h0"/><path class="cls-2" d="M548.29,527.56a17.09,17.09,0,0,1-.59,4.84c-1.87,6.19-8.29,11.43-16.31,11.43-6.69,0-12-3.8-12-11.83,0-12.28,13.52-15.67,28.91-15.58v11.14Zm24.14-21.4c0-20.25-8.65-38.07-37.89-38.07-15,0-26.92,4.22-33.43,8l4.77,16.28a48.93,48.93,0,0,1,24.37-6.85c14.83,0,17.26,8.4,17.26,13.8v1.28c-32.33-.05-52.76,11.14-52.76,33.95,0,13.93,10.4,27,28.5,27,11.12,0,20.43-4.44,26-11.55h.55s3.69,15.45,24,9.54A131.69,131.69,0,0,1,572.43,538v-31.8M68.72,440.51s21.12,86.57,24.5,100.62c3.93,16.39,11,22.43,31.46,18.36l13.19-53.67c3.35-13.34,5.59-22.85,7.74-36.4H146c1.51,13.7,3.66,23.1,6.41,36.44,0,0,5.36,24.37,8.12,37.16S171,563.88,191,559.49l31.43-119H197L186.29,492c-2.88,15-5.5,26.68-7.52,40.37h-.36c-1.83-13.57-4.17-24.8-7.1-39.39l-11.17-52.42H133.7l-11.95,51.1c-3.38,15.53-6.55,28.07-8.56,41.3h-.37c-2.06-12.46-4.81-28.22-7.78-43.25,0,0-7.1-36.55-9.59-49.15H68.72m201.67,87a17.09,17.09,0,0,1-.6,4.84c-1.87,6.19-8.29,11.43-16.31,11.43-6.69,0-12-3.8-12-11.83,0-12.28,13.51-15.67,28.9-15.58v11.14Zm24.13-21.4c0-20.25-8.65-38.07-37.88-38.07-15,0-26.94,4.22-33.44,8L228,492.34a48.94,48.94,0,0,1,24.38-6.85c14.84,0,17.27,8.4,17.27,13.8v1.28c-32.34-.05-52.77,11.14-52.77,33.95,0,13.93,10.4,27,28.48,27,11.13,0,20.44-4.44,26-11.55h.54s3.7,15.45,24.05,9.54A131.69,131.69,0,0,1,294.52,538v-31.8m40.28,28.07V440.51H310.63v119H334.8V534.23m316.11-93.72v87.77c0,12.11,2.29,20.58,7.15,25.76,4.27,4.54,11.27,7.47,19.68,7.47a57.51,57.51,0,0,0,17.48-2.59L694.91,540a37,37,0,0,1-9.17,1.09c-8.24,0-11-5.28-11-16.14V491.41h21V468.64h-21V440.51H650.91m-62.37,29.6v89.38h24.93V513.72a34.09,34.09,0,0,1,.54-6.6c1.84-9.59,9.17-15.71,19.7-15.71a46.26,46.26,0,0,1,7.2.63v-23.4a24.6,24.6,0,0,0-5.5-.55c-9.3,0-19.88,6-24.32,18.88h-.68V470.11H588.54m-236.82,0v89.38H376V507.08a20.94,20.94,0,0,1,1.14-7.32c2-5.28,6.92-11.46,14.76-11.46,9.8,0,14.38,8.29,14.38,20.25v50.93h24.27V506.43a24.84,24.84,0,0,1,1-7.24c2-6,7.28-10.89,14.57-10.89,9.93,0,14.7,8.14,14.7,22.21v49h24.29V506.83c0-27.76-14.1-38.74-30-38.74a32.4,32.4,0,0,0-17.63,4.84,37.74,37.74,0,0,0-11.32,11.14h-.36c-3.84-9.63-12.87-16-24.64-16-15.11,0-21.91,7.66-26,14.16h-.36V470.11h-23"/><path class="cls-1" d="M926.08,555.14h.37c.48,0,.79-.2.79-.5s-.29-.52-.74-.52c-.16,0-.32,0-.42,0v1Zm-.06,2.41h-1.29v-4.2a9.93,9.93,0,0,1,1.85-.16,2.86,2.86,0,0,1,1.69.34,1.1,1.1,0,0,1,.45.92c0,.43-.39.8-1,1v.05a1.25,1.25,0,0,1,.88,1.09,4.55,4.55,0,0,0,.29,1h-1.46a2.63,2.63,0,0,1-.29-.9c-.09-.43-.29-.64-.72-.64H926v1.53Zm.54-5.57a3.42,3.42,0,1,0,3.36,3.4,3.29,3.29,0,0,0-3.36-3.4Zm.08-1.15a4.57,4.57,0,1,1-4.74,4.55,4.59,4.59,0,0,1,4.74-4.55h0"/></svg>