<?xml version="1.0" encoding="utf-8"?>
<!-- Generator: Adobe Illustrator 24.2.0, SVG Export Plug-In . SVG Version: 6.00 Build 0)  -->
<svg version="1.1" id="Layer_1" xmlns="http://www.w3.org/2000/svg" xmlns:xlink="http://www.w3.org/1999/xlink" x="0px" y="0px"
	 viewBox="0 0 1000 1000" style="enable-background:new 0 0 1000 1000;" xml:space="preserve">
<style type="text/css">
	.st0{fill:none;}
	.st1{fill:#231F20;}
	.st2{fill:#EF3825;}
</style>
<g>
	<rect x="101.2" y="429.7" class="st0" width="797.5" height="140.6"/>
	<rect x="101.2" y="429.7" class="st0" width="797.5" height="140.6"/>
	<path class="st1" d="M204.4,505.3c-0.1,0,0,48.6,0,48.6c0,6.1-5.3,11.5-12.1,11.5c-3.6,0-6.6,0-6.6,0v2.5h55.8v-2.5c0,0-3,0-6.6,0
		c-6.8,0-12.1-5.4-12.1-11.5v-49.4c0,0,0-51.1,0-58.9c0-5.9,5.2-11.5,12.1-11.5c3.6,0,6.6,0,6.6,0v-2.5h-55.8v2.5c0,0,3,0,6.6,0
		c7,0,12.1,5.5,12.1,11.5c0,7.8,0,52.8,0,52.8h-66.1c0,0,0-45,0-52.8c0-5.9,5.4-11.5,12.1-11.5c3.6,0,6.6,0,6.6,0v-2.5h-55.8v2.5
		c0,0,3,0,6.6,0c6.9,0,12.1,5.5,12.1,11.5c0,7.8,0,58.9,0,58.9V554c0,6-5.2,11.5-12.1,11.5c-3.6,0-6.6,0-6.6,0v2.5H157v-2.5
		c0,0-3,0-6.6,0c-6.8,0-12.1-5.4-12.1-11.5c0,0,0.1-48.6,0-48.6L204.4,505.3"/>
	<path class="st1" d="M337,532.3c0.5,8-4.5,20.1-11.4,26.4c-6.6,6-16,11.2-28.6,11.2c-14.3,0-26.6-7.7-31.1-9.4
		c-2.7-1-6.3-0.9-8.4,0.4c-2.5,1.5-4,4-4.6,8.6h-2.1v-47.2h2.1c1.9,14.5,8.7,23,12.9,27.9c6.9,7.9,19.9,12.4,32.4,10.4
		c9.9-1.6,20.8-12.4,19.6-25.7c-0.4-4.8-1.5-11.8-11.5-18.4c-6.3-4.1-15.2-9.9-23.7-15.6c-10.7-7.1-20.4-14.8-23.1-17.9
		c-3.6-4.1-8-9.9-8-19.3c0-8,3.1-17.2,9.5-23.3c6.5-6.1,15.3-10.7,27.9-10.7c12.6,0,22.2,6.7,25.4,8.2c3.3,1.5,6.8,1.2,8.9,0
		c2-1.1,3.3-2.9,3.9-7.4h2.1v44.7h-2.1c-1.9-14.5-8.2-25.4-12.6-29.4c-4.4-4-13-9.5-25.8-7.1c-12.3,2.4-18.2,7.9-19.4,17.8
		c-0.9,7.5,3.2,12.1,5.5,14.9c4.8,5.7,35.1,22.9,48.8,34.8C330.7,512.2,336.3,519.5,337,532.3"/>
	<path class="st1" d="M425.4,498.4c24.3,8.3,31.2,25.5,26.7,43.1c-5.3,20.8-28.7,25-36.3,26c-3.4,0.4-12.2,0.4-20.8,0.4
		c-15.4,0-35,0-50.6,0v-2.5c0,0,4.2,0,8,0c5.1,0,10.9-4.3,10.9-10.8c0,0,0-102.2,0-108.7c0-6.5-5.8-10.9-10.9-10.9c-3.8,0-8,0-8,0
		v-2.5c13.9,0,34,0,48.4,0c11.6,0,18,1.1,22.1,1.9c6.9,1.3,26.9,7.3,31.7,26C450.3,474.8,443,493.1,425.4,498.4 M381.4,494.6
		c6.7,1.7,26.4,2.2,34-2.7c11.9-7.6,16.1-19.8,13.9-30.6c-1.3-6.5-4.7-12.5-10.7-16.6c-11.7-8.2-28.5-6.9-37.3-4.2V494.6z
		 M381.4,560.2c9.4,2.9,27.4,5.2,39.9-3.8c15-10.8,18.2-37-3-50.7c-8.5-5.5-29.8-5.1-36.9-3.5V560.2z"/>
	<path class="st1" d="M579.7,434.1l2,46.1l-2.8,0.1c-1.3-11.7-5.7-19.9-11.3-25.2c-1.6-1.5-4.6-4.7-9-7.4
		c-7.3-4.6-18.1-8.6-30.9-6.3c-19.3,3.4-29.2,16.2-34.2,28.5c-6.1,15.1-10,40.9,0.4,62.7c8.4,17.7,24.6,25,37.1,26.9
		c10.6,1.6,34.2,1.1,52.1-23.1l2.9,1.9c-13.9,19.7-32.5,32.3-53.7,32.1c-27.1-0.2-44.2-15.2-52-24.1c-8.2-9.4-14.5-27.1-14.6-42.6
		c-0.1-13.8,3-29.1,7.9-38c8.5-15.4,26.3-30.7,49.7-33c17.5-1.7,29,1.7,38.9,7.4c4.9,2.8,7.7,3.1,10.4,2c2.7-1.1,4.8-3.4,4.8-7.9
		L579.7,434.1"/>
	<polyline class="st2" points="626.6,499.9 694.6,567.9 694.6,431.8 626.6,499.9 	"/>
	<polyline class="st2" points="694.6,567.9 830.7,567.9 762.7,499.9 694.6,567.9 	"/>
	<polyline class="st2" points="762.7,499.9 830.7,431.8 694.6,431.8 762.7,499.9 	"/>
	<polyline class="st2" points="830.7,431.8 830.7,567.9 898.8,499.9 830.7,431.8 	"/>
</g>
</svg>
