<?xml version="1.0" encoding="utf-8"?>
<!-- Generator: Adobe Illustrator 24.0.2, SVG Export Plug-In . SVG Version: 6.00 Build 0)  -->
<svg version="1.0" id="Layer_1" xmlns="http://www.w3.org/2000/svg" xmlns:xlink="http://www.w3.org/1999/xlink" x="0px" y="0px"
	 viewBox="0 0 300 280" enable-background="new 0 0 300 280" xml:space="preserve">
<g>
	<path fill-rule="evenodd" clip-rule="evenodd" fill="#024366" d="M243.61,172.1h3.98v-7.42h0.06l5.1,7.42h5.05l-6.41-8.45l5.7-6.82
		h-4.69l-4.75,6.11h-0.06v-13.09h-3.98V172.1z M43.99,161.04c1.33-1.01,3.03-1.66,4.71-1.66c2.34,0,3.44,0.83,3.44,3.29h-2.19
		c-1.66,0-3.62,0.15-5.14,0.89c-1.5,0.74-2.59,2.06-2.61,4.31v0.08c0.02,2.89,2.65,4.51,5.34,4.51c1.81,0,3.8-0.95,4.72-2.64h0.06
		c0.03,0.48,0.03,1.49,0.18,2.29H56c-0.09-1.19-0.15-2.26-0.18-3.41c-0.03-1.13-0.06-2.29-0.06-3.83v-1.96
		c0-4.51-1.93-6.44-6.59-6.44c-1.69,0-3.77,0.45-5.31,1.16L43.99,161.04z M226.02,172.1H230v-7.48c0-1.96,0.62-5.07,3.5-5.07
		c2.55,0,2.58,2.52,2.58,4.39v8.16h3.98v-9.64c0-3.44-1.57-5.99-5.19-5.99c-2.08,0-3.77,0.68-5.01,2.43h-0.06v-2.08h-3.77V172.1z
		 M210.96,161.04c1.34-1.01,3.03-1.66,4.72-1.66c2.34,0,3.44,0.83,3.44,3.29h-2.2c-1.66,0-3.62,0.15-5.13,0.89
		c-1.51,0.74-2.61,2.08-2.61,4.36c0,2.91,2.64,4.54,5.34,4.54c1.81,0,3.8-0.95,4.72-2.64h0.06c0.03,0.48,0.03,1.49,0.18,2.29h3.5
		c-0.09-1.19-0.15-2.26-0.18-3.41c-0.03-1.13-0.06-2.29-0.06-3.83v-1.96c0-4.51-1.93-6.44-6.58-6.44c-1.69,0-3.77,0.45-5.31,1.16
		L210.96,161.04z M212.98,167.68c0-2.34,2.64-2.64,4.42-2.64h1.72c0,1.19-0.18,2.29-0.83,3.15c-0.62,0.83-1.57,1.37-2.79,1.37
		C214.07,169.55,212.98,168.99,212.98,167.68L212.98,167.68z M196.66,164.42c0-2.14,1.01-4.87,3.56-4.87c2.58,0,3.29,2.82,3.29,4.87
		c0,2.11-0.74,4.95-3.35,4.95C197.52,169.37,196.66,166.58,196.66,164.42L196.66,164.42z M192.66,172.1h3.86v-1.87h0.06
		c1.16,1.63,3,2.23,4.69,2.23c4.69,0,6.41-3.86,6.41-8.04c0-4.21-1.72-7.95-6.41-7.95c-2.07,0-3.47,0.86-4.57,2.32h-0.06v-8.93
		h-3.98V172.1z M171.34,164.42c0-2.05,0.71-4.87,3.29-4.87c2.55,0,3.56,2.73,3.56,4.87c0,2.17-0.86,4.95-3.5,4.95
		C172.09,169.37,171.34,166.53,171.34,164.42L171.34,164.42z M178.34,172.1h3.86v-22.25h-3.98v8.75h-0.06
		c-1.19-1.45-2.58-2.14-4.57-2.14c-4.69,0-6.41,3.74-6.41,7.95c0,4.18,1.72,8.04,6.41,8.04c1.87,0,3.5-0.59,4.69-2.08h0.06V172.1z
		 M155.12,162.96c0.18-2.05,1.31-3.59,3.53-3.59c2.23,0,3.12,1.66,3.24,3.59H155.12z M164.55,168.01c-1.48,0.83-3.14,1.54-5.07,1.54
		c-2.46,0-4.18-1.4-4.36-3.86h10.56c0-5.34-1.6-9.22-7.27-9.22c-4.74,0-7.09,3.65-7.09,8.07c0,5.01,2.94,7.92,7.98,7.92
		c2.14,0,3.8-0.42,5.25-1.22V168.01z M142.7,167.5c0,3.03,1.72,4.95,4.84,4.95c1.18,0,2.1-0.12,2.94-0.36l-0.12-3.14
		c-0.41,0.26-1.1,0.42-1.81,0.42c-1.51,0-1.87-1.22-1.87-2.52v-7.12h3.53v-2.91h-3.53v-4.33l-3.98,1.28v3.06h-2.94v2.91h2.94V167.5z
		 M133.86,172.1h3.98v-15.28h-3.98V172.1z M133.86,154.04h3.98v-3.8h-3.98V154.04z M116.27,172.1h3.98v-7.48
		c0-1.96,0.62-5.07,3.5-5.07c2.55,0,2.58,2.52,2.58,4.39v8.16h3.98v-9.64c0-3.44-1.57-5.99-5.19-5.99c-2.08,0-3.77,0.68-5.01,2.43
		h-0.06v-2.08h-3.77V172.1z M112.81,156.82h-3.98v7.48c0,1.96-0.62,5.07-3.5,5.07c-2.55,0-2.58-2.52-2.58-4.39v-8.16h-3.98v9.64
		c0,3.44,1.57,5.99,5.19,5.99c2.08,0,3.8-0.95,5.01-2.43h0.06v2.07h3.77V156.82z M84.26,172.1h3.98v-15.28h-3.98V172.1z
		 M84.26,154.04h3.98v-3.8h-3.98V154.04z M76.64,172.1h3.97v-22.25h-3.97V172.1z M59.05,172.1h3.98v-7.48c0-1.96,0.62-5.07,3.5-5.07
		c2.55,0,2.58,2.52,2.58,4.39v8.16h3.98v-9.64c0-3.44-1.57-5.99-5.19-5.99c-2.07,0-3.8,0.95-4.81,2.43h-0.06v-9.05h-3.98V172.1z
		 M46,167.68c0-2.34,2.64-2.64,4.42-2.64h1.72c0,1.19-0.18,2.29-0.83,3.15c-0.62,0.83-1.57,1.37-2.79,1.37
		C47.1,169.55,46,168.99,46,167.68L46,167.68z M46,167.68"/>
	<path fill-rule="evenodd" clip-rule="evenodd" fill="#BD9E55" d="M50.28,142.27c2.12-1.05,4.31-1.94,6.33-3.23
		c0.81-0.24-0.49,2.25-5.42,3.51C50.95,142.61,50.28,142.69,50.28,142.27L50.28,142.27z M55.07,134.01c0.95,0.1,1.86,0.27,2.7,0.57
		c-1.2,0.54-4.14,1.46-5.31,0.69C53.07,134.41,54.04,134.07,55.07,134.01L55.07,134.01z M64.75,130.27
		c0.83-0.33,7.27-3.65,7.34-3.14c0.13,0.89-1.14,1.45-1.81,1.69c-0.68,0.24-5.01,1.84-5.56,1.57L64.75,130.27z M66.83,133.35
		c0.44-0.47,0.76-1.09,1.39-1.38c0.56,0.07,1.02,0.37,1.48,0.67c0.6,0.15,0.93-1.45,1.57-1.18c0.65,0.4,1.41,0.58,1.97,1.11
		c-0.04,0.36-1.2,1.67-1.6,1.54c-0.58-0.19-1.15-0.77-1.77-0.77c-1.47,1.61-1.2,1.27-3.1,0.31
		C66.64,133.57,66.82,133.46,66.83,133.35L66.83,133.35z M88.41,128.16c0.15-0.23,0.32-0.83,0.58-0.45
		c0.12,0.17,2.23,9.63,0.62,10.52c-0.17,0.03-0.11-0.16-0.2-0.24c0-2.67-1.32-7.51-1.41-8.41C88.07,129.07,88.3,128.64,88.41,128.16
		L88.41,128.16z M93.99,135.91c0.32-0.54,0.63-1.12,1.08-1.57c0.45,0.2,0.4-0.2,0.14,0.43c-0.34,0.87-3,4.38,1.93,5.58
		c0.55,0.06,1.02,0.3,1.62,0.28c1.33-0.1,3.21-0.62,4.18-1.52c-0.95-0.48-3.48-0.34-4.05-0.74c-0.2-0.14,0.49-1.64,0.72-1.77
		c0.55-0.32,4.59-0.8,4.11-3.38c-0.2-1.07-1.18-3.95-0.52-4.95c0.34-0.24,0.3-0.67,0.53-1l1.33,7.08c1.52,4.98,14.57,2.65,15.26,2.1
		c0.1-0.08,0.47-4.48,1.09-5.09c0.73-0.73,0.49-0.84,2.31,0.02c1.33,0.83,2.95,1.59,3.74,3.04c0.97,1.27,0.38,4-0.18,4.1
		c-0.81,0.05-1.45-0.39-2.26-0.4c-1.08-0.14-2.25-0.06-3.28-0.3c-0.04-0.1-0.16-0.08-0.23-0.06c-3.47,1.44-15,3.48-17.06-0.87
		c-0.29-0.53-0.35-1.15-0.53-1.73l-1.75,1.92l0,0.07c1.4,0.53,3.26-0.41,1.96,2.15c-1.34,1.42-2.97,2.49-4.79,2.93
		c-3.04,0.88-7.09-0.44-6.2-4.25C93.32,137.25,93.73,136.61,93.99,135.91L93.99,135.91z M96.81,128.83c0.96-0.58-0.03,0.7,0.35,0.83
		c0.64,0.09,0.83-0.64,1.34-0.84c0.22,0.24-0.06,0.7,0.33,0.84c0.51-0.26,0.25-0.89,0.76-1.17c0.77,0.29-1.21,3.34-1.71,1.99
		c0-0.04-0.04-0.07-0.07-0.1c-0.47,0.21-1.03,0.88-1.52,0.3C95.69,129.96,96.29,129.43,96.81,128.83L96.81,128.83z M111.38,128.37
		c0.53-0.44,4.16-0.97,4.37-0.15c0.32,1.29-4.47,3.72-4.58,2.89c-0.04-0.28,6-2.45-0.54-1.38
		C109.82,129.86,111.23,128.55,111.38,128.37L111.38,128.37z M122.13,134.22c0.27-0.04,1.53,0.45,1.35,0.84
		c-0.47,1.03-1.72,0.56-2.31,0.02C121.28,134.66,121.73,134.34,122.13,134.22L122.13,134.22z M124.76,134.43
		c0.81,0.41,1.67,1.08,2.12,1.87l-2.75-0.47C124.32,135.36,124.63,134.93,124.76,134.43L124.76,134.43z M127.91,128.53
		c1.7-1,7.56,3.77,8.05,3.95l4.76-5.43c0.65-0.33,0.67,6.48,0.69,6.84c0.29,4.08-0.94,6.13-0.91,5.53c0.07-1.22-0.15-8.68-0.52-9.82
		c-0.7,0.32-2.55,3.09-3.16,3.77c0.37,0.72,2.18,2.92,0.79,5c-0.98,1.47-5.45,3.14-3.56-2.46c0.12-0.34,0.96-1.6,0.77-1.91
		c-1.38-1.02-2.8-1.94-4.37-2.53c-0.16,0.2-0.11,0.55-0.43,0.63c-1.13,0.23-1.57-0.81-2.28-1.36
		C127.55,130.46,127.76,128.9,127.91,128.53L127.91,128.53z M134.45,127.2c2.57-1.24,2.24,1.32,1.32,0.96
		c-0.14-0.1-0.05-0.34-0.28-0.37c-0.27,0.01-0.68-0.14-0.85,0.11c0.52,1.18,3.12-0.05,3.15,0.32c0.04,0.53-3.22,1.81-3.55,1.52
		c0-0.22,0.18-0.39,0.21-0.61C133.37,128.66,133.58,127.79,134.45,127.2L134.45,127.2z M135.24,135.42c0.22-0.17,0.18-0.47,0.44-0.6
		c0.67,0.52,1.2,1.2,1.6,1.88c0.14,0.43-2.6,1.5-2.74,0.46C134.52,136.47,135.05,136.01,135.24,135.42L135.24,135.42z
		 M145.01,134.72c0.23-0.07,0.31,1.92,1.18,2.41c1.08,0.49,2.17,1.02,3.53,0.78c1.12-0.13,6.52-0.58,6.06-2.45
		c-0.36-1.89-0.58-3.84-0.94-5.71c-0.26-0.68,0.27-1.79,0.63-2.38c0.27-0.04,1.3,6.79,1.4,7.47c0.07,0.84,0.78,1.55,1.51,2.03
		c1.75,0.93,7.89,0.71,9.94-0.31c0.64-1.98,1.82-2.88,0.97,0.04c0.76,0.26,1.58,0.85,2.47,0.47c0.99-0.52-0.12-2.68-0.08-3.52
		c0.01-0.21,0.54-1.89,0.72-1.57c0.73,1.22,0.46,5.2,2.42,5.28c0.4-0.01,0.85-0.02,1.07-0.36l-0.91-6.78
		c-0.25-1.18-0.92-0.6,0.35-2.91c0.31-0.57,0.38,0.91,1.23,1.28c0.67,0.3,1.14-0.1,0.87,0.87c-0.29,0.5-0.4,1.2-1.07,1.41
		c-0.56,1.16,2.17,8.2-1.89,8.65c-0.91,0.1-1.87-0.9-1.98-1.69c-1.11,0.44-0.49,2.42-3.57,0.33c-0.93-0.63,1.04,0.37-4.3,1.21
		c-2.15,0.34-7.17,0.64-8.31-1.46c-0.14-0.31-0.23-0.66-0.32-0.99c-1.77,2.6-4.44,2.98-7.53,3.14c-2.04,0.1-4.36-0.89-3.97-3.22
		C144.61,136.04,144.71,135.32,145.01,134.72L145.01,134.72z M147.62,133.67c0.31-0.06,3.25-0.89,3.12-1.12
		c-0.41-0.7-4.31,0.99-2.7-1.88c1.31-2.34,4.39-3.58,4.53-2.69c0.06,0.36-1.02,2.3-1.51,1.86c-0.1-0.11,0-0.31-0.17-0.36
		c-0.99-0.13-2.57,0.77-0.69,1.22c0.16,0.04,4.1-0.6,0.99,2.49c-1.29,1.28-5.21,1.12-4.56,0.54
		C146.96,133.59,147.28,133.71,147.62,133.67L147.62,133.67z M161.08,133.51c1.11-1.15,1.12-2.07,2.74-0.7
		c0.83,0.69,1.05,0.84-0.8,2.15c-0.7-0.18-1.36-0.91-2-1.26L161.08,133.51z M162.6,130.06c2.32-1.17,4.78-2.04,7.09-3.25
		c1.35,0.97-7.23,4.26-7.65,3.99L162.6,130.06z M169.48,141.51c0.48-0.48,0.71-1.13,1.36-1.48c0.33-0.06,1.8,0.85,1.51,1.25
		c-1.42,1.95-1.28,1.44-2.89,0.38L169.48,141.51z M180.47,128.15c0.57-1.02,0.5,2.32,0.62,3.1c0.05,1.3,0.17,2.47,0.25,3.74
		c0.24,1.12,0.28,2.53-0.55,3.4c-0.4-0.14-0.82-6.38-0.84-7.09C179.93,130.17,179.96,129.06,180.47,128.15L180.47,128.15z
		 M42.97,134.64c0.29-0.56,0.43,0.73,0.51,0.83c1.05,1.21,5.34,0.25,6.25-0.77c0.51-0.57-0.92-3.83-1-4.53
		c-0.03-0.26,0.31-2.66,0.7-1.99c0.63,1.09,0.81,5.98,2.14,6.9c0.8-0.87,1.23-4.53,6.98-2.67c1.55,0.71,3.3,1.27,5.19,0.95
		c0.17,0.17-0.45,1.63-0.73,1.74c-0.75,0.3-3.17,0.14-3.67,0.6c0.01,0.27,0.34,0.42,0.51,0.64c2.1,1.87,13.63,0.52,16.9-0.13
		c2.11-0.42,0.96-1.53,2.2-2.26c0.93-0.55-1.17,2.23,1.2,2.83c0.93,0.23,1.29-0.57,1.8-1.11c-0.09-1.66-0.34-4.91-0.98-6.47
		c-0.18-0.45,0.37-1.87,0.77-2.22c0.34,0.3,0.66,0.72,1.06,1.02c0.31,0.29,1,0.1,1.06,0.62c-0.21,0.62-0.4,1.25-0.93,1.72
		c-0.17-0.03-0.39,0.01-0.39,0.19c0.31,5.18-0.14,4.28,3.3,5.88c1.09,0.51,0.51,0.73,0.33,1.79c-0.18,1.03-1.5,0.02-1.95-0.19
		l-2.23-0.75c-3.79,3.37-2.93-0.62-3.93,0.02c-1.56,1-3.03,1.21-4.83,1.51c-3.42,0.57-9.02,0.79-12.38,0.33
		c-1.05-0.23-2.22-0.99-2.42-2.06l0.08-0.97c-0.21-0.2-5.37,2.01-7.18,1.31c-1.05-0.41-0.82-1.45-1.27-1.8
		c-1.47,2.63-7.19,3.43-7.37,1.53C42.52,136.27,42.74,135.41,42.97,134.64L42.97,134.64z M42.97,134.64"/>
	<path fill-rule="evenodd" clip-rule="evenodd" fill="#BD9E55" d="M217.31,127.26l0.97-0.95l-0.77-0.72l0.89-0.73l-0.77-0.81
		l-0.87,0.7l0.7,0.79l-0.91,0.91L217.31,127.26z M218.93,131.57c0.19,0.02,0.39-0.12,0.39-0.12c0.12-0.15,0.07-0.39,0.07-0.39
		c-0.2-0.42-0.8-0.16-0.8-0.16c-0.35,0.13-0.69,0.33-1.03,0.61l0.19-0.4c0.4-0.58,0.35-1.15,0.35-1.15
		c-0.05-0.26-0.28-0.12-0.28-0.12c-0.4,0.06-0.38,0.35-0.38,0.35c-0.11,0.26,0.12,0.56,0.12,0.56c-0.29,0.76-0.4,1.14-0.33,1.15
		c0.52-0.36,1.12-0.71,1.37-0.77h0.19l0.1,0.05l0.03,0.13l-0.02,0.12L218.93,131.57z M215.74,112.75c0,0,0.56,0.9,0.96,0.57
		c0,0,0.08-0.2-0.07-0.5c-0.15-0.31-0.31-0.5-0.24-0.17c0,0,0.15,0.3,0.01,0.33c0,0-0.24,0.11-0.5-0.29
		c-0.26-0.4-0.63-1.32-0.56-0.8L215.74,112.75z M218.6,120.53l0.16,0.28c0.36-0.15,0.93,0,1.68,0.45
		C219.96,120.55,219.35,120.31,218.6,120.53L218.6,120.53z M214.67,118.55c0.22-0.02,0.52-0.15,0.38-0.26c0,0,0-0.06,0.14-0.03
		c0.14,0.02,0.57,0.07,0.79,0.15c0,0,0.39,0.07,0.18-0.13c-0.2-0.2-0.38-0.54-1.03-1.02c0,0-0.22-0.27,0.13-0.24
		c0,0,0.33-0.07,0.18-0.23c-0.15-0.16-0.12-0.22-0.27-0.18c-0.16,0.04-0.44,0-0.45,0.1c-0.01,0.1-0.06,0.42,0.24,0.64
		c0.3,0.22,0.75,0.64,0.75,0.64s-0.41-0.1-0.68-0.13c-0.27-0.02-0.8,0.04-0.84,0.23C214.15,118.29,214.45,118.58,214.67,118.55
		L214.67,118.55z M212.78,116.88c0.16-0.42,0.5-0.95,0.69-1.21c0.18-0.26,0.15,0.27,0.15,0.27s-0.03,0.83-0.07,1.1
		c-0.05,0.28,0.04,0.31,0.04,0.31c0.88-1.4,0.15-2.34-0.07-2.75c-0.22-0.41-0.48-0.15-0.48-0.15s-0.45,0.62-0.66,1.02
		c-0.22,0.4-0.07,0.58-0.07,0.58L212.78,116.88z M217.48,116.89c-0.35,0.02-0.44-0.35-0.44-0.35c-0.14-0.4-0.04-0.87-0.04-0.87
		c0-0.56,0.68-0.33,0.68-0.33c0.22,0.08,0.42,0.22,0.6,0.43c0.15,0.25,0.06,0.7,0.06,0.7C218.14,116.99,217.48,116.89,217.48,116.89
		L217.48,116.89z M220.05,114.81c0,0,0.43-0.04,0.58,0.12c0,0-0.06,0.27-0.46,0.54c0,0-0.58,0.5-1.27,0.79l-0.62-1.05L220.05,114.81
		z M211.9,118.96l3.48,1.51c0.38,0.68,0.51,1.55,0.39,2.59l0.75,0.68c0.46-0.08,0.91-0.91,1.58-1.78c0.4-0.46,0.68,0.04,0.68,0.04
		c0.27,0.45,0.48,1.16,0.64,2.26c0.36,1.77,0.02,2.88-0.96,3.69c-1.47,1.12-2.92,0.81-3.75-0.21c0.48,0.71,1.18,1.21,2.09,1.49
		c1.91,0.25,3.64-1.09,3.65-2.96c0-1.76-0.4-3.24-1.18-4.44c-0.33-0.35-0.56-0.56-0.71-0.62c-0.5-0.37-0.92-0.39-1.27-0.04
		l-0.64,0.81l-0.13,0.14c-0.1-0.48-0.34-1.01-0.72-1.6l0.95,0.08c1.23,0,1.94-0.93,2.15-2.8c-0.06-0.25,0.21-0.37,0.21-0.37
		l1.83-1.2c0.48-0.46,0.21-0.91,0.21-0.91l-0.69-1.16c-0.34-0.4-0.93-0.44-1.76-0.12c-0.88,0.29-1.36,0.38-1.45,0.27l0.31-0.5
		l-1.78,0.7l0.56,0.83c-0.02,0.41,0.27,0.99,0.27,0.99c0.12,0.3,0.37,0.69,0.77,1.16c0.21,0.25,0.62,0.31,0.62,0.31
		c-0.08,0.52-0.27,1.01-0.79,1.55c-0.64,0.46-1.37,0.5-2.18,0.13l-1.33-0.63l-1.83-0.77l-0.58-0.21c-0.27-0.06-0.16,0.23-0.16,0.23
		L211.9,118.96z M238.55,126.15c-1.59-0.24-3.13-0.53-4.64-0.87c-0.5-0.06-0.75-0.4-0.75-1.01c0.06-0.77,0.57-1.1,1.51-1.02
		c-0.37-0.28-0.82-0.49-1.43-0.81c-0.46-0.16-0.47-1.04-0.17-1.35c0.11-0.17,0.51-0.27,1.2-0.29c-0.19-0.39-1.26-0.62-1.26-0.62
		c-0.62-0.17-1.04-0.43-1.25-0.79c-0.2-0.62-0.01-1.17,0.56-1.66c0.83-0.77,1.89-1.37,1.89-1.37c2.13-1.49,3.47-2.78,4.22-3.67
		l-1.05,0.3l-5.94,4.57c-2.9,0.19-5.11-1.03-5.52-2.29c-0.37-1.13,0-1.97,1.22-2.31l-0.14-0.04c-1.2,0.33-1.84,1.07-2.03,2
		c-0.17,1.39,0.88,2.42,3.17,3.11c1.37,0.39,2.04,0.4,3.09-0.02c-0.42,0.33-0.7,0.86-0.58,1.49c0.1,0.54,0.79,0.97,1.87,1.1
		c-0.32,0.11-0.57,0.35-0.68,0.64c-0.2,0.68,0.23,1.19,1.29,1.51c0.29,0.04,0.21,0.19,0.21,0.19c-0.95,0-1.36,0.48-1.22,1.43
		c0.15,0.5,0.71,0.96,1.66,1.37c0.71,0.32,2.51,0.71,5.41,1.16c0.46,0.08,0.04,0.33,0.04,0.33l-0.62,0.09l0.02,0.1l3.26-0.15
		l-0.85-0.77L238.55,126.15z M220.15,118.94l-0.23-0.27c-0.06-0.21,0.03-0.29,0.27-0.25c0,0,0.31-0.12,0.02-0.35
		c0,0-0.52-0.16-0.64,0.25c0,0-0.06,0.17,0.17,0.41l0.95,1c-0.56-0.13-0.97-0.15-1.22-0.04c0,0-0.5-0.04-0.33,0.27
		c0,0,0.04,0.18,0.37,0.29c0,0,0.43-0.1,0.48-0.35c0.44-0.01,0.82,0.05,1.12,0.16L220.15,118.94z M239.69,130.46l-0.23-0.04
		l-0.21-0.14l-2.34-1.28l-2.94-1.56c-0.84-0.4-1.51-0.82-2.01-1.24l-0.27-0.29c-0.19-0.27-0.16-0.1-0.16-0.1l0.81,1.22
		c0.77,0.81,2.88,1.88,5.31,3.13c0.5,0.35,0,0.35,0,0.35l-0.62,0.04c0.87,0.4,2.43,0.56,2.94,1.01h0.14l-0.29-0.91L239.69,130.46z
		 M234.18,135.86c-0.25,0.01-0.47-0.05-0.64-0.19c0,0,0.21-0.39,0.7-0.31c0,0,0.42-0.06,0.58,0.13
		C234.91,135.58,234.78,135.84,234.18,135.86L234.18,135.86z M225.3,135.8c-1.66,0.43-2.88,0.54-3.13,0.31
		c0.13-0.87,0.16-1.31,0.17-1.62l0.08-0.33c0.19-0.67,1.08-1.04,2.2-0.68c0.44,0.13,1.14,0.54,2.1,1.22l0.73,0.37L225.3,135.8z
		 M231.96,130.97l-0.23-0.02l-0.17-0.02l-0.1-0.06l0.04-0.17l0.1-0.12l0.14-0.1h0.15l0.12,0.04l0.08,0.14l0.04,0.16l0.04,0.19
		L231.96,130.97z M234.07,134.25c0,0-0.81,0.12-1.18,0.77c0,0-0.57-0.75-1.23-1.65c0.35-0.72,0.52-1.47,0.64-1.94l0.23,0.04
		l0.12,0.08l0.08,0.1l0.08-0.04v-0.19l-0.04-0.23l-0.23-0.12l-0.23-0.06c0-0.6-0.27-0.83-0.27-0.83c-0.14-0.23-0.41,0.04-0.41,0.04
		l-0.15,0.12l-0.16,0.35c-0.17,0.66,0.58,0.62,0.58,0.62c0.33-0.06,0.17,0.44,0.17,0.44c-0.07,0.32-0.17,0.95-0.45,1.56
		c-0.56-0.76-1.17-1.63-1.56-2.24l-0.27-0.37l-0.06-0.12v-0.1h0.14l0.23,0.12l0.25,0.04l0.23-0.02l-0.75-0.72l-0.31-0.23l-0.56-0.41
		l-0.5-0.31l-0.04,1.04l0.19,0.19l0.25,0.16l0.35,0.5l0.75,1.18l0.72,1.08l0.58,0.91l0.02,0.03c-0.14,0.28-0.29,0.59-0.46,0.92
		c0.17-0.32,0.33-0.62,0.48-0.9l1.08,1.52c0,0-0.5,0.58-0.64,0.95c0,0-0.83,1.14-1.66,0.25l-0.19-0.23
		c-0.14-0.17,0.03-0.55,0.08-0.71c0.05-0.16,0-0.19,0-0.19c-0.29-0.2-0.85,0.73-0.85,0.73l-0.14,0.27
		c-0.36,0.72-0.75,1.19-1.37,1.36c-1.08,0.05-1.56-0.48-1.43-1.6l-0.03,0c0.25-0.1,0.51-0.21,0.75-0.33
		c0.73-0.34,1.56-0.5,2.49-0.47c0.73-0.77,0.62-1,0.62-1c-1.31,0.04-3.13-1.06-3.13-1.06l-0.65-0.41l-0.68-0.41
		c-0.87-0.54-1.7-0.27-1.7-0.27c-1.2,0.48-1.6,1.22-1.6,1.22c-0.31,0.38-0.51,1-0.6,1.87l-0.06,0.39c-0.64,0.02-1.06-0.37-1.27-1.35
		c0.03,0,0.06-0.01,0.09-0.02l0.79-0.69c0.83-0.72,0.95-1.47,0.44-2.67c-0.37-0.65-0.55-1.41-0.54-2.28l0.56,0.42l-0.56-1.41
		l-0.04-0.23l-0.1-0.1l-0.72,0.73v0.81c-0.04,0.79,0.17,1.93,0.6,2.84c0.31,0.79,0.29,1.53,0.29,1.53c0.02,0.47-0.64,0.52-1.99,0.14
		c-2.44-0.52-3.96-0.96-4.56-1.32c-1.07-0.74-0.41-2.05,1.91-2.67l0.02-0.12c-1.64,0.36-2.72,0.95-3.22,1.78
		c-0.37,0.83-0.37,1.6,0.71,2.01c0.22,0.14,1.26,0.44,3.11,0.91c1.4,0.35,2.34,0.49,3.16,0.36l-0.03,0.06
		c-0.75,1.7-0.19,2.8,3.03,2.59c0.95-0.17,1.85-0.43,2.71-0.76l-0.05,0.1c-0.35,1.35-0.13,2.21,0.69,2.59
		c0.95,0.28,1.7-0.09,2.24-1.1l0.54-0.83c0,0,0.31-0.47,0.42-0.04c0.19,0.83,0.72,1.35,1.66,1.01c0.48-0.27,0.61-0.52,0.93-0.97
		l0.6-0.85c0.46,0.62,1.04,0.81,1.53,0.7c0,0,0.69-0.08,0.64-1.22l-0.13-0.97C235.04,134.89,234.92,134.06,234.07,134.25
		L234.07,134.25z M238.47,128.82c0.04,0.15,0.2,0.35,0.87,0.57l-0.05-0.11c0,0-0.92-0.44-0.27-0.5c0,0,0.25-0.09,0.63,0.09
		l1.23,0.52c-0.63-0.44-1.3-0.74-1.66-0.85C239.23,128.53,238.54,128.31,238.47,128.82L238.47,128.82z M231.49,122.24l-1.09-0.23
		l-0.31,1.16l1.13,0.31L231.49,122.24z M221.52,137.88l-0.15,0.02l-0.25,0.33l3.3-0.12c0.27-0.12,0.31-0.37,0.31-0.37l-0.89,0.02
		L221.52,137.88z M214.99,127.7c0,0,0.68-0.21,0.06-0.87c0,0-1.18-1.01-1.54-0.79l0.04,0.12c0,0,0.63,0.79,0.02,0.87
		c0,0-0.52,0-0.96-0.31c-1.24-0.96-2.04-1.64-2.4-2.05c0,0-0.31-0.1-0.21,0.19l0.33,0.35c0.48,0.5,1.43,1.47,2.9,2.24
		C213.25,127.45,213.85,127.83,214.99,127.7L214.99,127.7z M213.33,129.82c-0.08,0.21,0.37,0.16,0.37,0.16
		c0.6-0.25,0.29-0.77,0.29-0.77c-0.16-0.25-0.97-0.17-0.97-0.17l-0.7,0.02c0.37-0.21,0.73-0.51,1.08-0.91
		c0.25-0.31-0.25-0.27-0.25-0.27h-0.37c-0.41-0.04-0.29,0.31-0.29,0.31c0.08,0.23-0.16,0.46-0.16,0.46l-0.68,0.37
		c-0.4,0.17,0.27,0.27,0.27,0.27l1.39-0.02C213.74,129.26,213.33,129.82,213.33,129.82L213.33,129.82z M236.35,132.16l-3.61-2.96
		c0,0-0.39-0.27-0.21-0.44l0.71-0.02l-0.06-0.15l-0.85-0.39l-1.82-0.7l0.29,1.02l0.08,0.1l0.16-0.02l0.27,0.17l0.5,0.42l1.68,1.45
		l1.22,1.04l1.31,1.03c0,0,1.6,1.28,1.78,1.82C237.83,133.77,237.32,132.99,236.35,132.16L236.35,132.16z M218.28,135.64l0.39-0.12
		c0.25-0.21-0.08-0.43-0.08-0.43c-0.31-0.27-0.75-0.17-0.75-0.17c-0.29,0-0.33,0.23-0.33,0.23c0.43-0.04,0.67,0.04,0.75,0.25
		l-0.08,0.06c-0.4,0-0.77,0.16-0.77,0.16c-0.46,0.14-0.5,0.75-0.12,0.93c0.61,0.39,1.32,0.48,2.11,0.27
		c-0.92-0.16-1.5-0.36-1.72-0.6C217.24,135.64,218.28,135.64,218.28,135.64L218.28,135.64z M210.86,123.64
		c0.39-0.1,0.42-0.29,0.42-0.29l-0.23-0.1c-0.19-0.17,0.2-0.17,0.2-0.17c0.19-0.04,0.49-0.02,0.9,0.06l0.06-0.11l-0.06,0.21
		l0.06,0.19l0.16,0.2l0.12,0.17l0.15,0.06l0.15-0.04l-0.08-0.19l-0.17-0.16c0.08-0.44,0.4-0.33,0.4-0.33c-0.1,0.21,0,0.89,0,0.89
		c0.25,0.58,0.52,0.68,1.6,0.7c1.03-0.01,1.73,0.11,2.11,0.37l0.04-0.1c-0.66-0.7-2.51-0.6-2.51-0.6c-1.18-0.1-0.79-1.02-0.79-1.02
		c0.23-0.93-0.21-0.83-0.21-0.83l-0.23,0.02l-0.27,0.08l-0.21,0.08l-0.23,0.2c-0.18-0.39-0.99-0.69-0.99-0.69
		c-0.54-0.27-0.7-0.66-0.33-0.74l0.14-0.1c0-0.47-0.52-0.35-0.52-0.35c-0.66,0.41,0,0.97,0,0.97l0.35,0.31l0.6,0.41h-0.7
		c-0.67-0.06-0.73,0.4-0.73,0.4C210.18,123.74,210.86,123.64,210.86,123.64L210.86,123.64z M237.99,116.08v0.08
		c0.62,0.84,1.3,1.33,2.03,1.47c0.26,0.05,0.51,0.06,0.73,0.04c0,0,0.04-0.93-0.71-1.82c0,0-0.25-0.12-0.96-0.21
		c0.43,0.7,0.62,1.25,0.56,1.64L237.99,116.08z M235.31,112.39c0.04-0.18,0.58-0.35,1.57-0.6c-0.99,0-1.6,0.25-1.93,0.6
		c-0.35,0.53-0.15,0.66,0.6,0.56l0.13-0.19h-0.52C235.13,112.51,235.31,112.39,235.31,112.39L235.31,112.39z M234.42,110.07
		l0.21,0.04c0.41,0.1,0.06,0.52,0.06,0.52l-0.35,0.1l-0.15-0.5C234.21,110.17,234.29,110.12,234.42,110.07L234.42,110.07z
		 M228.78,114.4l1.18-3.08c0.76,0.2,2.12,0.12,4.08-0.25l0.21,0.5l0.31-0.1l-0.15-0.64c0.56-0.04,0.79-0.29,0.83-0.73
		c-0.12-0.28-0.44-0.34-0.96-0.19c0,0-0.44,0.12-0.41,0.5l0.12,0.5c-1.08,0.24-2.15,0.41-4.04,0.41l0.25-0.64
		c0,0,0.08-0.46,0.33-0.23l0.21,0.48l0.32-2.68c0,0-0.57,0.31-0.88,0.89c-0.21,0.38-0.49,0.99-0.85,1.84c-1,3.01-1.7,4.62-2.2,5.03
		C228.01,115.62,228.56,115.09,228.78,114.4L228.78,114.4z M237.78,123.29c-0.16-0.15-0.73-0.14-1.58-0.13l0.79-0.52
		c0.46-0.37,0.63-0.72,0.63-0.72c-0.6-0.21-0.73,0.04-0.73,0.04c-0.21-0.02-0.08,0.48-0.08,0.48l-0.85,0.56l-0.21,0.13v0.1
		l1.66,0.13c0.33-0.03,0.48,0.37,0.1,0.72C238.24,124.22,238.22,123.35,237.78,123.29L237.78,123.29z M222.49,130.5l0.77-0.89
		l0.23-0.29l0.12-0.02l0.14,0.06l0.04,0.12l0.02,0.15l0.1,0.04l0.06-0.04l0.08-0.17l0.02-0.2l-0.04-0.21
		c-0.33-0.35-0.62,0.13-0.62,0.13l-0.77,0.91c0.09-0.56,0.09-1.03,0.02-1.37c-0.23-0.44-0.5,0.02-0.5,0.02
		c-0.23,0.14-0.04,0.35-0.04,0.35l0.1,0.06l0.12,0.1l0.1,0.06l0.02,0.14l-0.08,0.93L222.49,130.5z M234.55,118.2l-0.08,1.1l1.11,0.2
		l0.18-1.26L234.55,118.2z M240.18,125.42c-0.99-3.68-1.87-6.29-2.51-7.77c-0.37-1.03-0.88-1.23-1.54-0.6c0,0,0.25,0.25,0.48,0.08
		c0,0,0.19-0.41,0.44-0.06c0.95,1.68,2.05,5.37,2.9,8.31L240.18,125.42z M232.51,112.93l0.48,0.02c0,0,0.83-0.4,0.97-0.38
		c0,0-0.56-0.23-1.47,0.04c0,0-1,0.25-1.25,0.75c0,0-0.1,0.35,0.27,0.47l0.58,0.33c0,0,0.21,0.23-0.08,0.33
		c-0.41,0.13-1.15,0.02-2.36-0.33l-0.02,0.1c0.75,0.61,1.43,0.8,2.03,0.56l1.64-0.83l-0.83-0.58
		C232.47,113.43,232.1,113.07,232.51,112.93L232.51,112.93z M240.72,119.86l-0.85,0.56l-0.19,0.1v0.1l1.64,0.15
		c0.33-0.03,0.47,0.37,0.1,0.73c0.73,0.14,0.7-0.73,0.27-0.79c-0.16-0.15-0.73-0.13-1.58-0.12l0.79-0.52
		c0.46-0.37,0.62-0.72,0.62-0.72c-0.6-0.21-0.73,0.04-0.73,0.04C240.6,119.36,240.72,119.86,240.72,119.86L240.72,119.86z
		 M223.91,115.39l0.27,0.29c0,0,0.44,0.35,0.17,0.72c0,0-0.37,0.44-0.97,0.85c0,0-0.64,0.29-0.75-0.27
		c-0.06-0.53,0.24-1.16,0.89-1.89L223.91,115.39z M217.39,111.48c0.08,0.03,0.17,0.02,0.17,0.02c1.49,1.62,4.23,2.77,4.23,2.77
		l1.3,0.66c-0.56,0.6-0.64,1.29-0.64,1.29c-0.12,0.72-0.14,1.28-0.06,1.68c0.25,0.83,0.97,0.44,0.97,0.44
		c0.89-0.35,1.24-1.32,1.24-1.32c0.07-0.42,0.1-0.89,0.08-1.41c-0.1-0.77-0.73-1.2-0.73-1.2c1.45-1.72,3.03-3.54,4.35-5.59
		l0.26-1.27c-0.54,0.91-1.6,2.32-3.14,4.2l-1.9,2.25c-0.33-0.33-2.07-0.93-2.07-0.93c-1.24-0.5-2.32-1.31-2.32-1.31l-0.25-0.23
		l0.85-0.06c0,0-0.87-0.6-1.64-0.84c-0.77-0.24-1.06-0.48-1.04-0.25c0.02,0.23,0.17,0.96,0.17,0.96S217.31,111.45,217.39,111.48
		L217.39,111.48z M225.11,129.61l-0.02,0.72c0,0-0.31,0.29-0.44-0.04l0.02-0.17l0.06-0.68h-0.17l-0.02,0.25v0.21l-0.04,0.31
		l-0.02,0.29c0,0.3,0.14,0.38,0.44,0.23l0.1-0.12l0.12,0.1l0.17,0.12l0.19-0.04l0.1-0.1l0.08-0.19l0.02-0.97l-0.15,0.16l-0.02,0.62
		c0,0-0.08,0.25-0.31,0.06l0.04-0.81L225.11,129.61z M226.8,129.66l0.35-0.08l0.31-0.1l0.21-0.06l0.14-0.13v-0.06l-0.31,0.08
		l-0.46,0.1l-0.27,0.08l-0.29,0.06h-0.27l-0.08,0.25l0.35-0.08L226.8,129.66z M241.29,125.3c-0.52,0.04-0.37-0.7-0.37-0.7
		c0.22-0.1,0.49-0.04,0.81,0.19L241.29,125.3z M241.67,124.6l-0.33-0.16c-0.5-0.17-0.7,0-0.7,0c-0.14,0.41-0.03,0.73,0.35,0.95
		c0.37,0.27,0.6,0.06,0.6,0.06l0.35-0.37l0.06-0.02l0.21-0.06L241.67,124.6z M220.36,110.92l-0.02-0.45
		c-0.43-0.35,0.17-0.54,0.17-0.54c1.8-0.97,4.81-2.07,4.81-2.07l0.12-0.31c-1.06,0.33-3.35,1.32-5.12,2.16
		C219.74,109.99,219.76,110.52,220.36,110.92L220.36,110.92z M223.55,111.37l0.21-0.37l-0.67,0.33c0,0-0.68,0.35-0.85-0.15
		c0,0,0.08-0.46,0.35-0.39c0,0,0.25-0.04,0.33,0.27c0,0,0.16-0.31,0.04-0.62c0,0-0.27-0.27-0.6,0.13l-0.33,0.56
		c0,0-0.25,0.41,0.12,0.52l0.13,0.02l-0.19,0.52L223.55,111.37z M226.66,132.16l0.64-0.58l0.85,0.83l0.76-0.9l-1.01-0.87l-0.52,0.71
		l-1.06-0.94l-0.65,0.87L226.66,132.16z M226.08,109.57c0,0,0.21-0.1,0.37-0.37c0,0,0.16-0.39-0.1-0.62l-0.29-0.19l-0.17,0.27
		l0.21,0.19c0,0,0.35,0.33-0.06,0.47c0,0-0.5,0.13-0.41-0.27c0-0.45,0.17-0.83,0.5-1.14c0,0-0.81,0.52-0.73,1.45
		C225.4,109.37,225.4,109.96,226.08,109.57L226.08,109.57z M226.08,109.57"/>
</g>
</svg>
