<?xml version="1.0" encoding="utf-8"?>
<!-- Generator: Adobe Illustrator 24.2.0, SVG Export Plug-In . SVG Version: 6.00 Build 0)  -->
<svg version="1.1" id="Layer_1" xmlns="http://www.w3.org/2000/svg" xmlns:xlink="http://www.w3.org/1999/xlink" x="0px" y="0px"
	 viewBox="0 0 1000 1000" style="enable-background:new 0 0 1000 1000;" xml:space="preserve">
<style type="text/css">
	.st0{fill-rule:evenodd;clip-rule:evenodd;fill:#CD202A;}
</style>
<g>
	<path class="st0" d="M789.9,669.5V506.7h-95v162.7L789.9,669.5L789.9,669.5z M789.9,493.3h-95V330.5h95V493.3z M912.1,506.8
		c12.5,17.8,20.3,39.2,20.3,60.9c0,56-45.8,101.7-101.7,101.7h-27.1V506.7L912.1,506.8L912.1,506.8z M803.5,493.3l96.4,0.2
		c-8.6-8-20.4-15.9-31.8-20.1c23.5-13.7,38.8-39.2,38.8-66.7c0-41.7-34.6-76.3-76.3-76.3h-27.1L803.5,493.3L803.5,493.3z
		 M525.3,669.5h-94.8V506.7h94.8V669.5L525.3,669.5z M525.3,493.3h-94.8V330.5h94.8V493.3z M538.9,669.5V506.7l108.6,0.1
		c12.5,17.8,20.3,39.2,20.3,60.9c0,56-45.8,101.7-101.7,101.7H538.9L538.9,669.5z M538.9,493.3V330.5h27.1
		c41.7,0,76.4,34.6,76.4,76.3c0,27.5-15.4,53-38.9,66.7c11.4,4.2,23.2,12,31.8,20.1L538.9,493.3L538.9,493.3z M230.5,493.3H129.4
		l56.9-162.7h44.2V493.3z M345.1,493.3l-57-162.7h-44v162.7L345.1,493.3L345.1,493.3L345.1,493.3z M406.8,669.5H322l-23.7-67.7
		h-54.3v-95h105.8L406.8,669.5L406.8,669.5z M67.6,669.5h84.8l23.8-67.7h54.3v-95H124.7L67.6,669.5L67.6,669.5z"/>
</g>
</svg>
