<?xml version="1.0" encoding="utf-8"?>
<!-- Generator: Adobe Illustrator 23.0.1, SVG Export Plug-In . SVG Version: 6.00 Build 0)  -->
<svg version="1.1" id="Layer_1" xmlns="http://www.w3.org/2000/svg" xmlns:xlink="http://www.w3.org/1999/xlink" x="0px" y="0px"
	 viewBox="0 0 1000 1000" style="enable-background:new 0 0 1000 1000;" xml:space="preserve">
<style type="text/css">
	.st0{fill:#0F3A97;}
	.st1{fill:#FFFFFF;}
	.st2{fill:#F7410A;}
	.st3{fill:#EE293D;}
</style>
<path class="st0" d="M915.3,500c0,227.6-187.5,414.9-415.3,414.9C272.2,914.9,84.7,727.6,84.7,500C84.7,272.4,267.8,85.1,500,85.1
	C723.4,85.1,915.3,272.4,915.3,500"/>
<path class="st1" d="M583.7,735.4c177.4,73,146.7-111.5,52.1-252.7c-53.6-80-123.5-146.7-167.6-178.9
	c-146.2-106.7-236.5-42-133.2,168.5c33.4,68,76.3,114,109.7,157.3c25.6,33,75.4,49.6,57.8,65.3c-19.8,17.7-67.7-60.3-67.7-60.3
	c-35.4-42.6-69.1-88.2-103.8-150.6c-79.4-142.6-67.9-288.2,75.7-224.8C528.7,313,645.1,464,692,571.3
	c21.6,49.5,80.6,245.5-107.2,166.2"/>
<path class="st2" d="M1.4,747.5c78.1-52,152.1-85.6,278-127.2c177-58.5,310.2-97.8,473.6-179.9c73.2-36.8,200.1-119.2,245.5-190.9
	c-13.6,27.7-55.7,81.7-74.7,105.6C702.1,632.9,229.7,617.1,4.5,750.4"/>
<path class="st1" d="M144,461.1c71.4,0.6,64.4-0.1,65.3,0.7c1.2,0,57,96.1,57,96.9c0,0.4-0.4-34.2-0.4-77.4c0-5-13.7-19.5-13.3-19.5
	c20.4,0,47,0.4,47,0.4c-10,11.6-12,10.7-12.1,17.9c-0.3,23.1-0.5,65.9,0,114c0.1,7.2,5.4,10,14.2,22.5h-65.4
	c-21.2-35.4-60.1-101.7-60-101.5c0.3,0.3-0.8,41.6,0.4,74.9c0.4,11,5.4,14.6,14.6,24.5c0,0,10.5-0.3-51.2,0.4
	c18.7-10,16.2-22.5,16.2-22.9c-0.7-46-0.1-85.3-0.1-110.6c0-4.2-0.3-3.7-13.2-19.6 M367.4,532.1c6-20.8,11.1-39.4,13.6-51.6
	c0.4-2.1-4.6-9.6-12.5-17.1l-0.6-1.2c38.1,0.1,78,0.3,78,0.3c10.4,25.4,34.1,96.5,52,140.2c4.7,11.5,12.9,13.7,12.9,13.7
	c-32.5-0.4-92.7-0.1-92.4-0.4c16.2-14.6,14.2-14.6,7.1-35.8h-50.8c-10.4,24.1,3.2,35.4,5,35.4c-11.6,0.6-50.8,0-50.8,0
	c21.2-15,20-19.6,20-19.6C354.8,575.4,361.5,552.7,367.4,532.1l20.8,0l-9,28.7h40.4l-22.5-57.4l-9,28.7L367.4,532.1 M716.4,534.2
	c6-20.8,11.1-39.4,13.5-51.6c0.4-2.1-4.6-9.6-12.5-17.1l-0.6-1.2c38.2,0.1,78,0.3,78,0.3c10.4,25.4,34.1,96.5,52,140.2
	c4.7,11.5,12.9,13.7,12.9,13.7c-32.5-0.4-92.7-0.1-92.4-0.4c16.2-14.6,14.2-14.6,7.1-35.8h-50.8c-10.4,24.1,3.2,35.4,5,35.4
	c-11.5,0.6-50.8,0-50.8,0c21.2-15,20-19.6,20-19.6C703.7,577.5,710.4,554.8,716.4,534.2l20.8,0c-4.5,14.4-8.9,28.7-8.9,28.7h40.4
	l-22.5-57.4c0,0-4.5,14.3-8.9,28.7L716.4,534.2 M650.7,500.1c-0.8-29.6,0-39.1,0-39.1c-12.9,10.4-6.4,9.1-38.7,3.7
	c-93.1-15.4-100.2,71.6-49.5,91.1c42.5,16.4,57.6,19.6,51.2,34.9c-2.1,5-40.8,23.3-80.8-13.7l0.8,51.6c5-5.1,18.7-14.6,18.7-14.6
	c0.4,0,43.3,18.9,82-0.8c59.5-30.4,29.8-79.5-33.7-99c-52.9-16.2-2.9-54.1,49.5-13.7 M494.8,163.8c0,1.9-1.5,3.4-3.4,3.4
	c-1.9,0-3.4-1.5-3.4-3.4c0-1.8,1.5-3.4,3.4-3.4C493.2,160.5,494.7,162,494.8,163.8 M518.2,215.1c0,2.3-1.9,4.2-4.2,4.2
	c-2.3,0-4.2-1.9-4.2-4.2c0-2.3,1.9-4.2,4.2-4.2C516.3,210.9,518.2,212.8,518.2,215.1 M579.1,298.8c0,2.3-1.9,4.2-4.2,4.2
	c-2.3,0-4.1-1.9-4.2-4.2c0-2.3,1.7-4.2,4-4.2C577.1,294.6,579.1,296.5,579.1,298.8 M481.2,243.9c0,1.9-1.5,3.4-3.4,3.4
	c-1.9,0-3.4-1.5-3.4-3.4c0-1.8,1.5-3.4,3.4-3.4C479.7,240.5,481.2,242.1,481.2,243.9 M517.7,263.2c0,1.9-1.5,3.4-3.4,3.4
	c-1.9,0-3.4-1.5-3.4-3.4c0-1.8,1.5-3.4,3.4-3.4C516.2,259.8,517.7,261.3,517.7,263.2 M470.3,209.3c0,2.3-1.9,4.2-4.2,4.2
	s-4.2-1.9-4.2-4.2c0-2.3,1.9-4.2,4.2-4.2S470.3,207.1,470.3,209.3 M415.2,242.9c0,1.9-1.5,3.4-3.4,3.4c-1.9,0-3.4-1.5-3.4-3.4
	c0-1.8,1.5-3.4,3.4-3.4C413.6,239.5,415.1,241,415.2,242.9 M425,249.6c0,1.9-1.5,3.4-3.4,3.4c-1.9,0-3.4-1.5-3.4-3.4
	c0.1-1.9,1.7-3.3,3.5-3.2C423.5,246.5,424.9,247.9,425,249.6 M434.9,256.4c0,1.9-1.5,3.4-3.4,3.4c-1.9,0-3.4-1.5-3.4-3.4
	c0-1.8,1.5-3.4,3.4-3.4C433.4,253,434.9,254.5,434.9,256.4 M419.8,269.4c0,1.9-1.5,3.4-3.4,3.4c-1.9,0-3.4-1.5-3.4-3.4
	c0-1.8,1.5-3.4,3.4-3.4C418.3,266,419.8,267.5,419.8,269.4 M341.2,324.5c0,1.9-1.5,3.4-3.4,3.4c-1.9,0-3.4-1.5-3.4-3.4
	s1.5-3.4,3.4-3.4S341.2,322.7,341.2,324.5 M355.8,342.2c0,1.9-1.5,3.4-3.4,3.4c-1.9,0-3.4-1.5-3.4-3.4c0-1.9,1.5-3.4,3.4-3.4
	C354.3,338.8,355.8,340.3,355.8,342.2 M344.2,627.6c0,1.9-1.5,3.4-3.4,3.4c-1.9,0-3.4-1.5-3.4-3.4s1.5-3.4,3.4-3.4
	C342.7,624.3,344.2,625.8,344.2,627.6 M346.3,706.4c0,2.3-1.9,4.2-4.2,4.2c-2.3,0-4.2-1.9-4.2-4.2c0-2.3,1.9-4.2,4.2-4.2
	C344.4,702.3,346.3,704.1,346.3,706.4 M301.5,746.7c0,1.9-1.5,3.4-3.4,3.4c-1.9,0-3.4-1.5-3.4-3.4c0-1.9,1.5-3.4,3.4-3.4
	C300,743.3,301.5,744.9,301.5,746.7 M247.9,763.1c0,2.3-1.9,4.2-4.2,4.2c-2.3,0-4.2-1.9-4.2-4.2c0-2.3,1.9-4.2,4.2-4.2
	C246.1,758.9,247.9,760.8,247.9,763.1 M237,726.7c0,2.3-1.9,4.2-4.2,4.2c-2.3,0-4.1-1.9-4.2-4.2c0-2.3,1.9-4.2,4.2-4.2
	C235.1,722.5,237,724.4,237,726.7 M230.8,749.8c0,1.9-1.5,3.4-3.4,3.4s-3.4-1.5-3.4-3.4c0-1.8,1.5-3.4,3.4-3.4
	S230.8,748,230.8,749.8 M190.7,730.6c0,1.9-1.5,3.4-3.4,3.4c-1.9,0-3.4-1.5-3.4-3.4c0-1.8,1.5-3.4,3.4-3.4
	C189.1,727.2,190.7,728.7,190.7,730.6 M330.7,795.6c0,1.9-1.4,3.4-3.2,3.4c-1.9,0-3.5-1.5-3.5-3.4c0-1.8,1.5-3.4,3.4-3.4
	C329.2,792.2,330.7,793.7,330.7,795.6 M372.9,764.7c0,2.3-1.7,4.2-4,4.2c-2.3,0-4.3-1.9-4.3-4.2c0-2.3,1.9-4.2,4.2-4.2
	C371,760.5,372.8,762.4,372.9,764.7 M377.7,804.4c0,1.9-1.7,3.4-3.5,3.4c-1.9,0-3.4-1.5-3.4-3.4c0-1.8,1.5-3.4,3.4-3.4
	C376,801,377.7,802.6,377.7,804.4 M551,766.5c0,1.9-1.5,3.4-3.4,3.4c-1.9,0-3.4-1.5-3.4-3.4c0-1.9,1.5-3.4,3.4-3.4
	C549.4,763.1,551,764.6,551,766.5 M470.3,795.1c0,1.9-1.5,3.4-3.4,3.4c-1.9,0-3.4-1.5-3.4-3.4c0-1.8,1.5-3.4,3.4-3.4
	C468.8,791.7,470.3,793.2,470.3,795.1 M687.3,836.2c0,1.9-1.5,3.4-3.4,3.4c-1.9,0-3.4-1.5-3.4-3.4c0-1.8,1.5-3.4,3.4-3.4
	C685.8,832.8,687.3,834.3,687.3,836.2 M705,676.3c0,2.3-1.9,4.2-4.2,4.2c-2.3,0-4.2-1.9-4.2-4.2c0-2.3,1.9-4.2,4.2-4.2
	C703.2,672.1,705,674,705,676.3 M671.7,698.9c0,1.9-1.5,3.4-3.4,3.4c-1.8,0-3.4-1.5-3.4-3.4s1.5-3.4,3.4-3.4
	C670.2,695.5,671.7,697,671.7,698.9 M704.5,705.4c0,2.3-1.9,4.2-4.2,4.2c-2.3,0-4.2-1.9-4.2-4.2c0-2.3,1.9-4.2,4.2-4.2
	C702.7,701.2,704.5,703.1,704.5,705.4 M671.7,745.7c0,1.9-1.5,3.4-3.4,3.4c-1.9,0-3.4-1.5-3.4-3.4c0-1.9,1.5-3.4,3.4-3.4
	C670.2,742.3,671.7,743.8,671.7,745.7 M756.6,653.6c0,1.8-1.5,3.4-3.4,3.4c-1.9,0-3.4-1.5-3.4-3.4c0-1.9,1.5-3.4,3.4-3.4
	C755,650.3,756.6,651.8,756.6,653.6 M764.8,674.2c0,2.3-1.7,4.2-4,4.2c-2.3,0-4.3-1.9-4.3-4.2c0-2.3,1.9-4.2,4.2-4.2
	C762.9,670,764.8,671.9,764.8,674.2 M823.2,698.6c0,2.3-1.9,4.2-4.2,4.2c-2.3,0-4.2-1.9-4.2-4.2c0-2.3,1.9-4.2,4.2-4.2
	C821.3,694.5,823.2,696.3,823.2,698.6 M763.8,742c0,1.9-1.5,3.4-3.4,3.4c-1.9,0-3.4-1.5-3.4-3.4c0-1.9,1.5-3.4,3.4-3.4
	S763.8,740.2,763.8,742 M801.3,706.7c0,1.9-1.5,3.4-3.4,3.4c-1.9,0-3.4-1.5-3.4-3.4c0-1.8,1.5-3.4,3.4-3.4
	C799.8,703.3,801.3,704.8,801.3,706.7 M794.4,761.3c0,1.9-1.5,3.4-3.4,3.4c-1.9,0-3.4-1.5-3.4-3.4c0-1.8,1.5-3.4,3.4-3.4
	C792.9,757.9,794.4,759.4,794.4,761.3 M810.3,670.5c0,2.9-2.4,5.2-5.2,5.2c-2.9,0-5.2-2.3-5.2-5.2c0-2.9,2.3-5.2,5.2-5.2
	C807.9,665.4,810.3,667.7,810.3,670.5"/>
<path class="st1" d="M512.9,444.2l-1.5,14.3l-14.2,1.6l14.3,1.5l1.6,14.8l1.6-14.8l14-1.8l-14.2-1.3L512.9,444.2 M481.7,550.5
	c0,2.9-2.3,5.2-5.2,5.2c-2.9,0-5.2-2.3-5.2-5.2c0-2.9,2.4-5.2,5.2-5.2C479.4,545.4,481.7,547.7,481.7,550.5"/>
<path class="st1" d="M688.9,693.3l-1.6,14.3l-14.2,1.6l14.3,1.6l1.6,14.8l1.6-14.8l14-1.8l-14.2-1.3L688.9,693.3 M305.8,279.7
	c0,2.9-2.3,5.2-5.2,5.2c-2.9,0-5.2-2.3-5.2-5.2c0-2.9,2.3-5.2,5.2-5.2C303.5,274.5,305.8,276.8,305.8,279.7"/>
<path class="st1" d="M408.5,541.5l-1.6,14.3l-14.2,1.6l14.3,1.5l1.6,14.8l1.6-14.8l14.1-1.8l-14.2-1.3L408.5,541.5 M607.3,431.5
	c0,2.9-2.4,5.2-5.2,5.2c-2.9,0-5.2-2.3-5.2-5.2c0-2.9,2.3-5.2,5.2-5.2S607.3,428.7,607.3,431.5"/>
<path class="st1" d="M612.4,170.2l-1.5,14.3l-14.2,1.6l14.3,1.6l1.5,14.8l1.6-14.8l14-1.8l-14.2-1.3L612.4,170.2 M382.2,824.6
	c0,2.9-2.3,5.2-5.2,5.2c-2.9,0-5.2-2.3-5.2-5.2c0-2.8,2.3-5.2,5.2-5.2C379.9,819.4,382.2,821.7,382.2,824.6"/>
<path class="st1" d="M500,483.9l-1.6,14.3l-14.2,1.6l14.3,1.6l1.6,14.8l1.6-14.8l14.1-1.8l-14.2-1.3L500,483.9"/>
<path class="st2" d="M942.2,129.6c-63.3,187.8-316.9,332.8-530.3,471.2C283.1,684.4,155.3,780.5,67.3,862.3
	c-23.2,21.6,4.7-8.1-4.2,1c122.8-141.4,264.1-225.7,342.2-278.7c132-89.7,207.1-112.3,435-322.1"/>
<path class="st3" d="M466.6,358.9c-22.7,11.1-43.1,22.1-60.4,32.8l10.5,3.8c15.1-9.3,33.2-19,52.4-27.6 M586.6,569
	c-21.6,18.9-42.9,38.1-63.8,57.8l-1,14.3c19.7-20.3,44-42.3,71.9-65.5"/>
<path class="st1" d="M521.3,727.8c177.4,73,146.7-111.5,52.1-252.7c-53.6-80-119.7-143.5-167.6-178.9
	c-55.9-41.3-61.4-44.7-61.4-44.7c124.9,59.3,238.4,204.9,285.2,312.1c21.6,49.5,80.6,245.5-107.2,166.2"/>
</svg>
