<?xml version="1.0" encoding="utf-8"?>
<!-- Generator: Adobe Illustrator 24.2.0, SVG Export Plug-In . SVG Version: 6.00 Build 0)  -->
<svg version="1.1" id="Layer_1" xmlns="http://www.w3.org/2000/svg" xmlns:xlink="http://www.w3.org/1999/xlink" x="0px" y="0px"
	 viewBox="0 0 1000 1000" style="enable-background:new 0 0 1000 1000;" xml:space="preserve">
<style type="text/css">
	.st0{fill:#FFFFFF;}
	.st1{clip-path:url(#SVGID_2_);fill:url(#rect2409_1_);}
	.st2{fill:#A29589;}
</style>
<g id="layer1" transform="translate(-416.301, -665.763)">
	<g id="g2449" transform="translate(417.921, 667.152)">
		<path id="path2384" class="st0" d="M418.1,440.2c0-48.7-34.6-67.9-75.3-74.3c-14.4-2-30-2.5-44.4-2.5
			c-58.1,0-154.8,9.2-186.7,74.8c-4.9,10-8.2,23.7-8.2,35c0,41.6,22.7,86.1,52.8,117.9c28.3,29.9,59.1,42.8,92,42.8
			c25.5,0,46.8-8.5,66.4-22.8C359.6,577.6,418.1,500.9,418.1,440.2"/>
		<g id="g2386">
			<g>
				<defs>
					<path id="SVGID_1_" d="M160.7,474c0,12,7,21.4,19.8,21.4c11.2,0,17-7.6,17-18.3c0-11.7-6.7-21.1-19.2-21.1
						C167.3,456,160.7,463.3,160.7,474 M269,512.4c0-8.6-9.1-12.8-19-17.5c-11-5.2-22.7-10.9-22.7-24.2c0-16.2,15.6-23.2,29.7-23.2
						c7.6,0,15.1,1.8,21.6,5.5v11.7c-6.3-5-13.8-7.8-21.9-7.8c-7.8,0-15.4,3.1-15.4,10.2c0,8.3,9.9,13.1,20.3,18.3
						c11,5.5,22.4,11.7,22.4,23.7c0,17.5-17.5,23.5-32.1,23.5c-9.1,0-17.2-1.8-25.6-5.2v-12c8.6,4.7,19.3,7.6,26.1,7.6
						C259.8,522.8,269,521,269,512.4 M295.8,509.3V437c0-11.7-0.8-17-3.1-20.1l18-4.7v69.9l23.7-22.2c0,0,4.7-4.2,8.9-9.6h20.6
						c-1,0.3-4.7,1.1-17.7,13.3L324,484.5c0,0,13.3,15.7,25.8,29.5c9.6,10.4,17,13.6,21.4,13.6c0.8,0,1.8-0.3,2.6-0.5
						c-3.9,2.9-9.6,4.4-15.9,4.4c-8.1,0-14.9-4.4-23.2-14.3c-13.3-15.9-24-28.7-24-28.7v20.9c0,14.6,0.8,16.9,2.1,20.3h-19.3
						C295,525.4,295.8,523.9,295.8,509.3 M119.7,438.6c-4.4,8.9-7,21.4-7,31.8c0,15.9,2.4,30.3,9.1,45.4
						c11.5,25.6,32.1,40.2,60.3,40.2c7.8,0,14.9-0.8,19.3-2.3c4.4-1.8,8.9-5.2,8.9-11.5c0-3.1-2.3-6.5-5.7-7.8
						c-3.6-1.3-6.8-1.6-16.4-2.1c-9.7-0.5-13.1-0.8-19.8-1.3c-10.7-1-16.2-8.1-16.2-14.9c0-6,4.2-11.2,12-14.9
						c-10.4-3.9-17.7-13.8-17.7-25c0-16.2,12.6-28.7,33.1-28.7c4.4,0,9.6,1,14.1,2.3c3.7,1,7.6,1.8,11.7,1.8c5,0,10.7-0.2,15.4-1.6
						v10.4c-2.6-0.5-11-1-15.4-1c4.2,4.7,6.5,11.2,6.5,17.5c0,14.6-11.5,26.9-31.8,26.9c-1.7,0-3.6-0.1-5.8-0.3
						c-2.1,0.4-4,1.3-5.5,2.6c-2.2,1.8-3.2,4.1-3.2,6.1c0,3.4,1.8,6,10.2,6.5l18,1c17.5,1,26.9,8.1,26.6,20.6
						c-0.5,14.4-12,24.8-39.7,24.8c-7.3,0-17-1.3-25.6-3.9c-6.3-1.8-12.3-5.2-17.5-9.1c23.5,40.2,65.2,74.9,113.5,74.9
						c23.5,0,43.6-8.3,62.4-22.2C358.2,571.4,415,496.5,415,438.3c0-43.6-31.6-62.9-71.2-69.1c-14.4-2.3-27.4-2.6-41.7-2.6
						C242.1,366.6,149.5,377,119.7,438.6"/>
				</defs>
				<clipPath id="SVGID_2_">
					<use xlink:href="#SVGID_1_"  style="overflow:visible;"/>
				</clipPath>
				
					<radialGradient id="rect2409_1_" cx="50.5909" cy="802.4048" r="6.4704" gradientTransform="matrix(31.5556 0 0 31.5556 -1272.3054 -24881.4746)" gradientUnits="userSpaceOnUse">
					<stop  offset="0" style="stop-color:#FAA81B"/>
					<stop  offset="5.010000e-02" style="stop-color:#F9A01F"/>
					<stop  offset="0.2602" style="stop-color:#F58220"/>
					<stop  offset="0.4651" style="stop-color:#F26A24"/>
					<stop  offset="0.6608" style="stop-color:#F15725"/>
					<stop  offset="0.8435" style="stop-color:#F04923"/>
					<stop  offset="1" style="stop-color:#EF4523"/>
				</radialGradient>
				<rect id="rect2409" x="112.7" y="366.6" class="st1" width="302.4" height="260.3"/>
			</g>
		</g>
		<path id="path2411" class="st2" d="M884.3,563h-16.9c0.5-4.4,2.3-9.9,8.9-9.9C881.9,553.1,884.3,557.5,884.3,563 M891.2,568
			c0.1-0.5,0.1-1.3,0.1-1.9c0-10.5-3.7-18.2-15.1-18.2c-9.9,0-15.9,7.6-15.9,18c0,11.7,5.2,19.3,17.7,19.3c6,0,8.1-1.3,10.4-2.3
			v-6.5c-1.6,1.3-5.7,3.6-10.2,3.6c-6.3,0-10.9-5-10.9-12L891.2,568L891.2,568z"/>
		<path id="path2413" class="st2" d="M854,584.4v-21.1c0-9.6-3.9-15.4-13-15.4c-5,0-9.4,2.3-11.2,6.5h-0.3v-5.7h-6.3v35.7h6.5V568
			c0-8.9,2.9-15.1,10.4-14.9c5.7,0.3,7.3,4.4,7.3,12.8v18.5H854z"/>
		<path id="path2415" class="st2" d="M814.3,537c0-2.1-1.6-3.9-3.6-3.9c-2.1,0-3.9,1.8-3.9,3.9c0,2.1,1.8,3.6,3.9,3.6
			C812.7,540.6,814.3,539,814.3,537 M813.8,548.7h-6.5v35.7h6.5V548.7z"/>
		<path id="path2417" class="st2" d="M800.8,584.1c-2.6-0.8-3.1-2.6-3.1-5v-44.3h-6.8V580c0,3.4,1.6,5.2,5.2,5.2
			C798.4,585.2,799.8,584.7,800.8,584.1"/>
		<polygon id="polygon2419" class="st2" points="786.7,584.4 766.2,558.8 785,535.7 777,535.7 759.7,557.3 759.7,535.7 752.9,535.7 
			752.9,584.4 759.7,584.4 759.7,560.7 777.7,584.4 		"/>
		<path id="path2421" class="st2" d="M743.1,584.4v-21.1c0-9.6-3.9-15.4-13-15.4c-4.9,0-8.6,2.1-10.9,6h-0.3v-19h-6.5v49.5h6.5V568
			c0-8.9,2.9-15.1,10.4-14.9c5.7,0.3,7.3,4.4,7.3,12.8v18.5H743.1z"/>
		<path id="path2423" class="st2" d="M706.2,584.1v-5.5c-1,0.5-2.3,1.3-4.4,1.3c-3.1,0-5.5-2.3-5.5-6.5v-19.6h8.9v-5.2h-8.9v-10.4
			l-6.5,2.1v8.4h-6.3v5.2h6.3v20.9c0,7.3,4.2,10.4,11,10.4C702.8,585.2,704.9,584.7,706.2,584.1"/>
		<path id="path2425" class="st2" d="M678.4,537c0-2.1-1.8-3.9-3.9-3.9c-2.1,0-3.6,1.8-3.6,3.9c0,2.1,1.6,3.6,3.6,3.6
			C676.6,540.6,678.4,539,678.4,537 M677.6,548.7h-6.5v35.7h6.5V548.7z"/>
		<path id="path2427" class="st2" d="M662.3,584.4v-23c0-7.8-3.4-13.6-12.5-13.6c-3.1,0-8.6,1.8-11,6.8c-1.8-4.7-6-6.8-10.2-6.8
			c-5.2,0-8.9,1.8-11.5,6v-5.2h-6.3v35.7h6.5v-18c0-6.8,2.9-13.3,9.4-13.3c5.5,0,6.5,5.5,6.5,9.9v21.4h6.5v-18
			c0-6.8,2.6-13.3,9.4-13.3c5.2,0,6.3,5.5,6.3,9.9v21.4H662.3L662.3,584.4z"/>
		<path id="path2429" class="st2" d="M605.3,570.8c0-9.9-8.3-12.8-15.6-16.2c-1.3-0.5-2.6-1-3.6-1.8c-2.1-1.3-3.6-3.1-3.6-5.7
			c0-5.2,5.2-6.8,9.6-6.8c3.5,0,7.2,1.1,9.9,2.1l1.1-5.7c-3.7-1.3-7.8-2.1-11.2-2.1c-9.9,0-17.2,4.7-17.2,13.3
			c0,9.4,9.1,11.7,15.6,14.9c3.6,1.6,7.8,3.9,7.8,8.3c0,6.3-6.5,8.3-10.7,8.3c-3.9,0-8.7-1.2-11.5-2.3l-0.5,6.3
			c2.9,0.9,7.6,1.8,10.8,1.8C596.8,585.2,605.3,581,605.3,570.8"/>
		<polygon id="polygon2431" class="st2" points="533.1,584.4 521.6,565.6 532,548.7 524.5,548.7 517.7,561.5 510.9,548.7 
			502.8,548.7 513.2,565.6 501.5,584.4 509.3,584.4 517.2,570.3 525,584.4 		"/>
		<path id="path2433" class="st2" d="M462.5,584.1c-2.6-0.8-3.1-2.6-3.1-5v-44.3h-6.8V580c0,3.4,1.6,5.2,5.2,5.2
			C460.2,585.2,461.7,584.7,462.5,584.1"/>
		<path id="path2435" class="st2" d="M444.6,583.1v-21.3h-7v16.3c-1.8,0.5-3.1,0.8-7.8,0.8c-10.2,0-18.5-7.6-18.5-19
			c0-10.9,7.6-19,18.8-19c6,0,10.7,1.6,13.6,3.4l0.5-7c-4.2-1.6-7.3-2.6-14.3-2.6c-14.9,0-25.8,10.2-25.8,25
			c0,15.7,10.2,25.5,25.6,25.5C437.3,585.2,441.7,583.9,444.6,583.1"/>
		<path id="path2437" class="st2" d="M569.4,566.4c0-10.7-6.3-18.5-17-18.5c-10.9,0-17.2,7.8-17.2,18.5c0,10.4,6.3,18.8,17.2,18.8
			C563.2,585.2,569.4,576.8,569.4,566.4 M562.4,566.4c0,6.5-2.3,13.6-9.9,13.6c-7.8,0-10.2-7-10.2-13.6c0-6.8,2.9-13.3,10.2-13.3
			C559.3,553.1,562.4,559.6,562.4,566.4"/>
		<path id="path2439" class="st2" d="M496.6,584.4c-0.3-1.1-0.3-2.9-0.3-7.1v-14.8c0-9.7-3.7-14.6-13.8-14.6
			c-4.7,0-8.1,1.3-11.5,3.4l0.5,5.5c2.6-2.1,6-3.6,9.9-3.6c6.5,0,8.1,3.1,8.1,9.4c-2.6-0.3-4.2-0.3-6.8-0.3
			c-6.8,0-15.6,2.9-15.6,11.7c0,7.8,5,11.2,12.5,11.2c6,0,9.1-3.4,10.4-5.5h0.3v4.7H496.6z M489.6,570.6c0,5.2-2.9,9.4-9.4,9.4
			c-2.9,0-6-2.1-6-6c0-6.2,8.1-6.8,11.5-6.8c1.6,0,2.6,0.3,3.9,0.3V570.6L489.6,570.6z"/>
	</g>
</g>
</svg>
