<?xml version="1.0" encoding="utf-8"?>
<!-- Generator: Adobe Illustrator 25.1.0, SVG Export Plug-In . SVG Version: 6.00 Build 0)  -->
<svg version="1.0" id="Layer_1" xmlns="http://www.w3.org/2000/svg" xmlns:xlink="http://www.w3.org/1999/xlink" x="0px" y="0px"
	 viewBox="0 0 280 300" enable-background="new 0 0 280 300" xml:space="preserve">
<path id="path946" display="none" fill="#FFFFFF" d="M-480.58-97.42c0-113.25,0-226.49,0-339.75c160.19,0,320.39,0,480.58,0
	C0-323.91,0-210.67,0-97.42C-160.19-97.42-320.39-97.42-480.58-97.42z"/>
<g id="XMLID_1_">
	
		<radialGradient id="XMLID_4_" cx="-109.9467" cy="-99.8247" r="0.587" gradientTransform="matrix(265.1342 0 0 265.1342 29290.6758 26620.3066)" gradientUnits="userSpaceOnUse">
		<stop  offset="0" style="stop-color:#C11566"/>
		<stop  offset="0.9944" style="stop-color:#AF0A55"/>
		<stop  offset="0.9944" style="stop-color:#AF0A55"/>
		<stop  offset="1" style="stop-color:#AF0A55"/>
	</radialGradient>
	<path id="XMLID_16_" fill="url(#XMLID_4_)" d="M52.81,150.24c0,6.88,6.44,7.75,9.81,7.75c8.89,0,12.84-4.1,14.59-4.1
		c1.75,0-1.04,4.17-3.69,5.83c-22.03,13.32-40.15,24.78-40.15,35.4c0,4.8,4.43,5.12,7.81,5.12c3.37,0,19.86-2.11,45.1-41.23
		c1.19-1.84,3.13-2.9,5-4.24c1.87-1.34,7.88-5.74,9.07-5.75c1.19-0.01,1.15,0.51,1.1,1.05c-0.07,0.77-0.87,2.48-0.87,4.55
		c0,2.08,2.11,4.49,5.55,4.49c7.67,0,13.26-5.46,17.86-10.39c-1.52-0.32-3.25-0.7-5.18-1.16c-1.82,1.55-3.61,2.71-4.56,2.73
		c-1.76,0.04-2.3-0.96-2.37-1.86c-0.06-0.74,0.11-1.58,0.45-2.47c-3.49-0.91-7.38-2-11.59-3.29c-1.11,0.69-2.28,1.21-3.13,1.09
		c-0.27-0.04-0.43-0.29,0.16-1.13c0.08-0.11,0.26-0.37,0.52-0.73c-3.03-0.96-6.2-2.02-9.51-3.18c-6.39,5.87-13.75,11.76-17.79,11.76
		c-1.61,0-3.12-1.08-3.12-3.65c0-1.71,2.25-7.26,6.71-13.52c-3.34-1.37-6.76-2.85-10.24-4.44
		C56.45,137.24,52.81,144.83,52.81,150.24 M43.95,190.6c0-4.71,16.37-17.07,18.31-17.08c0.5-0.01,0.63,0.19,0.64,0.59
		c0.02,3.77-11.93,18.75-16.74,18.75C44.64,192.86,43.95,192.03,43.95,190.6 M189.71,152.21c-0.02,2.76,0.66,7.18,5.36,7.18
		c9.26,0,20.79-11.74,21.34-11.83c0.38-0.06,0.45,0.1,0.45,0.47c0,0.42-1.3,5.06-14.85,21.51c-13.55,16.45-20.11,22.9-20.11,26.45
		c0,3.55,3.01,4.84,4.41,4.84c1.4,0,7.31-0.32,21.4-23.22c10.05-16.35,14.8-26.43,20.14-34.56
		C218.21,147.26,206.09,150,189.71,152.21 M133.42,150.74c0,3.3,1.09,8.02,8.76,8.02c4.25,0,8.13-2.29,11.45-5.6
		c-6.44-0.5-13.18-1.36-20.2-2.67C133.42,150.58,133.42,150.66,133.42,150.74 M161.9,153.61c-1,1.52-1.86,2.81-2.44,3.73
		c0,0-0.72,0.86,0.36,0.86h10.03c0.43,0,0.86-0.36,1.22-0.86c0.12-0.17,1.15-1.74,2.46-3.75
		C169.78,153.72,165.91,153.74,161.9,153.61"/>
	
		<radialGradient id="XMLID_5_" cx="-109.9684" cy="-99.4572" r="0.587" gradientTransform="matrix(112.617 0 0 112.617 12539.7939 11333.4883)" gradientUnits="userSpaceOnUse">
		<stop  offset="0" style="stop-color:#63BBEB"/>
		<stop  offset="1" style="stop-color:#3777C5"/>
	</radialGradient>
	<path id="XMLID_42_" fill="url(#XMLID_5_)" d="M237.33,119.19c0,1.72,2.62,2.9,3.5,2.9c1.34,0,5.8-2.9,5.8-6.88
		c0-1.45-1.02-3.07-2.53-3.07C242.01,112.14,237.33,116.87,237.33,119.19 M225.45,133c-6.34,6.88-13.98,16.13-20.86,16.13
		c-2.54,0-3.33-1.61-3.33-3.23c0-1.18,0.93-2.27,2.69-2.8c6.49-1.91,16.67-10.37,16.67-16.13c0-1.51-0.75-3.13-2.69-3.13
		c-2.81,0-10.65,1.31-20.41,12.98c-1.09,1.31-2.27,2.19-3.14,2.19c-0.91,0-1.99-1.72-1.99-5.16c0-0.37,0.01-0.71,0.04-1.04
		c-7.1,2.56-14.32,4.56-21.57,6.03c-2.39,4.7-6.21,10.6-8.95,14.77c4,0.12,7.88,0.11,11.63-0.02c2.52-3.87,6.1-9.37,6.29-9.66
		c0.29-0.43,0.71-0.72,1.15-0.72c1.58,0-0.36,4.01,5.52,4.01c1.65,0,3.28-0.84,3.71-0.84c0.43,0,0.48,0.38,0.48,0.7
		c0,0.64-0.81,2.13-0.93,4.19c-0.02,0.28-0.03,0.59-0.03,0.93c16.37-2.22,28.49-4.95,38.13-9.15c2.14-3.26,5.27-7.57,7.5-9.74
		c4.19-4.09,5.27-6.24,5.27-7.2c0-1.25-0.75-2.47-2.26-2.47C236.84,123.65,231.79,126.12,225.45,133 M204.87,138.12
		c0-1.89,6.33-7.98,8.46-7.98c0.3,0,0.71,0.24,0.71,0.59c0,2.42-6.33,8.16-8.34,8.16C205.28,138.88,204.87,138.59,204.87,138.12
		 M64.34,128.86c3.48,1.59,6.89,3.06,10.24,4.44c0.56-0.8,1.17-1.6,1.8-2.42c-3.61-1.23-7.07-2.49-10.36-3.76
		C65.43,127.7,64.88,128.28,64.34,128.86 M88.77,138.72c3.3,1.16,6.48,2.22,9.51,3.18c0.61-0.85,1.67-2.32,2.89-4
		c-3.09-0.69-6.14-1.44-9.14-2.25C90.99,136.65,89.9,137.69,88.77,138.72 M103.83,140.26c-0.5,0.49-1.76,1.57-3.1,2.4
		c4.21,1.29,8.1,2.38,11.59,3.29c0.64-1.66,1.89-3.54,3.42-5.4c-3.49-0.49-6.96-1.08-10.39-1.77
		C104.85,139.26,104.35,139.75,103.83,140.26 M156.17,141.12c-2.42,4.4-5.85,8.44-9.98,8.45c-1.29,0-2.1-0.69-2.14-1.91
		c-0.05-1.48,0.96-3.64,2.32-5.77c-3.85,0.19-7.68,0.24-11.45,0.17c-0.22,1.14-1.43,5.44-1.5,8.43c7.02,1.3,13.76,2.17,20.2,2.67
		c3.58-3.59,6.5-8.38,8.5-12.8C160.14,140.65,158.15,140.91,156.17,141.12 M118.8,147.56c1.93,0.45,3.66,0.84,5.18,1.16
		c2.6-2.79,4.88-5.42,7.03-6.78c-2.29-0.1-4.57-0.25-6.82-0.44C123.32,143.19,121.03,145.67,118.8,147.56"/>
	
		<radialGradient id="XMLID_8_" cx="-110" cy="-99.5998" r="0.587" gradientTransform="matrix(142.8704 0 0 142.8704 15876.1211 14368.2461)" gradientUnits="userSpaceOnUse">
		<stop  offset="0" style="stop-color:#90C643"/>
		<stop  offset="0.8309" style="stop-color:#5FB233"/>
		<stop  offset="0.8309" style="stop-color:#5FB233"/>
		<stop  offset="1" style="stop-color:#5FB233"/>
	</radialGradient>
	<path id="XMLID_47_" fill="url(#XMLID_8_)" d="M78.82,116.3c-5.04,3.66-9.29,7.3-12.8,10.82c3.29,1.27,6.76,2.53,10.36,3.76
		c1.94-2.48,4.21-5,6.81-7.39c10.16-9.35,21.94-13.92,29.25-13.92c3.06,0,6.73,0.6,7.28,0.68c0.38,0.05,0.5-0.02,0.66-0.29
		c0.22-0.37,5.7-10.11,5.7-10.11c0.09-0.14,0.04-0.27-0.09-0.31c-0.13-0.04-1.09-0.39-3.09-0.39
		C114.69,99.15,96.81,103.22,78.82,116.3 M130.66,108.54c0,5.16,3.09,12.23,16.08,16.56c0.32,0.11,0.64,0.15,0.64,0.42
		c0,0.55-6.13,8.83-11.67,9.8c-0.63,0.11-1.07-0.43-1.07-1.02s0.86-2.31,0.86-4.95c0-2.63-0.81-6.34-5.81-6.34
		c-4.83,0-10.36,2.31-24.34,15.78c3.43,0.69,6.9,1.28,10.39,1.77c4.35-5.28,11.01-10.48,12.7-10.52c1.04-0.03,1.47,0.41,1.51,0.87
		c0.16,1.86-2.52,3.16-4.17,4.36c-1.94,1.4-2.56,1.84-2.37,3.01c0.11,0.64,1.04,0.82,1.16,1.96c0.03,0.33-0.11,0.77-0.37,1.28
		c2.25,0.19,4.53,0.34,6.82,0.44c0.97-0.62,1.92-0.97,2.85-0.97c0.79,0,1.09,0.35,1.09,0.85c0,0.04-0.01,0.13-0.04,0.25
		c3.78,0.07,7.6,0.02,11.45-0.17c2-3.12,4.77-6.18,6.09-6.98c2.22-1.34,3.44-2.66,3.41-3.42c-0.02-0.76-1.61-1.77-1.77-2.51
		c-0.18-0.86,0.51-1.32,2.05-0.93c2.21,0.56,3.82,0.63,3.87,2.26c0.04,1.33-1.37,6.27-3.86,10.82c1.98-0.22,3.97-0.47,5.96-0.76
		c1.92-4.24,2.98-8.13,2.98-10.28c0-0.47,0.15-1.03,1.01-1.03c0.86,0,3.24,0.26,4.3,0.36c1.15,0.12,2.66,1.05,2.66,3.2
		c0,1.35-0.89,3.61-2.23,6.24c7.25-1.47,14.48-3.46,21.57-6.03c0.31-4.55,2.54-6.41,2.54-7.9c0-1.02-0.42-1.43-1.62-1.43
		c-2.74,0-8.11,6.56-9.07,6.56c-0.79,0-1.69-3-2.58-4.19c-1.29-1.72-3.07-2.15-8.12-2.15c-2.53,0-3.98,0.22-6.24,0.22
		c-2.57,0-3.17-0.11-3.66-1.24c-0.48-1.13-8.01-20.97-25.16-20.97C134.69,101.71,130.66,103.38,130.66,108.54 M139.26,110.96
		c0-2.28,1.55-3.6,3.74-3.6c10.39,0,15.57,14.78,15.57,15.72c0,0.47-0.28,0.73-1.03,0.73C153.75,123.81,139.26,118.16,139.26,110.96
		 M100.28,127.46c-1.16,1.12-4.33,4.43-8.25,8.19c3,0.8,6.05,1.56,9.14,2.25c2.78-3.82,6.38-8.7,7.34-9.79
		c1.56-1.77,2.37-2.64,2.37-3.23c0-0.68-0.97-1.24-2.15-1.24C107.7,123.65,103.51,124.35,100.28,127.46"/>
	
		<linearGradient id="XMLID_9_" gradientUnits="userSpaceOnUse" x1="-108.7723" y1="-96.3992" x2="-108.2291" y2="-96.3992" gradientTransform="matrix(10.818 9.0774 -9.0774 10.818 482.0679 2178.8574)">
		<stop  offset="0" style="stop-color:#4980CA"/>
		<stop  offset="1" style="stop-color:#63BBEB"/>
	</linearGradient>
	<path id="XMLID_48_" fill="url(#XMLID_9_)" d="M179.41,143.66l-2.16,3.32c-1.26,1.93-2.96,4.55-4.32,6.63
		c0.4-0.01,0.81-0.03,1.21-0.04c1.12-1.72,2.5-3.84,3.94-6.05l2.16-3.31c0.2-0.3,0.49-0.5,0.74-0.5c0.12,0,0.18,0.06,0.36,0.72
		c0.34,1.23,0.91,3.29,5.16,3.29c1.17,0,2.31-0.39,3.07-0.64c0.23-0.08,0.51-0.17,0.62-0.19c0.01,0.04,0.01,0.1,0.01,0.2
		c0,0.17-0.12,0.54-0.25,0.94c-0.26,0.79-0.6,1.88-0.69,3.22c-0.02,0.33-0.03,0.67-0.03,1.03c0.33-0.04,0.66-0.09,0.99-0.13
		c0.01-0.3,0.02-0.59,0.03-0.84c0.08-1.22,0.4-2.24,0.64-2.98c0.17-0.53,0.3-0.92,0.3-1.24c0-1.08-0.68-1.19-0.98-1.19
		c-0.23,0-0.52,0.1-0.96,0.25c-0.69,0.24-1.74,0.59-2.75,0.59c-3.5,0-3.89-1.42-4.21-2.57c-0.18-0.64-0.4-1.45-1.31-1.45
		C180.38,142.72,179.8,143.07,179.41,143.66"/>
	
		<linearGradient id="XMLID_12_" gradientUnits="userSpaceOnUse" x1="-111.9118" y1="-102.8675" x2="-111.3686" y2="-102.8675" gradientTransform="matrix(-12.8152 -7.6201 7.6201 -12.8152 -496.7026 -2023.955)">
		<stop  offset="0" style="stop-color:#82C7EF"/>
		<stop  offset="1" style="stop-color:#3777C5"/>
	</linearGradient>
	<path id="XMLID_49_" fill="url(#XMLID_12_)" d="M155.58,141.18c-1,1.79-2.18,3.5-3.53,4.89c-1.92,1.99-3.89,2.99-5.86,3
		c-0.6,0-1.61-0.18-1.65-1.43c-0.05-1.46,1.02-3.64,2.43-5.78c-0.41,0.02-0.81,0.04-1.21,0.06c-1.31,2.1-2.25,4.22-2.2,5.75
		c0.05,1.48,1.06,2.39,2.64,2.39c2.25-0.01,4.46-1.12,6.57-3.3c1.54-1.59,2.89-3.62,4.01-5.71
		C156.38,141.1,155.98,141.14,155.58,141.18"/>
	<path id="XMLID_50_" fill="#3777C5" d="M111.84,145.83c0.32,0.08,0.64,0.17,0.96,0.25c0.6-1.54,1.79-3.39,3.52-5.45
		c-0.38-0.05-0.77-0.1-1.15-0.16C113.81,142.15,112.51,144.05,111.84,145.83"/>
	<path id="XMLID_51_" fill="#63BBEB" d="M88.25,138.53c0.35,0.12,0.7,0.25,1.05,0.37c1.09-1.01,2.19-2.05,3.29-3.1
		c-0.37-0.1-0.74-0.2-1.11-0.29C90.44,136.5,89.36,137.51,88.25,138.53"/>
	<path id="XMLID_52_" fill="#63BBEB" d="M123.66,141.45c-0.35,0.62-0.93,1.45-1.85,2.48c-1.11,1.25-2.4,2.48-3.62,3.49
		c0.41,0.1,0.81,0.19,1.2,0.28c1.19-1.03,2.32-2.16,3.16-3.11c1.06-1.2,1.78-2.22,2.17-3.04
		C124.37,141.52,124.01,141.49,123.66,141.45"/>
	<path id="XMLID_53_" fill="#4980CA" d="M124.68,147.24c-0.41,0.45-0.83,0.9-1.26,1.36c0.39,0.08,0.77,0.16,1.13,0.24
		c0.29-0.31,0.58-0.62,0.86-0.93c2.4-2.6,4.55-4.93,6.54-5.93c-0.58-0.02-1.16-0.05-1.74-0.08
		C128.45,143.16,126.64,145.11,124.68,147.24"/>
	<path id="XMLID_54_" fill="#2F67AB" d="M74.1,133.1c0.32,0.13,0.63,0.26,0.95,0.39c0.58-0.81,1.19-1.62,1.84-2.44
		c-0.33-0.11-0.67-0.23-1-0.34C75.25,131.51,74.66,132.31,74.1,133.1"/>
	
		<linearGradient id="XMLID_13_" gradientUnits="userSpaceOnUse" x1="-110.9821" y1="-98.3878" x2="-110.4389" y2="-98.3878" gradientTransform="matrix(37.4539 0 0 37.4539 4357.4673 3821.4492)">
		<stop  offset="0" style="stop-color:#2F67AB"/>
		<stop  offset="1" style="stop-color:#2D61A2"/>
	</linearGradient>
	<path id="XMLID_55_" fill="url(#XMLID_13_)" d="M220.11,126.98c0,5.59-10.18,13.84-16.31,15.65c-1.9,0.56-3.04,1.78-3.04,3.27h0.99
		c0-1.02,0.87-1.89,2.33-2.32c6.41-1.89,17.02-10.43,17.02-16.6H220.11L220.11,126.98z"/>
	
		<linearGradient id="XMLID_14_" gradientUnits="userSpaceOnUse" x1="-105.8251" y1="-105.407" x2="-105.2819" y2="-105.407" gradientTransform="matrix(-10.2946 1.3197 -1.3197 -10.2946 -1029.0618 -810.1298)">
		<stop  offset="0" style="stop-color:#63BBEB"/>
		<stop  offset="1" style="stop-color:#3777C5"/>
	</linearGradient>
	<path id="XMLID_56_" fill="url(#XMLID_14_)" d="M197.13,136.51c-1.04,1.24-2.1,2.02-2.76,2.02c-0.51,0-1.5-1.41-1.5-4.67
		c0-0.43,0.02-0.84,0.05-1.23c-0.34,0.12-0.68,0.25-1.01,0.37c-0.02,0.28-0.03,0.56-0.03,0.86c0,3.89,1.29,5.66,2.49,5.66
		c1.34,0,2.78-1.49,3.52-2.37c1.24-1.48,2.45-2.8,3.62-3.96l-0.42-0.98C199.81,133.46,198.49,134.88,197.13,136.51"/>
	
		<linearGradient id="XMLID_15_" gradientUnits="userSpaceOnUse" x1="-116.8039" y1="-88.9404" x2="-116.2607" y2="-88.9404" gradientTransform="matrix(6.3337 0.5279 -0.5279 6.3337 908.1783 753.7153)">
		<stop  offset="0" style="stop-color:#63BBEB"/>
		<stop  offset="1" style="stop-color:#2D61A2"/>
	</linearGradient>
	<path id="XMLID_57_" fill="url(#XMLID_15_)" d="M201.09,132.2l0.42,0.98c8.2-8.13,14.49-8.84,16.41-8.84
		c2.09,0,2.19,2.19,2.19,2.63h0.99c0-1.8-0.98-3.62-3.18-3.62C215.38,123.36,209.14,124.31,201.09,132.2"/>
	
		<linearGradient id="XMLID_20_" gradientUnits="userSpaceOnUse" x1="-113.9127" y1="-114.3232" x2="-113.3696" y2="-114.3232" gradientTransform="matrix(-3.2063 -4.0075 4.0075 -3.2063 303.1844 -687.5614)">
		<stop  offset="0" style="stop-color:#5AAAD7"/>
		<stop  offset="1" style="stop-color:#2F67AB"/>
	</linearGradient>
	<path id="XMLID_60_" fill="url(#XMLID_20_)" d="M204.37,138.12c0,0.79,0.67,1.26,1.32,1.26c2.33,0,8.83-5.93,8.83-8.66
		c0-0.64-0.63-1.09-1.2-1.09C210.98,129.64,204.37,135.9,204.37,138.12 M205.36,138.12c0-1.68,6.18-7.49,7.96-7.49
		c0.08,0,0.2,0.07,0.22,0.11c0,2.12-6.08,7.65-7.85,7.65C205.56,138.39,205.36,138.3,205.36,138.12"/>
	
		<linearGradient id="XMLID_21_" gradientUnits="userSpaceOnUse" x1="-116.9198" y1="-80.9289" x2="-116.3766" y2="-80.9289" gradientTransform="matrix(4.7513 1.9797 -1.9797 4.7513 636.2165 732.4562)">
		<stop  offset="0" style="stop-color:#63BBEB"/>
		<stop  offset="1" style="stop-color:#2B5C99"/>
	</linearGradient>
	<path id="XMLID_63_" fill="url(#XMLID_21_)" d="M236.83,119.18c0,2.04,2.84,3.4,3.99,3.4c1.52,0,6.3-3.06,6.3-7.38
		c0-1.72-1.21-3.56-3.02-3.56C241.65,111.65,236.83,116.65,236.83,119.18 M237.82,119.18c0-1.96,4.4-6.55,6.28-6.55
		c1.2,0,2.03,1.36,2.03,2.57c0,3.67-4.2,6.39-5.31,6.39C240.09,121.59,237.82,120.51,237.82,119.18"/>
	<path id="XMLID_64_" fill="#72C1ED" d="M161.32,153.59c0.39,0.01,0.77,0.03,1.16,0.04c2.81-4.28,6.63-10.21,8.98-14.91
		c-0.41,0.09-0.82,0.17-1.23,0.25C167.76,143.73,163.89,149.68,161.32,153.59"/>
	<path id="XMLID_65_" fill="#63BBEB" d="M63.85,128.63c0.31,0.14,0.63,0.29,0.94,0.43c0.55-0.58,1.12-1.17,1.72-1.75
		c-0.34-0.13-0.67-0.26-1-0.39C64.94,127.5,64.38,128.07,63.85,128.63"/>
	<path id="XMLID_66_" fill="#326CB3" d="M100.65,137.78c-1.23,1.7-2.29,3.16-2.86,3.96c0.33,0.11,0.66,0.21,0.99,0.31
		c0.64-0.89,1.71-2.37,2.93-4.04C101.35,137.94,101,137.86,100.65,137.78"/>
	<path id="XMLID_67_" fill="#63BBEB" d="M134.18,143.08c-0.42,1.75-1.18,4.93-1.25,7.33c0.33,0.06,0.66,0.13,0.99,0.19
		c0.03-2.3,0.8-5.53,1.22-7.28c0.15-0.65,0.24-1.01,0.28-1.24c-0.34-0.01-0.67-0.01-1-0.02
		C134.37,142.3,134.27,142.69,134.18,143.08"/>
	<path id="XMLID_68_" fill="#4980CA" d="M161.55,140.45c-0.93,2.02-2.05,4.12-3.34,6.14c-1.22,1.9-3,4.35-5.24,6.53
		c0.42,0.03,0.85,0.07,1.26,0.11c3.58-3.68,6.49-8.5,8.48-12.94C162.32,140.34,161.93,140.39,161.55,140.45"/>
	
		<linearGradient id="XMLID_22_" gradientUnits="userSpaceOnUse" x1="-104.8145" y1="-101.4421" x2="-104.2713" y2="-101.4421" gradientTransform="matrix(-15.4422 8.711 -8.711 -15.4422 -2265.4326 -525.2961)">
		<stop  offset="0" style="stop-color:#63BBEB"/>
		<stop  offset="1" style="stop-color:#2F67AB"/>
	</linearGradient>
	<path id="XMLID_69_" fill="url(#XMLID_22_)" d="M225.08,132.67l-1.96,2.15c-5.89,6.48-12.57,13.82-18.53,13.82
		c-2.35,0-2.84-1.49-2.84-2.73h-0.99c0,2.15,1.21,3.49,3.28,3.69c2.14,0.04,3.51-0.33,5.87-1.48c4.76-2.53,9.57-7.81,13.95-12.63
		l1.96-2.14c6.34-6.88,11.27-9.2,12.54-9.2v-0.99C236.61,123.15,231.47,125.74,225.08,132.67"/>
	
		<linearGradient id="XMLID_23_" gradientUnits="userSpaceOnUse" x1="-103.4366" y1="-71.2673" x2="-102.8935" y2="-71.2673" gradientTransform="matrix(1.7031 2.5546 -2.5546 1.7031 225.0871 515.2505)">
		<stop  offset="0" style="stop-color:#63BBEB"/>
		<stop  offset="1" style="stop-color:#2B5C99"/>
	</linearGradient>
	<path id="XMLID_70_" fill="url(#XMLID_23_)" d="M238.35,124.14c1.22,0,1.76,0.99,1.76,1.98c0,0.44-0.37,2.22-5.12,6.85
		c-2.38,2.32-5.66,6.88-7.96,10.44c0.56-0.24,1.12-0.48,1.66-0.72c1.97-2.94,4.95-7.03,6.99-9.01c3.55-3.45,5.42-6.07,5.42-7.56
		c0-1.48-0.95-2.97-2.75-2.97V124.14z"/>
	
		<linearGradient id="XMLID_24_" gradientUnits="userSpaceOnUse" x1="-107.4122" y1="-96.6013" x2="-106.869" y2="-96.6013" gradientTransform="matrix(14.7914 0 0 14.7914 1700.1368 1577.1777)">
		<stop  offset="0" style="stop-color:#AF0A55"/>
		<stop  offset="1" style="stop-color:#DB4990"/>
	</linearGradient>
	<path id="XMLID_71_" fill="url(#XMLID_24_)" d="M111.37,148.47c0.12,1.49,1.2,2.36,2.88,2.31c1.21-0.03,3.25-1.43,5.14-3.08
		c-0.39-0.09-0.79-0.19-1.2-0.28c-1.68,1.39-3.23,2.36-3.97,2.38c-1.16,0.03-1.79-0.45-1.87-1.41c-0.06-0.65,0.1-1.43,0.44-2.31
		c-0.32-0.08-0.64-0.17-0.96-0.25C111.49,146.76,111.31,147.65,111.37,148.47"/>
	
		<linearGradient id="XMLID_25_" gradientUnits="userSpaceOnUse" x1="-103.8514" y1="-93.3362" x2="-103.3082" y2="-93.3362" gradientTransform="matrix(8.2701 0 0 8.2701 955.7208 914.9023)">
		<stop  offset="0" style="stop-color:#A2094D"/>
		<stop  offset="1" style="stop-color:#D73585"/>
	</linearGradient>
	<path id="XMLID_72_" fill="url(#XMLID_25_)" d="M97.35,142.34c-0.46,0.65-0.59,1.1-0.43,1.47c0.1,0.24,0.32,0.4,0.6,0.43
		c1.11,0.15,2.56-0.56,3.82-1.39c-0.42-0.13-0.83-0.25-1.26-0.38c-0.79,0.45-1.56,0.77-2.15,0.8c0.05-0.09,0.11-0.2,0.22-0.36
		c0.08-0.11,0.29-0.41,0.61-0.85c-0.33-0.1-0.66-0.21-0.99-0.32C97.57,142.04,97.41,142.25,97.35,142.34"/>
	
		<linearGradient id="XMLID_26_" gradientUnits="userSpaceOnUse" x1="-99.1088" y1="-109.4274" x2="-98.5656" y2="-109.4274" gradientTransform="matrix(3.5639 5.1478 -5.1478 3.5639 -157.1651 1082.158)">
		<stop  offset="0" style="stop-color:#AF0A55"/>
		<stop  offset="1" style="stop-color:#DB4990"/>
	</linearGradient>
	<path id="XMLID_75_" fill="url(#XMLID_26_)" d="M62.26,173.02c-1.29,0.01-6.3,3.59-10.2,6.9c-3.21,2.73-8.6,7.74-8.6,10.68
		c0,1.78,0.96,2.75,2.7,2.75c2.23,0,5.41-2.72,7.68-5c4.52-4.54,9.56-11.6,9.55-14.24c0-0.23-0.03-0.55-0.28-0.8
		c-0.19-0.19-0.46-0.28-0.82-0.28L62.26,173.02 M44.45,190.6c0-4.36,15.95-16.54,17.82-16.59c0,0,0.08,0.01,0.13,0.01l0.01,0.09
		v0.01c0,2.13-4.58,8.83-9.26,13.53c-2.98,2.99-5.52,4.71-6.98,4.71C44.97,192.37,44.45,191.82,44.45,190.6"/>
	
		<linearGradient id="XMLID_27_" gradientUnits="userSpaceOnUse" x1="-104.9562" y1="-99.8455" x2="-104.413" y2="-99.8455" gradientTransform="matrix(14.5114 11.1318 -11.1318 14.5114 483.7497 2756.5366)">
		<stop  offset="0" style="stop-color:#A2094D"/>
		<stop  offset="1" style="stop-color:#DB4990"/>
	</linearGradient>
	<path id="XMLID_76_" fill="url(#XMLID_27_)" d="M67.37,146.82c0,3.06,1.95,4.15,3.61,4.15c4.11,0,11.13-5.43,18.31-12.07
		c-0.35-0.12-0.7-0.25-1.05-0.37c-6.27,5.75-13.41,11.45-17.26,11.45c-1.64,0-2.62-1.18-2.62-3.16c0-1.72,2.3-7.2,6.69-13.33
		c-0.32-0.13-0.63-0.26-0.95-0.39C69.64,139.38,67.37,144.96,67.37,146.82"/>
	
		<linearGradient id="XMLID_28_" gradientUnits="userSpaceOnUse" x1="-107.0194" y1="-95.8667" x2="-106.4763" y2="-95.8667" gradientTransform="matrix(13.9898 -8.447 8.447 13.9898 2373.3794 606.6129)">
		<stop  offset="0" style="stop-color:#DB4990"/>
		<stop  offset="1" style="stop-color:#AF0A55"/>
	</linearGradient>
	<path id="XMLID_77_" fill="url(#XMLID_28_)" d="M32.88,195.12h0.99c0-10.08,16.54-20.85,39.91-34.98l-0.52-0.84
		C49.62,173.59,32.88,184.52,32.88,195.12"/>
	
		<linearGradient id="XMLID_29_" gradientUnits="userSpaceOnUse" x1="-95.412" y1="-105.896" x2="-94.8689" y2="-105.896" gradientTransform="matrix(3.4309 4.7503 -4.7503 3.4309 -111.1439 965.9)">
		<stop  offset="0" style="stop-color:#DB4990"/>
		<stop  offset="1" style="stop-color:#AF0A55"/>
	</linearGradient>
	<path id="XMLID_78_" fill="url(#XMLID_29_)" d="M52.31,150.24c0,5.24,3.75,8.24,10.3,8.24v-0.99c-3.48,0-9.31-0.94-9.31-7.25
		c0-4.93,3.23-12.45,11.49-21.18c-0.31-0.14-0.63-0.29-0.94-0.43C55.56,137.49,52.31,145.17,52.31,150.24"/>
	<path id="XMLID_79_" fill="#AF0A55" d="M73.77,160.14c2.19-1.38,4.83-4.69,4.43-6.07c-0.12-0.43-0.5-0.68-1-0.68
		c-0.66,0-1.45,0.41-2.55,0.98c-2.25,1.17-6.01,3.12-12.05,3.12v0.99c6.28,0,10.17-2.02,12.5-3.23c0.94-0.49,1.72-0.89,2.09-0.89
		c0.05,0,0.07,0.04,0.07,0.1c0,0.71-1.77,3.42-4.03,4.84"/>
	
		<linearGradient id="XMLID_30_" gradientUnits="userSpaceOnUse" x1="-118.5538" y1="-104.2878" x2="-118.0106" y2="-104.2878" gradientTransform="matrix(-6.1365 -2.5734 2.5734 -6.1365 -351.5374 -793.778)">
		<stop  offset="0" style="stop-color:#A2094D"/>
		<stop  offset="1" style="stop-color:#DF5E9C"/>
	</linearGradient>
	<path id="XMLID_80_" fill="url(#XMLID_30_)" d="M106.13,158.61c-3.3,0-5.06-2.32-5.06-3.99h-0.99c0,2.4,2.43,4.98,6.05,4.98
		c7.99,0,13.76-5.74,18.42-10.76c-0.36-0.07-0.74-0.16-1.13-0.24C118.96,153.37,113.47,158.61,106.13,158.61"/>
	
		<linearGradient id="XMLID_31_" gradientUnits="userSpaceOnUse" x1="-95.567" y1="-101.6093" x2="-95.0239" y2="-101.6093" gradientTransform="matrix(5.743 3.1685 -3.1685 5.743 278.7748 1051.4541)">
		<stop  offset="0" style="stop-color:#DB4990"/>
		<stop  offset="1" style="stop-color:#A2094D"/>
	</linearGradient>
	<path id="XMLID_81_" fill="url(#XMLID_31_)" d="M91.42,154.05l-0.44,0.32l-1.14,0.8c-1.54,1.05-2.99,2.04-3.98,3.58
		c-25.18,39.02-41.64,41-44.68,41c-4.39,0-7.31-0.79-7.31-4.62h-0.99c0,5.61,5.61,5.61,8.3,5.61c1.82,0,6.89-0.59,14.63-6.03
		c9.76-6.87,20.15-18.78,30.88-35.42c0.89-1.37,2.26-2.31,3.71-3.3l1.16-0.81l0.44-0.32c6.1-4.41,7.81-5.26,8.34-5.34
		c0.44-0.06,0.54,0.04,0.58,0.07l0.7-0.7c-0.31-0.32-0.61-0.36-1.28-0.36C99.43,148.52,96.93,150.07,91.42,154.05"/>
	
		<linearGradient id="XMLID_32_" gradientUnits="userSpaceOnUse" x1="-111.3811" y1="-104.0168" x2="-110.838" y2="-104.0168" gradientTransform="matrix(-10.8878 -0.7919 0.7919 -10.8878 -987.996 -1065.5135)">
		<stop  offset="0" style="stop-color:#A2094D"/>
		<stop  offset="1" style="stop-color:#DF5E9C"/>
	</linearGradient>
	<path id="XMLID_82_" fill="url(#XMLID_32_)" d="M132.93,150.74c0,5.57,3.2,8.52,9.26,8.52c4.48,0,8.58-2.49,12.05-6.05
		c-0.42-0.03-0.84-0.07-1.26-0.1c-2.91,2.82-6.59,5.16-10.78,5.16c-5.56,0-8.27-2.46-8.27-7.53c0-0.05,0-0.1,0-0.15
		c-0.33-0.06-0.66-0.12-0.99-0.19C132.93,150.52,132.93,150.63,132.93,150.74"/>
	
		<linearGradient id="XMLID_33_" gradientUnits="userSpaceOnUse" x1="-112.7292" y1="-103.4542" x2="-112.186" y2="-103.4542" gradientTransform="matrix(-6.5588 -7.5524 7.5524 -6.5588 209.3401 -1372.9578)">
		<stop  offset="0" style="stop-color:#A2094D"/>
		<stop  offset="1" style="stop-color:#DB4990"/>
	</linearGradient>
	<path id="XMLID_83_" fill="url(#XMLID_33_)" d="M172.93,153.61c-1.21,1.85-2.14,3.28-2.26,3.44c-0.34,0.48-0.65,0.65-0.82,0.65
		h-10.04h-0.01l0.03-0.05l0.02-0.02l1.67-2.54c0.3-0.46,0.62-0.95,0.96-1.46c-0.38-0.01-0.77-0.02-1.16-0.04
		c-0.22,0.33-0.43,0.65-0.62,0.95l-1.65,2.52c-0.09,0.12-0.32,0.44-0.32,0.8c0,0.11,0.02,0.22,0.07,0.33
		c0.11,0.23,0.37,0.5,1.01,0.5h10.04c0.56,0,1.12-0.37,1.62-1.07c0.13-0.18,1.17-1.77,2.66-4.06
		C173.73,153.58,173.33,153.6,172.93,153.61"/>
	
		<linearGradient id="XMLID_34_" gradientUnits="userSpaceOnUse" x1="-111.5829" y1="-112.2161" x2="-111.0397" y2="-112.2161" gradientTransform="matrix(-2.9697 -2.9697 2.9697 -2.9697 196.5995 -505.2965)">
		<stop  offset="0" style="stop-color:#C01F6E"/>
		<stop  offset="1" style="stop-color:#D63384"/>
	</linearGradient>
	<path id="XMLID_84_" fill="url(#XMLID_34_)" d="M189.22,152.28l0,0.06c0,2.03,0.37,4.41,1.84,5.97c0.98,1.05,2.33,1.58,4.01,1.58
		v-0.99c-1.39,0-2.5-0.43-3.29-1.27c-1.34-1.42-1.59-3.8-1.57-5.49C189.88,152.19,189.55,152.24,189.22,152.28"/>
	
		<linearGradient id="XMLID_35_" gradientUnits="userSpaceOnUse" x1="-117.8538" y1="-94.3803" x2="-117.3107" y2="-94.3803" gradientTransform="matrix(-1.1875 -6.6636 6.6636 -1.1875 590.2817 -743.5643)">
		<stop  offset="0" style="stop-color:#DF5E9C"/>
		<stop  offset="1" style="stop-color:#A2094D"/>
	</linearGradient>
	<path id="XMLID_85_" fill="url(#XMLID_35_)" d="M101.28,149.22l-0.35,0.36c0.07,0.07,0.08,0.18,0.08,0.3
		c-0.01,0.13-0.05,0.26-0.07,0.38c-0.03,0.12-0.12,0.52-0.25,0.98c-0.25,0.85-0.59,2.01-0.59,3.37h0.99c0-1.22,0.31-2.26,0.55-3.09
		c0.16-0.55,0.25-0.89,0.31-1.29l0.02-0.27c0.01-0.39-0.02-0.78-0.32-1.09L101.28,149.22L101.28,149.22z"/>
	
		<linearGradient id="XMLID_36_" gradientUnits="userSpaceOnUse" x1="-111.221" y1="-100.2954" x2="-110.6779" y2="-100.2954" gradientTransform="matrix(21.975 -27.2073 27.2073 21.975 5371.5073 -646.2341)">
		<stop  offset="0" style="stop-color:#DF5E9C"/>
		<stop  offset="1" style="stop-color:#A2094D"/>
	</linearGradient>
	<path id="XMLID_86_" fill="url(#XMLID_36_)" d="M201.62,169.25c-3.6,4.37-6.65,7.97-9.34,11.14c-7.47,8.82-10.88,12.84-10.88,15.63
		c0,1.41,0.45,2.52,1.1,3.34l0.62-0.81c-0.44-0.63-0.73-1.46-0.73-2.53c0-2.42,3.56-6.62,10.65-14.99
		c2.69-3.17,5.74-6.77,9.34-11.15c4.83-5.86,8.1-10.22,10.32-13.43l-1.03-0.26C209.49,159.32,206.29,163.57,201.62,169.25"/>
	
		<linearGradient id="XMLID_105_" gradientUnits="userSpaceOnUse" x1="-113.4523" y1="-91.9667" x2="-112.9092" y2="-91.9667" gradientTransform="matrix(5.0124 1.7394 -1.7394 5.0124 603.3274 825.973)">
		<stop  offset="0" style="stop-color:#DF5E9C"/>
		<stop  offset="1" style="stop-color:#A2094D"/>
	</linearGradient>
	<path id="XMLID_87_" fill="url(#XMLID_105_)" d="M227.03,143.41c-2.51,3.89-4.06,6.9-7.13,12.33c-3.5,6.21-7.47,13.25-12.62,21.62
		c-12.3,20-18.42,22.99-20.98,22.99c-0.71,0-2.26-0.47-3.18-1.81l-0.62,0.81c1.09,1.38,2.73,1.99,3.8,1.99
		c4.83,0,12.38-8.11,21.82-23.46c5.16-8.39,9.14-15.44,12.64-21.66c3.39-6.02,5.17-9.43,7.92-13.54
		C228.15,142.93,227.59,143.17,227.03,143.41"/>
	
		<linearGradient id="XMLID_108_" gradientUnits="userSpaceOnUse" x1="-110.7732" y1="-98.8711" x2="-110.23" y2="-98.8711" gradientTransform="matrix(41.0342 0 0 41.0342 4740.5518 4210.5742)">
		<stop  offset="0" style="stop-color:#C01F6E"/>
		<stop  offset="1" style="stop-color:#A2094D"/>
	</linearGradient>
	<path id="XMLID_88_" fill="url(#XMLID_108_)" d="M216.34,147.09c-0.2,0.06-0.39,0.16-1.55,1.16c-3.37,2.92-12.32,10.66-19.73,10.66
		v0.99c7.77,0,16.93-7.92,20.38-10.9c0.33-0.29,0.64-0.55,0.86-0.74c-0.21,0.64-1.08,2.82-4.63,7.92l1.03,0.26
		c4.57-6.63,4.65-8.37,4.65-8.4c0-0.2,0-0.56-0.28-0.8c-0.17-0.14-0.37-0.18-0.52-0.18C216.46,147.06,216.38,147.07,216.34,147.09"
		/>
	
		<linearGradient id="XMLID_109_" gradientUnits="userSpaceOnUse" x1="-101.4752" y1="-84.8355" x2="-100.932" y2="-84.8355" gradientTransform="matrix(2.772 2.178 -2.178 2.772 264.9366 592.4165)">
		<stop  offset="0" style="stop-color:#5FB233"/>
		<stop  offset="1" style="stop-color:#90C643"/>
	</linearGradient>
	<path id="XMLID_89_" fill="url(#XMLID_109_)" d="M164.62,130.08c0,2.16-1.11,6.1-3.07,10.36c0.39-0.05,0.77-0.11,1.16-0.17
		c1.86-4.16,2.9-7.99,2.9-10.19c0-0.42,0.11-0.54,0.51-0.54c0.72,0,2.62,0.19,3.76,0.31l0.49,0.05c0.82,0.08,2.21,0.74,2.21,2.71
		c0,1.33-0.95,3.65-2.36,6.36c0.41-0.08,0.82-0.17,1.23-0.25c1.28-2.56,2.12-4.75,2.12-6.11c0-2.32-1.61-3.54-3.1-3.69l-0.49-0.05
		c-1.23-0.13-3.09-0.31-3.86-0.31C165.18,128.55,164.62,129.13,164.62,130.08"/>
	
		<linearGradient id="XMLID_110_" gradientUnits="userSpaceOnUse" x1="-113.905" y1="-86.8486" x2="-113.3619" y2="-86.8486" gradientTransform="matrix(5.3455 -1.9798 1.9798 5.3455 931.6366 354.0322)">
		<stop  offset="0" style="stop-color:#5FB233"/>
		<stop  offset="1" style="stop-color:#90C643"/>
	</linearGradient>
	<path id="XMLID_92_" fill="url(#XMLID_110_)" d="M138.77,110.96c0,7.67,14.86,13.34,18.78,13.34c1.32,0,1.52-0.77,1.52-1.23
		c0-0.98-5.16-16.21-16.07-16.21C140.43,106.87,138.77,108.48,138.77,110.96 M139.76,110.96c0-1.92,1.24-3.1,3.25-3.1
		c9.86,0,15,14.23,15.08,15.23c0,0.11,0,0.23-0.53,0.23C154.06,123.32,139.76,117.77,139.76,110.96"/>
	
		<linearGradient id="XMLID_111_" gradientUnits="userSpaceOnUse" x1="-94.149" y1="-85.9509" x2="-93.6058" y2="-85.9509" gradientTransform="matrix(2.465 1.3228 -1.3228 2.465 251.1443 477.8369)">
		<stop  offset="0" style="stop-color:#5FB233"/>
		<stop  offset="1" style="stop-color:#90C643"/>
	</linearGradient>
	<path id="XMLID_93_" fill="url(#XMLID_111_)" d="M130.2,141.9c0.58,0.03,1.16,0.05,1.74,0.08c0.66-0.33,1.3-0.52,1.92-0.52
		c0.6,0,0.6,0.21,0.6,0.36c0,0.04-0.02,0.12-0.04,0.24c0.33,0.01,0.67,0.01,1,0.02c0.02-0.11,0.03-0.19,0.03-0.26
		c0-0.32-0.11-1.34-1.59-1.34C132.65,140.47,131.44,141.02,130.2,141.9"/>
	
		<linearGradient id="XMLID_112_" gradientUnits="userSpaceOnUse" x1="-101.8674" y1="-84.8865" x2="-101.3242" y2="-84.8865" gradientTransform="matrix(3.1682 1.5841 -1.5841 3.1682 343.3835 566.7714)">
		<stop  offset="0" style="stop-color:#5FB233"/>
		<stop  offset="1" style="stop-color:#90C643"/>
	</linearGradient>
	<path id="XMLID_94_" fill="url(#XMLID_112_)" d="M153.95,127.83c-0.32,0.31-0.43,0.76-0.32,1.26c0.1,0.48,0.53,0.93,0.98,1.41
		c0.29,0.3,0.77,0.8,0.77,1.02c0.01,0.4-0.84,1.57-3.18,2.98c-1.44,0.87-4.39,4.13-6.45,7.43c0.4-0.02,0.81-0.04,1.21-0.06
		c1.94-2.94,4.52-5.79,5.74-6.53c2.32-1.4,3.69-2.84,3.65-3.86c-0.02-0.59-0.52-1.11-1.05-1.67c-0.29-0.3-0.69-0.72-0.73-0.93
		c-0.03-0.16-0.02-0.28,0.05-0.34c0.14-0.13,0.59-0.22,1.4-0.01l0.99,0.24c1.87,0.43,2.47,0.64,2.5,1.56
		c0.04,1.16-1.36,6.24-3.96,10.86c0.4-0.04,0.8-0.08,1.2-0.13c2.42-4.51,3.79-9.33,3.75-10.76c-0.06-1.75-1.55-2.1-3.27-2.49
		l-0.97-0.23c-0.43-0.11-0.79-0.15-1.1-0.15C154.54,127.42,154.17,127.62,153.95,127.83"/>
	
		<linearGradient id="XMLID_113_" gradientUnits="userSpaceOnUse" x1="-118.2412" y1="-107.8168" x2="-117.698" y2="-107.8168" gradientTransform="matrix(-6.6313 -1.6578 1.6578 -6.6313 -497.6978 -779.8194)">
		<stop  offset="0" style="stop-color:#5FB233"/>
		<stop  offset="1" style="stop-color:#90C643"/>
	</linearGradient>
	<path id="XMLID_95_" fill="url(#XMLID_113_)" d="M99.94,127.11l-1.81,1.81c-1.6,1.62-3.96,4-6.65,6.58c0.37,0.1,0.74,0.2,1.1,0.29
		c2.13-2.05,4.24-4.15,6.25-6.18l1.8-1.8c3.13-3.02,7.25-3.68,8.1-3.68c0.97,0,1.66,0.42,1.66,0.74l0.99,0
		c0-1.08-1.33-1.73-2.64-1.73C107.73,123.15,103.34,123.82,99.94,127.11"/>
	
		<linearGradient id="XMLID_114_" gradientUnits="userSpaceOnUse" x1="-107.6084" y1="-96.739" x2="-107.0652" y2="-96.739" gradientTransform="matrix(19.74 0 0 19.74 2224.8364 2041.0779)">
		<stop  offset="0" style="stop-color:#529B2B"/>
		<stop  offset="0.8297" style="stop-color:#5FB233"/>
		<stop  offset="0.8297" style="stop-color:#5FB233"/>
		<stop  offset="1" style="stop-color:#5FB233"/>
	</linearGradient>
	<path id="XMLID_96_" fill="url(#XMLID_114_)" d="M110.38,124.89c0,0.35-0.78,1.24-1.86,2.46l-0.38,0.43
		c-0.99,1.13-4.69,6.16-7.49,10c0.35,0.08,0.7,0.16,1.05,0.23c2.76-3.78,6.26-8.53,7.18-9.58l0.38-0.43
		c1.45-1.64,2.11-2.39,2.11-3.12L110.38,124.89L110.38,124.89z"/>
	
		<linearGradient id="XMLID_115_" gradientUnits="userSpaceOnUse" x1="-108.0663" y1="-97.9647" x2="-107.5232" y2="-97.9647" gradientTransform="matrix(35.3986 0 0 35.3986 3901.2776 3590.626)">
		<stop  offset="0" style="stop-color:#529B2B"/>
		<stop  offset="0.0396" style="stop-color:#529B2B"/>
		<stop  offset="0.8309" style="stop-color:#5AAB30"/>
		<stop  offset="0.8309" style="stop-color:#5AAB30"/>
		<stop  offset="1" style="stop-color:#5AAB30"/>
	</linearGradient>
	<path id="XMLID_97_" fill="url(#XMLID_115_)" d="M82.85,123.12c-2.66,2.45-4.99,5.04-6.97,7.59c0.33,0.11,0.66,0.23,1,0.34
		c1.91-2.42,4.13-4.88,6.64-7.2c3.79-3.49,7.75-6.27,11.59-8.4l-0.45-0.88C90.74,116.74,86.71,119.57,82.85,123.12"/>
	
		<linearGradient id="XMLID_116_" gradientUnits="userSpaceOnUse" x1="-109.237" y1="-98.8674" x2="-108.6938" y2="-98.8674" gradientTransform="matrix(57.4986 0 0 57.4986 6385.7363 5815.4414)">
		<stop  offset="0" style="stop-color:#90C643"/>
		<stop  offset="1" style="stop-color:#56A32E"/>
	</linearGradient>
	<path id="XMLID_98_" fill="url(#XMLID_116_)" d="M104.76,138.67c0.39,0.08,0.79,0.16,1.18,0.24
		c13.34-12.82,18.88-15.41,23.75-15.41c2.12,0,3.62,0.71,4.47,2.13c0.56,0.94,0.84,2.18,0.84,3.72c0,1.72-0.38,3.03-0.63,3.9
		c-0.14,0.48-0.23,0.79-0.23,1.05c0,0.48,0.2,0.93,0.54,1.22l0.64-0.76c-0.12-0.1-0.19-0.28-0.19-0.46c0-0.12,0.1-0.45,0.19-0.77
		c0.27-0.92,0.67-2.31,0.67-4.17c0-1.45-0.24-2.69-0.72-3.7c-0.96-2.05-2.86-3.14-5.58-3.14
		C124.51,122.51,118.7,125.19,104.76,138.67"/>
	
		<linearGradient id="XMLID_117_" gradientUnits="userSpaceOnUse" x1="-111.6321" y1="-96.7777" x2="-111.089" y2="-96.7777" gradientTransform="matrix(13.4247 -11.8553 11.8553 13.4247 2783.8154 110.1031)">
		<stop  offset="0" style="stop-color:#56A32E"/>
		<stop  offset="0.5" style="stop-color:#83B43C"/>
		<stop  offset="0.5" style="stop-color:#83B43C"/>
		<stop  offset="1" style="stop-color:#5AAB30"/>
	</linearGradient>
	<path id="XMLID_99_" fill="url(#XMLID_117_)" d="M146.79,125.63c-0.86,1.44-6.24,8.33-11.16,9.19c-0.12,0.02-0.22,0-0.3-0.08
		l-0.64,0.76c0.31,0.26,0.7,0.36,1.11,0.29c5.75-1.01,12.08-9.39,12.08-10.29L146.79,125.63L146.79,125.63z"/>
	
		<linearGradient id="XMLID_118_" gradientUnits="userSpaceOnUse" x1="-109.6997" y1="-102.3423" x2="-109.1565" y2="-102.3423" gradientTransform="matrix(-29.9308 -9.1232 9.1232 -29.9308 -2156.0706 -3935.7788)">
		<stop  offset="0" style="stop-color:#56A32E"/>
		<stop  offset="0.2986" style="stop-color:#90C643"/>
		<stop  offset="0.6648" style="stop-color:#59A72F"/>
		<stop  offset="1" style="stop-color:#90C643"/>
	</linearGradient>
	<path id="XMLID_100_" fill="url(#XMLID_118_)" d="M186.47,127.63c-0.82,0.77-1.83,1.71-2.19,1.89c-0.28-0.19-0.79-1.26-1.1-1.93
		c-0.36-0.75-0.72-1.53-1.1-2.04c-1.38-1.84-3.21-2.35-8.51-2.35c-1.31,0-2.34,0.06-3.33,0.11l0.05,0.99
		c0.98-0.06,1.99-0.11,3.27-0.11c4.97,0,6.56,0.4,7.72,1.95c0.32,0.43,0.67,1.16,1,1.87c0.66,1.41,1.19,2.52,1.98,2.52
		c0.51,0,1.13-0.53,2.89-2.19c1.86-1.74,4.66-4.37,6.18-4.37c1.03,0,1.13,0.27,1.13,0.93c0,0.45-0.3,1.03-0.69,1.76
		c-0.69,1.32-1.7,3.27-1.87,6.32c0.34-0.12,0.68-0.24,1.01-0.37c0.21-2.59,1.08-4.24,1.73-5.49c0.45-0.86,0.8-1.53,0.8-2.22
		c0-0.55-0.12-0.97-0.36-1.28c-0.34-0.43-0.92-0.64-1.76-0.64C191.42,122.99,188.68,125.56,186.47,127.63"/>
	
		<linearGradient id="XMLID_119_" gradientUnits="userSpaceOnUse" x1="-110.3733" y1="-94.4982" x2="-109.8301" y2="-94.4982" gradientTransform="matrix(13.0245 0 0 13.0245 1600.7723 1354.2394)">
		<stop  offset="0" style="stop-color:#5FB233"/>
		<stop  offset="1" style="stop-color:#90C643"/>
	</linearGradient>
	<path id="XMLID_101_" fill="url(#XMLID_119_)" d="M163.22,122.87c0.63,1.48,1.66,1.54,4.11,1.54l2.96-0.1l-0.05-0.99l-2.91,0.1
		c-2.61,0-2.86-0.13-3.2-0.94L163.22,122.87z"/>
	
		<linearGradient id="XMLID_120_" gradientUnits="userSpaceOnUse" x1="-103.3135" y1="-98.6481" x2="-102.7703" y2="-98.6481" gradientTransform="matrix(6.0396 7.9945 -7.9945 6.0396 -42.4461 1556.4789)">
		<stop  offset="0" style="stop-color:#56A32E"/>
		<stop  offset="0.4945" style="stop-color:#90C643"/>
		<stop  offset="1" style="stop-color:#90C643"/>
	</linearGradient>
	<path id="XMLID_102_" fill="url(#XMLID_120_)" d="M128.42,129.54c-1.74,0.04-7.23,4.3-11.37,8.77c-0.18,0.2-0.36,0.39-0.53,0.59
		c-0.44,0.5-0.9,1.03-1.35,1.58c0.38,0.06,0.77,0.11,1.15,0.16c0.3-0.36,0.61-0.71,0.93-1.08c0.34-0.38,0.69-0.76,1.05-1.13
		c4.21-4.41,8.99-7.86,10.15-7.89c0.59-0.02,0.98,0.15,1,0.41l0.01,0.11c0,1.17-1.56,2.19-2.93,3.1l-1.04,0.71l-0.05,0.04
		c-1.73,1.24-2.56,1.85-2.56,2.98c0,0.15,0.01,0.31,0.04,0.48c0.07,0.43,0.35,0.7,0.59,0.94c0.23,0.22,0.42,0.42,0.51,0.75h1.01
		c-0.12-0.75-0.52-1.16-0.83-1.46c-0.18-0.18-0.29-0.29-0.31-0.4c-0.14-0.81,0.14-1.06,2.12-2.49l0.05-0.04l1.01-0.68
		c1.65-1.09,3.52-2.32,3.37-4.12c-0.05-0.62-0.59-1.32-1.92-1.32L128.42,129.54"/>
	
		<linearGradient id="XMLID_121_" gradientUnits="userSpaceOnUse" x1="-103.2686" y1="-98.759" x2="-102.7254" y2="-98.759" gradientTransform="matrix(6.0384 7.9929 -7.9929 6.0384 -45.1077 1557.6691)">
		<stop  offset="0" style="stop-color:#5FB233"/>
		<stop  offset="1" style="stop-color:#90C643"/>
	</linearGradient>
	<path id="XMLID_103_" fill="url(#XMLID_121_)" d="M124.02,140.04c0.02,0.07,0.04,0.15,0.04,0.23l0,0.06c0,0.23-0.12,0.61-0.41,1.12
		c0.35,0.03,0.71,0.06,1.06,0.09c0.25-0.54,0.37-1,0.33-1.37l-0.02-0.14H124.02L124.02,140.04z"/>
	
		<linearGradient id="XMLID_122_" gradientUnits="userSpaceOnUse" x1="-122.3001" y1="-106.8952" x2="-121.757" y2="-106.8952" gradientTransform="matrix(-4.0546 -4.8321 4.8321 -4.0546 157.9479 -919.8102)">
		<stop  offset="0" style="stop-color:#5FB233"/>
		<stop  offset="0.8132" style="stop-color:#9BCB52"/>
		<stop  offset="1" style="stop-color:#9BCB52"/>
	</linearGradient>
	<path id="XMLID_104_" fill="url(#XMLID_122_)" d="M130.73,105.46c-0.37,0.9-0.57,1.93-0.57,3.08c0,4.32,2.13,12.27,16.41,17.03
		l0.18,0.06l0.03,0.01l1.09-0.12c0-0.59-0.54-0.75-0.83-0.84l-0.15-0.05c-13.69-4.56-15.74-12.04-15.74-16.09
		c0-1.1,0.19-2.02,0.52-2.77c1.36-3.16,5.05-3.56,6.84-3.56c15.07,0,22.66,15.68,24.63,20.48l0.08,0.19l0.91-0.39l-0.07-0.17
		c-2.03-4.95-9.86-21.1-25.54-21.1C134.59,101.22,131.86,102.76,130.73,105.46"/>
	
		<linearGradient id="XMLID_123_" gradientUnits="userSpaceOnUse" x1="-139.1488" y1="-99.2028" x2="-138.6056" y2="-99.2028" gradientTransform="matrix(-1.2556 -2.9186 2.9186 -1.2556 225.8294 -422.7403)">
		<stop  offset="0" style="stop-color:#5AAB30"/>
		<stop  offset="1" style="stop-color:#90C643"/>
	</linearGradient>
	<path id="XMLID_106_" fill="url(#XMLID_123_)" d="M124.59,99.74c0.37,0.05,0.66,0.11,0.89,0.16c-1.94,3.45-5.36,9.52-5.53,9.8
		l-0.04,0.06l-0.13-0.01l-0.22-0.03c-2.86-0.43-5.25-0.65-7.12-0.65c-4.52,0-10.97,1.75-17.77,5.51l0.45,0.88
		c6.65-3.68,12.93-5.4,17.33-5.4c1.82,0,4.17,0.22,6.97,0.64l0.23,0.03c0.27,0.04,0.48,0.02,0.66-0.05c0.2-0.08,0.35-0.23,0.5-0.47
		c0.22-0.37,5.49-9.73,5.71-10.12c0.11-0.18,0.14-0.41,0.07-0.61c-0.07-0.2-0.23-0.35-0.44-0.41c-0.43-0.14-0.96-0.25-1.55-0.32
		V99.74z"/>
	<path id="XMLID_107_" fill="#90C643" d="M79.11,116.7c18.52-13.46,36.24-17.06,43.79-17.06c0.69,0,1.23,0.02,1.7,0.1v-0.99
		c-0.55-0.08-1.1-0.09-1.7-0.09c-7.67,0-25.64,3.63-44.37,17.25c-5.21,3.79-9.51,7.49-13.02,11.02c0.33,0.13,0.67,0.26,1,0.39
		C69.92,123.91,74.09,120.35,79.11,116.7"/>
</g>
</svg>
