<?xml version="1.0" encoding="utf-8"?>
<!-- Generator: Adobe Illustrator 23.0.1, SVG Export Plug-In . SVG Version: 6.00 Build 0)  -->
<svg version="1.1" id="Layer_1" xmlns="http://www.w3.org/2000/svg" xmlns:xlink="http://www.w3.org/1999/xlink" x="0px" y="0px"
	 viewBox="0 0 1000 1000" style="enable-background:new 0 0 1000 1000;" xml:space="preserve">
<style type="text/css">
	.st0{fill-rule:evenodd;clip-rule:evenodd;fill:#E21F26;}
</style>
<g>
	<path class="st0" d="M118.6,573.8c-13.2-8.3-23-36.9-23-70.9c0-1.2,0-2.5,0-3.7l0,0l0,0l0,0c-36.8-5.8-63.4-21.6-64.1-40.4l0,0
		l-0.1,0.2l0,0c-9,11.2-14.1,24.1-14.1,37.9c0,40.6,44.5,73.8,101,76.8l0,0L118.6,573.8L118.6,573.8L118.6,573.8z M0.3,500
		c0-45.4,56.5-82.2,126.2-82.2c69.7,0,126.2,36.8,126.2,82.2s-56.5,82.2-126.2,82.2C56.8,582.2,0.3,545.4,0.3,500L0.3,500L0.3,500
		L0.3,500z M126.5,429.7c13.5,0,24.9,20.4,29.1,48.9l0,0l0,0l0,0c26.2-4.1,44.5-13.5,44.5-24.4c0-14.7-33-26.6-73.6-26.6
		c-40.7,0-73.6,11.9-73.6,26.6c0,10.9,18.3,20.3,44.5,24.4l0,0l0,0l0,0C101.6,450.1,113.1,429.7,126.5,429.7L126.5,429.7
		L126.5,429.7L126.5,429.7z M134.7,573.8c56.5-2.9,101-36.2,101-76.8c0-13.8-5.1-26.7-14.1-37.9l0,0l-0.1-0.2l0,0
		c-0.7,18.7-27.3,34.6-64.1,40.4l0,0l0,0l0,0c0,1.2,0,2.5,0,3.7c0,34-9.8,62.6-23,70.9l0,0L134.7,573.8L134.7,573.8L134.7,573.8z
		 M126.5,480.7c6,0,11.9-0.3,17.5-0.8l0,0l0,0l0,0c-2.8-18.3-9.6-31.1-17.5-31.1s-14.7,12.9-17.5,31.1l0,0l0,0l0,0
		C114.6,480.4,120.5,480.7,126.5,480.7L126.5,480.7L126.5,480.7L126.5,480.7z M126.5,548.3c10.1,0,18.4-21.1,18.8-47.5l0,0l0.1,0
		l0,0c-6.1,0.6-12.4,0.9-18.9,0.9c-6.5,0-12.8-0.3-18.9-0.9l0,0l0.1,0l0,0C108.1,527.2,116.4,548.3,126.5,548.3L126.5,548.3
		L126.5,548.3L126.5,548.3z"/>
	<path class="st0" d="M644.2,500c0-34.7,28.1-62.8,62.8-62.8c34.7,0,62.8,28.1,62.8,62.8c0,34.7-28.1,62.8-62.8,62.8
		C672.3,562.8,644.2,534.7,644.2,500L644.2,500L644.2,500L644.2,500z M707,539.8c19.4,0,35.1-17.8,35.1-39.8
		c0-22-15.7-39.8-35.1-39.8c-19.4,0-35.1,17.8-35.1,39.8S687.6,539.8,707,539.8L707,539.8L707,539.8L707,539.8z"/>
	<polygon class="st0" points="841.1,463.4 841.1,560 814.7,560 814.7,463.4 814.7,463.4 777.7,463.4 777.7,441.5 878,441.5 
		878,463.4 841.2,463.4 841.1,463.4 	"/>
	<path class="st0" d="M910.1,533.3L910.1,533.3L899.9,560H869l48.9-118.5h16.5h16.5L999.7,560h-30.9l-10.2-26.6l0,0h-24.2H910.1
		L910.1,533.3L910.1,533.3z M934.3,513.3H951l0,0L934.4,470h-0.2l-16.5,43.4l0,0H934.3L934.3,513.3L934.3,513.3z"/>
	<polygon class="st0" points="353.2,463.4 353.2,560 326.7,560 326.7,463.4 326.8,463.4 289.8,463.4 289.8,441.5 390.1,441.5 
		390.1,463.4 353.3,463.4 353.2,463.4 	"/>
	<path class="st0" d="M396.9,500c0-34.7,28.1-62.8,62.8-62.8c34.7,0,62.8,28.1,62.8,62.8c0,34.7-28.1,62.8-62.8,62.8
		C425,562.8,396.9,534.7,396.9,500L396.9,500L396.9,500L396.9,500z M459.7,539.8c19.4,0,35.1-17.8,35.1-39.8
		c0-22-15.7-39.8-35.1-39.8c-19.4,0-35.1,17.8-35.1,39.8S440.3,539.8,459.7,539.8L459.7,539.8L459.7,539.8L459.7,539.8z"/>
	<polygon class="st0" points="583.4,560 596.8,560 596.8,515.5 596.8,515 643,441.5 612,441.5 583.4,491.3 554.7,441.5 523.7,441.5 
		569.9,515 569.9,515.5 569.9,560 583.4,560 	"/>
</g>
</svg>
