<svg id="Layer_1" data-name="Layer 1" xmlns="http://www.w3.org/2000/svg" xmlns:xlink="http://www.w3.org/1999/xlink" viewBox="0 0 1000 1000"><defs><style>.cls-1{fill:none;}.cls-2{fill:#0a57a4;}.cls-3{fill:#fff;}.cls-4{fill:#3db2e5;}.cls-5{clip-path:url(#clip-path);}.cls-6{fill:url(#radial-gradient);}.cls-7{clip-path:url(#clip-path-2);}.cls-8{fill:url(#radial-gradient-2);}.cls-9{clip-path:url(#clip-path-3);}.cls-10{fill:url(#radial-gradient-3);}.cls-11{clip-path:url(#clip-path-4);}.cls-12{fill:url(#radial-gradient-4);}.cls-13{clip-path:url(#clip-path-5);}.cls-14{fill:url(#radial-gradient-5);}.cls-15{clip-path:url(#clip-path-6);}.cls-16{fill:url(#radial-gradient-6);}.cls-17{clip-path:url(#clip-path-7);}.cls-18{fill:url(#radial-gradient-7);}.cls-19{clip-path:url(#clip-path-8);}.cls-20{fill:url(#radial-gradient-8);}.cls-21{fill:url(#linear-gradient);}</style><clipPath id="clip-path"><path class="cls-1" d="M299.23,398.85a199.57,199.57,0,0,1,11.65,32.73,197,197,0,0,1,28,21.63,157.71,157.71,0,0,0-17.2-29.75s0,0-.05,0A154.64,154.64,0,0,0,299.23,398.85Z"/></clipPath><radialGradient id="radial-gradient" cx="79.24" cy="800.35" r="6.79" gradientTransform="matrix(37.93, 0, 0, -37.93, -2654.73, 30734.42)" gradientUnits="userSpaceOnUse"><stop offset="0" stop-color="#3db2e5"/><stop offset="0.17" stop-color="#3db2e5"/><stop offset="0.24" stop-color="#33a1d9"/><stop offset="0.41" stop-color="#1d79bc"/><stop offset="0.54" stop-color="#0f60ab"/><stop offset="0.63" stop-color="#0a57a4"/><stop offset="0.75" stop-color="#11498c"/><stop offset="0.96" stop-color="#1e2d5b"/><stop offset="1" stop-color="#1e2d5b"/></radialGradient><clipPath id="clip-path-2"><path class="cls-1" d="M328.24,473.11c11.45,21.61,18.63,43,21.36,62.15,3.88-28.66.46-56-10.74-82.05-2.84,7.29-6.44,13.29-10.62,19.9"/></clipPath><radialGradient id="radial-gradient-2" cx="79.25" cy="800.36" r="6.76" gradientTransform="matrix(37.93, 0, 0, -37.93, -2654.96, 30734.29)" xlink:href="#radial-gradient"/><clipPath id="clip-path-3"><path class="cls-1" d="M223.06,363.28c17,8.53,36.06,22.33,53.45,39.73a151.22,151.22,0,0,1,22.72-4.16A152.77,152.77,0,0,0,223.06,363.28Z"/></clipPath><radialGradient id="radial-gradient-3" cx="79.25" cy="800.36" r="6.78" gradientTransform="matrix(37.93, 0, 0, -37.93, -2654.87, 30734.27)" xlink:href="#radial-gradient"/><clipPath id="clip-path-4"><path class="cls-1" d="M125.18,568s39.19,8.55,94.62,15c9.22-43.42,12.41-88.49,12.56-93.08C196,481,158.57,475.15,139.47,473.63c-10.56,53.67-14.1,92.2-14.29,94.32"/></clipPath><radialGradient id="radial-gradient-4" cx="79.26" cy="800.36" r="6.77" gradientTransform="matrix(37.93, 0, 0, -37.93, -2655.11, 30734.71)" xlink:href="#radial-gradient"/><clipPath id="clip-path-5"><path class="cls-1" d="M99.33,418.3l40.14,55.33h0c.41-.68,34.84-24.91,73.44-44.75a519.21,519.21,0,0,0-49-48C142,391.23,123.35,400.44,99.33,418.3"/></clipPath><radialGradient id="radial-gradient-5" cx="79.25" cy="800.36" r="6.77" gradientTransform="matrix(37.93, 0, 0, -37.93, -2655.23, 30734.56)" xlink:href="#radial-gradient"/><clipPath id="clip-path-6"><path class="cls-1" d="M169.74,364.18c-2.08,5.38-3.94,11.15-5.87,16.7a520.24,520.24,0,0,1,65.93,15.21,236.42,236.42,0,0,0-6.74-32.81,155.76,155.76,0,0,0-24.19-1.88,152,152,0,0,0-29.13,2.78"/></clipPath><radialGradient id="radial-gradient-6" cx="79.27" cy="800.35" r="6.78" gradientTransform="matrix(37.93, 0, 0, -37.93, -2655.42, 30734.14)" xlink:href="#radial-gradient"/><clipPath id="clip-path-7"><path class="cls-1" d="M219.8,583l40.9,55.65a344.74,344.74,0,0,0,54.15-51.24,479.54,479.54,0,0,0-30.47-61.05c-36.89,35.9-59.59,53-64.58,56.64"/></clipPath><radialGradient id="radial-gradient-7" cx="79.25" cy="800.36" r="6.78" gradientTransform="matrix(37.93, 0, 0, -37.93, -2654.98, 30735.04)" xlink:href="#radial-gradient"/><clipPath id="clip-path-8"><path class="cls-1" d="M314.85,587.36c5.83-.15,9.6-.22,15.32-.58,8.71-15.83,14.54-29.46,19.43-51.52,0,0-18.67-10.55-29.19-15.38-.35,28.41-3.62,56-5.56,67.48"/></clipPath><radialGradient id="radial-gradient-8" cx="79.25" cy="800.36" r="6.78" gradientTransform="matrix(37.93, 0, 0, -37.93, -2654.87, 30733.95)" xlink:href="#radial-gradient"/><linearGradient id="linear-gradient" x1="399.2" y1="512.67" x2="900.67" y2="512.67" gradientUnits="userSpaceOnUse"><stop offset="0" stop-color="#3db2e5"/><stop offset="0.12" stop-color="#3db2e5"/><stop offset="0.15" stop-color="#33a1d9"/><stop offset="0.23" stop-color="#1d79bc"/><stop offset="0.29" stop-color="#0f60ab"/><stop offset="0.33" stop-color="#0a57a4"/><stop offset="0.56" stop-color="#11498c"/><stop offset="0.96" stop-color="#1e2d5b"/><stop offset="1" stop-color="#1e2d5b"/></linearGradient></defs><path class="cls-2" d="M315,451.11q-4.86-7.47-10.36-15c-3.67-5-7.29-10-11.14-14.61a318.28,318.28,0,0,0-31.06-14.14c-9.95,3.37-20.21,7.52-30.1,12,.84,11,1.23,22.29,1.25,33.66q8.84,10.94,17.33,22.49,8.91,12.15,17,24.38c10.6,3.34,21,7,30.9,10.83,7.27-8.06,14.24-16.44,20.47-24.92A322,322,0,0,0,315,451.11"/><path class="cls-3" d="M163.87,380.88a519.21,519.21,0,0,1,49,48c6.26-3.2,12.87-6.51,19.38-9.48-.59-7.82-1.44-15.78-2.49-23.31a521.18,521.18,0,0,0-65.93-15.2"/><path class="cls-3" d="M212.91,428.87c-38.77,19.94-73.35,44.28-73.44,44.76,19.1,1.52,56.5,7.33,92.89,16.24.8-12.15,1.2-24.68,1.18-36.81-6.71-8.31-13.74-16.51-20.63-24.19"/><path class="cls-3" d="M232.36,489.87c-.15,4.59-3.34,49.66-12.56,93.08,5-3.63,27.69-20.74,64.58-56.64-5.05-8.61-10.79-17.7-16.54-26.38-11.54-3.65-23.65-7.08-35.48-10.06"/><path class="cls-3" d="M284.38,526.31a479.54,479.54,0,0,1,30.47,61.05c1.94-11.45,5.21-39.07,5.56-67.48-6.8-3.12-14.34-6.27-21.67-9.12-4.71,5.23-9.52,10.64-14.36,15.55"/><path class="cls-3" d="M299.23,398.85A151.22,151.22,0,0,0,276.51,403c5.63,5.66,11.55,12.08,16.94,18.51,5.78,3.08,11.92,6.56,17.43,10.06a199.9,199.9,0,0,0-11.65-32.73"/><path class="cls-3" d="M349.6,535.26c-2.73-19.14-9.91-40.54-21.36-62.15-2.63,4.17-6,8.58-9,12.73.8,11.57,1.3,23.27,1.2,34,10.52,4.83,29.19,15.38,29.19,15.38"/><path class="cls-3" d="M338.86,453.21a195.69,195.69,0,0,0-28-21.63c1.64,6.22,2.92,13.19,4.07,19.53,4.71,7.25,9.5,14.86,13.29,22,4.18-6.59,7.78-12.6,10.62-19.89"/><path class="cls-4" d="M233.55,453.06c0,12.13-.39,24.66-1.19,36.81,11.83,3,23.94,6.41,35.48,10.06q-8.05-12.21-17-24.38Q242.4,464,233.55,453.06"/><path class="cls-4" d="M284.38,526.31c4.84-4.91,9.65-10.32,14.36-15.55-9.94-3.86-20.3-7.48-30.9-10.83,5.75,8.68,11.49,17.77,16.54,26.38"/><path class="cls-4" d="M319.21,485.84c-6.23,8.48-13.2,16.85-20.47,24.92,7.33,2.86,14.87,6,21.67,9.12.1-10.77-.4-22.47-1.2-34"/><path class="cls-4" d="M315,451.11a322,322,0,0,1,4.26,34.73c3.05-4.15,6.4-8.55,9-12.74-3.79-7.13-8.58-14.74-13.29-22"/><path class="cls-4" d="M315,451.11c-1.15-6.35-2.43-13.31-4.07-19.52-5.51-3.51-11.65-7-17.43-10.07,3.85,4.64,7.47,9.62,11.14,14.61s7.12,10,10.36,15"/><path class="cls-4" d="M229.8,396.08c1,7.53,1.9,15.48,2.49,23.31a324,324,0,0,1,30.1-12c-10.86-4.31-22.15-8.12-32.59-11.3"/><path class="cls-4" d="M212.91,428.87c6.89,7.68,13.92,15.88,20.63,24.19,0-11.37-.41-22.64-1.25-33.66-6.51,3-13.11,6.27-19.38,9.47"/><path class="cls-4" d="M276.51,403c-4.58,1.21-9.44,2.78-14.12,4.37a320.67,320.67,0,0,1,31.06,14.14c-5.39-6.42-11.31-12.86-16.94-18.51"/><path class="cls-3" d="M229.8,396.08c10.44,3.18,21.73,7,32.59,11.3,4.68-1.59,9.54-3.16,14.12-4.37-17.39-17.4-36.41-31.19-53.45-39.74a237.08,237.08,0,0,1,6.74,32.81"/><g class="cls-5"><rect class="cls-6" x="299.23" y="398.85" width="39.63" height="54.36"/></g><g class="cls-7"><rect class="cls-8" x="328.24" y="453.21" width="25.23" height="82.05"/></g><g class="cls-9"><rect class="cls-10" x="223.06" y="363.28" width="76.17" height="39.73"/></g><g class="cls-11"><rect class="cls-12" x="125.18" y="473.63" width="107.18" height="109.32"/></g><g class="cls-13"><rect class="cls-14" x="99.33" y="380.88" width="113.58" height="92.75"/></g><g class="cls-15"><rect class="cls-16" x="163.87" y="361.4" width="65.92" height="34.68"/></g><g class="cls-17"><rect class="cls-18" x="219.8" y="526.31" width="95.05" height="112.29"/></g><g class="cls-19"><rect class="cls-20" x="314.85" y="519.88" width="34.75" height="67.48"/></g><path class="cls-4" d="M418.16,567.57a11.42,11.42,0,0,0-5.87-1.59c-6.58,0-10.94,4.74-10.94,11.14,0,6.69,4.82,11.14,10.73,11.14a14.17,14.17,0,0,0,6.21-1.39l.24,4a17.76,17.76,0,0,1-6.49,1c-9,0-15-5.8-15-14.85,0-8.77,6.37-14.61,15.06-14.61a15.75,15.75,0,0,1,6.4,1.22Z"/><path class="cls-4" d="M430.61,570.06c6.32,0,10.56,4.57,10.56,10.9,0,6-4.32,10.89-10.56,10.89S420,586.92,420,581c0-6.33,4.25-10.9,10.62-10.9m0,18.68c4.49,0,6.48-4.07,6.48-7.78,0-4-2.4-7.8-6.48-7.8s-6.52,3.83-6.52,7.8c0,3.71,2,7.78,6.52,7.78"/><path class="cls-4" d="M444.6,570.55h3.71v3.3h.09a7.47,7.47,0,0,1,6.81-3.79c5.38,0,7.78,3.35,7.78,8.93v12.36h-3.82V580.59c0-4.86-1.06-7.23-4.41-7.43-4.38,0-6.32,3.5-6.32,8.57v9.62H444.6Z"/><path class="cls-4" d="M468.29,570.55H472v3.3h.09c1.13-2.37,3.91-3.79,6.81-3.79,5.39,0,7.78,3.35,7.78,8.93v12.36h-3.84V580.59c0-4.86-1.06-7.23-4.39-7.43-4.36,0-6.34,3.5-6.34,8.57v9.62h-3.83Z"/><path class="cls-4" d="M507.09,590.5a16,16,0,0,1-6.56,1.35c-7.39,0-10.78-4.49-10.78-11.26,0-6.16,3.89-10.53,9.76-10.53,6.94,0,9.18,5.05,9.18,11.75H493.83a6.81,6.81,0,0,0,6.86,6.93,12.14,12.14,0,0,0,6.4-2.08ZM504.62,579c0-3.18-1.89-5.79-5.2-5.79-3.75,0-5.31,3.1-5.59,5.79Z"/><path class="cls-4" d="M526.4,574.06a11.26,11.26,0,0,0-4.17-.9c-4.29,0-6.7,3.83-6.7,7.8,0,3.71,2,7.78,6.93,7.78a8,8,0,0,0,4.14-1.18l.28,3.43a11.83,11.83,0,0,1-4.82.85c-6.28,0-10.61-4.92-10.61-10.88,0-6.33,4.26-10.9,10.61-10.9a14.32,14.32,0,0,1,4.66.82Z"/><path class="cls-4" d="M538,588.74c-1.77,0-3.24-1.3-3.24-3.71V573.65h5.52v-3.1h-5.52v-6l-3.81,1.23v20.07c0,4.16,2.43,6,6.4,6a11.85,11.85,0,0,0,3.24-.57V588a4.57,4.57,0,0,1-2.59.73"/><rect class="cls-4" x="544.27" y="570.55" width="3.82" height="20.8"/><path class="cls-4" d="M553,570.55h3.71v3.3h.07a7.49,7.49,0,0,1,6.82-3.79c5.39,0,7.79,3.35,7.79,8.93v12.36h-3.83V580.59c0-4.86-1.06-7.23-4.41-7.43-4.36,0-6.33,3.5-6.33,8.57v9.62H553Z"/><path class="cls-4" d="M594.15,590.46c0,6.32-3.26,9.95-10.73,9.95A20.87,20.87,0,0,1,576,599l.41-3.54a15.92,15.92,0,0,0,7.51,1.87c4,0,6.43-2.73,6.43-7.13v-2h-.06a8.73,8.73,0,0,1-7,3.23c-6,0-8.88-4.86-8.88-10.25s3-11.05,9.28-11.05c3.69,0,5.71,1.34,6.86,3.59h.07v-3.1h3.56Zm-3.84-9.26c0-4.33-2-8-6.08-8-3.87,0-5.79,4.21-5.79,7.75,0,3.92,2.2,7.35,5.79,7.35s6.08-3.19,6.08-7.06"/><path class="cls-4" d="M618.67,588.74c-1.77,0-3.24-1.3-3.24-3.71V573.65H621v-3.1h-5.53v-6l-3.82,1.23v20.07c0,4.16,2.45,6,6.41,6a11.93,11.93,0,0,0,3.25-.57V588a4.65,4.65,0,0,1-2.6.73"/><path class="cls-4" d="M624.62,560.76h3.83v12.77h.09a7.64,7.64,0,0,1,6.69-3.47c5.39,0,7.77,3.35,7.77,8.93v12.37h-3.82V580.59c0-4.86-1.06-7.23-4.4-7.43-4.37,0-6.33,3.5-6.33,8.57v9.63h-3.83Z"/><path class="cls-4" d="M663,590.5a15.88,15.88,0,0,1-6.57,1.35c-7.38,0-10.77-4.49-10.77-11.26,0-6.16,3.88-10.53,9.76-10.53,6.93,0,9.17,5.05,9.17,11.75H649.75a6.81,6.81,0,0,0,6.87,6.93,12.2,12.2,0,0,0,6.39-2.08ZM660.52,579c0-3.18-1.86-5.79-5.17-5.79-3.76,0-5.31,3.1-5.6,5.79Z"/><polygon class="cls-4" points="674.56 562.88 679.03 562.88 685.85 587.27 685.93 587.27 692.02 562.88 697.82 562.88 703.97 587.27 704.06 587.27 710.86 562.88 715.19 562.88 706.42 591.35 701.15 591.35 694.96 566.47 694.86 566.47 688.63 591.35 683.17 591.35 674.56 562.88"/><path class="cls-4" d="M725.14,570.06c6.33,0,10.57,4.57,10.57,10.9,0,6-4.34,10.89-10.57,10.89s-10.6-4.93-10.6-10.89c0-6.33,4.24-10.9,10.6-10.9m0,18.68c4.49,0,6.49-4.07,6.49-7.78,0-4-2.4-7.8-6.49-7.8s-6.53,3.83-6.53,7.8c0,3.71,2,7.78,6.53,7.78"/><path class="cls-4" d="M738.9,570.55h3.58v3.22h.08a6.34,6.34,0,0,1,5.41-3.71,10.9,10.9,0,0,1,2.54.28v3.43a5.89,5.89,0,0,0-2.11-.36c-3.43,0-5.67,3.25-5.67,8.49v9.45H738.9Z"/><rect class="cls-4" x="753.82" y="560.76" width="3.83" height="30.59"/><path class="cls-4" d="M777.2,588.42h-.09a8.31,8.31,0,0,1-7.09,3.43c-6.29,0-9-5.59-9-11.26s3-10.53,9-10.53c3.64,0,5.71,1.43,6.91,3.35H777V560.76h3.83v30.59H777.2Zm-6.27.32c4.31,0,6.1-4.28,6.1-7.75,0-3.87-2-7.83-6.16-7.83s-5.78,3.92-5.71,7.71c-.07,3.26,1.64,7.87,5.77,7.87"/><polygon class="cls-4" points="549.86 562.89 546.24 566.49 542.65 562.89 546.24 559.29 549.86 562.89"/><path class="cls-21" d="M522.42,491.6c-7.63,0-11.46,3.13-13.76,7h-.77V472.19H500v63.37h7.88v-6.42c2.3,3.38,6.9,7.21,14.53,7.21,13.11,0,18.39-11.78,18.39-23.24s-6-21.51-18.39-21.51M520.16,530c-8.45,0-12.27-8.45-12.27-16.12s3.82-16,13-16c8.42,0,11.55,8.36,11.55,16,0,6.93-3.13,16.12-12.28,16.12m336.61-49.28L849.13,483v40.79c0,8.78,4.65,12.61,13,12.61,2.31,0,4.57-.79,6.14-.79v-7.17a6.58,6.58,0,0,1-4.61,1.57c-3.78,0-6.9-2.3-6.9-7.7V499.34h11.51v-7H856.77Zm25.51,22.41c0-3,3.84-5.26,7.79-5.26,2.19,0,6.77,1.51,8.32,2.26l.75-7a39.66,39.66,0,0,0-9.84-1.52c-8.5,0-15.67,4.69-15.67,13,0,12.31,18.63,11.52,18.63,19.11,0,4.65-3.84,6.22-7.62,6.22-2.36,0-7.18-.82-10.28-3.09V534c3.1,2.31,7.92,2.31,11.76,2.31,7.7,0,14.55-3.83,14.55-13.35,0-13.73-18.39-11.42-18.39-19.91m-398.34,9.28c0,10.63-3.8,17.59-13,17.59-7.13-.82-9.43-5.39-9.43-15.33V492.38h-7.71v25.3c0,11.46,5.45,18.67,16.36,18.67,6.06,0,11.54-2.31,13.8-8v7.17h7.63V492.38h-7.63ZM749.58,491.6a17.8,17.8,0,0,0-14.55,7v-6.18h-7.7v60.77H735v-24c2.35,4.9,6.93,7.21,14.55,7.21,13.27,0,18.66-11.78,18.66-23.24s-6.15-21.51-18.66-21.51M748,530c-9.18,0-13-8.45-13-16.12s4.61-16,13-16c8.7,0,11.75,8.36,11.75,16C759.79,520.77,756,530,748,530M564,491.6a28.68,28.68,0,0,0-14.55,3.91l.81,6.84c3.13-2.26,7.6-4.52,12.19-4.52,7.74,0,10.78,3.78,10.78,11.44h-8.48c-8.32,0-20.15,3.1-20.15,13.73,0,9.52,6.39,13.35,16.31,13.35,7,0,10.81-3.83,13.11-6.39v5.6h6.8V509.27c0-11.44-4.57-17.67-16.82-17.67m9.23,26.86c0,6.88-4.57,11.5-12.32,11.5-3.05,0-7.52-2.3-7.52-7,0-7.59,10.61-8.37,14.49-8.37,1.56,0,3.84.78,5.35.78ZM416,476.89H399.2v58.67H416c19.4,0,30.9-10.22,30.9-30.11,0-17.93-13.75-28.56-30.9-28.56m0,50.77h-9.14V484.51h9.92c12.57,0,21.68,7.87,21.68,21.68,0,14.58-7.6,21.47-22.46,21.47m173.61,7.9H598V492.38h-8.38ZM795,491.6c-12.93,0-22.16,9.27-22.16,22.24,0,12.29,9.23,22.51,22.16,22.51,12.58,0,21.81-10.22,21.81-22.51,0-13-9.23-22.24-21.81-22.24M795,530c-9.15,0-13.72-8.45-13.72-16.12s5.36-16,13.72-16c8,0,13.33,8.36,13.33,16S804.5,530,795,530m-112.22,5.6h7.57V492.38h-7.57ZM708,499.34v-7h-6.88v43.18h7.65V516.15c0-10.7,4.58-17.59,11.76-17.59h2.28v-7h-3.07c-4.6,0-9.45,3.13-11.74,7.74m120.9,0v-7h-6.82v43.18h7.6V516.15c0-10.7,4.68-17.59,11.81-17.59h2.29v-7h-3.07a13.61,13.61,0,0,0-11.81,7.74M645.74,476.89l-24,58.67h8.4l6.35-14.79h26.81l5.28,14.79h9.6l-24.14-58.67Zm-7,37,10.74-29.33,10.81,29.33Z"/><polygon class="cls-4" points="687.26 482.94 680.77 476.43 687.26 469.93 693.77 476.43 687.26 482.94"/><polygon class="cls-4" points="593.64 482.94 587.11 476.43 593.64 469.93 600.15 476.43 593.64 482.94"/></svg>