<?xml version="1.0" encoding="utf-8"?>
<!-- Generator: Adobe Illustrator 24.0.2, SVG Export Plug-In . SVG Version: 6.00 Build 0)  -->
<svg version="1.0" id="Layer_1" xmlns="http://www.w3.org/2000/svg" xmlns:xlink="http://www.w3.org/1999/xlink" x="0px" y="0px"
	 viewBox="0 0 300 280" enable-background="new 0 0 300 280" xml:space="preserve">
<g>
	<g>
		<g>
			<g>
				<path fill="#636569" d="M196.83,181.66c0,0-0.02-0.17-0.02-0.32c0-0.12,0.01-0.22,0.05-0.23c-0.02,0.01-0.49,0.27-0.5,0.28
					c0,0-1.42,0.79-1.43,0.79l-1.4,0.63c-0.18,0.08-0.41,0.19-0.44,1.24l-0.01,0.27v12.27h-10.7l0-11.02c0-1.69-0.4-2.88-1.23-3.66
					c-0.84-0.79-2.13-1.13-3.86-1.02c-0.1,0-9.51-0.31-16.94,5.84l-1.4,1.59l-0.48,0.63l-0.28-0.74c-0.27-0.72-0.72-1.43-1.44-2.29
					c0,0-0.46-0.5-0.47-0.51c0,0-0.2-0.17-0.39-0.33c0.06,0.51,0.17,1.74,0.17,3.39v7.96l-6.03,0v-27.44c0-0.44-0.04-0.59,0.03-0.6
					c0,0-0.5,0.27-0.51,0.28c0,0-1.42,0.79-1.42,0.79l-1.4,0.64c-0.19,0.08-0.44,0.2-0.44,1.48l0,24.64
					c-0.04,1.38,0.01,2.04,0.72,2.97c0.38,0.49,1.08,1.41,3.12,1.41h5.77l0,0.42c-0.02,2.05-1.1,5.54-1.12,5.6
					c0,0-0.04,0.12-0.08,0.23c0.34-0.21,0.86-0.58,1.46-1.12c1.65-1.96,2.44-3.72,2.81-4.85l0.09-0.28h24.97c0,0,8.54,0,8.56,0
					c0.02,0,1.68,0.1,2.73-0.67c1.13-0.84,1.51-1.51,1.51-3.76c0,0-0.01-7.9-0.01-10.16C196.82,185.62,196.82,181.75,196.83,181.66z
					 M178.53,196.43h-18.81l0.03-0.3c0.01-0.11,1.18-10.68,16.31-11.2c0.75-0.02,1.36,0.2,1.79,0.65c0.75,0.78,0.69,1.97,0.68,2.07
					V196.43z"/>
				<g>
					<path fill="#636569" d="M117.99,196.33v-8.82c0-1.27,0.26-1.39,0.44-1.48l1.4-0.63c0.01,0,1.75-0.97,1.86-1.03
						c0.02,0.08,0.04,0.21,0.04,0.53c0,0.01,0,12.3,0,12.3c0,0.88-0.46,1.87-1.16,2.53c-1.02,0.94-2.13,0.94-2.87,0.94
						c-0.12,0-20.72,0.01-20.72,0.01c-0.35-0.01-3.53-0.15-5.39-3.34c-0.81-1.4-1.22-3-1.22-4.79c0-1.26,0.2-2.6,0.6-4.03
						c0.32-1.07,0.62-1.52,0.82-1.73c0.02,0.12,0.03,0.22,0.05,0.4c0,0.03,0.54,4.17,1.49,5.91c1.66,3.76,6.49,3.5,6.53,3.5
						c-0.05,0,17.84,0.01,17.84,0.01h0.27V196.33z M121.94,183.82C121.94,183.83,121.94,183.82,121.94,183.82L121.94,183.82
						C121.94,183.82,121.94,183.82,121.94,183.82z"/>
				</g>
				<g>
					<path fill="#636569" d="M136.32,172.46c0-0.01,0-0.14,0-0.14c0-1.28,0.24-1.39,0.44-1.48c0,0,1.4-0.64,1.4-0.64
						c0.01,0,1.73-0.96,1.85-1.02c0.04,0.09,0.06,0.23,0.06,0.53c0,0,0,14.23,0,14.23c0,12.8-5.93,16.46-6.4,16.73
						c-0.13,0-4.42,0-5.65,0c1.95-1.31,3.62-2.78,4.89-4.42l0.1-0.13l0-0.23l-6.72-14.94c-0.02-0.04-0.93-2.09-0.93-4.43
						c0-1.62,0.47-3.36,1.93-4.7c0.01,0.17,0.03,0.34,0.03,0.34c0.13,1.41,0.49,3.94,1.47,5.91c0.04,0.08,4.13,7.92,5.75,11.86
						c0,0,0.49,1.49,0.49,1.49l0.27,0.81l0.25-0.79l0.13-0.41c0.55-1.75,0.64-3.07,0.65-3.69h0c0,0,0-0.15,0-0.17v-0.27l0,0
						C136.32,186.06,136.32,172.46,136.32,172.46z M140.27,168.63C140.27,168.63,140.27,168.63,140.27,168.63L140.27,168.63
						L140.27,168.63z"/>
				</g>
			</g>
			<g>
				<path fill="#636569" d="M103.55,225.35l-12.31,1.26c0.49,3.88,3.39,5.34,6.48,5.35h7.89c1.12,0,1.87,0.76,1.87,1.84
					c0,0.52,0,1.58,0,1.58h-9.83c-5.48,0-10.09-3.57-10.09-10.88c0-6.23,4.36-10.47,10.55-10.47c4.45,0,8.06,2.71,9.04,6.81
					C107.72,223.33,106.38,225.03,103.55,225.35z M101.28,222.56c0.99-0.11,1.73-0.3,2.09-0.66c0.36-0.36,0.32-1.09,0.08-1.66
					c-0.76-1.77-2.79-3.06-5.4-3.06c-3.98,0-6.8,2.57-6.8,6.49C91.26,223.68,100.78,222.61,101.28,222.56z"/>
				<path fill="#636569" d="M146.5,214.04c1.17,0,2.01,0.54,2.01,1.71c0,1.17-0.84,1.72-2.01,1.72h-8.57
					c-1.8,0.14-2.03,1.94-1.88,3.06c0.05,0.36,0.22,0.67,0.47,0.88c0.56,0.47,1.53,0.64,2.54,0.82l6.52,1.15
					c3.43,0.63,4.72,2.37,4.72,5.46c0,4.81-2.96,6.59-7.61,6.59h-10.83c0,0,0-1.2,0-1.71c0-1.17,0.8-1.71,2.01-1.71h8.57
					c3.34,0,4.21-1.03,4.2-2.87c0-1.67-0.46-2.28-2.7-2.66l-6.61-1.09c-3.34-0.54-4.8-2.3-4.98-4.54c-0.27-3.29,1.1-6.79,5.61-6.79
					H146.5z"/>
				<path fill="#636569" d="M170.09,221.56c0-3.72-1-7.53-6.52-7.53h-7.74c-1.21,0-2.01,0.54-2.01,1.71c0,1.17,0.79,1.72,2.01,1.72
					h7.19c2.55,0,3.39,0.59,3.39,2.38v0.54c-0.15,1.1-1.39,1.36-2.01,1.5c-5.17,1.21-12.13-0.12-12.13,7.32
					c0,3.97,3.38,6.31,8.03,6.31c0.05,0,4.66,0.23,6.36-2.1c0,0,0,0.07,0.01,0.2c0.12,1.17,0.67,1.79,1.87,1.79
					c0.45,0,1.53,0,1.53,0L170.09,221.56z M166.42,227.74c0,3.64-2.05,4.94-5.52,4.94c-3.13,0-4.93-1.13-4.93-3.64
					c0-1.87,1.58-3.07,3.48-3.41c1.89-0.34,4.78-0.46,6.97-0.97V227.74z"/>
				<path fill="#636569" d="M198.03,221.56c0-3.72-1.01-7.53-6.52-7.53h-7.74c-1.21,0-2.01,0.54-2.01,1.71
					c0,1.17,0.79,1.72,2.01,1.72h7.2c2.55,0,3.39,0.59,3.39,2.38v0.54c-0.15,1.1-1.39,1.36-2.01,1.5
					c-5.17,1.21-12.13-0.12-12.13,7.32c0,3.97,3.38,6.31,8.03,6.31c0.05,0,4.66,0.23,6.36-2.1c0,0,0,0.07,0.01,0.2
					c0.11,1.17,0.67,1.79,1.87,1.79c0.46,0,1.53,0,1.53,0L198.03,221.56z M194.36,227.74c0,3.64-2.05,4.94-5.52,4.94
					c-3.13,0-4.93-1.13-4.93-3.64c0-1.87,1.59-3.07,3.48-3.41c1.89-0.34,4.78-0.46,6.97-0.97V227.74z"/>
				<path fill="#636569" d="M177.38,208.24h-2.06c-1.79,0-1.62,1.62-1.62,1.62v19.86l0,0l-0.01,5.69l3.69,0.01V208.24z"/>
				<path fill="#636569" d="M119.47,232.21c-2.8,0-3.84-0.13-3.84-2.17v-12.58h3.26c1.17,0,2-0.54,2-1.71c0-1.17-0.84-1.71-2-1.71
					h-3.26v-3.51c0-0.01,0-0.01,0-0.02v-2.15l-1.57,0c-0.31,0.01-0.53,0.02-0.77,0.04c-1.49,0.16-1.34,1.61-1.34,1.61v4.03h-1
					c-1.17,0-2.01,0.54-2.01,1.71c0,1.17,0.84,1.71,2.01,1.71h1v10.66l0,0v2.71c0,4.51,3.13,4.57,7.52,4.57
					c0.72,0,2.17-0.01,2.17-0.01s0-0.99,0-1.47C121.64,232.88,120.81,232.21,119.47,232.21z"/>
				<path fill="#636569" d="M210.53,232.21c-2.8,0-3.84-0.13-3.84-2.17v-12.58h3.25c1.17,0,2-0.54,2-1.71c0-1.17-0.83-1.71-2-1.71
					h-3.25v-3.51c0-0.01,0-0.01,0-0.02v-2.15l-1.57,0c-0.31,0.01-0.53,0.02-0.77,0.04c-1.49,0.16-1.34,1.61-1.34,1.61v4.03h-1
					c-1.16,0-2.01,0.54-2.01,1.71c0,1.17,0.84,1.71,2.01,1.71h1v10.66l0,0v2.71c0,4.51,3.13,4.57,7.52,4.57
					c0.72,0,2.17-0.01,2.17-0.01s0-0.99,0-1.47C212.7,232.88,211.87,232.21,210.53,232.21z"/>
				<path fill="#636569" d="M128.5,235.41l-0.01-21.36l-2.06-0.01c-1.39,0.02-1.62,0.89-1.62,1.64c0,0.29,0,19.73,0,19.73H128.5z"/>
				<path fill="#636569" d="M126.25,212.42c0.89,0,1.36,0.03,1.86-0.44c0.39-0.36,0.39-1,0.39-1.74c0-0.43-0.01-1.88-0.01-1.88
					h-2.07c-1.39,0.02-1.61,0.88-1.61,1.63c0,0.29-0.01,2.43-0.01,2.43S125.86,212.42,126.25,212.42z"/>
			</g>
		</g>
		<g>
			<path fill="#B4BD00" d="M128.86,143.41c-2.17,0-4.03-0.35-5.44-1.08c-6.86-3.55-12.3-20.68-12.21-38.29
				c0.05-11.49,7.33-17.83,18.24-17.83c5.83,0,12.7,1.81,20.05,5.61c21.11,10.9,26.55,28.04,12.21,38.3
				C150.35,138.26,137.23,143.41,128.86,143.41 M126.19,68.53c-3.13,0-5.96,0.39-8.4,1.21c-9.49,2.92-13.25,11.78-12.52,24.1
				c0.74,12.31,4.55,25.08,7.38,34.37c3.12,9.43,5.25,15.38,9.12,17.37c1.16,0.6,2.53,0.87,4.13,0.87c3.71,0,8.68-1.44,15.32-3.48
				c9.21-3.07,21.84-7.36,32.3-13.89c10.47-6.53,15.53-14.72,12.42-24.15c-2.85-9.28-13.85-19.82-28.92-27.59
				C145.93,71.6,134.91,68.53,126.19,68.53 M87.91,57.91c-5.43,7.06-5.56,18.69-1.96,33.08c5.06,20.29,13.81,40.79,17.88,54.48
				c4.69,14,4.72,21.18,6.54,22.12c0.18,0.09,0.39,0.13,0.65,0.13c2.39,0,8.42-3.74,21.18-7.6c13.51-4.6,35.29-9.35,54.77-16.96
				c13.71-5.37,23.08-12.15,25.79-20.58c-4.36,5.89-12.32,10.84-22.85,14.96c-19.48,7.61-41.25,12.36-54.78,16.96
				c-12.75,3.86-18.77,7.61-21.17,7.61c-0.26,0-0.48-0.05-0.66-0.14c-1.82-0.94-1.85-8.11-6.55-22.12
				c-4.08-13.68-12.81-34.18-17.88-54.47C86.12,74.31,85.56,64.88,87.91,57.91"/>
			<path fill="#BDCA8B" d="M111.11,44.47c-4.12,0-7.78,0.51-10.82,1.54c-6.43,1.95-10.43,6.07-12.38,11.89
				c2.22-2.89,5.34-5.02,9.44-6.26c3.06-1.05,6.71-1.55,10.85-1.55c14.16,0,33.93,5.92,54.34,16.46
				c26.38,13.62,45.85,30.83,49.91,44.52c1.39,4.14,1.43,7.97,0.3,11.51c3.7-5.01,4.79-10.7,2.63-17.13
				c-4.06-13.68-23.54-30.89-49.91-44.51C145.06,50.39,125.28,44.47,111.11,44.47"/>
			<path fill="#789904" d="M125.9,146.44c-1.6,0-2.96-0.27-4.13-0.87c-3.87-1.99-6-7.94-9.12-17.37
				c-2.83-9.29-6.64-22.06-7.38-34.37c-0.73-12.32,3.02-21.18,12.52-24.1c2.44-0.81,5.27-1.21,8.4-1.21c8.72,0,19.75,3.07,30.84,8.8
				c15.07,7.77,26.07,18.31,28.92,27.59c3.11,9.43-1.95,17.63-12.42,24.15c-10.47,6.53-23.09,10.82-32.3,13.89
				C134.58,145,129.61,146.44,125.9,146.44 M108.21,50.1c-4.14,0-7.8,0.5-10.85,1.55c-4.11,1.24-7.22,3.37-9.44,6.26
				c-2.35,6.98-1.79,16.4,0.98,27.46c5.07,20.29,13.8,40.79,17.88,54.47c4.7,14.02,4.73,21.18,6.55,22.12
				c0.18,0.09,0.4,0.14,0.66,0.14c2.4,0,8.42-3.75,21.17-7.61c13.52-4.6,35.29-9.35,54.78-16.96c10.52-4.12,18.49-9.06,22.85-14.96
				c1.13-3.54,1.09-7.37-0.3-11.51c-4.07-13.68-23.54-30.9-49.91-44.52C142.14,56.02,122.37,50.1,108.21,50.1"/>
		</g>
	</g>
	<g>
		<path fill="#636569" d="M203.17,192.51l0-20.21c0.01-1.28,0.25-1.39,0.45-1.48l1.4-0.63c0.01,0,1.94-1.08,1.94-1.08
			c-0.03,0-0.04,0.04-0.04,0.11c0,0.09,0.01,0.23,0.01,0.46c0,0.01,0,12.45,0,12.45l0,0c0,0,0,18.05,0,18.58c-0.45,0-3.32,0-3.76,0
			C203.17,200.2,203.17,192.51,203.17,192.51z"/>
	</g>
	<g>
		<path fill="#636569" d="M103.46,184.39c0.9,0,1.37,0.03,1.87-0.44c0.39-0.36,0.39-1.01,0.39-1.75c0-0.42,0-1.88,0-1.88h-2.09
			c-1.39,0.02-1.62,0.88-1.62,1.63c0,0.29,0,2.44,0,2.44S103.07,184.39,103.46,184.39z"/>
		<path fill="#636569" d="M108.32,184.39c0.9,0,1.37,0.03,1.87-0.44c0.39-0.36,0.39-1.01,0.39-1.75c0-0.42,0-1.88,0-1.88h-2.09
			c-1.39,0.02-1.62,0.88-1.62,1.63c0,0.29,0,2.44,0,2.44S107.94,184.39,108.32,184.39z"/>
		<g>
			<path fill="#636569" d="M189.72,177.76c0.9,0,1.37,0.03,1.87-0.44c0.39-0.37,0.39-1.01,0.39-1.75c0-0.43,0-1.89,0-1.89h-2.09
				c-1.39,0.02-1.63,0.88-1.63,1.63c0,0.29,0,2.44,0,2.44S189.33,177.76,189.72,177.76z"/>
			<path fill="#636569" d="M194.58,177.76c0.9,0,1.38,0.03,1.87-0.44c0.39-0.37,0.39-1.01,0.39-1.75c0-0.43,0-1.89,0-1.89h-2.09
				c-1.39,0.02-1.62,0.88-1.62,1.63c0,0.29,0,2.44,0,2.44S194.2,177.76,194.58,177.76z"/>
		</g>
	</g>
</g>
</svg>
