<?xml version="1.0" encoding="utf-8"?>
<!-- Generator: Adobe Illustrator 23.0.1, SVG Export Plug-In . SVG Version: 6.00 Build 0)  -->
<svg version="1.1" id="Layer_1" xmlns="http://www.w3.org/2000/svg" xmlns:xlink="http://www.w3.org/1999/xlink" x="0px" y="0px"
	 viewBox="0 0 1000 1000" style="enable-background:new 0 0 1000 1000;" xml:space="preserve">
<style type="text/css">
	.st0{fill:#CD2027;}
	.st1{fill:#FFFFFF;}
</style>
<g>
	<g>
		<path class="st0" d="M1000,500c0,43.1-35.1,78-78.5,78c-31.1,0-58-18-70.7-44.1c-13.2,27-40.7,44.1-70.7,44.1
			c-29.3,0-56.2-16.2-69.8-42.2c-13.6,26-40.5,42.3-69.8,42.2c-31.1,0-58-18-70.7-44.1c-13.2,27-40.7,44.1-70.7,44.1
			c-29.3,0-56.2-16.2-69.8-42.2c-13.6,26-40.5,42.3-69.8,42.2c-31.1,0-58-18-70.7-44.1c-13.2,27-40.7,44.1-70.7,44.1
			c-29.3,0-56.2-16.2-69.8-42.2c-13.6,26-40.5,42.3-69.8,42.2C35.2,578,0,543,0,500s35.2-78,78.5-78c29.3-0.1,56.2,16.2,69.8,42.2
			c13.6-26,40.5-42.3,69.8-42.2c31.1,0,58,18,70.7,44.1c13.2-27,40.7-44.1,70.7-44.1c29.3,0,56.2,16.2,69.8,42.2
			c13.6-26,40.5-42.3,69.8-42.2c31.1,0,58,18,70.7,44.1c13.2-27,40.7-44.1,70.7-44.1c8,0,15.8,1.2,23.1,3.4v42.8
			c-6.1-4.3-13.4-8-21.4-8.4c-0.5,0-1,0-1.6,0c-22.2,0-40.2,18-40.2,40.2c0,22.2,18,40.2,40.2,40.2c22.2,0,40.2-18,40.2-40.2v-67
			c12.6,7.5,22.8,18.3,29.5,31.2c13.6-26,40.5-42.3,69.8-42.2c31.1,0,58,18,70.7,44.1c13.2-27,40.7-44.1,70.7-44.1
			C964.8,422,1000,456.9,1000,500z"/>
		<path class="st0" d="M663.6,499.7c0,13.1-10.5,23.6-23.4,23.6s-23.4-10.6-23.4-23.6c0-13,10.5-23.7,23.4-23.7
			S663.6,486.7,663.6,499.7z M520.2,486.2h-41.1c3.7-5.4,10.5-9.1,17.5-10h0c1-0.1,1.9-0.2,2.9-0.2s2,0,2.9,0.2h0
			C509.5,477.1,516.5,480.9,520.2,486.2z"/>
		<path class="st0" d="M921.5,422c-31.1,0-58,18-70.7,44.1c-13.2-27-40.7-44.1-70.7-44.1c-29.3,0-56.2,16.2-69.8,42.2
			c-6.7-12.9-17-23.7-29.5-31.2v67c0,22.2-18,40.2-40.2,40.2c-22.2,0-40.2-18-40.2-40.2s18-40.2,40.2-40.2c0.5,0,1,0,1.6,0
			c8,0.5,15.3,4.1,21.4,8.4v-42.8c-7.5-2.3-15.3-3.5-23.1-3.4c-31.1,0-58,18-70.7,44.1c-13.2-27-40.7-44.1-70.7-44.1
			c-29.3,0-56.2,16.2-69.8,42.2c-13.7-26-40.6-42.3-69.9-42.2c-31.1,0-58,18-70.7,44.1c-13.2-27-40.7-44.1-70.7-44.1
			c-29.3-0.1-56.2,16.2-69.8,42.2c-13.6-26-40.5-42.3-69.8-42.2C35.2,422,0,456.9,0,500s35.2,78,78.5,78c29.3,0,56.2-16.2,69.8-42.2
			c13.6,26,40.5,42.3,69.8,42.2c31.1,0,58-18,70.7-44.1c13.3,27,40.7,44.1,70.8,44.1c29.3,0,56.2-16.2,69.8-42.2
			c13.6,26,40.5,42.3,69.8,42.2c31.1,0,58-18,70.7-44.1c13.2,27,40.7,44.1,70.7,44.1c29.3,0,56.2-16.2,69.8-42.2
			c13.6,26,40.5,42.3,69.8,42.2c31.1,0,58-18,70.7-44.1c13.2,27,40.7,44.1,70.7,44.1c43.3,0,78.5-34.9,78.5-78S964.8,422,921.5,422z
			 M78.3,540.6c-22.2,0-40.2-18-40.2-40.2c0-22.2,18-40.2,40.2-40.2s40.2,18,40.2,40.2C118.5,522.6,100.5,540.6,78.3,540.6
			L78.3,540.6z M218.9,540.2c-22.2,0-40.2-18-40.2-40.2s18-40.2,40.2-40.2s40.2,18,40.2,40.2S241.1,540.2,218.9,540.2L218.9,540.2z
			 M382,496c-1.8-11.3-11.4-19.9-23.1-19.9c-12.9,0-23.4,10.6-23.4,23.7v38.1h-16.4V500c0-22.2,18-40.2,40.2-40.2
			c20.9,0,38,16,40,36.3L382,496L382,496z M540.1,500.6h-63.9c0.1,3.1,0.8,6,2,8.7c3.6,8.3,11.9,14,21.4,14s17.8-5.8,21.4-14h18
			c-4.2,17.7-20.1,30.9-39.1,30.9c-22.2,0-40.2-18-40.2-40.2s18-40.2,40.2-40.2s40.2,18,40.2,40.2
			C540.1,500.2,540.1,500.4,540.1,500.6L540.1,500.6z M781.2,540.2c-22.2,0-40.2-18-40.2-40.2s18-40.2,40.2-40.2
			c22.2,0,40.2,18,40.2,40.2S803.4,540.2,781.2,540.2z M921.1,540.2c-22.2,0-40.2-18-40.2-40.2s18-40.2,40.2-40.2
			c22.2,0,40.2,18,40.2,40.2S943.3,540.2,921.1,540.2L921.1,540.2z"/>
		<path class="st0" d="M944.6,499.7c0,13.1-10.5,23.6-23.4,23.6c-12.9,0-23.5-10.6-23.5-23.6c0-13.1,10.5-23.7,23.5-23.7
			C934.1,476.1,944.6,486.7,944.6,499.7z M804.3,499.7c0,13.1-10.5,23.6-23.4,23.6s-23.4-10.6-23.4-23.6c0-13.1,10.5-23.7,23.4-23.7
			S804.3,486.7,804.3,499.7z M242,499.7c0,13.1-10.5,23.6-23.4,23.6s-23.4-10.6-23.4-23.6c0-13.1,10.5-23.7,23.4-23.7
			C231.5,476.1,242,486.7,242,499.7z M101.3,500.1c0,13.1-10.5,23.7-23.4,23.7s-23.4-10.6-23.4-23.7s10.5-23.6,23.4-23.6
			S101.3,487,101.3,500.1z M640.2,476.1c12.9,0,23.4,10.6,23.4,23.7c0,13.1-10.5,23.6-23.4,23.6c-12.9,0-23.4-10.6-23.4-23.6
			C616.8,486.7,627.3,476.1,640.2,476.1z"/>
	</g>
	<path class="st1" d="M78.3,460.1c-22.2,0-40.2,18-40.2,40.2c0,22.2,18,40.2,40.2,40.2s40.2-18,40.2-40.2
		C118.5,478.1,100.5,460.1,78.3,460.1L78.3,460.1z M77.9,523.7c-12.9,0-23.4-10.6-23.4-23.7s10.5-23.6,23.4-23.6
		s23.4,10.6,23.4,23.6C101.3,513.1,90.8,523.7,77.9,523.7z M218.9,459.7c-22.2,0-40.2,18-40.2,40.2c0,22.2,18,40.2,40.2,40.2
		s40.2-18,40.2-40.2C259.1,477.8,241.1,459.7,218.9,459.7L218.9,459.7z M218.6,523.4c-12.9,0-23.4-10.6-23.4-23.6
		c0-13.1,10.5-23.7,23.4-23.7c12.9,0,23.4,10.6,23.4,23.7C242,512.8,231.5,523.4,218.6,523.4z M781.2,459.7
		c-22.2,0-40.2,18-40.2,40.2c0,22.2,18,40.2,40.2,40.2c22.2,0,40.2-18,40.2-40.2C821.4,477.8,803.4,459.7,781.2,459.7L781.2,459.7z
		 M780.9,523.4c-12.9,0-23.4-10.6-23.4-23.6c0-13.1,10.5-23.7,23.4-23.7s23.4,10.6,23.4,23.7C804.3,512.9,793.8,523.4,780.9,523.4z
		 M921.1,459.7c-22.2,0-40.2,18-40.2,40.2c0,22.2,18,40.2,40.2,40.2c22.2,0,40.2-18,40.2-40.2C961.3,477.8,943.3,459.7,921.1,459.7
		L921.1,459.7z M921.2,523.4c-12.9,0-23.5-10.6-23.5-23.6c0-13.1,10.5-23.7,23.5-23.7c12.9,0,23.4,10.6,23.4,23.7
		C944.6,512.9,934.1,523.4,921.2,523.4L921.2,523.4z M540.1,500c0-22.2-18-40.2-40.2-40.2s-40.2,18-40.2,40.2s18,40.2,40.2,40.2
		c19,0,34.8-13.2,39.1-30.9h-18c-3.6,8.3-11.9,14-21.4,14c-9.5,0-17.8-5.8-21.4-14c-1.2-2.8-1.9-5.7-2-8.7h63.9
		C540.1,500.4,540.1,500.2,540.1,500L540.1,500z M479.1,486.2c3.7-5.4,10.5-9.1,17.5-10h0c1-0.1,1.9-0.2,2.9-0.2s2,0,2.9,0.2h0
		c7,0.8,14,4.6,17.7,10H479.1z M399.3,496H382c-1.8-11.3-11.4-19.9-23.1-19.9c-12.9,0-23.4,10.6-23.4,23.7v38.1h-16.4V500
		c0-22.2,18-40.2,40.2-40.2C380.2,459.7,397.3,475.7,399.3,496z M663.6,425.4v42.8c-6.1-4.3-13.4-8-21.4-8.4c-0.5,0-1,0-1.6,0
		c-22.2,0-40.2,18-40.2,40.2c0,22.2,18,40.2,40.2,40.2c22.2,0,40.2-18,40.2-40.2v-67C675.4,429.8,669.7,427.3,663.6,425.4z
		 M640.2,523.4c-12.9,0-23.4-10.6-23.4-23.6c0-13.1,10.5-23.7,23.4-23.7c12.9,0,23.4,10.6,23.4,23.7
		C663.6,512.9,653.1,523.4,640.2,523.4z"/>
</g>
</svg>
