<svg id="Layer_1" data-name="Layer 1" xmlns="http://www.w3.org/2000/svg" viewBox="0 0 280 300"><defs><style>.cls-1{fill:#0165b0;}</style></defs><g id="layer1"><g id="g3188"><path id="path2396" class="cls-1" d="M45.86,163h6.91v-7.45H65.85V152H52.77v-4.47H67v-4.4H52.29c-2.62,0-6.33,3.43-6.33,6.33Z"/><path id="path2398" class="cls-1" d="M75.88,143.32c-2.28,0-6.1,3.65-6.1,5.7v8.19c0,2.19,3.83,5.75,5.68,5.75H89.14c1.51,0,5.53-3.22,5.53-5.75v-7.83c0-2.45-3.48-6.06-5.85-6.06Zm.75,4.34H88.07s.09,10.71,0,11-11.44,0-11.44,0Z"/><path id="path2402" class="cls-1" d="M96.61,143h7.86l4.34,5.22,4.81-5.22h8.2l-8.81,10,8.54,9.89h-7.8l-4.94-5.49L104.27,163H96.14l8.74-9.89Z"/><path id="path2404" class="cls-1" d="M144.25,147.78H129.88v11h14.37V163H129.88c-1.46,0-6.57-3.3-6.57-5.83v-8.19c0-1.75,4.11-5.7,6.57-5.7h14.43Z"/><path id="path2406" class="cls-1" d="M175.21,163h7V147.72h11.18V163h6.75V149.75c0-2.63-3.32-6.66-6.51-6.61H175.35Z"/><path id="text2408" class="cls-1" d="M230.81,137a3.41,3.41,0,0,1,1.64.43,3.15,3.15,0,0,1,1.25,1.23,3.51,3.51,0,0,1,.44,1.68,3.3,3.3,0,0,1-.44,1.66,3.12,3.12,0,0,1-1.23,1.24,3.37,3.37,0,0,1-3.33,0,3.12,3.12,0,0,1-1.23-1.24,3.31,3.31,0,0,1-.45-1.66,3.41,3.41,0,0,1,.45-1.68,3.15,3.15,0,0,1,1.25-1.23,3.42,3.42,0,0,1,1.65-.43Zm0,.55a2.83,2.83,0,0,0-1.37.36,2.6,2.6,0,0,0-1.05,1,2.85,2.85,0,0,0-.37,1.4,2.75,2.75,0,0,0,.37,1.38,2.64,2.64,0,0,0,1,1,2.84,2.84,0,0,0,2.77,0,2.64,2.64,0,0,0,1-1,2.75,2.75,0,0,0,.37-1.38,3,3,0,0,0-.37-1.4,2.6,2.6,0,0,0-1.05-1,2.83,2.83,0,0,0-1.36-.36Zm-1.47,4.64v-3.6h1.24a3.2,3.2,0,0,1,.91.1.87.87,0,0,1,.45.35.94.94,0,0,1-.11,1.21,1.09,1.09,0,0,1-.75.33,1,1,0,0,1,.31.19,4.43,4.43,0,0,1,.53.71l.44.71h-.71l-.32-.57a3.06,3.06,0,0,0-.6-.84.8.8,0,0,0-.47-.12h-.34v1.53Zm.58-2h.7a1.13,1.13,0,0,0,.69-.15.5.5,0,0,0,.19-.4.47.47,0,0,0-.09-.28.48.48,0,0,0-.25-.19,1.86,1.86,0,0,0-.58-.06h-.66Z"/><path id="path2413" class="cls-1" d="M153.44,143.32c-2.27,0-6.09,3.65-6.09,5.7v8.19c0,2.19,3.83,5.75,5.68,5.75H166.7c1.52,0,5.54-3.22,5.54-5.75v-7.83c0-2.45-3.48-6.06-5.86-6.06Zm.75,4.34h11.44s.09,10.71,0,11-11.44,0-11.44,0Z"/><path id="path2415" class="cls-1" d="M202.82,163h7V147.72H221V163h6.75V149.75c.05-2.63-3.32-6.66-6.51-6.61H203Z"/></g></g></svg>