<?xml version="1.0" encoding="utf-8"?>
<!-- Generator: Adobe Illustrator 23.0.1, SVG Export Plug-In . SVG Version: 6.00 Build 0)  -->
<svg version="1.1" id="Layer_1" xmlns="http://www.w3.org/2000/svg" xmlns:xlink="http://www.w3.org/1999/xlink" x="0px" y="0px"
	 viewBox="0 0 1000 1000" style="enable-background:new 0 0 1000 1000;" xml:space="preserve">
<style type="text/css">
	.st0{fill-rule:evenodd;clip-rule:evenodd;fill:#008542;}
	.st1{fill-rule:evenodd;clip-rule:evenodd;fill:#FDC82F;}
	.st2{fill:#FFFFFF;}
	.st3{fill-rule:evenodd;clip-rule:evenodd;fill:#21576A;}
</style>
<g>
	<rect x="69.8" y="477.4" class="st0" width="168" height="106.5"/>
	<rect x="69.8" y="416.2" class="st1" width="168" height="40.8"/>
	<g>
		<path class="st2" d="M237.5,477.4V457h-168v20.4h32.4l-18.1,61.9h36.8c15.8,0,18.7-3.7,22-6.3c4.2-3.7,6.5-12.3,4.6-18.3
			c-1.2-4.2-5.3-6.7-5.6-6.7c4.8-2.5,7.6-7.6,8.1-8.3c1.8-3.9,3.3-10.7-1.4-16.4c-3.7-4.8-11.1-6-16.4-6h39.1l-17.9,62.3H171
			l6.7-23.8h10.6c7.4,0,6.9,4.8,7,6.7L196,540h16.7c0,0-0.7-19.5-0.7-20.9c-0.2-4.9-3.5-7.2-6.3-7.2c5.3-1.6,10-6.3,11.8-9.5
			c2.3-3.7,4-9.5,1.8-15.1c-3-8.4-11.3-9.9-16.7-9.9H237.5z M185.1,489.9h13.2c6.2,0,6.5,4.2,6.5,5.5c0,3-2.5,8.4-10.2,8.4h-13.4
			C181.2,503.8,184.9,490.1,185.1,489.9 M109.4,513.3h12.1c6,0,6.2,1.4,7,3c0.9,1.4,0.4,4.2,0,5.3c-0.9,1.1-1.9,5.1-9.7,5.1h-13.4
			L109.4,513.3z M116.1,489.9h14.1c2.6,0,5.3,1.8,5.3,4.6c0,4-3.3,6.9-7.7,6.9h-15L116.1,489.9z"/>
		<path class="st3" d="M418,539.9h-51.9l17.6-62.1h50.5l-3.9,14.4h-30.4l-2.6,9h25.9l-4.2,14.4h-25.5l-2.8,9.7h31.3L418,539.9z
			 M336.4,520.5h-3.2h-10.4l-5.3,19.4h-20.4l17.6-62.1h29.7c18.1,0,24.3,8.3,20.8,20.9C361.6,511.2,352.2,519.4,336.4,520.5
			 M336.4,492.2h-5.5l-3.7,13.7h9.2c4.4-0.2,7.9-2.1,9.3-7.2c1.8-5.6-4.6-6.5-9-6.5H336.4z M827.3,518.7h6.3l-0.2-22.2l-6.2,10.7
			l-6.3,11.4H827.3z M827.3,479.9l1.4-2.1h20.6l4.6,62.1h-20.2v-8.1h-6.3h-14.1l-4.6,8.1H790h-1.4l1.4-1.9l37.3-58.2V479.9z
			 M930.3,495.9c1.6-11.1-3.7-19.9-20.9-19.9c-15.5,0-29,6.7-32.7,20.1c-6.5,23.6,31.1,17.2,28.2,26.6c-0.7,3-4.6,4.8-9.7,4.8
			c-1.9,0-3.9-0.7-5.3-1.6c-1.4-1.4-2.1-2.8-1.9-5.1h-19.5c-2.6,11.3,5.3,20.9,21.5,20.9c17.2,0,31.3-7,35.2-21.6
			c6.7-22.3-30.8-16.7-28.2-26c0.5-2.3,3-3.5,7.6-3.5c1.8,0,3.7,0.4,4.7,1.1c1.4,0.9,2.1,2.1,1.8,4.4H930.3z M790,496.7
			c0.2-0.5,0.2-0.9,0.4-1.4c1.4-4.6,1.4-8.4-0.4-11.1c-2.6-4.4-9.5-6.5-22.3-6.5H761h-22.5l-17.6,62.1h20.2l6.2-21.6h6.2
			c4,0,6.2,0.5,7.6,1.4c2.1,1.6,1.8,4.4,0.4,9.5c-0.2,0.4-0.2,0.5-0.4,1.1c-1.4,4.7-1.8,8.3-1.6,9.7H780l0.5-1.9
			c-2.5,0-1.4-2.6,0.9-10.9c3.5-12.5,0-14.1-5.8-16.4C783,508.5,787.7,503.3,790,496.7 M761,504.7c5.3-0.5,8.5-1.9,9.7-6
			c1.2-4.4-1.8-6.5-6.5-6.5H761h-6.2l-3.5,12.5H761z M683.9,539.7c14.1-0.7,24.5-5.8,28-18.5c1.9-6.9,0-12.7-6.2-14.4
			c4.6-2.3,10.2-7,11.8-13.4c3.7-12.3-6.5-15.7-20.6-15.7h-13h-16.7l-17.8,62.1h30.4C681.3,539.9,682.7,539.9,683.9,539.7
			 M683.9,492.2h6.7c4.4,0,8.3,0.2,7,4.9c-1.1,3.5-4.6,5.6-8.6,5.6h-5.1h-3.2l2.8-10.6H683.9z M683.9,513.8c6.5,0,11.1,0.5,9.5,5.8
			c-1.2,4.4-4.7,5.6-9.5,5.6h-1.1h-8.8l3.3-11.4H683.9z M611.3,525.6c5.8-2.5,10-9.2,12.3-17.2c2.3-8.3,1.4-17.4-7.6-17.1
			c-1.8,0-3.3,0.4-4.7,0.9c-6.5,2.6-10.4,9.9-12.1,16.2c-2.5,7.9-2.6,18.1,7,18.1C607.9,526.5,609.7,526,611.3,525.6 M611.3,477.2
			c3-0.7,6.2-1.2,9.1-1.2c22.2,0,28.2,16.2,23.6,32.4c-5.1,17.6-18.1,28.9-32.7,32.2c-3.2,0.5-6.2,1.1-9.5,1.1
			c-19.4,0-29-12.1-23.1-33.4C583.4,491.8,595.8,480.4,611.3,477.2 M539.6,530.2c0-0.5,0.4-0.7,0.4-1.1c1.4-5.1,1.8-7.9-0.4-9.5
			c-1.2-0.9-3.7-1.4-7.4-1.4h-6.2l-6.2,21.6h-18.1h-2.1l2.1-8.1l15.5-54h29.2c20.8,0,25.7,5.6,22.5,17.6
			c-2.1,7.4-6.9,13.2-14.8,15.3c6,2.3,9.5,3.9,6,16.4c-2.5,8.3-3.5,10.9-0.9,10.9l-0.7,1.9h-19h-1.8
			C537.9,538.4,538.4,534.9,539.6,530.2 M539.6,504.7c5.3-0.5,8.4-1.9,9.5-6c1.4-4.4-1.6-6.5-6.3-6.5h-3.2h-6.3l-3.5,12.5H539.6z
			 M501.8,486l2.5-8.3h-2.5h-54.5l-4.6,16.4H461l-13,45.8h20.2l13-45.8h18.5L501.8,486z"/>
	</g>
</g>
</svg>
