<?xml version="1.0" encoding="utf-8"?>
<!-- Generator: Adobe Illustrator 24.2.0, SVG Export Plug-In . SVG Version: 6.00 Build 0)  -->
<svg version="1.1" id="Layer_1" xmlns="http://www.w3.org/2000/svg" xmlns:xlink="http://www.w3.org/1999/xlink" x="0px" y="0px"
	 viewBox="0 0 1000 1000" style="enable-background:new 0 0 1000 1000;" xml:space="preserve">
<style type="text/css">
	.st0{fill-rule:evenodd;clip-rule:evenodd;fill:#BFA161;}
	.st1{fill-rule:evenodd;clip-rule:evenodd;fill:#1F1917;}
</style>
<g transform="matrix(4.65512 0 0 -4.65512 -121.4 1234.09)">
	<path class="st0" d="M143.4,166.1c-1.9-1.3-4.4-1.5-6.3-0.7c0,0-0.5,0.2-1,0.7c-0.4,0.5-11.1,12-11.1,12l0,0
		c3.3-0.6,6.9,0.9,8.8,3.7c1.9,2.6,1.8,6.4,0,9c-2.1,2.9-6.2,3.8-9.7,3.4c-6-0.8-10.3-5.9-11.6-11.2c-1.4-6.1-0.4-11.8,1.8-17.2
		c0.5-1.1,1.2-2.3,2-3.3c-6.3,2.6-11.9,7.5-14.8,14c-3.2,7-3.2,15.9,0.7,23c3,5.5,8.4,10.6,15,12.7c6.9,2.7,16.3,2.2,23.1-1.5
		c8.2-3.9,14.4-13.6,14.5-22.3C154.8,179.5,150.7,171.3,143.4,166.1"/>
	<path class="st0" d="M120.4,162.7c-3.1,3.2-5.5,7.3-3.7,11.5c1.7,3.3,3.1,6.6,3.8,10.4c0.3-3.9,2.8-7.4,4-11.2
		c0.5-1.8,0.5-3.7-0.2-5.6c-0.8-2.1-2.1-3.8-3.7-5.4L120.4,162.7z"/>
	<path class="st1" d="M81.7,101.8l-3.2-0.2l-0.1,0.1v0.8l-0.1,0c-0.3-0.3-0.7-0.6-1.2-0.8c-0.5-0.2-1-0.3-1.5-0.3
		c-0.5,0-1,0.1-1.5,0.3c-0.5,0.2-0.9,0.5-1.3,0.9c-0.4,0.4-0.7,0.9-0.9,1.4c-0.2,0.5-0.3,1.1-0.3,1.8c0,0.6,0.1,1.2,0.3,1.7
		c0.2,0.5,0.5,1,0.9,1.4c0.4,0.4,0.8,0.7,1.4,0.9c0.5,0.2,1.1,0.3,1.7,0.3c0.4,0,0.8,0,1.3-0.1c0.4-0.1,0.8-0.2,1.1-0.4v2.9
		c0,0.2,0,0.5-0.1,0.6c-0.1,0.2-0.2,0.3-0.4,0.4c-0.2,0.1-0.4,0.2-0.7,0.2c-0.3,0-0.6,0.1-1,0.1v0.5l3.7,0.2l0.1-0.1v-11.2
		c0-0.2,0-0.4,0.1-0.5c0.1-0.1,0.2-0.3,0.4-0.3c0.1-0.1,0.3-0.1,0.5-0.1c0.2,0,0.4,0,0.6,0V101.8L81.7,101.8z M214.8,101.8l-3.2-0.2
		l-0.1,0.1v0.8l-0.1,0c-0.3-0.3-0.7-0.6-1.2-0.8c-0.5-0.2-1-0.3-1.5-0.3c-0.5,0-1,0.1-1.5,0.3c-0.5,0.2-0.9,0.5-1.3,0.9
		c-0.4,0.4-0.7,0.9-0.9,1.4c-0.2,0.5-0.3,1.1-0.3,1.8c0,0.6,0.1,1.2,0.3,1.7c0.2,0.5,0.5,1,0.9,1.4c0.4,0.4,0.8,0.7,1.4,0.9
		c0.5,0.2,1.1,0.3,1.7,0.3c0.4,0,0.8,0,1.3-0.1c0.4-0.1,0.8-0.2,1.1-0.4v2.9c0,0.2,0,0.5-0.1,0.6c-0.1,0.2-0.2,0.3-0.4,0.4
		c-0.2,0.1-0.4,0.2-0.7,0.2c-0.3,0-0.6,0.1-1,0.1v0.5l3.7,0.2l0.1-0.1v-11.2c0-0.2,0-0.4,0.1-0.5c0.1-0.1,0.2-0.3,0.4-0.3
		c0.1-0.1,0.3-0.1,0.5-0.1c0.2,0,0.4,0,0.6,0L214.8,101.8z M203.3,103.6c-0.4-0.7-0.9-1.2-1.5-1.6c-0.6-0.4-1.4-0.6-2.2-0.6
		c-0.7,0-1.4,0.1-1.9,0.4c-0.6,0.2-1,0.6-1.4,1c-0.4,0.4-0.6,0.9-0.8,1.4c-0.2,0.5-0.3,1.1-0.3,1.7c0,0.5,0.1,1.1,0.3,1.6
		c0.2,0.5,0.5,1,0.8,1.4c0.4,0.4,0.8,0.7,1.3,1c0.5,0.2,1.1,0.4,1.8,0.4c0.7,0,1.2-0.1,1.7-0.3c0.5-0.2,0.9-0.5,1.2-0.8
		c0.3-0.3,0.5-0.7,0.6-1.1c0.1-0.4,0.2-0.9,0.2-1.4v-0.6H197c0-0.5,0.1-1,0.2-1.5c0.1-0.4,0.3-0.8,0.5-1.2c0.2-0.3,0.6-0.6,0.9-0.8
		c0.4-0.2,0.9-0.3,1.4-0.3c0.6,0,1,0.1,1.4,0.4c0.4,0.2,0.8,0.7,1.2,1.3L203.3,103.6z M140.4,107.5h-0.6c-0.1,0.6-0.4,1.1-0.8,1.4
		c-0.4,0.4-1,0.6-1.6,0.6c-0.5,0-0.9-0.1-1.2-0.3c-0.3-0.2-0.4-0.5-0.4-0.8c0-0.3,0-0.5,0.1-0.6c0.1-0.2,0.2-0.3,0.4-0.4
		c0.2-0.1,0.4-0.2,0.7-0.3c0.3-0.1,0.6-0.2,1-0.3c0.4-0.1,0.8-0.3,1.2-0.4c0.4-0.2,0.7-0.3,0.9-0.5c0.3-0.2,0.5-0.4,0.6-0.7
		s0.2-0.6,0.2-1c0-0.8-0.3-1.4-1-1.9c-0.6-0.5-1.5-0.7-2.5-0.7c-0.5,0-1,0.1-1.5,0.3c-0.4,0.2-0.8,0.3-1,0.5l-0.2-0.5h-0.7l-0.1,2.9
		h0.6c0-0.2,0.2-0.5,0.3-0.8c0.2-0.3,0.4-0.6,0.6-0.8c0.2-0.2,0.5-0.5,0.9-0.6c0.3-0.2,0.7-0.3,1.1-0.3c0.6,0,1.1,0.1,1.4,0.4
		c0.3,0.2,0.5,0.6,0.5,1c0,0.2-0.1,0.4-0.2,0.6c-0.1,0.2-0.3,0.3-0.4,0.5c-0.2,0.1-0.5,0.2-0.8,0.3c-0.3,0.1-0.6,0.2-1,0.3
		c-0.3,0.1-0.6,0.2-1,0.3c-0.4,0.1-0.7,0.3-0.9,0.5c-0.3,0.2-0.5,0.4-0.7,0.7c-0.2,0.3-0.3,0.6-0.3,1c0,0.7,0.3,1.3,0.8,1.7
		c0.6,0.5,1.3,0.7,2.2,0.7c0.4,0,0.7,0,1.1-0.1c0.4-0.1,0.7-0.2,0.9-0.3l0.2,0.4h0.7L140.4,107.5z M132.6,103.6
		c-0.4-0.7-0.9-1.2-1.5-1.6c-0.6-0.4-1.4-0.6-2.2-0.6c-0.7,0-1.4,0.1-1.9,0.4c-0.6,0.2-1,0.6-1.4,1c-0.4,0.4-0.6,0.9-0.8,1.4
		c-0.2,0.5-0.3,1.1-0.3,1.7c0,0.5,0.1,1.1,0.3,1.6c0.2,0.5,0.5,1,0.8,1.4c0.4,0.4,0.8,0.7,1.3,1c0.5,0.2,1.1,0.4,1.8,0.4
		c0.7,0,1.2-0.1,1.7-0.3c0.5-0.2,0.9-0.5,1.2-0.8c0.3-0.3,0.5-0.7,0.6-1.1c0.1-0.4,0.2-0.9,0.2-1.4v-0.6h-6.1c0-0.5,0.1-1,0.2-1.5
		c0.1-0.4,0.3-0.8,0.5-1.2c0.2-0.3,0.6-0.6,0.9-0.8c0.4-0.2,0.9-0.3,1.4-0.3c0.6,0,1,0.1,1.4,0.4c0.4,0.2,0.8,0.7,1.2,1.3
		L132.6,103.6z M100.8,107.5h-0.6c-0.1,0.6-0.4,1.1-0.8,1.4c-0.4,0.4-1,0.6-1.6,0.6c-0.5,0-0.9-0.1-1.2-0.3s-0.4-0.5-0.4-0.8
		c0-0.3,0-0.5,0.1-0.6c0.1-0.2,0.2-0.3,0.4-0.4c0.2-0.1,0.4-0.2,0.7-0.3c0.3-0.1,0.6-0.2,1-0.3c0.4-0.1,0.8-0.3,1.2-0.4
		c0.4-0.2,0.7-0.3,0.9-0.5c0.3-0.2,0.5-0.4,0.6-0.7s0.2-0.6,0.2-1c0-0.8-0.3-1.4-1-1.9c-0.6-0.5-1.5-0.7-2.5-0.7
		c-0.5,0-1,0.1-1.5,0.3c-0.4,0.2-0.8,0.3-1,0.5l-0.2-0.5h-0.7l-0.1,2.9h0.6c0.1-0.2,0.2-0.5,0.3-0.8c0.2-0.3,0.4-0.6,0.6-0.8
		c0.2-0.2,0.5-0.5,0.9-0.6c0.3-0.2,0.7-0.3,1.1-0.3c0.6,0,1.1,0.1,1.4,0.4c0.3,0.2,0.5,0.6,0.5,1c0,0.2,0,0.4-0.2,0.6
		c-0.1,0.2-0.3,0.3-0.5,0.5c-0.2,0.1-0.5,0.2-0.8,0.3c-0.3,0.1-0.6,0.2-1,0.3c-0.3,0.1-0.6,0.2-1,0.3c-0.4,0.1-0.7,0.3-0.9,0.5
		c-0.3,0.2-0.5,0.4-0.7,0.7c-0.2,0.3-0.3,0.6-0.3,1c0,0.7,0.3,1.3,0.8,1.7c0.6,0.5,1.3,0.7,2.2,0.7c0.4,0,0.7,0,1.1-0.1
		c0.4-0.1,0.7-0.2,0.9-0.3l0.2,0.4h0.7L100.8,107.5z M89.7,102.8c-0.1-0.1-0.3-0.3-0.5-0.5c-0.2-0.2-0.4-0.3-0.6-0.4
		c-0.3-0.2-0.5-0.3-0.8-0.3c-0.3-0.1-0.6-0.1-1.1-0.1c-0.8,0-1.4,0.2-1.9,0.7c-0.4,0.5-0.6,1.2-0.6,2.1v4c0,0.2,0,0.4-0.1,0.5
		c-0.1,0.1-0.2,0.3-0.4,0.4c-0.1,0.1-0.3,0.1-0.4,0.1c-0.2,0-0.3,0.1-0.5,0.1v0.5l3.1,0.2l0.1-0.1v-5.8c0-0.6,0.1-1.1,0.4-1.4
		c0.3-0.3,0.7-0.5,1.1-0.5c0.3,0,0.6,0,0.9,0.1c0.3,0.1,0.5,0.2,0.7,0.3c0.2,0.1,0.3,0.2,0.4,0.4c0.1,0.1,0.2,0.3,0.3,0.4v4.7
		c0,0.2,0,0.3-0.1,0.5c-0.1,0.1-0.2,0.3-0.4,0.4c-0.1,0.1-0.3,0.1-0.5,0.1c-0.2,0-0.5,0-0.7,0v0.5l3.3,0.2l0.1-0.1v-6.6
		c0-0.2,0-0.4,0.1-0.5c0.1-0.1,0.2-0.2,0.4-0.3c0.1-0.1,0.2-0.1,0.4-0.1c0.2,0,0.3,0,0.5,0v-0.5l-3-0.2l-0.1,0.1L89.7,102.8
		L89.7,102.8z M106,109.9h2.6v-0.8H106v-4.6c0-0.3,0-0.6,0-0.9c0-0.2,0.1-0.4,0.2-0.6c0.1-0.2,0.2-0.3,0.4-0.4
		c0.2-0.1,0.5-0.1,0.8-0.1c0.2,0,0.4,0,0.7,0c0.3,0,0.5,0.1,0.6,0.1V102c-0.4-0.2-0.8-0.3-1.1-0.4c-0.4-0.1-0.8-0.2-1.3-0.2
		c-0.8,0-1.3,0.2-1.6,0.5c-0.3,0.3-0.5,0.8-0.5,1.5v5.6h-1.7v0.8h1.7v2.6h1.7V109.9z M190.9,109.9h2.6v-0.8H191v-4.6
		c0-0.3,0-0.6,0-0.9c0-0.2,0.1-0.4,0.2-0.6c0.1-0.2,0.2-0.3,0.4-0.4c0.2-0.1,0.5-0.1,0.8-0.1c0.2,0,0.4,0,0.7,0
		c0.3,0,0.5,0.1,0.6,0.1V102c-0.4-0.2-0.8-0.3-1.1-0.4c-0.4-0.1-0.8-0.2-1.3-0.2c-0.8,0-1.3,0.2-1.6,0.5c-0.3,0.3-0.5,0.8-0.5,1.5
		v5.6h-1.7v0.8h1.7v2.6h1.7L190.9,109.9z M64.5,101.6H60v0.6c0.1,0,0.3,0,0.4,0c0.2,0,0.3,0,0.4,0.1c0.2,0,0.3,0.1,0.4,0.3
		c0.1,0.1,0.1,0.3,0.1,0.5v5.1c0,0.2,0,0.4-0.1,0.5c-0.1,0.2-0.2,0.3-0.4,0.4c-0.1,0.1-0.3,0.1-0.4,0.1c-0.2,0-0.3,0.1-0.5,0.1v0.5
		l3,0.2l0.1-0.1v-1.2h0c0.1,0.1,0.3,0.3,0.6,0.5c0.2,0.2,0.4,0.3,0.6,0.5c0.2,0.1,0.5,0.2,0.8,0.3c0.3,0.1,0.7,0.1,1.1,0.1
		c0.9,0,1.5-0.2,2-0.7c0.4-0.5,0.6-1.2,0.6-2v-4.3c0-0.2,0-0.4,0.1-0.5c0.1-0.1,0.2-0.2,0.4-0.3c0.1-0.1,0.3-0.1,0.4-0.1
		c0.1,0,0.3,0,0.4-0.1v-0.6h-4.5v0.6c0.1,0,0.3,0,0.5,0c0.2,0,0.3,0,0.4,0.1c0.2,0,0.3,0.1,0.4,0.3c0.1,0.1,0.1,0.3,0.1,0.5v4.3
		c0,0.6-0.2,1-0.5,1.4c-0.3,0.3-0.7,0.5-1.1,0.5c-0.3,0-0.6,0-0.9-0.1c-0.3-0.1-0.5-0.2-0.7-0.3c-0.2-0.1-0.4-0.3-0.5-0.4
		c-0.1-0.1-0.2-0.3-0.3-0.4v-4.8c0-0.2,0-0.3,0.1-0.5c0.1-0.1,0.2-0.2,0.4-0.3c0.1-0.1,0.3-0.1,0.4-0.1c0.2,0,0.3,0,0.5-0.1V101.6z
		 M169.3,101.6h-4.4v0.6c0.1,0,0.3,0,0.4,0c0.2,0,0.3,0,0.4,0.1c0.2,0,0.3,0.1,0.4,0.3c0.1,0.1,0.1,0.3,0.1,0.5v5.2
		c0,0.2,0,0.3-0.1,0.5c-0.1,0.1-0.2,0.3-0.4,0.4c-0.1,0.1-0.3,0.1-0.4,0.2c-0.2,0-0.4,0.1-0.5,0.1v0.5l3.1,0.2l0.1-0.1v-1.2h0.1
		c0.2,0.1,0.3,0.3,0.6,0.5c0.2,0.2,0.4,0.3,0.6,0.5c0.2,0.1,0.5,0.2,0.8,0.3c0.3,0.1,0.7,0.1,1.1,0.1c0.6,0,1.1-0.1,1.5-0.4
		c0.4-0.3,0.7-0.6,0.9-1c0.2,0.2,0.4,0.4,0.6,0.5c0.2,0.1,0.4,0.3,0.7,0.5c0.2,0.1,0.5,0.3,0.8,0.4c0.3,0.1,0.7,0.1,1.1,0.1
		c0.8,0,1.4-0.2,1.8-0.7c0.4-0.5,0.7-1.2,0.7-2.1v-4.2c0-0.2,0-0.4,0.1-0.5c0.1-0.1,0.2-0.2,0.4-0.3c0.1-0.1,0.3-0.1,0.4-0.1
		c0.1,0,0.3,0,0.5-0.1v-0.6h-4.5v0.6c0.1,0,0.3,0,0.4,0c0.1,0,0.3,0,0.4,0.1c0.2,0,0.3,0.1,0.4,0.3c0.1,0.1,0.1,0.3,0.1,0.5v4.3
		c0,0.6-0.1,1-0.4,1.4c-0.3,0.3-0.7,0.5-1.1,0.5c-0.3,0-0.6,0-0.9-0.1c-0.3-0.1-0.5-0.2-0.7-0.4c-0.2-0.1-0.3-0.3-0.4-0.4
		c-0.1-0.1-0.2-0.3-0.3-0.4v-4.8c0-0.2,0-0.4,0.1-0.5c0.1-0.1,0.2-0.2,0.4-0.3c0.1-0.1,0.3-0.1,0.4-0.1c0.1,0,0.3,0,0.5-0.1v-0.6
		h-4.4v0.6c0.1,0,0.3,0,0.4,0c0.1,0,0.3,0,0.4,0.1c0.2,0,0.3,0.1,0.4,0.3c0.1,0.1,0.1,0.3,0.1,0.5v4.3c0,0.6-0.1,1-0.4,1.4
		c-0.3,0.3-0.7,0.5-1.1,0.5c-0.3,0-0.6,0-0.9-0.1c-0.3-0.1-0.5-0.2-0.7-0.4c-0.2-0.1-0.3-0.3-0.5-0.4c-0.1-0.2-0.2-0.3-0.3-0.3v-4.8
		c0-0.2,0-0.4,0.1-0.5c0.1-0.1,0.2-0.2,0.4-0.3c0.1-0.1,0.3-0.1,0.4-0.1c0.1,0,0.3,0,0.5-0.1L169.3,101.6z M163.3,101.6h-4.4v0.6
		c0.1,0,0.3,0,0.4,0c0.2,0,0.3,0,0.4,0.1c0.2,0,0.3,0.1,0.4,0.3c0.1,0.1,0.1,0.3,0.1,0.5v5.1c0,0.2,0,0.3-0.1,0.5
		c-0.1,0.1-0.2,0.3-0.4,0.4c-0.1,0.1-0.3,0.1-0.5,0.2c-0.2,0-0.4,0.1-0.6,0.1v0.5l3.2,0.2l0.1-0.1v-6.8c0-0.2,0-0.4,0.1-0.5
		c0.1-0.1,0.2-0.2,0.4-0.3c0.1-0.1,0.3-0.1,0.4-0.1c0.1,0,0.3-0.1,0.4-0.1V101.6z M115,101.6h-4.8v0.6c0.1,0,0.3,0,0.4,0
		c0.2,0,0.3,0,0.4,0.1c0.2,0,0.3,0.1,0.4,0.3c0.1,0.1,0.1,0.3,0.1,0.5v5.1c0,0.2,0,0.3-0.1,0.5c-0.1,0.2-0.2,0.3-0.4,0.4
		c-0.1,0.1-0.3,0.1-0.4,0.1c-0.2,0-0.3,0.1-0.5,0.1v0.5l3,0.2l0.1-0.1v-1.2h0c0.4,0.5,0.8,0.8,1.3,1c0.5,0.2,0.9,0.4,1.3,0.4
		c0.4,0,0.7-0.1,1-0.3c0.2-0.2,0.4-0.5,0.4-0.9c0-0.3-0.1-0.5-0.2-0.8c-0.2-0.2-0.4-0.3-0.7-0.3c-0.3,0-0.6,0.1-0.8,0.2
		c-0.2,0.2-0.3,0.3-0.3,0.5c0,0.1,0,0.2,0,0.3c0,0.1,0,0.2,0.1,0.3c-0.3,0-0.6-0.1-1-0.3c-0.4-0.2-0.7-0.5-1-0.9v-4.8
		c0-0.2,0-0.4,0.1-0.5c0.1-0.1,0.2-0.2,0.4-0.3c0.2-0.1,0.4-0.1,0.6-0.1c0.2,0,0.5,0,0.6-0.1L115,101.6z M58.1,101.6h-5.9v0.6
		c0.2,0,0.4,0,0.7,0.1c0.3,0,0.5,0.1,0.7,0.1c0.2,0.1,0.4,0.2,0.4,0.3c0.1,0.1,0.1,0.3,0.1,0.5v8.6c0,0.2,0,0.4-0.1,0.5
		c-0.1,0.1-0.2,0.2-0.5,0.3c-0.2,0.1-0.4,0.1-0.7,0.2c-0.3,0.1-0.5,0.1-0.7,0.1v0.6h5.9V113c-0.2,0-0.4,0-0.7-0.1
		c-0.3,0-0.5-0.1-0.7-0.1c-0.2-0.1-0.4-0.2-0.5-0.3c-0.1-0.2-0.1-0.3-0.1-0.5v-8.6c0-0.2,0-0.3,0.1-0.5c0.1-0.1,0.2-0.3,0.5-0.3
		c0.1,0,0.3-0.1,0.6-0.1c0.3-0.1,0.5-0.1,0.7-0.1V101.6z M186.5,101.6h-4.4v0.6c0.1,0,0.3,0,0.4,0c0.2,0,0.3,0,0.4,0.1
		c0.2,0,0.3,0.1,0.4,0.3c0.1,0.1,0.1,0.3,0.1,0.5v5.1c0,0.2,0,0.3-0.1,0.5c-0.1,0.1-0.2,0.3-0.4,0.4c-0.1,0.1-0.3,0.1-0.5,0.2
		c-0.2,0-0.4,0.1-0.6,0.1v0.5l3.2,0.2l0.1-0.1v-6.8c0-0.2,0-0.4,0.1-0.5c0.1-0.1,0.2-0.2,0.4-0.3c0.1-0.1,0.3-0.1,0.4-0.1
		c0.1,0,0.3-0.1,0.4-0.1L186.5,101.6z M122.8,101.6h-4.4v0.6c0.1,0,0.3,0,0.4,0c0.2,0,0.3,0,0.4,0.1c0.2,0,0.3,0.1,0.4,0.3
		c0.1,0.1,0.1,0.3,0.1,0.5v5.1c0,0.2,0,0.3-0.1,0.5c-0.1,0.1-0.2,0.3-0.4,0.4c-0.1,0.1-0.3,0.1-0.5,0.2c-0.2,0-0.4,0.1-0.6,0.1v0.5
		l3.2,0.2l0.1-0.1v-6.8c0-0.2,0-0.4,0.1-0.5c0.1-0.1,0.2-0.2,0.4-0.3c0.1-0.1,0.3-0.1,0.4-0.1c0.1,0,0.3-0.1,0.4-0.1L122.8,101.6z
		 M157.4,101.6h-10.3v0.6c0.1,0,0.4,0,0.6,0.1c0.3,0,0.5,0.1,0.6,0.1c0.2,0.1,0.3,0.2,0.4,0.3c0.1,0.1,0.1,0.3,0.1,0.5v8.5
		c0,0.2,0,0.4-0.1,0.5c-0.1,0.1-0.2,0.3-0.4,0.4c-0.1,0.1-0.3,0.1-0.6,0.2c-0.3,0.1-0.5,0.1-0.6,0.1v0.6h5.6V113
		c-0.2,0-0.4,0-0.7-0.1c-0.3-0.1-0.5-0.1-0.6-0.1c-0.2-0.1-0.4-0.2-0.4-0.3c-0.1-0.2-0.1-0.3-0.1-0.5v-8c0-0.4,0-0.7,0.1-0.9
		c0-0.2,0.1-0.4,0.3-0.5c0.1-0.1,0.4-0.2,0.6-0.2c0.3,0,0.7,0,1.2,0c0.2,0,0.5,0,0.7,0c0.2,0,0.5,0,0.7,0.1c0.2,0,0.4,0.1,0.6,0.1
		c0.2,0.1,0.3,0.1,0.4,0.2c0.3,0.3,0.5,0.6,0.9,1.2c0.3,0.5,0.6,0.9,0.7,1.3h0.7v0v0L157.4,101.6z M214.8,101.8L214.8,101.8
		L214.8,101.8z M78.3,103.3v4.9c0,0.1-0.1,0.3-0.2,0.5c-0.1,0.2-0.3,0.3-0.4,0.5c-0.2,0.1-0.4,0.3-0.6,0.3c-0.2,0.1-0.5,0.1-0.8,0.1
		c-0.4,0-0.7-0.1-1-0.3c-0.3-0.2-0.6-0.4-0.8-0.7c-0.2-0.3-0.4-0.7-0.5-1.2c-0.1-0.5-0.2-1-0.2-1.6c0-0.5,0.1-0.9,0.1-1.3
		c0.1-0.4,0.3-0.7,0.5-1.1c0.2-0.3,0.5-0.6,0.8-0.8c0.3-0.2,0.7-0.3,1.2-0.3c0.5,0,0.9,0.1,1.2,0.3C77.8,102.8,78.1,103,78.3,103.3z
		 M211.5,103.3v4.9c0,0.1-0.1,0.3-0.2,0.5c-0.1,0.2-0.3,0.3-0.4,0.5c-0.2,0.1-0.4,0.3-0.6,0.3c-0.2,0.1-0.5,0.1-0.8,0.1
		c-0.4,0-0.7-0.1-1-0.3c-0.3-0.2-0.6-0.4-0.8-0.7c-0.2-0.3-0.4-0.7-0.5-1.2c-0.1-0.5-0.2-1-0.2-1.6c0-0.5,0.1-0.9,0.2-1.3
		c0.1-0.4,0.3-0.7,0.5-1.1c0.2-0.3,0.5-0.6,0.8-0.8c0.3-0.2,0.7-0.3,1.2-0.3c0.5,0,0.9,0.1,1.2,0.3C211,102.8,211.2,103,211.5,103.3
		L211.5,103.3z M130.5,106.8c0,0.3,0,0.7-0.1,1c-0.1,0.4-0.2,0.7-0.3,0.9c-0.1,0.3-0.3,0.5-0.6,0.6c-0.2,0.2-0.6,0.2-1,0.2
		c-0.6,0-1.2-0.2-1.6-0.7c-0.4-0.5-0.7-1.2-0.7-2H130.5z M201.2,106.8c0,0.3,0,0.7-0.1,1c-0.1,0.4-0.2,0.7-0.3,0.9
		c-0.1,0.3-0.3,0.5-0.6,0.6c-0.2,0.2-0.6,0.2-1,0.2c-0.7,0-1.2-0.2-1.6-0.7c-0.4-0.5-0.7-1.2-0.7-2H201.2z M162.1,113.3
		c0-0.3-0.1-0.6-0.3-0.8c-0.2-0.2-0.5-0.4-0.9-0.4c-0.3,0-0.6,0.1-0.8,0.3c-0.2,0.2-0.3,0.5-0.3,0.8c0,0.3,0.1,0.6,0.3,0.8
		c0.2,0.2,0.5,0.3,0.8,0.3c0.4,0,0.6-0.1,0.9-0.3C162,113.8,162.1,113.6,162.1,113.3L162.1,113.3z M185.4,113.3
		c0-0.3-0.1-0.6-0.4-0.8c-0.2-0.2-0.5-0.4-0.9-0.4c-0.3,0-0.6,0.1-0.8,0.3c-0.2,0.2-0.3,0.5-0.3,0.8c0,0.3,0.1,0.6,0.3,0.8
		c0.2,0.2,0.5,0.3,0.8,0.3c0.4,0,0.6-0.1,0.9-0.3C185.2,113.8,185.4,113.6,185.4,113.3L185.4,113.3z M121.7,113.3
		c0-0.3-0.1-0.6-0.3-0.8c-0.2-0.2-0.5-0.4-0.9-0.4c-0.3,0-0.6,0.1-0.8,0.3c-0.2,0.2-0.3,0.5-0.3,0.8c0,0.3,0.1,0.6,0.3,0.8
		c0.2,0.2,0.5,0.3,0.8,0.3c0.4,0,0.6-0.1,0.9-0.3C121.6,113.8,121.7,113.6,121.7,113.3L121.7,113.3z M186,126.6
		c-3.1,0-5.4,1-7.2,2.9c-1.7,1.9-2.6,4.5-2.6,7.8c0,1.4,0.2,2.7,0.7,4c0.5,1.2,1.1,2.3,2,3.4c0.8,1,1.9,1.7,3.2,2.3
		c1.3,0.6,2.6,0.9,4.1,0.9c2.1,0,3.8-0.5,5-1.4c1.3-0.9,1.9-2.2,1.9-3.9c0-0.7-0.2-1.3-0.5-1.8c-0.3-0.5-0.9-0.8-1.7-0.8
		c-0.8,0-1.5,0.2-2,0.6c-0.5,0.4-0.7,0.9-0.7,1.4c0,0.6,0.1,1.2,0.3,1.9c0.2,0.6,0.3,1.1,0.3,1.4c-0.3,0.4-0.6,0.7-1.1,0.8
		c-0.5,0.1-1.1,0.2-1.6,0.2c-0.7,0-1.3-0.1-2-0.4c-0.6-0.3-1.2-0.8-1.8-1.5c-0.5-0.7-1-1.6-1.3-2.8c-0.3-1.2-0.5-2.5-0.5-4.1
		c0-2.5,0.6-4.6,1.8-6.2c1.2-1.6,2.7-2.4,4.6-2.4c1.4,0,2.5,0.3,3.5,1c0.9,0.6,1.8,1.6,2.6,2.9l1.4-0.9c-0.9-1.6-2.2-2.9-3.7-3.8
		C189.2,127.1,187.6,126.6,186,126.6L186,126.6z M101,131.9c-0.9-1.6-2.1-2.9-3.5-3.8c-1.5-1-3.2-1.4-5.1-1.4
		c-1.7,0-3.2,0.3-4.5,0.9c-1.3,0.6-2.3,1.3-3.2,2.3c-0.8,1-1.4,2.1-1.9,3.4c-0.4,1.3-0.6,2.7-0.6,4.1c0,1.3,0.2,2.6,0.6,3.8
		c0.4,1.3,1.1,2.4,1.9,3.4c0.8,1,1.8,1.7,3,2.3c1.2,0.6,2.6,0.9,4.1,0.9c1.5,0,2.9-0.2,4-0.7c1.1-0.5,2-1.1,2.7-1.9
		c0.7-0.8,1.1-1.7,1.5-2.7c0.3-1,0.5-2.2,0.5-3.4v-1.4h-14c0-1.3,0.1-2.5,0.4-3.6c0.3-1.1,0.7-2,1.3-2.8c0.6-0.8,1.3-1.4,2.2-1.9
		c0.9-0.5,2-0.7,3.2-0.7c1.3,0,2.4,0.3,3.3,0.8c0.9,0.6,1.8,1.6,2.7,3.1L101,131.9z M214.8,131.9c-0.9-1.6-2.1-2.9-3.5-3.8
		c-1.5-1-3.2-1.4-5.1-1.4c-1.7,0-3.2,0.3-4.5,0.9c-1.3,0.6-2.3,1.3-3.2,2.3c-0.8,1-1.4,2.1-1.9,3.4c-0.4,1.3-0.6,2.7-0.6,4.1
		c0,1.3,0.2,2.6,0.7,3.8c0.4,1.3,1.1,2.4,1.9,3.4c0.8,1,1.8,1.7,3,2.3c1.2,0.6,2.6,0.9,4,0.9c1.5,0,2.9-0.2,4-0.7
		c1.1-0.5,2-1.1,2.7-1.9c0.7-0.8,1.1-1.7,1.5-2.7c0.3-1,0.5-2.2,0.5-3.4v-1.4h-14c0-1.3,0.1-2.5,0.4-3.6c0.3-1.1,0.7-2,1.3-2.8
		c0.6-0.8,1.3-1.4,2.2-1.9c0.9-0.5,2-0.7,3.2-0.7c1.3,0,2.4,0.3,3.3,0.8c0.9,0.6,1.8,1.6,2.7,3.1L214.8,131.9z M140.7,129.7
		c-0.9-1-1.9-1.7-3-2.2c-1.1-0.5-2.3-0.8-3.8-0.8c-1.6,0-2.9,0.5-3.9,1.4c-1,0.9-1.5,2.1-1.5,3.6c0,0.8,0.1,1.5,0.3,2.1
		c0.2,0.6,0.6,1.2,1,1.7c0.4,0.4,0.8,0.8,1.4,1.1c0.6,0.3,1.1,0.6,1.6,0.8c0.6,0.2,1.9,0.7,3.9,1.3c2,0.6,3.3,1.1,4,1.5v2
		c0,0.2,0,0.5-0.1,1c-0.1,0.5-0.2,1-0.5,1.4c-0.3,0.5-0.7,0.9-1.2,1.3c-0.5,0.4-1.3,0.6-2.2,0.6c-0.7,0-1.3-0.1-1.8-0.3
		c-0.6-0.2-1-0.4-1.2-0.7c0-0.3,0.1-0.7,0.2-1.2c0.1-0.5,0.2-1,0.2-1.5c0-0.5-0.2-0.9-0.7-1.3c-0.5-0.4-1.1-0.6-1.9-0.6
		c-0.7,0-1.2,0.2-1.6,0.7c-0.3,0.5-0.5,1-0.5,1.6c0,0.6,0.2,1.2,0.7,1.8c0.5,0.6,1.1,1.1,1.8,1.5c0.6,0.4,1.4,0.7,2.3,1
		c0.9,0.3,1.8,0.4,2.7,0.4c1.2,0,2.2-0.1,3.1-0.2c0.9-0.2,1.7-0.5,2.4-1c0.7-0.5,1.3-1.2,1.7-2c0.4-0.9,0.6-2,0.6-3.3
		c0-2,0-3.7-0.1-5.2c0-1.5-0.1-3.1-0.1-4.9c0-0.5,0.1-0.9,0.3-1.3c0.2-0.3,0.5-0.6,0.9-0.8c0.2-0.1,0.6-0.2,1-0.2c0.5,0,0.9,0,1.4,0
		v-1.3c-0.7-0.2-1.3-0.4-1.8-0.6c-0.5-0.1-1.1-0.2-1.7-0.2c-1.1,0-2,0.3-2.7,0.7c-0.7,0.5-1.1,1.2-1.3,2.2H140.7z M125.7,127.2
		h-10.1v1.3c0.3,0,0.7,0.1,1,0.1c0.3,0,0.6,0.1,0.9,0.2c0.4,0.1,0.7,0.3,0.9,0.6c0.2,0.3,0.3,0.7,0.3,1.2v12.3
		c0,0.4-0.1,0.8-0.3,1.2c-0.2,0.4-0.5,0.7-0.9,0.9c-0.3,0.2-0.7,0.3-1.2,0.4c-0.5,0.1-1,0.2-1.4,0.2v1.3l7.4,0.4l0.3-0.3v-16.3
		c0-0.5,0.1-0.9,0.3-1.2c0.2-0.3,0.5-0.5,0.9-0.7c0.3-0.1,0.6-0.2,0.9-0.3c0.3-0.1,0.6-0.1,1-0.2L125.7,127.2z M65,127.2H52.2v1.4
		c0.3,0,0.8,0.1,1.5,0.1c0.6,0.1,1.1,0.2,1.4,0.3c0.4,0.2,0.7,0.4,0.9,0.8c0.2,0.3,0.3,0.8,0.3,1.3V152c0,0.5-0.1,0.9-0.2,1.3
		c-0.1,0.4-0.5,0.6-1,0.8c-0.4,0.1-0.8,0.2-1.4,0.3c-0.6,0.1-1.1,0.2-1.5,0.2v1.4h14c1.3,0,2.5-0.1,3.6-0.4c1.1-0.3,2.1-0.7,3.1-1.2
		c0.9-0.5,1.6-1.3,2.1-2.1c0.5-0.9,0.8-1.9,0.8-3.2c0-1.1-0.2-2.1-0.5-3c-0.4-0.9-0.9-1.6-1.6-2.2c-0.6-0.6-1.4-1.1-2.3-1.5
		c-0.9-0.4-1.9-0.8-3-1.1c1.5-1.9,2.7-3.5,3.7-4.8c1-1.3,2.2-2.9,3.6-4.7c0.6-0.8,1.2-1.4,1.7-1.8c0.5-0.4,1-0.7,1.5-0.9
		c0.4-0.2,0.8-0.3,1.4-0.4c0.6-0.1,1-0.1,1.4-0.2v-1.4h-8.2c-1.8,2.7-3.4,5-4.9,7c-1.5,2-3,4-4.8,6.1h-3.1v-9.2
		c0-0.5,0.1-0.9,0.2-1.3c0.2-0.4,0.5-0.6,1-0.8c0.3-0.1,0.7-0.2,1.3-0.3c0.6-0.1,1.2-0.1,1.6-0.1V127.2z M113,127.2H103v1.3
		c0.3,0,0.7,0.1,1,0.1c0.4,0,0.7,0.1,0.9,0.1c0.4,0.1,0.7,0.3,0.9,0.6c0.2,0.3,0.3,0.7,0.3,1.2l-0.3,21.5c0,0.2-0.1,0.9-0.2,1.4
		c-0.1,0.2-0.1,0.4-0.2,0.5c-0.1,0.1-0.1,0.1-0.2,0.2c-0.4,0.3,0.1-0.1-0.2,0.2c-0.2,0.2,0.1,0.1-0.6,0.2c-0.7,0.1-1.7-0.2-2.2-0.1
		l0,1.4l7.4,0.4l0.4-0.3l0-25.1c0-0.5,0.1-0.8,0.3-1.1c0.2-0.3,0.5-0.5,0.9-0.7c0.3-0.1,0.6-0.2,0.9-0.3c0.3-0.1,0.6-0.1,1-0.1
		L113,127.2z M160.7,127.2h-10.3v1.3c0.3,0,0.7,0.1,1,0.1c0.4,0,0.7,0.1,0.9,0.2c0.4,0.1,0.7,0.3,0.9,0.6c0.2,0.3,0.3,0.7,0.3,1.2
		V143c0,0.5-0.1,0.9-0.3,1.3c-0.2,0.4-0.5,0.7-0.9,1c-0.3,0.2-0.6,0.3-1,0.4c-0.4,0.1-0.8,0.1-1.2,0.2v1.3l7,0.5l0.3-0.3v-2.8h0.1
		c0.3,0.3,0.8,0.7,1.3,1.2c0.5,0.5,1,0.8,1.5,1.1c0.5,0.3,1.2,0.6,1.9,0.8c0.7,0.2,1.5,0.3,2.5,0.3c2,0,3.5-0.6,4.5-1.8
		c1-1.2,1.5-2.8,1.5-4.8v-10.5c0-0.5,0.1-0.9,0.3-1.2c0.2-0.3,0.5-0.5,0.9-0.7c0.3-0.1,0.6-0.2,0.9-0.3c0.2-0.1,0.6-0.1,1-0.1v-1.3
		h-10.3v1.3c0.3,0,0.7,0.1,1.1,0.1c0.4,0,0.7,0.1,1,0.2c0.4,0.1,0.7,0.3,0.9,0.6c0.2,0.3,0.3,0.7,0.3,1.2v10.4
		c0,1.4-0.4,2.5-1.1,3.3c-0.7,0.8-1.6,1.2-2.6,1.2c-0.8,0-1.5-0.1-2.1-0.3c-0.6-0.2-1.2-0.5-1.7-0.8c-0.5-0.3-0.8-0.6-1.1-1
		c-0.3-0.4-0.5-0.6-0.6-0.9v-11.6c0-0.5,0.1-0.8,0.3-1.1c0.2-0.3,0.5-0.5,0.9-0.7c0.3-0.1,0.6-0.2,1-0.3c0.4-0.1,0.7-0.1,1.1-0.1
		L160.7,127.2z M148.3,127.5L148.3,127.5L148.3,127.5z M140.8,138.3c-1.2-0.3-2.3-0.7-3.2-1c-0.9-0.3-1.8-0.7-2.5-1.2
		c-0.7-0.5-1.3-1-1.7-1.6c-0.4-0.6-0.6-1.4-0.6-2.3c0-1.1,0.3-2,0.9-2.5c0.6-0.5,1.4-0.8,2.4-0.8c1,0,1.9,0.2,2.7,0.7
		c0.8,0.5,1.4,1,1.9,1.7L140.8,138.3z M96.3,139.6c0,0.8-0.1,1.6-0.2,2.5c-0.1,0.9-0.4,1.6-0.6,2.2c-0.3,0.6-0.8,1.1-1.4,1.5
		c-0.6,0.4-1.3,0.6-2.2,0.6c-1.5,0-2.7-0.6-3.7-1.8c-1-1.2-1.5-2.8-1.6-5L96.3,139.6z M210.1,139.6c0,0.8-0.1,1.6-0.2,2.5
		c-0.1,0.9-0.4,1.6-0.6,2.2c-0.3,0.6-0.8,1.1-1.3,1.5c-0.6,0.4-1.3,0.6-2.2,0.6c-1.5,0-2.7-0.6-3.7-1.8c-1-1.2-1.5-2.8-1.6-5
		L210.1,139.6z M64.4,154.5h-3.6V142h2.8c2,0,3.6,0.6,4.9,1.8c1.3,1.2,2,2.8,2,4.9c0,1.8-0.5,3.1-1.6,4.2
		C67.8,154,66.3,154.5,64.4,154.5L64.4,154.5z M123,155.2c0-0.8-0.3-1.4-0.8-2c-0.5-0.6-1.2-0.9-2-0.9c-0.7,0-1.3,0.3-1.9,0.8
		c-0.5,0.5-0.8,1.2-0.8,1.9c0,0.7,0.3,1.4,0.8,1.9c0.5,0.6,1.2,0.8,1.9,0.8c0.8,0,1.5-0.3,2-0.8C122.8,156.5,123,155.9,123,155.2z"
		/>
</g>
</svg>
