<svg id="Layer_1" data-name="Layer 1" xmlns="http://www.w3.org/2000/svg" viewBox="0 0 280 300"><defs><style>.cls-1{fill:#214497;}.cls-2{fill:#fff;fill-rule:evenodd;}</style></defs><title>tigo logo</title><circle class="cls-1" cx="140" cy="150" r="76.76"/><path class="cls-2" d="M105.76,120.61c0,4.43,3.59,5.48,5.56,5.55a2.62,2.62,0,0,0,.77-.07c1.9-.14,5.06-1.82,4.57-6.32-.28-2.68-2-3.94-4.29-4.29-.35,0-.77-.07-1.12-.07-2.75.14-5.56,1.89-5.49,5.2ZM181,178.47a24.34,24.34,0,0,0,3.87-4.71,23.1,23.1,0,0,1-2.67,12.94,9.77,9.77,0,0,1-1.2,1.83c-4.21,5.62-13.28,7.87-21.23,7.8A40.32,40.32,0,0,1,148,194.65a23.44,23.44,0,0,1-4.08-1.83c-9.21-4.22-8.44-18.92-8.44-18.92s5.21,11.89,23.28,12.94A28,28,0,0,0,181,178.47Zm0-19.4a7.46,7.46,0,0,0,1.48-.14c1.9-.28,7.81-2.67,7.31-11.74-.42-8.86-5-11.32-8.79-11.39h-.21a7,7,0,0,0-3.65,1.12c-2.39,1.48-4.92,4.78-4.85,10.83.07,8.3,4.92,10.83,8.08,11.32Zm0-30.87c12.45.35,16.67,11.39,17.23,15.61.42,3,.49,12.73-5.69,18.49A16.25,16.25,0,0,1,181,166.59h-.35a16.84,16.84,0,0,1-12.3-5.34c-5.42-5.91-4.92-14.56-4.92-14.56a19.6,19.6,0,0,1,2.81-9.91c2.74-4.64,7.17-8.65,14.48-8.58Zm0-19.33a6.07,6.07,0,0,0,1.13-.07,17,17,0,0,1,15.47,8.93v6.11S194,116.32,182,115.69h-1c-11.25-.21-15.61,7.52-15.61,7.52v-5.06c1.76-3.38,5.28-8.79,15.61-9.28ZM87.13,129.54v-8.86s-5.69-.77-8.44,6.19v29a15.16,15.16,0,0,0,2.25,5.84,10.72,10.72,0,0,0,9.21,4.78c9.14.28,10.69-4.22,9.85-9.21,0,0-10.13,5.63-12.59-2.81v-17.3h9.14s4.15-.35,3.38-7.59Zm19.69-.21V157s.77,8.93,7.38,9.28,8.72-2.74,8.86-7.45c0,0-3.31,1.19-5.42-.35a4.62,4.62,0,0,1-2.1-3.73V134s-1.41-5.06-8.72-4.71Zm50.76,9.84a.82.82,0,0,0,1.13-.56c.21-1,.91-7.52-6.82-9.63-9-2.39-19.62.91-23.28,8.5a29,29,0,0,0-2.81,10.27c-.35,7,2.32,14.55,9.7,18.35,0,0,8.65,4.22,17.16,1.27,0,0,6.33-2.61,6.4-7.32s.7-11.46-3.38-11.53a47.44,47.44,0,0,0-5.41,0s1,7.81.63,8.79-2.6,3.87-9.35,1.76-7.59-10.55-6-16,8.44-7.59,12.73-7.24,9.28,3.3,9.28,3.3Z"/></svg>