<?xml version="1.0" encoding="utf-8"?>
<!-- Generator: Adobe Illustrator 23.0.1, SVG Export Plug-In . SVG Version: 6.00 Build 0)  -->
<svg version="1.1" id="Layer_1" xmlns="http://www.w3.org/2000/svg" xmlns:xlink="http://www.w3.org/1999/xlink" x="0px" y="0px"
	 viewBox="0 0 1000 1000" style="enable-background:new 0 0 1000 1000;" xml:space="preserve">
<style type="text/css">
	.st0{fill:#1683C6;}
</style>
<path class="st0" d="M428.7,344.4l62.3,42.4l-133.3,85.6c6.8,5.2,14.5,9.5,21.2,14.6L513,401.9l58.3,39.1l-132.6,86.9
	c5.9,5.9,14.6,9.2,21.9,13.9l135.9-86.2v-94.1H696v187.6l88.2,0.6v88.2h-187v-88.9L430.1,655.6L259.1,541
	c-16.7,52.9-56.3,92.7-122,97.5c-41.5,3-87.4-2.2-134.6,0V362c58.9,3.9,123.7-7.9,170.4,6.6c41.3,12.8,71.1,45.8,84.2,86.9
	l171.7-110L428.7,344.4z M96.7,449.8v99.4c23.7,0.1,41.7,1.5,55.7-9.3c20.8-16,25-55.7,6.6-76.9c-12.3-14.1-33-17.1-61.7-15.2
	c-0.8,0.1-0.7,1.1-0.6,2H96.7z M810.6,360.4H910v188.3h87.5v88.2H809.9V362.3c-0.1-0.9-0.1-1.9,0.6-2L810.6,360.4z"/>
</svg>
