<?xml version="1.0" encoding="utf-8"?>
<!-- Generator: Adobe Illustrator 23.0.1, SVG Export Plug-In . SVG Version: 6.00 Build 0)  -->
<svg version="1.1" id="Layer_1" xmlns="http://www.w3.org/2000/svg" xmlns:xlink="http://www.w3.org/1999/xlink" x="0px" y="0px"
	 viewBox="0 0 1000 1000" style="enable-background:new 0 0 1000 1000;" xml:space="preserve">
<style type="text/css">
	.st0{fill:#4885C5;}
	.st1{fill:#010101;}
</style>
<g>
	<path class="st0" d="M576,405.3l53.2,20.9L576,446v28.3l91-36.8v-22.6l-91-36.8V405.3z"/>
	<path class="st1" d="M88,510.5c-25.5,0-44.1,11.3-45.8,35.1h28.3V545c0.6-7.9,7.9-13.6,15.8-12.9c10.7,0,15.8,6.2,15.8,17v5.1H89.2
		c-27.7,0-50.3,8.5-50.3,35.1v1.1c0,21.5,15.8,31.1,35.1,31.1c11.9,0.6,22.6-5.1,29.4-14.1v12.5h28.8v-71.3
		c-0.6-27.1-19.2-37.9-44.1-37.9L88,510.5z M81.7,600.4c-10.2,0-14.7-5.1-14.7-12.5v-1.1c0-9.6,7.4-13.6,22.1-13.6h11.9v10.2
		C101.6,594.8,92,600.4,81.7,600.4L81.7,600.4z M199.9,599.3c-14.1,0-21.5-9.6-21.5-31.1v-3.4c0-20.9,8.5-31.1,21.5-31.1
		c10.2,0,15.8,6.8,17.5,17h28.3c-2.3-27.7-22.6-40.2-46.4-40.2c-28.3,0-50.9,19.2-50.9,55.3v1.1c0,36.2,21.5,54.3,50.9,54.3
		c28.8,0,45.2-17.5,47.5-41.3h-27.1C217.5,591.9,210.1,599.2,199.9,599.3L199.9,599.3z M310.2,599.3c-14.1,0-21.5-9.6-21.5-31.1
		v-3.4c0-20.9,8.5-31.1,21.5-31.1c10.2,0,15.8,6.8,17.5,17H356c-2.3-27.7-22.6-40.2-46.4-40.2c-28.3,0-50.9,19.2-50.9,55.3v1.1
		c0,36.2,21.5,54.3,50.9,54.3c28.8,0,45.2-17.5,47-41.3h-26.6C328.4,591.9,320.5,599.2,310.2,599.3L310.2,599.3z M421.6,599.8
		c-12.9,0-20.9-7.4-22.1-26.6h69v-12.5c0-35.1-22.1-50.3-48.6-50.3c-28.8,0-50.9,19.8-50.9,55.3v2.3c0,35.6,20.9,53.7,51.5,53.7
		c27.7,0,44.7-15.3,47.5-35.6h-27.7c-1.1,8.5-9.6,14.7-18.7,13.6L421.6,599.8z M419.9,530.8c11.9,0,19.2,6.8,19.8,22.6h-39.6
		C402.4,536.5,410.9,531.3,419.9,530.8z"/>
	<path class="st0" d="M400.1,553.5h-0.6H400.1z"/>
	<path class="st1" d="M548.9,510.5c-13.6-0.6-26,6.2-32.2,18.1v-15.8h-29.4v106.3h29.4v-67.9c0.6-9.6,9-17.5,18.7-17
		c10.7,0,15.8,5.7,15.8,18.1v66.7h30v-71.3C581.1,521.8,568.2,510.5,548.9,510.5L548.9,510.5z M636.5,585.1v-50.3h20.4v-22.1h-20.4
		v-32.2L607.1,493v19.8h-12.9v22.1h12.5v53.7c0,21.5,10.7,32.2,33.9,32.2c5.7,0,11.3-0.6,17-2.3v-23.3c-3.3,1.1-6.7,1.7-10.2,1.7
		c-6.8,0-10.7-4-10.7-11.9L636.5,585.1z M738.9,578.9v2.8c-0.6,9.6-9,17.5-18.7,17c-10.7,0-15.3-5.7-15.3-18.1v-67.9h-30v71.8
		c0,24.9,14.1,36.8,33.4,36.8c13,0.6,25.2-6.5,31.1-18.1v15.8h30V512.8h-30L738.9,578.9z M820.3,531.9v-19.8h-29.4v106.3h29.4v-54.9
		c0-17.5,11.9-23.8,32.2-23.8v-29.4C837.9,510.4,824.9,518.9,820.3,531.9L820.3,531.9z M961.1,560.3c0-35.1-22.1-49.8-48.6-49.8
		c-28.8,0-50.9,19.8-50.9,55.3v2.3c0,35.6,20.9,53.7,51.5,53.7c27.7,0,44.1-15.3,47.5-35.6h-27.7c-2.3,9-10.7,14.7-19.8,14.1
		c-12.9,0-20.9-7.4-22.1-26.6H960v-13.6L961.1,560.3z M892.1,553.5c2.3-17.5,10.7-22.6,20.4-22.6c11.9,0,19.2,6.8,19.8,22.6H892.1z"
		/>
</g>
</svg>
