<?xml version="1.0" encoding="utf-8"?>
<!-- Generator: Adobe Illustrator 23.0.1, SVG Export Plug-In . SVG Version: 6.00 Build 0)  -->
<svg version="1.1" id="Layer_1" xmlns="http://www.w3.org/2000/svg" xmlns:xlink="http://www.w3.org/1999/xlink" x="0px" y="0px"
	 viewBox="0 0 1000 1000" style="enable-background:new 0 0 1000 1000;" xml:space="preserve">
<style type="text/css">
	.st0{fill:#0B4E8E;}
	.st1{fill:#FFFFFF;}
	.st2{fill:#ED272D;}
	.st3{fill:#020202;}
	.st4{fill:#D1D3D4;}
</style>
<g id="layer1_1_" transform="translate(-227.317, -407.333)">
	<g id="g11008_1_" transform="matrix(6.01697, 0, 0, -6.01697, -1957.41, 2763.93)">
		<path id="path1556_1_" class="st0" d="M370.5,321.2h151.4v-25.2H370.5L370.5,321.2L370.5,321.2z"/>
		<path id="path1558_1_" class="st3" d="M395.7,321.2h126.1v-25.2H395.7V321.2z"/>
		<path id="path1560_1_" class="st1" d="M403.8,302.6v11.9h3.9v-4h3.7v4h3.9v-11.9h-3.9v4.6h-3.7v-4.6H403.8"/>
		<path id="path1562_1_" class="st1" d="M421.5,311.6h1c0.7,0,1.3-0.1,1.6-0.2c0.3-0.1,0.5-0.3,0.6-0.5c0.2-0.2,0.3-0.6,0.4-0.9
			c0.1-0.4,0.1-0.8,0.1-1.2c0-0.7-0.1-1.3-0.3-1.8c-0.2-0.5-0.5-0.8-0.9-1c-0.4-0.2-0.9-0.3-1.7-0.3l-1,0V311.6z M423,302.6
			L423,302.6c0.9,0,1.7,0.1,2.3,0.2c0.6,0.2,1.1,0.4,1.5,0.6c0.4,0.3,0.8,0.6,1.1,1.1c0.3,0.5,0.6,1,0.8,1.7
			c0.2,0.7,0.3,1.5,0.3,2.4c0,1.3-0.3,2.4-0.8,3.3c-0.5,0.9-1.2,1.6-2.1,2c-0.9,0.4-1.9,0.6-3.2,0.6h-5.5v-11.9L423,302.6"/>
		<path id="path1564_1_" class="st1" d="M431,302.6v11.9h9.3v-2.9h-5.4v-1.9h4.3v-2.9h-4.3v-4.2L431,302.6"/>
		<path id="path1566_1_" class="st1" d="M453.4,310h-3.7c-0.1,0.6-0.3,1.1-0.6,1.4c-0.4,0.3-0.8,0.5-1.4,0.5c-0.7,0-1.3-0.3-1.7-0.8
			c-0.4-0.5-0.7-1.4-0.7-2.6c0-0.8,0.1-1.5,0.3-1.9c0.2-0.4,0.5-0.8,0.8-1c0.3-0.2,0.7-0.3,1.2-0.3c0.6,0,1.1,0.2,1.4,0.5
			c0.4,0.3,0.6,0.8,0.6,1.5h3.8c-0.1-0.7-0.2-1.4-0.4-1.9c-0.2-0.5-0.6-1-1.1-1.5c-0.5-0.5-1.1-0.9-1.8-1.2
			c-0.7-0.3-1.5-0.4-2.4-0.4c-0.9,0-1.8,0.1-2.5,0.4c-0.8,0.3-1.4,0.7-1.9,1.1c-0.5,0.5-0.9,1.1-1.2,1.7c-0.4,0.9-0.6,1.9-0.6,3
			c0,0.9,0.1,1.8,0.5,2.6c0.3,0.8,0.7,1.5,1.2,2c0.5,0.5,1.1,0.9,1.8,1.2c0.8,0.3,1.7,0.5,2.7,0.5c0.9,0,1.7-0.1,2.4-0.4
			c0.8-0.3,1.4-0.6,1.9-1.1c0.5-0.5,0.9-1.1,1.1-1.7C453.2,311.2,453.4,310.6,453.4,310"/>
		<path id="path1568_1_" class="st1" d="M466,311.8c0.6,0,0.9,0,1.1-0.1c0.2-0.1,0.4-0.2,0.6-0.4c0.1-0.2,0.2-0.4,0.2-0.6
			c0-0.3-0.1-0.6-0.4-0.7c-0.2-0.2-0.7-0.3-1.3-0.3h-1.5v2.1H466L466,311.8z M467,302.6L467,302.6c0.9,0,1.6,0,2,0.1
			c0.4,0.1,0.8,0.2,1.2,0.4c0.4,0.2,0.7,0.4,0.9,0.6c0.3,0.3,0.5,0.6,0.7,1c0.2,0.4,0.2,0.9,0.2,1.4c0,0.7-0.2,1.3-0.5,1.8
			c-0.4,0.5-0.8,0.8-1.5,1c1,0.7,1.6,1.5,1.6,2.5c0,1.1-0.5,1.9-1.4,2.4c-0.7,0.4-1.8,0.6-3.3,0.6H461v-11.9H467z M466.4,307.6
			L466.4,307.6c0.8,0,1.3-0.1,1.5-0.3c0.2-0.2,0.4-0.5,0.4-0.8c0-0.4-0.1-0.6-0.4-0.8c-0.2-0.2-0.8-0.3-1.5-0.3h-1.6v2.3
			L466.4,307.6"/>
		<path id="path1570_1_" class="st1" d="M480.6,306.6h-2.5l1.2,4.3L480.6,306.6z M476.9,302.6L476.9,302.6l0.5,1.6h3.9l0.5-1.6h3.9
			l-4.3,11.9h-4l-4.3-11.9H476.9"/>
		<path id="path1572_1_" class="st1" d="M487.3,302.6v11.9h3.7l4.1-6.4v6.4h3.8v-11.9h-3.7l-4,6.2v-6.2H487.3"/>
		<path id="path1574_1_" class="st1" d="M501.4,302.6v11.9h3.8v-3.9l3.5,3.9h4.6L509,310l4.8-7.4h-4.7l-2.9,4.8l-1-1v-3.7
			L501.4,302.6"/>
		<path id="path1576_1_" class="st3" d="M370.5,321.2h25.2v-25.2h-25.2V321.2z"/>
		<path id="path1578_1_" class="st1" d="M374.9,316.8h16.4v-16.4h-16.4V316.8z"/>
		<path id="path1580_1_" class="st1" d="M381.9,321.2h2.5v-25.2h-2.5V321.2z"/>
		<path id="path1582_1_" class="st1" d="M370.5,309.8h25.2v-2.5h-25.2V309.8z"/>
		<path id="path1584_1_" class="st3" d="M379.3,312.3h7.6v-7.6h-7.6V312.3z"/>
	</g>
</g>
</svg>
