<?xml version="1.0" encoding="utf-8"?>
<!-- Generator: Adobe Illustrator 24.2.0, SVG Export Plug-In . SVG Version: 6.00 Build 0)  -->
<svg version="1.1" id="Layer_1" xmlns="http://www.w3.org/2000/svg" xmlns:xlink="http://www.w3.org/1999/xlink" x="0px" y="0px"
	 viewBox="0 0 1000 1000" style="enable-background:new 0 0 1000 1000;" xml:space="preserve">
<style type="text/css">
	.st0{fill:#87BD40;}
	.st1{fill:#110E0F;}
</style>
<g transform="matrix(1.22801 0 0 1.22801 34.3955 15.7978)">
	<path class="st0" d="M668,437.6c0-9.5,7.7-17.1,17.1-17.1c9.5,0,17.1,7.7,17.1,17.1c0,9.5-7.7,17.1-17.1,17.1
		C675.7,454.7,668,447,668,437.6"/>
	<path class="st1" d="M121.8,392.2c0-10.8-2.1-18.9-6.3-24.1c-4.2-5.2-10.6-7.9-19.1-7.9h-9.1v66.3h7c9.5,0,16.5-2.8,20.9-8.5
		C119.6,412.5,121.8,403.8,121.8,392.2 M154.2,391.1c0,19.8-5.3,35-15.9,45.7c-10.6,10.7-25.6,16-44.8,16H56V334.4h40
		c18.6,0,32.9,4.9,43,14.6C149.2,358.7,154.2,372.7,154.2,391.1 M257.8,452.8h29.8V333.9h-29.8V452.8z M329.4,408.5
		c0,7.6,1,13.4,3,17.3c2,4,5.3,6,10,6c4.6,0,7.9-2,9.8-6c1.9-4,2.8-9.8,2.8-17.3c0-7.5-1-13.2-2.9-17.1c-1.9-3.9-5.2-5.8-9.9-5.8
		c-4.6,0-7.8,1.9-9.8,5.7C330.4,395.2,329.4,400.9,329.4,408.5 M385.3,408.5c0,14.4-3.8,25.7-11.4,33.8
		c-7.6,8.1-18.2,12.1-31.9,12.1c-13.1,0-23.5-4.1-31.3-12.4c-7.7-8.3-11.6-19.4-11.6-33.5c0-14.4,3.8-25.6,11.4-33.6
		c7.6-8,18.2-12,31.9-12c8.5,0,16,1.8,22.5,5.5c6.5,3.7,11.5,9,15,15.9C383.6,391.2,385.3,399.3,385.3,408.5 M397.1,452.8h29.8
		v-45.5v-42.8h-29.8V452.8z M397.1,353.8h29.8v-19.9h-29.8V353.8z M487.2,430.3c4,0,8.8-1,14.4-3v22.2c-4,1.8-7.8,3-11.5,3.8
		c-3.6,0.8-7.9,1.1-12.8,1.1c-10,0-17.2-2.5-21.6-7.5c-4.4-5-6.6-12.7-6.6-23.1v-36.4h-10.4v-22.8h10.4v-22.6l30-5.2v27.8h19v22.8
		h-19v34.4C479.2,427.4,481.9,430.3,487.2,430.3 M556.1,430.3c4,0,8.8-1,14.4-3v22.2c-4,1.8-7.8,3-11.5,3.8
		c-3.6,0.8-7.9,1.1-12.8,1.1c-10,0-17.2-2.5-21.6-7.5c-4.4-5-6.6-12.7-6.6-23.1v-36.4h-10.4v-22.8h10.4v-22.9l30-4.9v27.8h19v22.8
		h-19v34.4C548.1,427.4,550.8,430.3,556.1,430.3 M608.1,397.7c0.4-4.8,1.8-8.4,4.1-10.6c2.4-2.3,5.3-3.4,8.8-3.4
		c3.8,0,6.8,1.3,9.1,3.8c2.3,2.5,3.4,5.9,3.5,10.2H608.1z M650.1,373.3c-7.1-6.9-17.1-10.4-30.1-10.4c-13.7,0-24.2,4-31.5,12
		c-7.4,8-11,19.4-11,34.3c0,14.4,4,25.6,11.9,33.4c7.9,7.8,19.1,11.7,33.5,11.7c6.9,0,12.8-0.5,17.8-1.4c4.9-0.9,9.7-2.6,14.4-5
		l-4.6-19.9c-3.4,1.4-6.6,2.4-9.6,3.1c-4.4,1-9.2,1.5-14.4,1.5c-5.7,0-10.3-1.4-13.6-4.2c-3.3-2.8-5.1-6.7-5.3-11.6h53.2v-13.6
		C660.7,390.3,657.2,380.3,650.1,373.3 M193.7,397.7c0.4-4.8,1.8-8.4,4.1-10.6c2.4-2.3,5.3-3.4,8.8-3.4c3.8,0,6.8,1.3,9.1,3.8
		c2.3,2.5,3.4,5.9,3.5,10.2H193.7z M235.7,373.3c-7.1-6.9-17.1-10.4-30.1-10.4c-13.7,0-24.2,4-31.5,12c-7.4,8-11,19.4-11,34.3
		c0,14.4,4,25.6,11.9,33.4c7.9,7.8,19.1,11.7,33.5,11.7c6.9,0,12.8-0.5,17.8-1.4c4.9-0.9,9.7-2.6,14.4-5L236,428
		c-3.4,1.4-6.6,2.4-9.6,3.1c-4.4,1-9.2,1.5-14.4,1.5c-5.7,0-10.3-1.4-13.6-4.2c-3.3-2.8-5.1-6.7-5.3-11.6h53.2v-13.6
		C246.3,390.3,242.8,380.3,235.7,373.3"/>
</g>
</svg>
