<svg xmlns="http://www.w3.org/2000/svg" viewBox="0 0 444.15 133.72"><defs><style>.cls-1{fill:#024366;}.cls-1,.cls-2{fill-rule:evenodd;}.cls-2{fill:#bd9e55;}</style></defs><g id="Layer_2" data-name="Layer 2"><g id="Layer_1-2" data-name="Layer 1"><path class="cls-1" d="M414.92,133h8.2V117.69h.12L433.75,133h10.4L431,115.57l11.74-14H433l-9.79,12.59h-.12v-27h-8.2ZM3.69,110.19a16.43,16.43,0,0,1,9.7-3.42c4.82,0,7.09,1.71,7.09,6.78H16c-3.42,0-7.46.31-10.59,1.83A9.27,9.27,0,0,0,0,124.26v.17c0,5.95,5.46,9.29,11,9.29a11.25,11.25,0,0,0,9.72-5.44h.13a37.4,37.4,0,0,0,.37,4.72h7.21c-.19-2.45-.31-4.66-.37-7s-.13-4.71-.13-7.89v-4c0-9.3-4-13.27-13.57-13.27a28.29,28.29,0,0,0-10.94,2.39Zm375,22.79h8.2V117.57c0-4,1.28-10.45,7.21-10.45,5.26,0,5.32,5.2,5.32,9V133h8.2V113.12c0-7.09-3.24-12.34-10.69-12.34-4.29,0-7.77,1.4-10.33,5h-.12V101.5H378.7V133Zm-31-22.79a16.49,16.49,0,0,1,9.72-3.42c4.82,0,7.09,1.71,7.09,6.78h-4.53c-3.42,0-7.46.31-10.57,1.83s-5.38,4.29-5.38,9c0,6,5.44,9.35,11,9.35a11.28,11.28,0,0,0,9.73-5.44h.12a37.4,37.4,0,0,0,.37,4.72h7.21c-.18-2.45-.31-4.66-.37-7s-.12-4.71-.12-7.89v-4c0-9.3-4-13.27-13.56-13.27a28.29,28.29,0,0,0-10.94,2.39Zm4.16,13.68c0-4.82,5.44-5.44,9.11-5.44h3.54a10.47,10.47,0,0,1-1.71,6.49,7,7,0,0,1-5.75,2.83c-2.94,0-5.19-1.18-5.19-3.88Zm-33.62-6.71c0-4.41,2.08-10,7.33-10s6.78,5.81,6.78,10-1.52,10.19-6.9,10.19-7.21-5.74-7.21-10.19ZM310,133h8v-3.85H318a11.55,11.55,0,0,0,9.66,4.59c9.66,0,13.2-8,13.2-16.56s-3.54-16.38-13.2-16.38a11,11,0,0,0-9.42,4.78h-.12V87.16H310ZM266,117.16c0-4.23,1.46-10,6.78-10s7.33,5.63,7.33,10-1.77,10.19-7.21,10.19-6.9-5.85-6.9-10.19ZM280.46,133h8V87.14h-8.2v18h-.12a11.22,11.22,0,0,0-9.42-4.41c-9.66,0-13.2,7.7-13.2,16.38s3.54,16.56,13.2,16.56c3.86,0,7.21-1.22,9.67-4.29h.12Zm-47.84-18.83c.37-4.22,2.7-7.4,7.28-7.4s6.42,3.42,6.67,7.4Zm19.43,10.4a21.19,21.19,0,0,1-10.44,3.17c-5.07,0-8.62-2.88-9-8h21.76c0-11-3.3-19-15-19-9.76,0-14.6,7.52-14.6,16.62,0,10.32,6,16.32,16.44,16.32a21.69,21.69,0,0,0,10.81-2.51v-6.66Zm-45-1c0,6.24,3.54,10.2,10,10.2a21.77,21.77,0,0,0,6.06-.74l-.25-6.47a7.53,7.53,0,0,1-3.73.86c-3.11,0-3.85-2.51-3.85-5.19V107.49h7.27v-6h-7.27V92.58L207,95.22v6.3H201v6H207v16ZM188.83,133H197V101.5h-8.2Zm0-37.21H197V87.94h-8.2ZM152.59,133h8.2V117.57c0-4,1.28-10.45,7.21-10.45,5.25,0,5.31,5.2,5.31,9V133h8.2V113.12c0-7.09-3.23-12.34-10.69-12.34-4.28,0-7.76,1.4-10.32,5h-.12V101.5h-7.77V133Zm-7.13-31.48h-8.2v15.41c0,4-1.27,10.44-7.21,10.44-5.25,0-5.31-5.19-5.31-9V101.5h-8.2v19.86c0,7.09,3.23,12.34,10.69,12.34a13.09,13.09,0,0,0,10.32-5h.13V133h7.76V101.5ZM86.65,133h8.2V101.5h-8.2Zm0-37.21h8.2V87.94h-8.2ZM71,133h8.18V87.14H71Zm-36.24,0h8.2V117.57c0-4,1.28-10.45,7.21-10.45,5.25,0,5.32,5.2,5.32,9V133h8.2V113.12c0-7.09-3.24-12.34-10.7-12.34a11.75,11.75,0,0,0-9.9,5h-.13V87.14h-8.2ZM7.83,123.87c0-4.82,5.44-5.44,9.1-5.44h3.55a10.47,10.47,0,0,1-1.71,6.49A7,7,0,0,1,13,127.75c-2.93,0-5.19-1.18-5.19-3.88Z"/><path class="cls-2" d="M16.65,71.53c4.36-2.17,8.87-4,13-6.66,1.66-.49-1,4.64-11.17,7.23-.49.13-1.87.29-1.87-.57Zm9.86-17a24.8,24.8,0,0,1,5.57,1.17c-2.48,1.12-8.53,3-10.94,1.43a6.69,6.69,0,0,1,5.37-2.6Zm19.94-7.7c1.71-.68,15-7.52,15.13-6.47.26,1.83-2.35,3-3.73,3.48s-10.32,3.79-11.46,3.23Zm4.29,6.34c.91-1,1.57-2.25,2.86-2.84a7.23,7.23,0,0,1,3,1.38c1.24.31,1.92-3,3.24-2.43,1.34.82,2.9,1.19,4,2.28-.08.74-2.47,3.44-3.29,3.18-1.2-.4-2.37-1.59-3.65-1.59-3,3.32-2.47,2.62-6.38.64-.27-.17.1-.39.12-.62ZM95.2,42.46c.31-.48.66-1.71,1.19-.93.25.35,4.6,19.84,1.28,21.67-.35.07-.23-.33-.41-.49,0-5.5-2.72-15.47-2.91-17.33.15-1.05.62-1.93.85-2.92Zm11.49,16a15.89,15.89,0,0,1,2.23-3.23c.92.41.82-.41.28.89-.7,1.79-6.18,9,4,11.49a21.73,21.73,0,0,0,3.34.58c2.74-.21,6.61-1.28,8.61-3.13-2-1-7.17-.7-8.34-1.53-.42-.29,1-3.38,1.48-3.64,1.13-.66,9.45-1.65,8.47-7-.42-2.2-2.43-8.14-1.08-10.2.71-.49.62-1.38,1.1-2.06l2.74,14.59c3.13,10.26,30,5.46,31.43,4.33.21-.17,1-9.23,2.25-10.49,1.5-1.5,1-1.73,4.76,0,2.74,1.71,6.07,3.28,7.7,6.26,2,2.62.79,8.24-.37,8.45-1.67.1-3-.8-4.65-.82-2.23-.29-4.64-.13-6.76-.62-.08-.21-.33-.17-.48-.13-7.14,3-30.9,7.17-35.14-1.79a18.59,18.59,0,0,1-1.09-3.56l-3.61,3.95V61c2.89,1.09,6.72-.85,4,4.43a20.32,20.32,0,0,1-9.87,6c-6.26,1.82-14.6-.9-12.77-8.75a41.59,41.59,0,0,1,1.75-4.27Zm5.81-14.58c2-1.2-.06,1.44.72,1.71,1.32.18,1.71-1.32,2.76-1.73.46.49-.12,1.44.68,1.73,1-.54.52-1.84,1.57-2.41,1.58.6-2.49,6.88-3.52,4.1,0-.08-.09-.15-.15-.21-1,.43-2.12,1.81-3.13.62-1.24-1.48,0-2.58,1.07-3.81Zm30-1c1.09-.91,8.57-2,9-.31.66,2.66-9.21,7.67-9.44,6-.08-.58,12.36-5-1.11-2.85-1.67.27,1.24-2.43,1.55-2.8Zm22.14,12c.56-.08,3.15.93,2.78,1.73-1,2.12-3.54,1.16-4.76,0a2.93,2.93,0,0,1,2-1.77Zm5.42.43a10.75,10.75,0,0,1,4.37,3.86l-5.67-1a25,25,0,0,0,1.3-2.89Zm6.49-12.15c3.5-2.06,15.57,7.77,16.58,8.14L203,40.17c1.34-.68,1.38,13.35,1.42,14.09.6,8.41-1.94,12.63-1.87,11.39.14-2.51-.31-17.88-1.08-20.23-1.44.66-5.25,6.37-6.51,7.77.77,1.48,4.5,6,1.63,10.3-2,3-11.23,6.47-7.33-5.07.25-.7,2-3.29,1.58-3.93a37.32,37.32,0,0,0-9-5.21c-.33.41-.22,1.13-.88,1.29-2.33.48-3.24-1.66-4.7-2.8-.39-.57,0-3.79.35-4.55ZM190,40.48c5.3-2.55,4.62,2.72,2.72,2-.29-.21-.1-.7-.58-.76s-1.4-.29-1.75.22c1.07,2.43,6.43-.1,6.49.66.09,1.09-6.63,3.73-7.31,3.13,0-.45.37-.8.43-1.25-2.22-1-1.79-2.76,0-4Zm1.63,16.93c.45-.35.37-1,.91-1.23a13.55,13.55,0,0,1,3.29,3.87c.29.89-5.35,3.09-5.64,1,0-1.42,1.05-2.37,1.44-3.59ZM211.8,56c.47-.14.64,4,2.43,5,2.22,1,4.47,2.1,7.27,1.6,2.31-.26,13.43-1.19,12.48-5-.74-3.9-1.19-7.91-1.93-11.77-.54-1.4.55-3.68,1.3-4.9.55-.08,2.67,14,2.88,15.39.14,1.73,1.61,3.19,3.11,4.18,3.61,1.92,16.25,1.46,20.48-.64,1.32-4.08,3.75-5.93,2,.09,1.56.53,3.25,1.75,5.08,1,2-1.07-.24-5.52-.16-7.25,0-.43,1.11-3.89,1.48-3.23,1.51,2.51.95,10.71,5,10.87.82,0,1.75,0,2.2-.74l-1.87-14c-.52-2.43-1.9-1.24.72-6,.64-1.17.78,1.88,2.53,2.64,1.38.62,2.35-.21,1.79,1.79-.59,1-.82,2.47-2.2,2.9-1.15,2.39,4.47,16.9-3.89,17.82-1.88.21-3.86-1.85-4.08-3.48-2.29.91-1,5-7.36.68-1.91-1.29,2.15.77-8.86,2.5-4.42.7-14.77,1.31-17.11-3a13.12,13.12,0,0,1-.66-2c-3.65,5.35-9.15,6.14-15.52,6.47-4.2.2-9-1.84-8.17-6.64A14.79,14.79,0,0,1,211.8,56Zm5.37-2.16c.64-.12,6.7-1.83,6.43-2.31-.84-1.44-8.88,2-5.56-3.87,2.7-4.82,9-7.38,9.33-5.54.12.74-2.1,4.74-3.11,3.83-.21-.23,0-.64-.35-.74-2-.27-5.29,1.58-1.42,2.51.33.08,8.44-1.24,2,5.13-2.66,2.64-10.73,2.31-9.4,1.11.68-.29,1.34,0,2-.12Zm27.73-.33c2.29-2.37,2.31-4.26,5.65-1.44,1.71,1.42,2.16,1.73-1.65,4.43-1.44-.37-2.8-1.88-4.12-2.6ZM248,46.37c4.78-2.41,9.85-4.2,14.61-6.69,2.78,2-14.89,8.77-15.76,8.22ZM262.21,70c1-1,1.46-2.33,2.8-3,.68-.12,3.71,1.75,3.11,2.58-2.93,4-2.64,3-5.95.78Zm22.64-27.52c1.17-2.1,1,4.78,1.27,6.38.11,2.68.35,5.09.52,7.71.49,2.31.58,5.21-1.13,7-.83-.29-1.69-13.14-1.73-14.6,0-2.33,0-4.62,1.07-6.49ZM1.59,55.81c.59-1.16.88,1.5,1.05,1.71C4.8,60,13.64,58,15.51,55.93c1-1.17-1.89-7.89-2.06-9.33-.06-.54.64-5.48,1.44-4.1,1.3,2.24,1.67,12.32,4.41,14.21,1.65-1.79,2.54-9.33,14.38-5.5,3.2,1.47,6.8,2.62,10.69,2,.35.35-.92,3.36-1.5,3.59-1.54.61-6.53.28-7.56,1.23,0,.56.7.87,1,1.32,4.33,3.85,28.08,1.07,34.82-.27,4.34-.86,2-3.15,4.53-4.65,1.91-1.14-2.41,4.59,2.47,5.83,1.92.47,2.66-1.18,3.71-2.29-.19-3.42-.7-10.12-2-13.33-.37-.93.76-3.85,1.59-4.57.7.62,1.36,1.48,2.18,2.1.64.6,2.06.2,2.18,1.28A7.59,7.59,0,0,1,83.91,47c-.35-.06-.81,0-.81.39.64,10.67-.28,8.82,6.8,12.11,2.25,1,1,1.51.68,3.69s-3.09,0-4-.39L82,61.2c-7.81,7-6-1.27-8.1,0-3.21,2.06-6.24,2.49-10,3.11-7,1.17-18.58,1.62-25.5.68-2.16-.48-4.57-2-5-4.25l.16-2c-.43-.41-11.06,4.15-14.79,2.7-2.16-.84-1.69-3-2.62-3.7C13.16,63.2,1.38,64.85,1,60.94a10.66,10.66,0,0,1,.58-5.13Z"/><path class="cls-2" d="M360.74,40.6l2-2-1.59-1.49,1.84-1.5L361.4,34l-1.79,1.44,1.44,1.63-1.88,1.88Zm3.34,8.88a1.42,1.42,0,0,0,.8-.24,1.12,1.12,0,0,0,.15-.81c-.42-.86-1.65-.33-1.65-.33a7.37,7.37,0,0,0-2.12,1.26l.39-.82a4,4,0,0,0,.72-2.37c-.11-.54-.58-.25-.58-.25-.82.12-.78.72-.78.72a1.31,1.31,0,0,0,.25,1.15c-.6,1.57-.83,2.35-.68,2.37a12.43,12.43,0,0,1,2.82-1.58h.39l.21.1.06.27,0,.24Zm-6.57-38.77s1.15,1.86,2,1.18a1.32,1.32,0,0,0-.14-1c-.31-.64-.64-1-.49-.35,0,0,.3.61,0,.68,0,0-.5.22-1-.6s-1.3-2.72-1.16-1.65Zm5.89,16,.33.58c.74-.31,1.91,0,3.46.92a3.17,3.17,0,0,0-3.79-1.5Zm-8.1-4.08c.46,0,1.07-.31.78-.53,0,0,0-.13.29-.07a10.38,10.38,0,0,1,1.63.31s.8.15.37-.27a11.41,11.41,0,0,0-2.12-2.1s-.45-.55.27-.49c0,0,.68-.15.37-.47s-.25-.46-.56-.38-.9,0-.93.21a1.33,1.33,0,0,0,.5,1.32c.62.45,1.54,1.32,1.54,1.32a13.13,13.13,0,0,0-1.4-.27c-.55,0-1.64.08-1.73.47s.54,1,1,.95Zm-3.89-3.44a12.69,12.69,0,0,1,1.42-2.49c.37-.54.31.55.31.55s-.06,1.71-.15,2.27.09.64.09.64a4.79,4.79,0,0,0-.15-5.67c-.45-.84-1-.31-1-.31a24.27,24.27,0,0,0-1.36,2.11c-.45.82-.14,1.19-.14,1.19Zm9.68,0a.94.94,0,0,1-.91-.72,3.93,3.93,0,0,1-.08-1.79c0-1.16,1.4-.68,1.4-.68a2.88,2.88,0,0,1,1.24.88,2.5,2.5,0,0,1,.12,1.45c-.41,1.07-1.77.86-1.77.86Zm5.3-4.28s.88-.09,1.19.24a2.09,2.09,0,0,1-.95,1.12A11,11,0,0,1,364,17.94l-1.28-2.16ZM349.6,23.51l7.16,3.11a8.67,8.67,0,0,1,.81,5.33l1.54,1.4c.95-.16,1.88-1.87,3.26-3.66a.79.79,0,0,1,1.4.08,13.18,13.18,0,0,1,1.32,4.65c.74,3.65,0,5.94-2,7.61-3,2.3-6,1.66-7.73-.44a7.73,7.73,0,0,0,4.31,3.07,6.43,6.43,0,0,0,7.52-6.1,16.4,16.4,0,0,0-2.43-9.14,5.87,5.87,0,0,0-1.46-1.28c-1-.76-1.9-.8-2.62-.08l-1.32,1.67-.27.29a9.93,9.93,0,0,0-1.48-3.3l2,.16c2.53,0,4-1.91,4.43-5.76-.13-.52.43-.77.43-.77l3.77-2.47a1.51,1.51,0,0,0,.43-1.87l-1.42-2.39c-.7-.83-1.92-.91-3.63-.25s-2.8.78-3,.56l.64-1-3.67,1.44,1.15,1.71a5.32,5.32,0,0,0,.56,2,9.5,9.5,0,0,0,1.58,2.39,2.41,2.41,0,0,0,1.28.64,5.44,5.44,0,0,1-1.63,3.19,4.22,4.22,0,0,1-4.49.27l-2.74-1.3-3.77-1.59-1.19-.43c-.56-.12-.33.47-.33.47Zm54.9,14.81c-3.28-.5-6.45-1.09-9.56-1.79-1-.13-1.55-.83-1.55-2.09.13-1.58,1.18-2.26,3.11-2.1a23,23,0,0,0-2.94-1.67c-.95-.33-1-2.14-.35-2.78.22-.35,1.05-.55,2.47-.59-.39-.81-2.6-1.28-2.6-1.28a4.05,4.05,0,0,1-2.57-1.63A3,3,0,0,1,391.66,21a24.2,24.2,0,0,1,3.9-2.82,46.38,46.38,0,0,0,8.69-7.56l-2.16.62-12.24,9.41c-6,.39-10.53-2.12-11.37-4.72-.76-2.32,0-4.05,2.51-4.75l-.29-.09a5.33,5.33,0,0,0-4.18,4.12c-.35,2.87,1.81,5,6.53,6.41,2.82.8,4.2.82,6.37,0a3.09,3.09,0,0,0-1.2,3.07c.21,1.11,1.63,2,3.85,2.26a2.35,2.35,0,0,0-1.4,1.32c-.41,1.4.48,2.45,2.66,3.11.6.09.43.39.43.39-1.95,0-2.8,1-2.51,2.95.31,1,1.46,2,3.42,2.82,1.46.66,5.17,1.47,11.15,2.39.94.17.08.68.08.68l-1.28.19,0,.2,6.72-.31L409.63,39ZM366.59,23.46l-.47-.55c-.13-.43.06-.6.55-.52,0,0,.64-.24,0-.72,0,0-1.07-.33-1.31.52,0,0-.13.35.35.84l1.95,2.06a4.32,4.32,0,0,0-2.51-.08s-1-.08-.68.56c0,0,.08.37.76.59,0,0,.89-.2,1-.72a6.52,6.52,0,0,1,2.31.33ZM406.85,47.2l-.48-.09-.43-.28-4.82-2.64L395.06,41a19.56,19.56,0,0,1-4.14-2.56l-.56-.6c-.39-.55-.33-.2-.33-.2l1.67,2.51c1.59,1.67,5.94,3.87,10.94,6.45,1,.72,0,.72,0,.72l-1.27.08c1.79.83,5,1.16,6.05,2.08h.29l-.6-1.87ZM395.49,58.32a1.88,1.88,0,0,1-1.31-.39,1.38,1.38,0,0,1,1.44-.64s.86-.12,1.19.27c.19.18-.08.72-1.32.76ZM377.2,58.2c-3.42.88-5.93,1.11-6.45.64a27.41,27.41,0,0,0,.35-3.34l.17-.68c.39-1.38,2.22-2.14,4.53-1.4a18.08,18.08,0,0,1,4.33,2.51l1.5.76Zm13.72-10-.47,0-.35-.05-.21-.12.08-.35.21-.25.29-.2h.31l.24.08.17.29.08.33.08.39ZM395.27,55a3.66,3.66,0,0,0-2.43,1.59s-1.18-1.54-2.54-3.4a20.44,20.44,0,0,0,1.32-4l.47.09.25.16.17.21.16-.08v-.4l-.08-.47-.47-.25-.48-.12a2.26,2.26,0,0,0-.55-1.71c-.29-.47-.85.08-.85.08l-.31.25-.33.72C389.25,49,390.8,49,390.8,49c.68-.13.35.9.35.9a14.86,14.86,0,0,1-.93,3.22c-1.15-1.57-2.41-3.36-3.21-4.62l-.56-.76-.12-.25v-.2h.29l.47.24.51.09.48,0L386.53,46l-.64-.47-1.15-.85-1-.63-.08,2.14.39.39.51.33.73,1,1.54,2.43,1.48,2.22,1.2,1.88,0,.06c-.29.58-.6,1.22-.95,1.9l1-1.86,2.23,3.13a9.52,9.52,0,0,0-1.32,2s-1.71,2.35-3.42.52l-.39-.48c-.29-.35.06-1.13.16-1.46s0-.39,0-.39c-.6-.41-1.75,1.5-1.75,1.5l-.29.56c-.74,1.48-1.54,2.45-2.82,2.8-2.23.1-3.21-1-2.95-3.3H379c.52-.2,1.05-.43,1.55-.68a11,11,0,0,1,5.13-1c1.5-1.59,1.27-2.06,1.27-2.06-2.7.08-6.44-2.19-6.44-2.19l-1.34-.84-1.4-.85a4.49,4.49,0,0,0-3.51-.55,6.5,6.5,0,0,0-3.29,2.51,7.36,7.36,0,0,0-1.24,3.85l-.12.81c-1.32,0-2.19-.77-2.62-2.79a.72.72,0,0,0,.19,0l1.62-1.42c1.71-1.48,2-3,.91-5.5a9.14,9.14,0,0,1-1.11-4.7l1.15.87L368.55,42l-.08-.47-.21-.2-1.48,1.5V44.5A13.4,13.4,0,0,0,368,50.35a9,9,0,0,1,.6,3.15c0,1-1.32,1.07-4.1.29q-7.54-1.6-9.39-2.72c-2.21-1.53-.85-4.22,3.93-5.5l0-.25c-3.38.74-5.6,2-6.63,3.67-.76,1.71-.76,3.29,1.46,4.14A42.64,42.64,0,0,0,360.33,55c2.88.73,4.82,1,6.51.75l-.06.12c-1.55,3.5-.39,5.77,6.24,5.33a30.39,30.39,0,0,0,5.58-1.56l-.1.21c-.72,2.78-.27,4.55,1.42,5.33q2.94.87,4.61-2.27l1.12-1.71s.64-1,.86-.08c.39,1.71,1.49,2.78,3.42,2.08a5.21,5.21,0,0,0,1.92-2l1.23-1.75a3.13,3.13,0,0,0,3.16,1.45s1.42-.17,1.31-2.52l-.26-2a1.6,1.6,0,0,0-2-1.38Zm9.06-11.18c.08.31.41.72,1.79,1.17l-.1-.22s-1.89-.91-.56-1a1.8,1.8,0,0,1,1.3.18L409.3,45a14.12,14.12,0,0,0-3.42-1.75s-1.4-.47-1.55.58ZM390,30.26l-2.24-.47-.64,2.39,2.33.64ZM369.41,62.48l-.31,0-.51.68,6.8-.24a1.13,1.13,0,0,0,.64-.77l-1.84.05ZM356,41.51s1.4-.43.12-1.79c0,0-2.43-2.08-3.17-1.63l.08.25s1.3,1.63.05,1.79a3.8,3.8,0,0,1-2-.64,43.31,43.31,0,0,1-4.95-4.22s-.63-.21-.43.39l.68.72a22.94,22.94,0,0,0,6,4.62,6.11,6.11,0,0,0,3.62.51Zm-3.42,4.37c-.16.43.76.33.76.33a1.06,1.06,0,0,0,.6-1.59c-.33-.51-2-.35-2-.35l-1.44,0a8.9,8.9,0,0,0,2.23-1.87c.51-.64-.52-.56-.52-.56h-.76c-.85-.08-.6.64-.6.64.17.47-.33.95-.33.95l-1.4.76c-.82.35.56.56.56.56l2.86,0c.89,0,0,1.14,0,1.14ZM400,50.7l-7.43-6.1s-.81-.56-.44-.91l1.47,0-.13-.31-1.75-.8-3.75-1.44.6,2.1.17.21.33,0,.55.35,1,.87,3.46,3,2.52,2.14,2.69,2.12s3.3,2.64,3.67,3.75c.06-1.56-1-3.17-3-4.88Zm-37.22,7.17.8-.25c.52-.43-.16-.89-.16-.89a2,2,0,0,0-1.55-.35.63.63,0,0,0-.68.48c.89-.08,1.38.08,1.55.51l-.17.13a4.5,4.5,0,0,0-1.58.33,1,1,0,0,0-.25,1.91,5.25,5.25,0,0,0,4.35.56c-1.9-.33-3.09-.74-3.55-1.24-.9-1.19,1.24-1.19,1.24-1.19ZM347.45,33.15c.81-.21.87-.6.87-.6l-.48-.21c-.39-.35.42-.35.42-.35a5.12,5.12,0,0,1,1.85.13l.12-.23-.12.43.12.39.33.42.25.35.31.12.31-.08-.17-.39-.35-.33c.17-.91.83-.68.83-.68a5.19,5.19,0,0,0,0,1.83c.51,1.19,1.07,1.4,3.29,1.44s3.57.23,4.35.76l.08-.2c-1.36-1.44-5.17-1.24-5.17-1.24-2.43-.2-1.63-2.1-1.63-2.1.48-1.91-.43-1.71-.43-1.71l-.47,0-.56.17-.43.16-.47.41c-.37-.8-2-1.42-2-1.42-1.12-.55-1.45-1.36-.68-1.52l.28-.21c0-1-1.07-.72-1.07-.72-1.36.85,0,2,0,2l.72.64,1.24.84h-1.44c-1.38-.12-1.51.83-1.51.83.25,1.23,1.65,1,1.65,1Zm55.89-15.58v.17a7,7,0,0,0,4.18,3,5.66,5.66,0,0,0,1.51.08,6,6,0,0,0-1.46-3.75,7.26,7.26,0,0,0-2-.43A5.58,5.58,0,0,1,406.74,20ZM397.82,10c.08-.37,1.2-.72,3.24-1.24-2,0-3.3.52-4,1.24-.72,1.09-.31,1.36,1.24,1.15l.26-.39h-1.07a.82.82,0,0,1,.31-.76ZM396,5.19l.43.08c.85.21.12,1.08.12,1.08l-.72.2-.31-1q.08-.18.48-.33Zm-11.62,8.92,2.43-6.34q2.35.62,8.41-.52l.43,1,.64-.2L396,6.76c1.15-.09,1.63-.6,1.71-1.51q-.37-.86-2-.39s-.91.25-.84,1l.24,1a34.35,34.35,0,0,1-8.32.85l.51-1.32s.17-1,.68-.48l.44,1,.66-5.52a5,5,0,0,0-1.82,1.84c-.43.78-1,2-1.75,3.79-2.06,6.2-3.5,9.51-4.53,10.36a5.65,5.65,0,0,0,3.4-3.32Zm18.54,18.32c-.33-.31-1.5-.29-3.25-.27l1.62-1.07a5,5,0,0,0,1.3-1.49c-1.24-.43-1.5.09-1.5.09-.44-.05-.17,1-.17,1l-1.75,1.16-.43.27v.2l3.42.27c.68-.06,1,.76.2,1.48,1.51.29,1.47-1.5.56-1.62Zm-31.5,14.85L373,45.45l.47-.6.25,0,.29.12.08.25,0,.31.21.08.12-.08.17-.35,0-.42-.09-.43c-.68-.72-1.27.27-1.27.27l-1.59,1.87a7.9,7.9,0,0,0,0-2.82c-.47-.9-1,0-1,0a.45.45,0,0,0-.08.72l.21.13.24.2.21.13,0,.29L371.19,47Zm24.85-25.34-.17,2.27,2.29.41.37-2.6Zm11.59,14.87a127.87,127.87,0,0,0-5.17-16c-.76-2.13-1.81-2.54-3.17-1.24,0,0,.52.52,1,.17,0,0,.39-.85.91-.13,1.95,3.46,4.22,11.06,6,17.12Zm-15.8-25.73,1,0a10.71,10.71,0,0,1,2-.78,4.92,4.92,0,0,0-3,.08s-2.06.52-2.57,1.55a.78.78,0,0,0,.55,1l1.2.68s.43.47-.17.68c-.84.26-2.37,0-4.86-.68l0,.2c1.55,1.26,2.95,1.65,4.18,1.16l3.38-1.71L392,12.07s-.76-.7.08-1ZM409,25.36l-1.75,1.15-.4.21v.21l3.38.3c.68-.06,1,.77.21,1.51a.86.86,0,1,0,.56-1.63c-.33-.31-1.51-.27-3.26-.25l1.63-1.07a4.49,4.49,0,0,0,1.27-1.48c-1.23-.43-1.5.08-1.5.08-.39-.06-.14,1-.14,1Zm-34.63-9.21.55.6s.91.72.35,1.48a10.69,10.69,0,0,1-2,1.75s-1.32.6-1.55-.55.49-2.39,1.83-3.9Zm-13.43-8a.88.88,0,0,0,.35,0c3.07,3.33,8.71,5.7,8.71,5.7l2.68,1.36a5.14,5.14,0,0,0-1.32,2.66,9.93,9.93,0,0,0-.12,3.46,1.32,1.32,0,0,0,2,.91,5,5,0,0,0,2.56-2.72,14.8,14.8,0,0,0,.16-2.91,3.84,3.84,0,0,0-1.5-2.47,112.51,112.51,0,0,0,9-11.51L383.92,0a84.37,84.37,0,0,1-6.47,8.65l-3.92,4.64c-.68-.68-4.26-1.92-4.26-1.92a24,24,0,0,1-4.78-2.7L364,8.2l1.76-.12a15.25,15.25,0,0,0-3.38-1.73c-1.59-.5-2.19-1-2.15-.52s.36,2,.36,2a1.17,1.17,0,0,0,.35.29Zm15.9,37.35,0,1.48s-.64.6-.91-.08l0-.35.13-1.4h-.35l-.05.51V46l-.08.64,0,.6c0,.62.29.78.91.47l.2-.24.25.2.35.25.39-.08.21-.21.16-.39,0-2-.3.33-.05,1.28s-.16.51-.63.12l.08-1.67Zm3.48.1.72-.17.64-.2.43-.13.29-.26v-.13l-.64.17-.94.2-.56.17-.6.12h-.55l-.17.52.72-.17Zm29.85-9c-1.07.08-.76-1.45-.76-1.45a1.69,1.69,0,0,1,1.67.4Zm.78-1.45-.68-.33c-1-.35-1.44,0-1.44,0a1.49,1.49,0,0,0,.72,2c.77.56,1.24.13,1.24.13l.72-.77.12,0L412,36ZM367,6.94,367,6c-.88-.73.35-1.12.35-1.12A95.4,95.4,0,0,1,377.24.64l.25-.64a108.92,108.92,0,0,0-10.55,4.45c-1.19.58-1.15,1.67.08,2.49Zm6.58.93.43-.76-1.38.68s-1.4.72-1.75-.31c0,0,.16-1,.72-.81,0,0,.51-.08.68.56A1.71,1.71,0,0,0,372.38,6s-.56-.55-1.24.27l-.68,1.16s-.51.84.25,1.07l.27,0-.39,1.07ZM380,50.7l1.32-1.2,1.75,1.71,1.57-1.85-2.08-1.79L381.49,49l-2.19-1.94L378,48.89ZM378.81,4.16a2,2,0,0,0,.76-.76,1.21,1.21,0,0,0-.21-1.28l-.59-.39-.35.56.43.39s.72.68-.13,1c0,0-1,.26-.84-.56a3.11,3.11,0,0,1,1-2.35,3.43,3.43,0,0,0-1.5,3s0,1.23,1.4.43Z"/></g></g></svg>