<svg xmlns="http://www.w3.org/2000/svg" viewBox="0 0 268.64 141.6"><defs><style>.cls-1{fill:#00a7e0;}</style></defs><g id="Layer_2" data-name="Layer 2"><g id="Layer_1-2" data-name="Layer 1"><rect class="cls-1" x="75.99" y="94.08" width="11.77" height="46.67"/><path class="cls-1" d="M182.74,107.47a20.55,20.55,0,0,0-9.89-2.51c-7.63,0-12.92,5.33-12.92,12.46,0,6.93,5.07,12.46,12.92,12.46a20.73,20.73,0,0,0,9.89-2.47v12.53A37.52,37.52,0,0,1,172,141.6c-13.26,0-24.88-9.14-24.88-24.18,0-13.94,10.52-24.15,24.88-24.15a36.25,36.25,0,0,1,10.73,1.67Z"/><path class="cls-1" d="M59.79,107.47A20.51,20.51,0,0,0,49.9,105C42.26,105,37,110.29,37,117.42c0,6.93,5.06,12.46,12.92,12.46a20.91,20.91,0,0,0,9.89-2.47v12.53A37.44,37.44,0,0,1,49,141.6c-13.22,0-24.83-9.14-24.83-24.18,0-13.94,10.51-24.15,24.83-24.15a36.32,36.32,0,0,1,10.76,1.67Z"/><path class="cls-1" d="M244.46,117.41c0,13.35-10.31,24.18-24.65,24.18s-24.65-10.83-24.65-24.18,10.29-24.15,24.65-24.15,24.65,10.82,24.65,24.15M219.8,105.13A12.29,12.29,0,1,0,232,117.41a12.07,12.07,0,0,0-12.18-12.28"/><path class="cls-1" d="M132.44,104.7a39.36,39.36,0,0,0-9.2-1.43c-4.73,0-7.29,1.59-7.29,3.83,0,2.84,3.46,3.83,5.39,4.44l3.25,1c7.64,2.42,11.12,7.66,11.12,13.34,0,11.73-10.32,15.67-19.33,15.67a71.07,71.07,0,0,1-12.71-1.27V129.58a44.38,44.38,0,0,0,11.12,1.73c5.86,0,8.56-1.7,8.56-4.37,0-2.36-2.33-3.72-5.24-4.63l-2.53-.83c-6.55-2.07-12-5.93-12-13.65,0-8.73,6.55-14.61,17.42-14.61a49.61,49.61,0,0,1,11.47,1.5v10Z"/><path class="cls-1" d="M11.7,43.92a5.85,5.85,0,0,0-11.7,0V56.17a5.85,5.85,0,0,0,11.7,0Z"/><path class="cls-1" d="M43.83,27.83a5.85,5.85,0,0,0-11.7,0V56.17a5.85,5.85,0,0,0,11.7,0Z"/><path class="cls-1" d="M75.94,5.83a5.85,5.85,0,0,0-11.7,0v62a5.85,5.85,0,1,0,11.7,0Z"/><path class="cls-1" d="M108.07,27.83a5.85,5.85,0,0,0-11.69,0V56.17a5.85,5.85,0,0,0,11.69,0Z"/><path class="cls-1" d="M140.15,43.92a5.83,5.83,0,1,0-11.66,0V56.17a5.83,5.83,0,0,0,11.66,0Z"/><path class="cls-1" d="M172.31,27.83a5.84,5.84,0,1,0-11.68,0V56.17a5.84,5.84,0,1,0,11.68,0Z"/><path class="cls-1" d="M204.43,5.83a5.83,5.83,0,0,0-11.66,0v62a5.83,5.83,0,1,0,11.66,0Z"/><path class="cls-1" d="M236.57,27.83a5.87,5.87,0,0,0-11.73,0V56.17a5.87,5.87,0,0,0,11.73,0Z"/><path class="cls-1" d="M268.64,43.92a5.83,5.83,0,0,0-11.66,0V56.17a5.83,5.83,0,0,0,11.66,0Z"/><polygon class="cls-1" points="261.89 134.61 261.89 135.34 259.83 135.34 259.83 140.76 258.96 140.76 258.96 135.34 256.87 135.34 256.87 134.61 261.89 134.61"/><polygon class="cls-1" points="262.33 134.61 263.68 134.61 265.5 139.63 265.56 139.63 267.34 134.61 268.64 134.61 268.64 140.76 267.76 140.76 267.76 135.72 267.74 135.72 265.86 140.76 265.04 140.76 263.22 135.72 263.2 135.72 263.2 140.76 262.33 140.76 262.33 134.61"/></g></g></svg>