<svg xmlns="http://www.w3.org/2000/svg" viewBox="0 0 308.89 139.16"><defs><style>.cls-1{fill:#ec1c24;}</style></defs><g id="Layer_2" data-name="Layer 2"><g id="Layer_1-2" data-name="Layer 1"><path class="cls-1" d="M306.53,105.87a3.66,3.66,0,0,1-3.56-3.75V60.07l-9.52,1.47V101.8a10.39,10.39,0,0,0,10.15,10.6h5.29v-6.53Z"/><polygon class="cls-1" points="196.51 112.39 206.03 112.39 206.03 72.39 196.51 73.86 196.51 112.39"/><path class="cls-1" d="M212,79.42v33h9.52V86.24l-.06-3.09c0-4.87,10.94-4,10.94-4l3.44-7.48C220.73,67.43,212,79.42,212,79.42Z"/><path class="cls-1" d="M248.42,102.12V79h5.73V71.69h-5.73V60.11l-9.52,1.46v40.26a10.39,10.39,0,0,0,10.16,10.6h5.28v-6.56H252A3.66,3.66,0,0,1,248.42,102.12Z"/><path class="cls-1" d="M201.29,56.57a5.89,5.89,0,1,0,5.88,5.89A5.9,5.9,0,0,0,201.29,56.57Z"/><path class="cls-1" d="M272.35,105c-6.3-2.42-5.85-11.84-5.85-11.84h22.82c0-11.84-2.84-22-14.33-22s-18.3,8.43-18.3,20.27,7.29,21,18.78,21c4.55,0,10.82-1.53,14.23-4.08l-3.25-5.66S278.65,107.43,272.35,105Zm1.31-26.67c5.44,0,6.55,7.7,6.55,7.7H267.13S268.22,78.34,273.66,78.34Z"/><path class="cls-1" d="M177.7,71.37a55.36,55.36,0,0,0-8.08.83A23.66,23.66,0,0,0,162,75.54l3,6.21a15.53,15.53,0,0,1,10-3.66c8.11,0,7,8.11,7,8.11-15.79-3.24-23.55,4.87-23.33,13.21.1,3.79.61,7.64,4.93,10.5,13.82,9.14,27.25-4.17,27.25-4.17v-22C190.82,77.13,185,71.37,177.7,71.37Zm4.08,33.07s-6.24,2.9-10.25.51S168,96,171.75,94s10-.76,10-.76v11.2Z"/><path class="cls-1" d="M28.6,29.14c-43,39-27.49,51.91-17.21,56.9s24-1.87,41.15-15.27,56.84-39.27,66.19-26.39,9.55,38.45-30.55,72.12-48.41,14-28.61-1.46S75.74,90.31,66.38,89c-9.8-1.43-18.3.92-27,16.93,0,0-13.37,25.78,3.76,32.4,11.9,4.62,47.07-9.58,72.88-35.58,19-19.13,32.9-42,27.08-72.59C135.44-9.94,71.6-9.81,28.6,29.14Z"/></g></g></svg>