<svg xmlns="http://www.w3.org/2000/svg" viewBox="0 0 554.46 133.9"><defs><style>.cls-1{fill:#fdbb30;}.cls-2{fill:#1a75cf;}</style></defs><g id="Layer_2" data-name="Layer 2"><g id="Layer_1-2" data-name="Layer 1"><path class="cls-1" d="M494.77,45.07c3.14,0,5.72-1.63,6.07-3.74l3.1-35c0-3.46-4.06-6.3-9.15-6.3s-9.14,2.84-9.14,6.3l3.1,35c.34,2.11,2.92,3.74,6,3.74h0M475.86,56c1.57-2.71,1.45-5.76-.21-7.12l-28.81-20.2c-3-1.73-7.48.36-10,4.78s-2.1,9.33.88,11.1l31.88,14.84c2,.74,4.71-.68,6.27-3.39h0m37.88,0c1.57,2.71,4.27,4.13,6.27,3.39l31.88-14.84c3-1.73,3.43-6.66.9-11.1s-7.06-6.53-10-4.77L513.93,48.89c-1.64,1.36-1.77,4.41-.2,7.12h0M494.79,88.84c3.14,0,5.72,1.62,6.07,3.73l3.1,35c0,3.48-4.06,6.31-9.15,6.31s-9.14-2.83-9.14-6.31l3.1-35c.34-2.11,2.91-3.73,6-3.73h0M513.75,77.9c1.57-2.72,4.28-4.13,6.27-3.38L551.9,89.35c3,1.74,3.43,6.67.9,11.1s-7.06,6.53-10,4.77L514,85c-1.65-1.36-1.77-4.41-.21-7.12h0m-37.87,0c1.57,2.71,1.45,5.76-.21,7.13l-28.84,20.13c-3,1.73-7.48-.37-10-4.76s-2.1-9.35.88-11.1l31.88-14.83c2-.75,4.71.65,6.27,3.38h0"/><path class="cls-2" d="M313.16,84.94a10.9,10.9,0,0,1-.38,3.16,11.06,11.06,0,0,1-10.65,7.46c-4.37,0-7.84-2.48-7.84-7.72,0-8,8.83-10.24,18.88-10.18v7.28Zm15.77-14c0-13.22-5.65-24.86-24.74-24.86-9.8,0-17.58,2.76-21.83,5.23L285.47,62a32,32,0,0,1,15.91-4.48c9.69,0,11.28,5.49,11.28,9v.83c-21.12,0-34.46,7.28-34.46,22.17,0,9.1,6.79,17.63,18.61,17.63,7.26,0,13.34-2.9,17-7.54h.36s2.41,10.09,15.67,6.23a86,86,0,0,1-.89-14.07V71M0,28.09S13.79,84.62,16,93.8c2.57,10.7,7.18,14.65,20.54,12l8.62-35.05C47.34,62,48.81,55.82,50.21,47h.25c1,9,2.39,15.09,4.19,23.8,0,0,3.5,15.91,5.3,24.26s6.84,13.62,19.9,10.76l20.52-77.71H83.77l-7,33.64c-1.88,9.79-3.59,17.42-4.91,26.36h-.23c-1.2-8.86-2.72-16.2-4.64-25.72L59.7,28.13H42.43l-7.8,33.36c-2.21,10.15-4.28,18.33-5.59,27H28.8C27.45,80.33,25.66,70,23.72,60.22c0,0-4.64-23.87-6.27-32.09H0M131.69,84.94a11.27,11.27,0,0,1-.39,3.16,11.06,11.06,0,0,1-10.65,7.46c-4.37,0-7.84-2.48-7.84-7.72,0-8,8.83-10.24,18.88-10.18v7.28Zm15.76-14c0-13.22-5.65-24.86-24.74-24.86-9.79,0-17.59,2.76-21.83,5.23L104,61.94a32,32,0,0,1,15.92-4.48c9.69,0,11.28,5.49,11.28,9v.83c-21.12,0-34.46,7.28-34.46,22.17,0,9.1,6.79,17.63,18.6,17.63,7.27,0,13.35-2.9,17-7.54h.35s2.42,10.09,15.7,6.23a86.91,86.91,0,0,1-.93-14V71m26.3,18.33V28.09H158V105.8h15.78V89.29m206.43-61.2V85.41c0,7.91,1.49,13.44,4.67,16.82,2.78,3,7.36,4.88,12.85,4.88a38,38,0,0,0,11.41-1.69l-.2-12.36a23.71,23.71,0,0,1-6,.71c-5.38,0-7.18-3.45-7.18-10.54V61.33h13.71V46.46H395.74V28.09H380.18M339.45,47.42v58.37h16.28V75.9a22.19,22.19,0,0,1,.35-4.31c1.2-6.26,6-10.26,12.86-10.26a31,31,0,0,1,4.71.41V46.46a16.69,16.69,0,0,0-3.59-.36c-6.08,0-13,3.92-15.89,12.33h-.44v-11H339.45m-154.65,0v58.37h15.86V71.56a13.66,13.66,0,0,1,.74-4.78c1.31-3.44,4.52-7.48,9.64-7.48,6.4,0,9.39,5.41,9.39,13.22v33.26h15.85V71.14a16.13,16.13,0,0,1,.65-4.73,10,10,0,0,1,9.52-7.11c6.48,0,9.6,5.32,9.6,14.5v32h15.86V71.4c0-18.13-9.21-25.3-19.59-25.3a21.29,21.29,0,0,0-11.52,3.16,24.78,24.78,0,0,0-7.39,7.28h-.23c-2.51-6.29-8.41-10.45-16.09-10.45-9.87,0-14.31,5-17,9.25h-.24V47.42h-15"/></g></g></svg>