<svg xmlns="http://www.w3.org/2000/svg" viewBox="0 0 596.45 116.16"><defs><style>.cls-1{fill:#008542;}.cls-2{fill:#fdc82f;}.cls-3{fill:#fff;}.cls-4{fill:#21576a;fill-rule:evenodd;}</style></defs><g id="Layer_2" data-name="Layer 2"><g id="Layer_1-2" data-name="Layer 1"><rect class="cls-1" x="0.21" y="42.39" width="116.37" height="73.77"/><rect class="cls-2" x="0.21" width="116.37" height="28.26"/><path class="cls-3" d="M116.37,42.39V28.26H0V42.39H22.44L9.91,85.27H35.4c10.94,0,13-2.56,15.24-4.36,2.9-2.57,4.5-8.52,3.18-12.68a8.15,8.15,0,0,0-3.88-4.64c3.33-1.73,5.27-5.27,5.61-5.75,1.25-2.7,2.29-7.41-1-11.36-2.56-3.33-7.69-4.16-11.36-4.16H70.31L57.91,85.48h12.4L75,69h7.34c5.13,0,4.78,3.33,4.85,4.64l.48,12.12H99.19s-.48-13.5-.48-14.47c-.14-3.4-2.43-5-4.37-5a15.73,15.73,0,0,0,8.18-6.58,11.93,11.93,0,0,0,1.24-10.46c-2.07-5.82-7.82-6.86-11.56-6.86Zm-36.3,8.66h9.15c4.29,0,4.5,2.91,4.5,3.81,0,2.08-1.73,5.82-7.06,5.82H77.37s2.57-9.49,2.7-9.63M27.64,67.26H36c4.16,0,4.29,1,4.85,2.08s.28,2.91,0,3.67c-.62.76-1.32,3.53-6.72,3.53H24.87Zm4.64-16.21h9.77c1.8,0,3.67,1.25,3.67,3.19C45.72,57,43.43,59,40.38,59H30Z"/><path class="cls-4" d="M241.4,85.69h-36l12.19-43h35l-2.7,10H228.86l-1.8,6.24H245l-2.91,10H224.43l-1.94,6.72h21.68ZM184.88,72.25h-9.42l-3.67,13.44H157.66l12.19-43h20.57c12.54,0,16.83,5.75,14.41,14.48s-9,14.34-20,15.1m0-19.61h-3.81l-2.56,9.49h6.37c3.05-.13,5.47-1.45,6.44-5,1.25-3.88-3.19-4.51-6.23-4.51ZM524.92,71h4.36l-.14-15.38L524.85,63l-4.36,7.9h4.43Zm0-26.88,1-1.45h14.27l3.18,43h-14V80.07H515.22L512,85.69H498.11l1-1.32,25.84-40.32Zm71.35,11.09c1.1-7.69-2.57-13.79-14.48-13.79-10.74,0-20.09,4.64-22.65,13.93-4.51,16.34,21.54,11.91,19.53,18.42-.48,2.08-3.19,3.33-6.72,3.33A7.21,7.21,0,0,1,568.28,76,4,4,0,0,1,567,72.46h-13.5c-1.8,7.82,3.67,14.47,14.89,14.47,11.91,0,21.68-4.85,24.38-15,4.64-15.45-21.33-11.57-19.53-18,.34-1.59,2.08-2.42,5.26-2.42a6.24,6.24,0,0,1,3.26.76A2.74,2.74,0,0,1,583,55.35h13.3Zm-97.19.55c.14-.35.14-.62.28-1,1-3.18,1-5.82-.28-7.69-1.8-3.05-6.58-4.5-15.45-4.5H463.41l-12.19,43h14l4.29-15h4.3c2.77,0,4.29.35,5.26,1,1.46,1.11,1.25,3,.28,6.58a4.62,4.62,0,0,0-.28.77A20.27,20.27,0,0,0,478,85.69h14.2l.35-1.32c-1.73,0-1-1.8.62-7.55,2.43-8.66,0-9.77-4-11.36a14.74,14.74,0,0,0,10-9.7M479,61.3c3.67-.34,5.89-1.31,6.72-4.15.83-3-1.24-4.51-4.5-4.51H474.7l-2.43,8.66Zm-53.4,24.25c9.76-.49,17-4,19.39-12.82,1.32-4.78,0-8.79-4.29-10,3.18-1.6,7.06-4.85,8.17-9.28,2.56-8.52-4.5-10.88-14.27-10.88H414l-12.33,43h21.06a12.51,12.51,0,0,0,2.84-.07m0-32.91h4.64c3,0,5.75.14,4.85,3.4a6,6,0,0,1-6,3.88h-5.75l1.94-7.35h.28Zm0,15c4.5,0,7.69.34,6.58,4-.83,3-3.26,3.88-6.58,3.88h-6.86L421,67.61ZM375.3,75.78c4-1.73,6.92-6.37,8.52-11.91,1.59-5.75,1-12.06-5.27-11.85a9.54,9.54,0,0,0-3.25.62c-4.5,1.81-7.21,6.86-8.38,11.23-1.74,5.47-1.8,12.53,4.85,12.53a15,15,0,0,0,3.53-.62m0-33.53a28.92,28.92,0,0,1,6.3-.83c15.38,0,19.54,11.22,16.35,22.45-3.53,12.19-12.54,20-22.65,22.3a41.31,41.31,0,0,1-6.58.76c-13.44,0-20.09-8.38-16-23.13C356,52.37,364.56,44.47,375.3,42.25M325.63,79c0-.35.28-.49.28-.77,1-3.53,1.25-5.47-.28-6.58-.83-.62-2.56-1-5.12-1h-4.3l-4.29,15h-14L299.38,80,310.12,42.6h20.22c14.41,0,17.8,3.88,15.59,12.19-1.46,5.13-4.78,9.15-10.25,10.6,4.15,1.59,6.58,2.7,4.15,11.36-1.73,5.75-2.42,7.55-.62,7.55l-.49,1.32h-14.4A58,58,0,0,1,325.63,79m0-17.67c3.67-.34,5.82-1.31,6.58-4.15,1-3-1.11-4.51-4.36-4.51h-6.58l-2.43,8.66ZM299.45,48.35l1.73-5.75H261.7L258.51,54h12.68l-9,31.73h14l9-31.73H298Z"/></g></g></svg>