<svg xmlns="http://www.w3.org/2000/svg" viewBox="0 0 234.99 73.5"><defs><style>.cls-1{fill:#1683c6;}</style></defs><g id="Layer_2" data-name="Layer 2"><g id="Layer_1-2" data-name="Layer 1"><path class="cls-1" d="M100.66,0l14.71,10L83.89,30.23c1.6,1.23,3.42,2.24,5,3.45l31.68-20.1,13.76,9.23L103,43.34c1.39,1.39,3.45,2.17,5.17,3.28l32.1-20.36V4h23.49v44.3l20.84.15V69.32H140.45v-21L101,73.5,60.6,46.43c-3.94,12.49-13.29,21.89-28.81,23-9.8.71-20.64-.52-31.79,0V4.16c13.91.92,29.21-1.87,40.24,1.56C50,8.74,57,16.53,60.13,26.24l40.55-26ZM22.25,24.89V48.37c5.59,0,9.85.35,13.15-2.2C40.31,42.39,41.31,33,37,28c-2.9-3.33-7.79-4-14.57-3.59-.19,0-.17.26-.14.47ZM190.85,3.78h23.48V48.25H235V69.08H190.68V4.23c0-.22,0-.45.15-.47Z"/></g></g></svg>