<svg xmlns="http://www.w3.org/2000/svg" viewBox="0 0 493.31 82.11"><defs><style>.cls-1{fill:#0b4e8e;}.cls-2{fill:#020202;}.cls-3{fill:#fff;}</style></defs><g id="Layer_2" data-name="Layer 2"><g id="Layer_1-2" data-name="Layer 1"><g id="layer1"><g id="g11008"><path id="path1556" class="cls-1" d="M0,0H493.31V82.11H0V0Z"/><path id="path1558" class="cls-2" d="M82.11,0H493V82.11H82.11Z"/><path id="path1560" class="cls-3" d="M108.5,60.6V21.83h12.71v13h12v-13H146V60.6H133.26v-15h-12v15H108.5"/><path id="path1562" class="cls-3" d="M166.17,31.28h3.26a18.77,18.77,0,0,1,5.22.65,3.38,3.38,0,0,1,1.95,1.63,8,8,0,0,1,1.3,2.93,15.71,15.71,0,0,1,.33,3.91,15.85,15.85,0,0,1-1,5.87,5.86,5.86,0,0,1-2.93,3.26,12,12,0,0,1-5.54,1h-3.26V31.28Zm4.89,29.32h0a45.47,45.47,0,0,0,7.5-.65,37.93,37.93,0,0,0,4.88-2A12.52,12.52,0,0,0,187,54.41a21.94,21.94,0,0,0,2.6-5.54,28.15,28.15,0,0,0,1-7.82A21.86,21.86,0,0,0,188,30.3a14.65,14.65,0,0,0-6.84-6.51,24.69,24.69,0,0,0-10.42-2H152.81V60.6h18.25"/><path id="path1564" class="cls-3" d="M197.13,60.6V21.83h30.3v9.45H209.84v6.19h14v9.45h-14V60.6H197.13"/><path id="path1566" class="cls-3" d="M270.11,36.49H258.06a8.49,8.49,0,0,0-2-4.56,7.19,7.19,0,0,0-10.1,1c-1.3,1.63-2.28,4.56-2.28,8.47a15.31,15.31,0,0,0,1,6.19,8.86,8.86,0,0,0,2.61,3.26,6.94,6.94,0,0,0,3.91,1,6.44,6.44,0,0,0,4.56-1.63q1.95-1.47,2-4.89h12.38a29.16,29.16,0,0,1-1.3,6.19,15.55,15.55,0,0,1-3.58,4.89,18.56,18.56,0,0,1-5.87,3.91,19.68,19.68,0,0,1-7.82,1.3,21.32,21.32,0,0,1-8.14-1.3,22.06,22.06,0,0,1-6.2-3.59,21.57,21.57,0,0,1-3.91-5.53,23.92,23.92,0,0,1-1.95-9.78A18.8,18.8,0,0,1,233,32.91a18.31,18.31,0,0,1,3.91-6.52,18.51,18.51,0,0,1,5.86-3.91,24.84,24.84,0,0,1,8.8-1.63,19.68,19.68,0,0,1,7.82,1.31,16.2,16.2,0,0,1,6.19,3.58,14.8,14.8,0,0,1,3.59,5.54,21.53,21.53,0,0,1,1,5.21"/><path id="path1568" class="cls-3" d="M311.17,30.63c1.95,0,2.93,0,3.58.32a7,7,0,0,1,2,1.31,4.69,4.69,0,0,1,.65,2,2.18,2.18,0,0,1-1.3,2.28c-.66.65-2.28,1-4.24,1h-4.89V30.63Zm3.26,30h0a34.29,34.29,0,0,0,6.51-.32,18.5,18.5,0,0,0,3.91-1.3,10.14,10.14,0,0,0,5.22-5.22,10.36,10.36,0,0,0,.65-4.56,11.19,11.19,0,0,0-1.63-5.86,8.72,8.72,0,0,0-4.89-3.26c3.26-2.28,5.22-4.89,5.22-8.15a8.42,8.42,0,0,0-4.57-7.82q-3.42-2-10.75-1.95H294.88V60.93h19.55Zm-2-16.29h0c2.61,0,4.24.33,4.89,1a4,4,0,0,1,1.3,2.61,2.63,2.63,0,0,1-1.3,2.6c-.65.66-2.61,1-4.89,1h-5.21V44l5.21.32"/><path id="path1570" class="cls-3" d="M358.74,47.57h-8.15l3.91-14Zm-12.06,13h0l1.63-5.21H361l1.63,5.21h12.71l-14-38.77h-13l-14,38.77h12.38"/><path id="path1572" class="cls-3" d="M380.57,60.6V21.83h12.06L406,42.68V21.83h12.38V60.6H406.31l-13-20.2V60.6H380.57"/><path id="path1574" class="cls-3" d="M426.51,60.6V21.83h12.38V34.54L450.3,21.83h15l-14,14.66L466.92,60.6H451.6L442.15,45l-3.26,3.26V60.28l-12.38.32"/><path id="path1576" class="cls-2" d="M0,0H82.11V82.11H0Z"/><path id="path1578" class="cls-3" d="M14.34,14.34H67.77V67.77H14.34Z"/><path id="path1580" class="cls-3" d="M37.14,0h8.15V82.11H37.14Z"/><path id="path1582" class="cls-3" d="M0,37.14H82.11v8.15H0Z"/><path id="path1584" class="cls-2" d="M28.67,29H53.44V53.76H28.67Z"/></g></g></g></g></svg>