<svg xmlns="http://www.w3.org/2000/svg" viewBox="0 0 545.84 108.57"><defs><style>.cls-1{fill:#cb242d;}.cls-1,.cls-2,.cls-3,.cls-4{fill-rule:evenodd;}.cls-2{fill:#2e3192;}.cls-3{fill:#f15a27;}.cls-4{fill:#fff;}</style></defs><g id="Layer_2" data-name="Layer 2"><g id="Layer_1-2" data-name="Layer 1"><path class="cls-1" d="M68.77,8.39c7.89-1.48,7.84,6.38,4.84,11.3-2.27,3.68-6.38,7.89-11.68,9.07-6.85,1.54-9.25-4.26-5.14-11.42,2.12-3.73,6.56-7.91,12-8.95ZM42.52,11.65a53.2,53.2,0,0,1-4.38,3.85c-2.19,2-6.08,6.35-8,8.57C19,36.7,6.65,61.61,14.07,78.85c4,9.22,11.84,11.82,21.17,12.2,2.67-5.4,5.9-19,6.73-25.26a42.17,42.17,0,0,0,.48-7.66c-.15-2.62-.83-4.21-3.25-4.64C34.08,52.61,29.29,58,26.85,56c-.89-2,1.46-4.21,2.31-5.15,4.14-4.53,17.62-14.34,23.17-16.53,4.26-1.72,10.31-1,11.7,2.72,1.08,2.9-2,9.33-2.93,12.12-3.07,9-10,29.42-9.93,37.79l.13.38c9.65-4.49,18.85-10.54,26-18.23,1-1.11,2.12-2.06,3.08-3.25s2-2.14,2.92-3.38S85.13,60.2,86.06,59a83.87,83.87,0,0,0,9.4-15.84c.63-1.36,3.33-8.92,3.58-9.22,1.84-14-1.59-28-15.4-32.59C82,.78,79.58.73,78.12,0H72.5c-.63.2-3.63.43-4.67.6C60,1.94,47.82,7.16,42.52,11.65Z"/><path class="cls-2" d="M176.25,88.07c-1.79,3.33-2.82,5-5.7,6.84a16.48,16.48,0,0,1-10.33,2.16c-8.3-.8-10.21-7.21-7.84-15.45,2-6.91,5.47-11.82,10.84-14.37A18,18,0,0,1,174,65.82c5.47,1.13,4.84,4.74,5.21,7.16l18.61-.06A13.17,13.17,0,0,0,196,61.73c-6.23-8-24.2-7.51-33.3-5.69-15.08,3-24.88,12.1-28.94,25.68-2.75,9.23-1.13,15.93,4.31,20.65,9.53,8.21,41.14,7.84,52-5.67,1.34-1.69,4.39-5.85,4.84-8.63Z"/><path class="cls-2" d="M290.82,88.1l-18.61,0c-.73.84-1.53,2.75-2.31,3.71-3.28,4-7.79,5.75-13.54,5.32-8.4-.63-10.49-6.78-8.22-15.18,2.9-10.73,11-17.87,21.4-16.18,3.91.63,5.65,2.85,5.42,7.21h18.73A13.48,13.48,0,0,0,292,61.88c-1.79-2.44-4.67-4.18-8.47-5.31-7-2.1-17.57-2-24.91-.58-15,2.94-25,12.17-29,25.66-2.64,9-1.28,15.88,4.09,20.52,9.43,8.19,33.83,6.5,44.49.73a26.45,26.45,0,0,0,7.64-6.15c1.48-1.67,4.51-5.88,4.94-8.65Z"/><path class="cls-2" d="M357.41,83.84c5.22.08,11.37-.33,16.39.2,5.6.58,8.67,2.55,6.48,8.65-1.49,4.13-5,5.87-10.24,6.32s-11.42.13-16.71.11l4.08-15.28ZM363,62.94c5,.05,10.29-.17,15.25.13s9,1.61,6.45,7.36c-1.56,3.6-5.09,4.84-10,5.19s-10.14.15-15.08.13L363,62.94ZM384,79.45c5.27-1.41,9.83-3.35,12.51-8.34,3.1-5.8,2.49-11.92-2.73-14.57-4.71-2.37-13.33-1.71-19.1-1.71-6.68,0-14.22-.33-20.77,0-.76,1.11-3.1,11-3.68,13.16-1.21,4.46-2.37,8.85-3.56,13.26-1.49,5.52-6.2,22.08-7,26.37h23.14c7.49,0,13.94.3,20.11-2.75,9.31-4.59,13.67-16.24,8.73-21.66-2.73-3-5-2.82-7.62-3.78Z"/><path class="cls-2" d="M545.84,70.93v-.12c-4.06,0-8.09,0-12.15,0-1.31,0-1.51,0-2.37.58-4.86,3.56-15.45,11.55-19.36,14L520.1,54.8H509.42l-14.1,52.81,10.69,0L511.26,88c1,1,6.35,8.59,7.23,9.85l7,9.76,14.67,0-8-10.57c-1.41-1.79-2.68-3.48-4.06-5.26l-3.86-5.2c.68-.85,4.26-3.15,5.32-4l16.31-11.72Z"/><path class="cls-3" d="M0,76.4v7.74A38.06,38.06,0,0,1,.68,88.3c1.74,8.17,6.28,15,14.72,18,6.66,2.32,10,1.51,13.46-2.9A45.15,45.15,0,0,0,35.24,91c-9.33-.35-17.19-3-21.17-12.2C6.65,61.58,19,36.68,30.12,24.05c1.94-2.22,5.83-6.58,8-8.57a53.25,53.25,0,0,0,4.38-3.86c-1.68.68-6.42,4.59-7.83,5.77A106.79,106.79,0,0,0,5.82,55.56,74.08,74.08,0,0,0,1,70.81c-.3,1.61-.35,4.41-1,5.59Z"/><path class="cls-2" d="M426.91,90.7c-1.08,9.5-14.24,14-19.11,10.23-2.31-1.79-1.41-7.71,4.26-9.4,3.46-1,10.89-1.11,14.85-.83Zm-21.55,17.87h4.44c1-.38,2.92-.43,4.1-.71a21.43,21.43,0,0,0,3.68-1.21,33,33,0,0,0,6.18-3.75l-1,4.74,10.94-.06c.85-6.35,2.85-12.67,4.46-18.65,1.79-6.53,3.53-13.36-2.35-16.76-5-2.9-14.19-2.7-20.14-1.29C410.55,72.09,404.25,75.62,403,81H413.4c2.24-4.09,4.76-5.3,10.08-5.07,5.95.25,6.18,3.23,5.17,8.44-10.38,0-21.7-.4-28.69,5.17-2.42,1.94-5.74,7.08-4.61,12.15,1.46,6.28,8.67,6.3,10,6.91Z"/><polygon class="cls-2" points="292.36 107.53 293.46 107.61 309.34 107.58 311.11 107.56 325.73 54.9 324.29 54.88 308.87 54.88 306.98 54.88 292.36 107.53"/><path class="cls-2" d="M133.9,54.88H115.55c-.6.15-1,2.14-1.23,3.2-1.72,6.3-13.47,47.79-13.67,49.5l18.68,0L133.9,54.88Z"/><polygon class="cls-2" points="229.81 54.88 211.11 54.9 196.59 107.58 215.19 107.56 229.81 54.88"/><path class="cls-2" d="M462.93,70.81H452.24c-.83,2.72-1.33,6.63-2,9.63-1.82,8-5.7,19.81-7.24,27.22h11c1.69-6,3.18-12.25,4.89-18.38,3.76-13.31,17.75-14,20.8-9.75,1.86,2.57,1.08,6.65.22,9.78L475,107.66l10.79-.08c1.26-5.36,2.84-10.86,4.31-16.2,1.38-5,3.93-11.78.8-16.56-2.72-4.19-9.07-5.4-15.65-4.59a21.24,21.24,0,0,0-7.74,2.49c-2.7,1.49-3.78,2.78-5.72,4.31l1.13-6.22Z"/><path class="cls-3" d="M51.17,87c-.68,1.21-.18,5.52.23,6.83,2.17,7.06,9.68-.48,13.46-3.5A105.54,105.54,0,0,0,79.73,75.07c7.49-9,17.44-25.74,19.31-41.14-.25.33-3,7.86-3.58,9.22A85.49,85.49,0,0,1,86.06,59c-.93,1.23-1.84,2.31-2.75,3.52s-2,2.2-2.92,3.38-2,2.14-3.08,3.25C70.15,76.83,61,82.88,51.3,87.37L51.17,87Z"/><path class="cls-4" d="M68.77,8.39c-5.42,1-9.86,5.22-12,9-4.08,7.19-1.71,13,5.14,11.42,5.3-1.18,9.41-5.39,11.68-9.07,3-4.92,3-12.76-4.84-11.3Z"/></g></g></svg>