<svg xmlns="http://www.w3.org/2000/svg" xmlns:xlink="http://www.w3.org/1999/xlink" viewBox="0 0 264.91 126.97"><defs><style>.cls-1{fill:url(#radial-gradient);}.cls-2{fill:url(#radial-gradient-2);}.cls-3{fill:url(#radial-gradient-3);}.cls-4{fill:url(#linear-gradient);}.cls-5{fill:url(#linear-gradient-2);}.cls-6{fill:#3777c5;}.cls-7{fill:#63bbeb;}.cls-8{fill:#4980ca;}.cls-9{fill:#2f67ab;}.cls-10{fill:url(#linear-gradient-3);}.cls-11{fill:url(#linear-gradient-4);}.cls-12{fill:url(#linear-gradient-5);}.cls-13{fill:url(#linear-gradient-6);}.cls-14{fill:url(#linear-gradient-7);}.cls-15{fill:#72c1ed;}.cls-16{fill:#326cb3;}.cls-17{fill:url(#linear-gradient-8);}.cls-18{fill:url(#linear-gradient-9);}.cls-19{fill:url(#linear-gradient-10);}.cls-20{fill:url(#linear-gradient-11);}.cls-21{fill:url(#linear-gradient-12);}.cls-22{fill:url(#linear-gradient-13);}.cls-23{fill:url(#linear-gradient-14);}.cls-24{fill:url(#linear-gradient-15);}.cls-25{fill:#af0a55;}.cls-26{fill:url(#linear-gradient-16);}.cls-27{fill:url(#linear-gradient-17);}.cls-28{fill:url(#linear-gradient-18);}.cls-29{fill:url(#linear-gradient-19);}.cls-30{fill:url(#linear-gradient-20);}.cls-31{fill:url(#linear-gradient-21);}.cls-32{fill:url(#linear-gradient-22);}.cls-33{fill:url(#linear-gradient-23);}.cls-34{fill:url(#linear-gradient-24);}.cls-35{fill:url(#linear-gradient-25);}.cls-36{fill:url(#linear-gradient-26);}.cls-37{fill:url(#linear-gradient-27);}.cls-38{fill:url(#linear-gradient-28);}.cls-39{fill:url(#linear-gradient-29);}.cls-40{fill:url(#linear-gradient-30);}.cls-41{fill:url(#linear-gradient-31);}.cls-42{fill:url(#linear-gradient-32);}.cls-43{fill:url(#linear-gradient-33);}.cls-44{fill:url(#linear-gradient-34);}.cls-45{fill:url(#linear-gradient-35);}.cls-46{fill:url(#linear-gradient-36);}.cls-47{fill:url(#linear-gradient-37);}.cls-48{fill:url(#linear-gradient-38);}.cls-49{fill:url(#linear-gradient-39);}.cls-50{fill:#90c643;}</style><radialGradient id="radial-gradient" cx="-200.12" cy="220.2" r="0.73" gradientTransform="matrix(265.13, 0, 0, -265.13, 53190.72, 58449.19)" gradientUnits="userSpaceOnUse"><stop offset="0" stop-color="#c11566"/><stop offset="0.99" stop-color="#af0a55"/><stop offset="1" stop-color="#af0a55"/></radialGradient><radialGradient id="radial-gradient-2" cx="-199.68" cy="217.01" r="0.73" gradientTransform="matrix(112.62, 0, 0, -112.62, 22639.4, 24481.63)" gradientUnits="userSpaceOnUse"><stop offset="0" stop-color="#63bbeb"/><stop offset="1" stop-color="#3777c5"/></radialGradient><radialGradient id="radial-gradient-3" cx="-199.87" cy="218.19" r="0.73" gradientTransform="matrix(142.87, 0, 0, -142.87, 28713.19, 31221.91)" gradientUnits="userSpaceOnUse"><stop offset="0" stop-color="#90c643"/><stop offset="0.83" stop-color="#5fb233"/><stop offset="1" stop-color="#5fb233"/></radialGradient><linearGradient id="linear-gradient" x1="-168.81" y1="192.79" x2="-168.14" y2="192.79" gradientTransform="matrix(10.82, 9.08, 9.08, -10.82, 258.62, 3679.72)" gradientUnits="userSpaceOnUse"><stop offset="0" stop-color="#4980ca"/><stop offset="1" stop-color="#63bbeb"/></linearGradient><linearGradient id="linear-gradient-2" x1="-226.5" y1="254.58" x2="-225.83" y2="254.58" gradientTransform="matrix(-12.82, -7.62, -7.62, 12.82, -813.43, -4928.62)" gradientUnits="userSpaceOnUse"><stop offset="0" stop-color="#82c7ef"/><stop offset="1" stop-color="#3777c5"/></linearGradient><linearGradient id="linear-gradient-3" x1="-198.87" y1="206.03" x2="-198.2" y2="206.03" gradientTransform="matrix(37.45, 0, 0, -37.45, 7655.98, 7763.39)" gradientUnits="userSpaceOnUse"><stop offset="0" stop-color="#2f67ab"/><stop offset="1" stop-color="#2d61a2"/></linearGradient><linearGradient id="linear-gradient-4" x1="-198.77" y1="282.17" x2="-198.1" y2="282.17" gradientTransform="matrix(-10.29, 1.32, 1.32, 10.29, -2212.69, -2597.15)" xlink:href="#radial-gradient-2"/><linearGradient id="linear-gradient-5" x1="-184.25" y1="125.88" x2="-183.58" y2="125.88" gradientTransform="matrix(6.33, 0.53, 0.53, -6.33, 1326.14, 931.73)" gradientUnits="userSpaceOnUse"><stop offset="0" stop-color="#63bbeb"/><stop offset="1" stop-color="#2d61a2"/></linearGradient><linearGradient id="linear-gradient-6" x1="-301.04" y1="289.29" x2="-300.37" y2="289.29" gradientTransform="matrix(-3.21, -4.01, -4.01, 3.21, 413.43, -2088.41)" gradientUnits="userSpaceOnUse"><stop offset="0" stop-color="#5aaad7"/><stop offset="1" stop-color="#2f67ab"/></linearGradient><linearGradient id="linear-gradient-7" x1="-147.07" y1="112.57" x2="-146.4" y2="112.57" gradientTransform="matrix(4.75, 1.98, 1.98, -4.75, 733.17, 848.02)" gradientUnits="userSpaceOnUse"><stop offset="0" stop-color="#63bbeb"/><stop offset="1" stop-color="#2b5c99"/></linearGradient><linearGradient id="linear-gradient-8" x1="-185.15" y1="254.07" x2="-184.48" y2="254.07" gradientTransform="matrix(-15.44, 8.71, 8.71, 15.44, -4820.14, -2274.01)" gradientUnits="userSpaceOnUse"><stop offset="0" stop-color="#63bbeb"/><stop offset="1" stop-color="#2f67ab"/></linearGradient><linearGradient id="linear-gradient-9" x1="-24.86" y1="121.93" x2="-24.19" y2="121.93" gradientTransform="matrix(1.7, 2.55, 2.55, -1.7, -24.19, 309.49)" xlink:href="#linear-gradient-7"/><linearGradient id="linear-gradient-10" x1="-192.75" y1="181.32" x2="-192.08" y2="181.32" gradientTransform="matrix(14.79, 0, 0, -14.79, 2948.04, 2743.35)" gradientUnits="userSpaceOnUse"><stop offset="0" stop-color="#af0a55"/><stop offset="1" stop-color="#db4990"/></linearGradient><linearGradient id="linear-gradient-11" x1="-185.54" y1="148.43" x2="-184.87" y2="148.43" gradientTransform="matrix(8.27, 0, 0, -8.27, 1613.55, 1282.33)" gradientUnits="userSpaceOnUse"><stop offset="0" stop-color="#a2094d"/><stop offset="1" stop-color="#d73585"/></linearGradient><linearGradient id="linear-gradient-12" x1="-109.53" y1="188.59" x2="-108.85" y2="188.59" gradientTransform="matrix(3.56, 5.15, 5.15, -3.56, -555.69, 1338.95)" xlink:href="#linear-gradient-10"/><linearGradient id="linear-gradient-13" x1="-174.02" y1="200.41" x2="-173.35" y2="200.41" gradientTransform="matrix(14.51, 11.13, 11.13, -14.51, 342.87, 4895.67)" gradientUnits="userSpaceOnUse"><stop offset="0" stop-color="#a2094d"/><stop offset="1" stop-color="#db4990"/></linearGradient><linearGradient id="linear-gradient-14" x1="-211.9" y1="186.75" x2="-211.23" y2="186.75" gradientTransform="matrix(13.99, -8.45, -8.45, -13.99, 4583.37, 910.28)" gradientUnits="userSpaceOnUse"><stop offset="0" stop-color="#db4990"/><stop offset="1" stop-color="#af0a55"/></linearGradient><linearGradient id="linear-gradient-15" x1="-102.08" y1="181.54" x2="-101.41" y2="181.54" gradientTransform="matrix(3.43, 4.75, 4.75, -3.43, -473.02, 1170.44)" xlink:href="#linear-gradient-14"/><linearGradient id="linear-gradient-16" x1="-251.98" y1="299.91" x2="-251.3" y2="299.91" gradientTransform="matrix(-6.14, -2.57, -2.57, 6.14, -682.08, -2423.76)" gradientUnits="userSpaceOnUse"><stop offset="0" stop-color="#a2094d"/><stop offset="1" stop-color="#df5e9c"/></linearGradient><linearGradient id="linear-gradient-17" x1="-136.33" y1="153.57" x2="-135.66" y2="153.57" gradientTransform="matrix(5.74, 3.17, 3.17, -5.74, 319.86, 1396.06)" gradientUnits="userSpaceOnUse"><stop offset="0" stop-color="#db4990"/><stop offset="1" stop-color="#a2094d"/></linearGradient><linearGradient id="linear-gradient-18" x1="-213.22" y1="277.13" x2="-212.54" y2="277.13" gradientTransform="matrix(-10.89, -0.79, -0.79, 10.89, -1966.66, -3116.25)" xlink:href="#linear-gradient-16"/><linearGradient id="linear-gradient-19" x1="-251.39" y1="255.94" x2="-250.72" y2="255.94" gradientTransform="matrix(-6.56, -7.55, -7.55, 6.56, 450.43, -3505.19)" xlink:href="#linear-gradient-13"/><linearGradient id="linear-gradient-20" x1="-312.7" y1="313.04" x2="-312.03" y2="313.04" gradientTransform="matrix(-2.97, -2.97, -2.97, 2.97, 201.14, -1783.26)" gradientUnits="userSpaceOnUse"><stop offset="0" stop-color="#c01f6e"/><stop offset="1" stop-color="#d63384"/></linearGradient><linearGradient id="linear-gradient-21" x1="-291.69" y1="220.64" x2="-291.02" y2="220.64" gradientTransform="matrix(-1.19, -6.66, -6.66, 1.19, 1208.52, -2137.48)" gradientUnits="userSpaceOnUse"><stop offset="0" stop-color="#df5e9c"/><stop offset="1" stop-color="#a2094d"/></linearGradient><linearGradient id="linear-gradient-22" x1="-212.54" y1="210.47" x2="-211.86" y2="210.47" gradientTransform="matrix(21.98, -27.21, -27.21, -21.98, 10601.85, -1062.03)" xlink:href="#linear-gradient-21"/><linearGradient id="linear-gradient-23" x1="-152.07" y1="120.09" x2="-151.4" y2="120.09" gradientTransform="matrix(5.01, 1.74, 1.74, -5.01, 753.34, 951.78)" xlink:href="#linear-gradient-21"/><linearGradient id="linear-gradient-24" x1="-198.92" y1="207.71" x2="-198.25" y2="207.71" gradientTransform="matrix(41.03, 0, 0, -41.03, 8363.03, 8591.04)" gradientUnits="userSpaceOnUse"><stop offset="0" stop-color="#c01f6e"/><stop offset="1" stop-color="#a2094d"/></linearGradient><linearGradient id="linear-gradient-25" x1="-74.56" y1="99.07" x2="-73.89" y2="99.07" gradientTransform="matrix(2.77, 2.18, 2.18, -2.77, 158.51, 483.5)" gradientUnits="userSpaceOnUse"><stop offset="0" stop-color="#5fb233"/><stop offset="1" stop-color="#90c643"/></linearGradient><linearGradient id="linear-gradient-26" x1="-223.88" y1="113.51" x2="-223.21" y2="113.51" gradientTransform="matrix(5.35, -1.98, -1.98, -5.35, 1567.33, 184.11)" xlink:href="#linear-gradient-25"/><linearGradient id="linear-gradient-27" x1="-64.91" y1="46.73" x2="-64.23" y2="46.73" gradientTransform="matrix(2.46, 1.32, 1.32, -2.46, 221.68, 253.93)" xlink:href="#linear-gradient-25"/><linearGradient id="linear-gradient-28" x1="-100.33" y1="77.94" x2="-99.66" y2="77.94" gradientTransform="matrix(3.17, 1.58, 1.58, -3.17, 345.55, 452.64)" xlink:href="#linear-gradient-25"/><linearGradient id="linear-gradient-29" x1="-239.09" y1="306.33" x2="-238.42" y2="306.33" gradientTransform="matrix(-6.63, -1.66, -1.66, 6.63, -985.16, -2387.56)" xlink:href="#linear-gradient-25"/><linearGradient id="linear-gradient-30" x1="-194.36" y1="191.13" x2="-193.69" y2="191.13" gradientTransform="matrix(19.74, 0, 0, -19.74, 3920.52, 3813.37)" gradientUnits="userSpaceOnUse"><stop offset="0" stop-color="#529b2b"/><stop offset="0.83" stop-color="#5fb233"/><stop offset="1" stop-color="#5fb233"/></linearGradient><linearGradient id="linear-gradient-31" x1="-196.64" y1="204.84" x2="-195.96" y2="204.84" gradientTransform="matrix(35.4, 0, 0, -35.4, 7013.82, 7280.83)" gradientUnits="userSpaceOnUse"><stop offset="0" stop-color="#529b2b"/><stop offset="0.04" stop-color="#529b2b"/><stop offset="0.83" stop-color="#5aab30"/><stop offset="1" stop-color="#5aab30"/></linearGradient><linearGradient id="linear-gradient-32" x1="-198.42" y1="211.71" x2="-197.75" y2="211.71" gradientTransform="matrix(57.5, 0, 0, -57.5, 11497.98, 12212.52)" gradientUnits="userSpaceOnUse"><stop offset="0" stop-color="#90c643"/><stop offset="1" stop-color="#56a32e"/></linearGradient><linearGradient id="linear-gradient-33" x1="-219.19" y1="192.97" x2="-218.52" y2="192.97" gradientTransform="matrix(13.42, -11.86, -11.86, -13.42, 5360.13, 36.16)" gradientUnits="userSpaceOnUse"><stop offset="0" stop-color="#56a32e"/><stop offset="0.5" stop-color="#83b43c"/><stop offset="1" stop-color="#5aab30"/></linearGradient><linearGradient id="linear-gradient-34" x1="-208.27" y1="240.86" x2="-207.6" y2="240.86" gradientTransform="matrix(-29.93, -9.12, -9.12, 29.93, -3837.39, -9072.81)" gradientUnits="userSpaceOnUse"><stop offset="0" stop-color="#56a32e"/><stop offset="0.3" stop-color="#90c643"/><stop offset="0.66" stop-color="#59a72f"/><stop offset="1" stop-color="#90c643"/></linearGradient><linearGradient id="linear-gradient-35" x1="-194.07" y1="174.54" x2="-193.4" y2="174.54" gradientTransform="matrix(13.02, 0, 0, -13.02, 2688.8, 2304)" xlink:href="#linear-gradient-25"/><linearGradient id="linear-gradient-36" x1="-144.83" y1="193.99" x2="-144.16" y2="193.99" gradientTransform="matrix(6.04, 7.99, 7.99, -6.04, -565.63, 2374.09)" gradientUnits="userSpaceOnUse"><stop offset="0" stop-color="#56a32e"/><stop offset="0.49" stop-color="#90c643"/><stop offset="1" stop-color="#90c643"/></linearGradient><linearGradient id="linear-gradient-37" x1="-144.78" y1="194.05" x2="-144.11" y2="194.05" gradientTransform="matrix(6.04, 7.99, 7.99, -6.04, -568.2, 2374.99)" xlink:href="#linear-gradient-25"/><linearGradient id="linear-gradient-38" x1="-287.75" y1="275.25" x2="-287.08" y2="275.25" gradientTransform="matrix(-4.05, -4.83, -4.83, 4.05, 292.43, -2499.18)" gradientUnits="userSpaceOnUse"><stop offset="0" stop-color="#5fb233"/><stop offset="0.81" stop-color="#9bcb52"/><stop offset="1" stop-color="#9bcb52"/></linearGradient><linearGradient id="linear-gradient-39" x1="-397.84" y1="267.98" x2="-397.17" y2="267.98" gradientTransform="matrix(-1.26, -2.92, -2.92, 1.26, 379.21, -1486.13)" gradientUnits="userSpaceOnUse"><stop offset="0" stop-color="#5aab30"/><stop offset="1" stop-color="#90c643"/></linearGradient></defs><g id="Layer_2" data-name="Layer 2"><g id="Layer_1-2" data-name="Layer 1"><path class="cls-1" d="M24.64,63.78c0,8.51,8,9.58,12.13,9.58,11,0,15.88-5.07,18-5.07s-1.28,5.16-4.56,7.21C23,92,.61,106.14.61,119.27c0,5.94,5.47,6.34,9.65,6.34S34.82,123,66,74.62c1.47-2.27,3.87-3.58,6.18-5.24s9.75-7.1,11.22-7.11,1.42.63,1.36,1.3c-.09.95-1.08,3.07-1.08,5.63s2.61,5.55,6.86,5.55c9.49,0,16.4-6.75,22.09-12.85-1.88-.4-4-.87-6.41-1.43-2.25,1.91-4.46,3.35-5.63,3.37-2.18,0-2.85-1.19-2.94-2.3a7.21,7.21,0,0,1,.56-3c-4.31-1.13-9.12-2.48-14.33-4.07-1.37.85-2.82,1.5-3.87,1.35-.33-.05-.53-.36.2-1.4l.64-.9q-5.62-1.78-11.76-3.94c-7.9,7.26-17,14.55-22,14.55-2,0-3.85-1.34-3.85-4.52,0-2.11,2.78-9,8.29-16.71q-6.2-2.55-12.66-5.49C29.14,47.7,24.64,57.09,24.64,63.78m-11,49.91c0-5.83,20.24-21.11,22.64-21.12.62,0,.78.23.79.73,0,4.66-14.75,23.18-20.7,23.18a2.46,2.46,0,0,1-2.73-2.79M193.92,66.22c0,3.41.82,8.87,6.63,8.87,11.45,0,25.71-14.51,26.39-14.62.47-.08.55.12.55.58s-1.6,6.25-18.36,26.59S184.27,116,184.27,120.35a5.81,5.81,0,0,0,5.45,6c1.73,0,9-.39,26.46-28.71,12.43-20.21,18.3-32.68,24.9-42.73-11.92,5.2-26.9,8.59-47.16,11.33m-69.6-1.82c0,4.08,1.35,9.91,10.83,9.91,5.26,0,10-2.83,14.16-6.92a235.93,235.93,0,0,1-25-3.3c0,.11,0,.21,0,.31M159.54,68c-1.24,1.88-2.3,3.47-3,4.61,0,0-.89,1.06.44,1.06h12.41a2.09,2.09,0,0,0,1.5-1.06c.15-.21,1.43-2.15,3-4.64-4.64.16-9.43.19-14.38,0"/><path class="cls-2" d="M252.81,25.39c0,2.12,3.24,3.58,4.32,3.58,1.66,0,7.18-3.58,7.18-8.51,0-1.79-1.27-3.79-3.13-3.79-2.59,0-8.37,5.85-8.37,8.72M238.12,42.46c-7.84,8.51-17.29,19.95-25.8,19.95-3.14,0-4.12-2-4.12-4,0-1.46,1.15-2.8,3.33-3.46,8-2.36,20.61-12.82,20.61-19.94,0-1.87-.92-3.87-3.32-3.87-3.48,0-13.17,1.62-25.24,16-1.35,1.62-2.81,2.7-3.88,2.7s-2.46-2.12-2.46-6.38c0-.45,0-.87,0-1.28a189.52,189.52,0,0,1-26.68,7.45A213.34,213.34,0,0,1,159.55,68q7.41.21,14.38,0L181.71,56a1.79,1.79,0,0,1,1.42-.89c2,0-.45,5,6.82,5,2,0,4.06-1,4.59-1s.59.47.59.86c0,.79-1,2.64-1.15,5.18,0,.35,0,.73,0,1.15,20.24-2.74,35.23-6.12,47.15-11.31,2.64-4,6.51-9.36,9.27-12,5.18-5.06,6.52-7.72,6.52-8.91a2.81,2.81,0,0,0-2.8-3c-1.89,0-8.13,3.06-16,11.57m-25.45,6.33c0-2.33,7.83-9.86,10.46-9.86.37,0,.88.29.88.73,0,3-7.83,10.09-10.32,10.09a1,1,0,0,1-1-1M38.9,37.34q6.45,3,12.66,5.49c.7-1,1.45-2,2.23-3-4.47-1.52-8.74-3.08-12.81-4.65-.73.72-1.41,1.44-2.08,2.15M69.11,49.53c4.08,1.44,8,2.75,11.76,3.94.75-1,2.06-2.87,3.57-4.95q-5.73-1.27-11.3-2.78c-1.29,1.24-2.63,2.52-4,3.79m18.62,1.91a26.18,26.18,0,0,1-3.83,3c5.2,1.59,10,2.94,14.33,4.06a26.15,26.15,0,0,1,4.23-6.67Q96,50.89,89.61,49.61c-.62.59-1.24,1.2-1.88,1.83m64.72,1.06c-3,5.44-7.23,10.44-12.34,10.45a2.35,2.35,0,0,1-2.65-2.36c-.06-1.83,1.19-4.5,2.87-7.14-4.76.24-9.49.3-14.16.21-.27,1.41-1.76,6.73-1.85,10.43a238.21,238.21,0,0,0,25,3.3,55.46,55.46,0,0,0,10.51-15.83c-2.45.36-4.91.68-7.36.94m-46.21,8q3.58.83,6.41,1.43c3.21-3.45,6-6.7,8.69-8.38-2.83-.13-5.65-.31-8.43-.55-1.08,2.09-3.91,5.16-6.67,7.5"/><path class="cls-3" d="M56.81,21.81A131.28,131.28,0,0,0,41,35.19c4.07,1.57,8.36,3.13,12.81,4.65a76,76,0,0,1,8.42-9.14C74.77,19.14,89.34,13.49,98.38,13.49a65.76,65.76,0,0,1,9,.84c.47.06.62,0,.82-.36s7-12.5,7-12.5a.23.23,0,0,0-.11-.38,11.83,11.83,0,0,0-3.82-.48c-10.15,0-32.26,5-54.5,21.2m64.1-9.59c0,6.38,3.82,15.12,19.88,20.47.4.14.79.19.79.52,0,.68-7.58,10.92-14.43,12.12a1.17,1.17,0,0,1-1.32-1.26c0-.73,1.06-2.86,1.06-6.12s-1-7.84-7.18-7.84c-6,0-12.81,2.86-30.1,19.51Q96,50.9,102.46,51.81c5.38-6.53,13.61-13,15.7-13,1.29,0,1.82.51,1.87,1.08.2,2.3-3.12,3.91-5.16,5.39-2.4,1.73-3.16,2.27-2.93,3.72.14.79,1.29,1,1.44,2.42a3.31,3.31,0,0,1-.46,1.59c2.78.23,5.6.42,8.43.54a6.61,6.61,0,0,1,3.53-1.2c1,0,1.34.43,1.34,1a1.31,1.31,0,0,1,0,.31c4.68.09,9.4,0,14.16-.21,2.48-3.86,5.9-7.64,7.53-8.63,2.75-1.66,4.26-3.29,4.22-4.23s-2-2.19-2.19-3.1c-.22-1.07.63-1.63,2.54-1.15,2.73.69,4.72.78,4.78,2.79,0,1.65-1.69,7.76-4.77,13.38q3.67-.4,7.37-.94c2.37-5.24,3.68-10,3.68-12.71a1.12,1.12,0,0,1,1.25-1.27c1.06,0,4,.32,5.32.44a3.73,3.73,0,0,1,3.29,4c0,1.67-1.1,4.46-2.76,7.72a188.1,188.1,0,0,0,26.67-7.46c.38-5.63,3.14-7.93,3.14-9.77,0-1.26-.52-1.77-2-1.77-3.39,0-10,8.11-11.22,8.11-1,0-2.09-3.71-3.19-5.18C182.4,31.56,180.2,31,174,31c-3.13,0-4.92.28-7.71.28-3.18,0-3.92-.14-4.53-1.54S151.81,3.83,130.6,3.83c-4.71-.06-9.69,2-9.69,8.39m10.63,3c0-2.82,1.92-4.45,4.63-4.45C149,10.76,155.42,29,155.42,30.2c0,.58-.35.9-1.28.9-4.68,0-22.6-7-22.6-15.89m-48.2,20.4C81.91,37,78,41.09,73.14,45.74c3.71,1,7.48,1.93,11.3,2.78,3.44-4.72,7.89-10.76,9.08-12.1,1.93-2.19,2.93-3.27,2.93-4s-1.2-1.53-2.66-1.53a17.72,17.72,0,0,0-10.45,4.72"/><path class="cls-4" d="M181.19,55.64l-2.67,4.11c-1.56,2.38-3.66,5.62-5.35,8.2l1.5,0,4.87-7.48,2.67-4.1a1.24,1.24,0,0,1,.92-.61c.15,0,.22.07.44.89.42,1.52,1.13,4.06,6.38,4.06a12.32,12.32,0,0,0,3.8-.79,5.76,5.76,0,0,1,.77-.23,1.42,1.42,0,0,1,0,.24,5.85,5.85,0,0,1-.31,1.17,15.65,15.65,0,0,0-.85,4c0,.41,0,.83,0,1.27l1.22-.16c0-.37,0-.73,0-1a15,15,0,0,1,.79-3.68,5.74,5.74,0,0,0,.37-1.54c0-1.33-.84-1.47-1.21-1.47a4.61,4.61,0,0,0-1.19.31,10.7,10.7,0,0,1-3.4.73c-4.32,0-4.81-1.75-5.2-3.18-.22-.79-.5-1.79-1.62-1.79a2.38,2.38,0,0,0-1.94,1.16"/><path class="cls-5" d="M151.72,52.58a29.6,29.6,0,0,1-4.36,6c-2.38,2.46-4.81,3.7-7.25,3.71a1.78,1.78,0,0,1-2-1.77c-.06-1.8,1.26-4.5,3-7.14l-1.49.07c-1.62,2.6-2.78,5.22-2.72,7.11a3,3,0,0,0,3.26,3c2.78,0,5.52-1.39,8.13-4.08a32.07,32.07,0,0,0,4.95-7.06l-1.48.16"/><path class="cls-6" d="M97.64,58.33l1.18.31a25.75,25.75,0,0,1,4.35-6.74l-1.42-.2a25.66,25.66,0,0,0-4.11,6.63"/><path class="cls-7" d="M68.47,49.3l1.29.46c1.35-1.25,2.71-2.54,4.07-3.84l-1.37-.35c-1.29,1.22-2.62,2.47-4,3.73"/><path class="cls-7" d="M112.25,52.91A18.07,18.07,0,0,1,110,56a42.06,42.06,0,0,1-4.47,4.31c.5.13,1,.24,1.48.35a42.19,42.19,0,0,0,3.91-3.85A17.12,17.12,0,0,0,113.56,53c-.43,0-.88-.07-1.31-.12"/><path class="cls-8" d="M113.51,60.07c-.5.56-1,1.11-1.56,1.68l1.4.3c.36-.38.72-.77,1.06-1.15,3-3.22,5.63-6.1,8.09-7.33l-2.15-.1a49.74,49.74,0,0,0-6.84,6.6"/><path class="cls-9" d="M51,42.59l1.17.48c.72-1,1.48-2,2.28-3l-1.24-.42c-.79,1-1.52,2-2.21,3"/><path class="cls-10" d="M231.51,35c0,6.91-12.58,17.11-20.16,19.35-2.35.69-3.76,2.2-3.76,4h1.22c0-1.26,1.08-2.33,2.88-2.87,7.93-2.33,21.05-12.89,21.05-20.52Z"/><path class="cls-11" d="M203.1,46.8c-1.29,1.54-2.6,2.5-3.41,2.5-.64,0-1.86-1.74-1.86-5.77,0-.54,0-1,.06-1.53l-1.25.46c0,.35,0,.69,0,1.07,0,4.81,1.59,7,3.08,7,1.65,0,3.43-1.84,4.35-2.93,1.53-1.83,3-3.46,4.47-4.89L208,41.49a70.86,70.86,0,0,0-4.89,5.31"/><path class="cls-12" d="M208,41.47l.52,1.21c10.14-10,17.92-10.93,20.29-10.93,2.59,0,2.71,2.71,2.71,3.26h1.23c0-2.23-1.21-4.48-3.94-4.48-3.14,0-10.85,1.19-20.81,10.94"/><path class="cls-13" d="M212.05,48.79a1.58,1.58,0,0,0,1.63,1.56c2.88,0,10.92-7.33,10.92-10.71a1.47,1.47,0,0,0-1.48-1.35c-2.9,0-11.07,7.76-11.07,10.5m1.22,0c0-2.07,7.65-9.26,9.85-9.26a.41.41,0,0,1,.27.14c0,2.62-7.52,9.46-9.71,9.46-.16,0-.41-.11-.41-.34"/><path class="cls-14" d="M252.19,25.37c0,2.53,3.51,4.21,4.93,4.21,1.88,0,7.79-3.79,7.79-9.13,0-2.12-1.49-4.4-3.73-4.4-3,0-9,6.19-9,9.32m1.22,0c0-2.42,5.44-8.1,7.77-8.1,1.48,0,2.51,1.69,2.51,3.18,0,4.54-5.2,7.9-6.57,7.9-.9,0-3.71-1.33-3.71-3"/><path class="cls-15" d="M158.82,67.92l1.43,0a202.94,202.94,0,0,0,11.11-18.44c-.51.12-1,.22-1.52.31-3.06,5.89-7.84,13.25-11,18.08"/><path class="cls-7" d="M38.29,37.06l1.17.53c.68-.72,1.38-1.45,2.12-2.16l-1.23-.49c-.71.72-1.4,1.43-2.06,2.12"/><path class="cls-16" d="M83.8,48.37l-3.54,4.9c.41.14.82.26,1.23.38.79-1.1,2.11-2.93,3.62-5l-1.31-.29"/><path class="cls-7" d="M125.26,54.93A50.18,50.18,0,0,0,123.71,64l1.23.23a46.73,46.73,0,0,1,1.51-9c.18-.8.29-1.25.34-1.53-.42,0-.83,0-1.23,0-.07.3-.19.78-.3,1.27"/><path class="cls-8" d="M159.1,51.67a63.13,63.13,0,0,1-4.13,7.6,46.27,46.27,0,0,1-6.48,8.07l1.56.14a56.81,56.81,0,0,0,10.49-16l-1.44.19"/><path class="cls-17" d="M237.66,42.05l-2.43,2.66c-7.28,8-15.54,17.09-22.91,17.09-2.9,0-3.51-1.84-3.51-3.37h-1.22a4.19,4.19,0,0,0,4,4.56,14,14,0,0,0,7.26-1.83c5.89-3.13,11.83-9.66,17.25-15.62l2.42-2.65c7.84-8.5,13.94-11.37,15.51-11.37V30.29c-2.16,0-8.52,3.19-16.42,11.76"/><path class="cls-18" d="M254.07,31.51A2.2,2.2,0,0,1,256.24,34c0,.55-.45,2.75-6.33,8.47-2.94,2.87-7,8.51-9.84,12.91l2.05-.89c2.44-3.63,6.12-8.69,8.65-11.14,4.39-4.26,6.7-7.5,6.7-9.35a3.44,3.44,0,0,0-3.4-3.67Z"/><path class="cls-19" d="M97.05,61.59c.15,1.84,1.49,2.92,3.57,2.86,1.49,0,4-1.77,6.35-3.81l-1.48-.35c-2.08,1.72-4,2.92-4.91,3-1.44,0-2.22-.56-2.31-1.75a6.41,6.41,0,0,1,.54-2.85l-1.19-.31a8,8,0,0,0-.57,3.26"/><path class="cls-20" d="M79.72,54c-.57.8-.73,1.36-.53,1.82a.86.86,0,0,0,.74.53c1.37.19,3.16-.69,4.72-1.72l-1.56-.47a6.67,6.67,0,0,1-2.65,1,3.29,3.29,0,0,1,.27-.44l.75-1.06c-.41-.12-.81-.25-1.22-.39-.25.37-.45.63-.52.74"/><path class="cls-21" d="M36.33,92c-1.6,0-7.79,4.44-12.61,8.53-4,3.37-10.64,9.57-10.64,13.21,0,2.2,1.19,3.4,3.34,3.4,2.76,0,6.69-3.37,9.5-6.19,5.59-5.61,11.82-14.34,11.81-17.6a1.33,1.33,0,0,0-.35-1,1.35,1.35,0,0,0-1-.35h0m-22,21.74c0-5.4,19.72-20.46,22-20.52h.16v.12h0c0,2.63-5.66,10.92-11.45,16.73-3.68,3.69-6.82,5.82-8.63,5.82-1.48,0-2.12-.67-2.12-2.17"/><path class="cls-22" d="M42.65,59.55c0,3.78,2.41,5.13,4.46,5.13,5.08,0,13.76-6.71,22.64-14.92l-1.3-.46C60.7,56.41,51.87,63.46,47.11,63.46c-2,0-3.24-1.46-3.24-3.91,0-2.13,2.85-8.9,8.27-16.48L51,42.59c-5.52,7.76-8.32,14.66-8.32,17"/><path class="cls-23" d="M0,119.27H1.22c0-12.46,20.46-25.78,49.35-43.25l-.64-1C20.7,92.65,0,106.17,0,119.27"/><path class="cls-24" d="M24,63.78C24,70.26,28.66,74,36.76,74V72.74c-4.3,0-11.51-1.16-11.51-9,0-6.1,4-15.4,14.21-26.19l-1.17-.53C28,48,24,57.51,24,63.78"/><path class="cls-25" d="M50.56,76c2.71-1.71,6-5.8,5.48-7.5a1.19,1.19,0,0,0-1.24-.85,8.06,8.06,0,0,0-3.15,1.22,30,30,0,0,1-14.9,3.85V74a31,31,0,0,0,15.46-4,9,9,0,0,1,2.58-1.1c.06,0,.09,0,.09.13,0,.88-2.19,4.23-5,6"/><path class="cls-26" d="M90.57,74.13c-4.08,0-6.25-2.87-6.25-4.93H83.09c0,3,3,6.15,7.48,6.15,9.88,0,17-7.09,22.78-13.3l-1.4-.3c-5.51,5.9-12.3,12.38-21.38,12.38"/><path class="cls-27" d="M72.39,68.49l-.55.4-1.41,1a16.22,16.22,0,0,0-4.92,4.42C34.38,122.55,14,125,10.26,125c-5.43,0-9-1-9-5.71H0c0,6.93,6.94,6.93,10.26,6.93,2.25,0,8.52-.73,18.09-7.45,12.07-8.5,24.92-23.22,38.19-43.8a15.63,15.63,0,0,1,4.58-4.08l1.44-1,.54-.4c7.55-5.45,9.66-6.5,10.32-6.6s.66,0,.71.09l.87-.87c-.39-.4-.76-.44-1.58-.44-1.13,0-4.22,1.9-11,6.82"/><path class="cls-28" d="M123.71,64.4c0,6.89,4,10.53,11.45,10.53,5.54,0,10.61-3.08,14.9-7.48l-1.55-.12c-3.6,3.49-8.15,6.38-13.33,6.38-6.88,0-10.23-3-10.23-9.31v-.19L123.73,64a3,3,0,0,0,0,.42"/><path class="cls-29" d="M173.17,68c-1.49,2.28-2.64,4-2.79,4.25-.42.59-.8.8-1,.8H156.94l0-.06,0,0,2.07-3.14c.37-.57.76-1.18,1.18-1.81-.47,0-.95,0-1.43,0l-.77,1.18-2,3.11a1.8,1.8,0,0,0-.39,1,1,1,0,0,0,.08.41,1.24,1.24,0,0,0,1.25.62h12.42a2.62,2.62,0,0,0,2-1.33c.16-.22,1.45-2.18,3.29-5l-1.49.07"/><path class="cls-30" d="M193.32,66.3v.08c0,2.51.45,5.45,2.27,7.38a6.47,6.47,0,0,0,5,1.95V74.49a5.35,5.35,0,0,1-4.07-1.57c-1.65-1.76-2-4.7-1.94-6.79l-1.22.17"/><path class="cls-31" d="M84.58,62.52l-.44.44a.51.51,0,0,1,.1.37c0,.17-.06.33-.08.47s-.15.65-.31,1.22a14.29,14.29,0,0,0-.73,4.16h1.22A13.56,13.56,0,0,1,85,65.36a12.43,12.43,0,0,0,.39-1.59l0-.34A1.73,1.73,0,0,0,85,62.09l-.46.43Z"/><path class="cls-32" d="M208.65,87.29c-4.45,5.4-8.22,9.85-11.55,13.77-9.24,10.91-13.45,15.88-13.45,19.33a6.49,6.49,0,0,0,1.36,4.13l.76-1a5.38,5.38,0,0,1-.9-3.13c0-3,4.4-8.19,13.17-18.54,3.33-3.92,7.1-8.37,11.55-13.79,6-7.24,10-12.63,12.76-16.6l-1.27-.32c-2.7,3.87-6.66,9.12-12.43,16.15"/><path class="cls-33" d="M240.07,55.33c-3.1,4.81-5,8.54-8.82,15.25C226.93,78.26,222,87,215.65,97.31c-15.21,24.73-22.78,28.43-25.94,28.43a5.31,5.31,0,0,1-3.94-2.24l-.76,1a6.45,6.45,0,0,0,4.7,2.47c6,0,15.3-10,27-29,6.38-10.38,11.3-19.1,15.63-26.79,4.19-7.44,6.39-11.66,9.79-16.74-.66.31-1.35.61-2,.9"/><path class="cls-34" d="M226.85,59.88c-.25.08-.48.2-1.92,1.44-4.16,3.61-15.23,13.18-24.39,13.18v1.22c9.61,0,20.93-9.79,25.2-13.47l1.06-.92c-.26.79-1.33,3.49-5.72,9.79l1.27.33c5.65-8.2,5.75-10.35,5.75-10.39a1.22,1.22,0,0,0-.35-1,1,1,0,0,0-.64-.22.84.84,0,0,0-.26,0"/><path class="cls-35" d="M162.9,38.85c0,2.67-1.37,7.54-3.8,12.81.48-.06,1-.13,1.44-.21,2.3-5.14,3.58-9.88,3.58-12.6,0-.52.14-.67.63-.67.89,0,3.24.24,4.65.39l.61.06A3.09,3.09,0,0,1,172.74,42c0,1.64-1.17,4.51-2.92,7.86.51-.09,1-.21,1.52-.31C172.93,46.37,174,43.66,174,42a4.33,4.33,0,0,0-3.84-4.56l-.6-.06c-1.52-.17-3.82-.39-4.78-.39a1.71,1.71,0,0,0-1.85,1.88"/><path class="cls-36" d="M130.93,15.21c0,9.48,18.38,16.49,23.23,16.49,1.63,0,1.88-.95,1.88-1.52,0-1.21-6.38-20-19.87-20-3.18,0-5.24,2-5.24,5.07m1.23,0c0-2.37,1.53-3.83,4-3.83,12.19,0,18.55,17.59,18.64,18.83,0,.13,0,.28-.65.28-4.33,0-22-6.86-22-15.28"/><path class="cls-37" d="M120.34,53.47l2.15.1a5.36,5.36,0,0,1,2.37-.65c.75,0,.75.26.75.45s0,.15,0,.29c.4,0,.82,0,1.23,0a1.52,1.52,0,0,0,0-.32c0-.4-.14-1.66-2-1.66a7.92,7.92,0,0,0-4.52,1.76"/><path class="cls-38" d="M149.71,36.07a1.59,1.59,0,0,0-.4,1.56,4.18,4.18,0,0,0,1.21,1.74c.36.37.95,1,.95,1.26,0,.5-1,1.94-3.93,3.69-1.78,1.07-5.43,5.1-8,9.18l1.49-.07c2.4-3.64,5.59-7.16,7.1-8.07,2.87-1.74,4.56-3.52,4.51-4.78a3.59,3.59,0,0,0-1.3-2.06,4.17,4.17,0,0,1-.9-1.15c0-.2,0-.35.06-.42s.73-.27,1.73,0l1.23.3c2.31.53,3,.79,3.09,1.93,0,1.43-1.68,7.72-4.9,13.43l1.49-.16c3-5.58,4.68-11.54,4.63-13.31-.07-2.16-1.91-2.59-4-3.08l-1.2-.28a5.31,5.31,0,0,0-1.36-.19,2,2,0,0,0-1.49.5"/><path class="cls-39" d="M82.92,35.18l-2.24,2.24c-2,2-4.89,4.94-8.22,8.13l1.36.36c2.63-2.53,5.24-5.13,7.73-7.64L83.77,36a17.17,17.17,0,0,1,10-4.55c1.2,0,2,.52,2,.92h1.23c0-1.34-1.65-2.14-3.27-2.14a18.2,18.2,0,0,0-10.88,4.91"/><path class="cls-40" d="M95.83,32.43c0,.44-1,1.54-2.3,3l-.47.53c-1.22,1.39-5.8,7.61-9.26,12.36l1.3.29C88.51,44,92.84,38.11,94,36.81l.47-.53c1.79-2,2.6-3,2.6-3.86Z"/><path class="cls-41" d="M61.79,30.25a76.65,76.65,0,0,0-8.62,9.38l1.24.42a77.32,77.32,0,0,1,8.21-8.9A74.25,74.25,0,0,1,77,20.76l-.56-1.09a76.28,76.28,0,0,0-14.6,10.58"/><path class="cls-42" d="M88.88,49.47l1.46.3c16.49-15.85,23.35-19.05,29.37-19.05,2.62,0,4.47.87,5.52,2.63a8.83,8.83,0,0,1,1,4.6,16.42,16.42,0,0,1-.78,4.82,5.26,5.26,0,0,0-.28,1.3,2,2,0,0,0,.67,1.51l.79-.94a.77.77,0,0,1-.24-.57,6.43,6.43,0,0,1,.24-1A17.51,17.51,0,0,0,127.5,38a10.64,10.64,0,0,0-.89-4.57c-1.19-2.54-3.54-3.89-6.9-3.89-6.41,0-13.59,3.3-30.83,20"/><path class="cls-43" d="M140.85,33.35c-1.06,1.78-7.71,10.3-13.8,11.36a.38.38,0,0,1-.37-.1l-.79.94a1.65,1.65,0,0,0,1.37.36c7.11-1.25,14.94-11.61,14.94-12.72l-1.35.16Z"/><path class="cls-44" d="M189.92,35.82a23.76,23.76,0,0,1-2.71,2.34,9.34,9.34,0,0,1-1.36-2.39,17.55,17.55,0,0,0-1.36-2.52c-1.71-2.28-4-2.91-10.52-2.91-1.62,0-2.9.08-4.12.14l.06,1.22c1.21-.07,2.46-.13,4-.13,6.15,0,8.11.49,9.55,2.41a15.39,15.39,0,0,1,1.24,2.31c.81,1.75,1.47,3.12,2.44,3.12.63,0,1.4-.66,3.58-2.71s5.76-5.4,7.64-5.4c1.27,0,1.4.33,1.4,1.15a5.48,5.48,0,0,1-.86,2.17,17.87,17.87,0,0,0-2.31,7.82l1.25-.46A16.54,16.54,0,0,1,200,35.19a6.24,6.24,0,0,0,1-2.74,2.53,2.53,0,0,0-.45-1.59,2.6,2.6,0,0,0-2.17-.79c-2.35,0-5.74,3.19-8.47,5.75"/><path class="cls-45" d="M161.17,29.94c.78,1.83,2.05,1.9,5.08,1.9l3.66-.12-.06-1.23-3.6.13c-3.23,0-3.54-.16-4-1.17Z"/><path class="cls-46" d="M118.14,38.18c-2.15,0-8.94,5.32-14.06,10.85-.23.25-.45.48-.66.73-.54.62-1.11,1.27-1.67,2,.47.08,1,.14,1.42.2l1.15-1.34c.43-.47.86-.94,1.3-1.39,5.21-5.46,11.12-9.72,12.55-9.76.73,0,1.22.19,1.24.51v.13c0,1.45-1.93,2.71-3.62,3.84l-1.29.87-.06,0c-2.14,1.54-3.16,2.29-3.16,3.69a3.13,3.13,0,0,0,0,.59,2,2,0,0,0,.73,1.16,2.09,2.09,0,0,1,.63.93h1.24a3,3,0,0,0-1-1.8c-.22-.23-.36-.36-.38-.5-.18-1,.17-1.31,2.62-3.08l.06-.05,1.25-.84c2-1.35,4.35-2.87,4.16-5.09-.06-.77-.73-1.63-2.37-1.63l-.12,0"/><path class="cls-47" d="M112.7,51.17a1.16,1.16,0,0,1,0,.28v.08a3.2,3.2,0,0,1-.51,1.38l1.31.11a3.36,3.36,0,0,0,.41-1.69l0-.18H112.7Z"/><path class="cls-48" d="M121,8.41a10.07,10.07,0,0,0-.7,3.81c0,5.34,2.63,15.17,20.29,21.05l.22.08h0l1.35-.15c0-.73-.67-.92-1-1l-.18-.06c-16.93-5.64-19.47-14.89-19.47-19.89a8.46,8.46,0,0,1,.65-3.43c1.68-3.91,6.24-4.4,8.45-4.4,18.64,0,28,19.39,30.46,25.32l.1.24,1.12-.48-.08-.21C159.7,23.14,150,3.17,130.63,3.17c-4.86,0-8.24,1.9-9.64,5.24"/><path class="cls-49" d="M113.4,1.34c.46.06.82.13,1.1.19-2.4,4.27-6.63,11.77-6.84,12.12l0,.08-.16,0-.27,0a60.62,60.62,0,0,0-8.8-.81c-5.59,0-13.57,2.17-22,6.82L77,20.77c8.22-4.55,16-6.67,21.43-6.67a60.66,60.66,0,0,1,8.62.79l.28,0a1.53,1.53,0,0,0,.82-.06,1.31,1.31,0,0,0,.62-.58c.27-.46,6.79-12,7.06-12.51a.92.92,0,0,0,.08-.76.78.78,0,0,0-.54-.5,9.93,9.93,0,0,0-1.92-.4V1.34Z"/><path class="cls-50" d="M57.16,22.31C80.06,5.66,102,1.21,111.31,1.21a12.58,12.58,0,0,1,2.1.13V.11a14.32,14.32,0,0,0-2.1-.11c-9.48,0-31.7,4.49-54.86,21.33A132.2,132.2,0,0,0,40.35,35l1.23.48A131,131,0,0,1,57.16,22.31"/></g></g></svg>