<svg xmlns="http://www.w3.org/2000/svg" viewBox="0 0 216.7 149.85"><defs><style>.cls-1{fill:#bfa161;}.cls-1,.cls-2{fill-rule:evenodd;}.cls-2{fill:#1f1917;}</style></defs><g id="Layer_2" data-name="Layer 2"><g id="Layer_1-2" data-name="Layer 1"><path class="cls-1" d="M121.6,63.68a9.08,9.08,0,0,1-8.39.93,4.47,4.47,0,0,1-1.33-.93c-.53-.67-14.79-16-14.79-16h0a12,12,0,0,0,11.73-4.92,10.66,10.66,0,0,0,0-12c-2.8-3.86-8.26-5.06-12.92-4.53-8,1.07-13.72,7.86-15.45,14.92-1.87,8.12-.54,15.71,2.39,22.91a21.57,21.57,0,0,0,2.67,4.39A36.91,36.91,0,0,1,65.8,49.82a34.85,34.85,0,0,1,.93-30.63c4-7.32,11.19-14.12,20-16.91,9.19-3.6,21.71-2.93,30.76,2,10.92,5.2,19.18,18.12,19.32,29.7A36.1,36.1,0,0,1,121.6,63.68"/><path class="cls-1" d="M91,68.2c-4.13-4.26-7.33-9.72-4.93-15.31A49.39,49.39,0,0,0,91.1,39c.4,5.19,3.73,9.85,5.33,14.91a12,12,0,0,1-.27,7.46,20.19,20.19,0,0,1-4.93,7.19Z"/><path class="cls-2" d="M39.42,149.32l-4.26.26-.13-.13v-1.07H34.9a4.92,4.92,0,0,1-1.6,1.07,5.2,5.2,0,0,1-4,0,5.19,5.19,0,0,1-1.73-1.2,5.71,5.71,0,0,1-1.2-1.86A6.62,6.62,0,0,1,26,144a6.4,6.4,0,0,1,.4-2.27,5.71,5.71,0,0,1,1.2-1.86,4.61,4.61,0,0,1,1.86-1.2,6.4,6.4,0,0,1,2.27-.4,7.82,7.82,0,0,1,1.73.14,4.66,4.66,0,0,1,1.47.53v-3.86c0-.27,0-.67-.14-.8a1,1,0,0,0-.53-.54,2,2,0,0,0-.93-.26c-.4,0-.8-.14-1.33-.14v-.66l4.92-.27.14.13v14.92a1,1,0,0,0,.13.67c.13.13.27.4.53.4a1,1,0,0,0,.67.13h.8v.67Zm177.28,0-4.26.26-.14-.13v-1.07h-.13a4.82,4.82,0,0,1-1.6,1.07,5.18,5.18,0,0,1-4,0,5.09,5.09,0,0,1-1.73-1.2,5.4,5.4,0,0,1-1.2-1.86,6.42,6.42,0,0,1-.4-2.4,6.19,6.19,0,0,1,.4-2.27,5.4,5.4,0,0,1,1.2-1.86,4.54,4.54,0,0,1,1.86-1.2,6.35,6.35,0,0,1,2.26-.4,7.86,7.86,0,0,1,1.74.14,4.6,4.6,0,0,1,1.46.53v-3.86c0-.27,0-.67-.13-.8a1.09,1.09,0,0,0-.54-.54,1.93,1.93,0,0,0-.93-.26c-.4,0-.8-.14-1.33-.14v-.66l4.93-.27.13.13v14.92a1,1,0,0,0,.13.67c.14.13.27.4.54.4a1,1,0,0,0,.66.13h.8Zm-15.32-2.4a6.13,6.13,0,0,1-2,2.13,5.36,5.36,0,0,1-2.93.8,5.08,5.08,0,0,1-2.53-.53,4.72,4.72,0,0,1-1.86-1.34,5.25,5.25,0,0,1-1.07-1.86,6.39,6.39,0,0,1-.4-2.26,6.23,6.23,0,0,1,.4-2.14,8.68,8.68,0,0,1,1.07-1.86,8.46,8.46,0,0,1,1.73-1.33,6.34,6.34,0,0,1,2.4-.53,5.64,5.64,0,0,1,2.26.4,4.65,4.65,0,0,1,1.6,1.06,3.13,3.13,0,0,1,.8,1.47,7.93,7.93,0,0,1,.27,1.86v.8H193a9.81,9.81,0,0,0,.27,2,8.6,8.6,0,0,0,.66,1.6,4.69,4.69,0,0,0,1.2,1.06,4.21,4.21,0,0,0,1.87.4,2.8,2.8,0,0,0,1.86-.53,5.13,5.13,0,0,0,1.6-1.73Zm-83.77-5.2h-.8a3,3,0,0,0-1.07-1.86,3,3,0,0,0-2.13-.8,2.81,2.81,0,0,0-1.6.4,1.22,1.22,0,0,0-.53,1.07c0,.4,0,.66.13.8a1.11,1.11,0,0,0,.54.53,7.34,7.34,0,0,0,.93.4c.4.13.8.26,1.33.4s1.07.4,1.6.53a4.92,4.92,0,0,1,1.2.67,1.79,1.79,0,0,1,.8.93,4,4,0,0,1,.26,1.33,2.89,2.89,0,0,1-1.33,2.53,5.18,5.18,0,0,1-3.33.93,5.29,5.29,0,0,1-2-.4,6.29,6.29,0,0,1-1.33-.66l-.27.66h-.93l-.13-3.86h.8a5,5,0,0,0,.4,1.07,6.36,6.36,0,0,0,.8,1.06,2.59,2.59,0,0,0,1.2.8,3.22,3.22,0,0,0,3.33-.13,1.67,1.67,0,0,0,.66-1.33,1.77,1.77,0,0,0-.27-.8c-.13-.27-.39-.4-.53-.67a8.6,8.6,0,0,0-1.06-.4c-.4-.13-.8-.27-1.34-.4s-.79-.26-1.33-.4a2.64,2.64,0,0,1-1.2-.66,3.2,3.2,0,0,1-.93-.94,2.3,2.3,0,0,1-.4-1.33,2.83,2.83,0,0,1,1.07-2.26,4.28,4.28,0,0,1,2.93-.93,5.55,5.55,0,0,1,1.46.13,5.89,5.89,0,0,1,1.2.4L116,138h.93Zm-10.39,5.2a6.22,6.22,0,0,1-2,2.13,5.41,5.41,0,0,1-2.93.8,5.05,5.05,0,0,1-2.53-.53A4.82,4.82,0,0,1,97.89,148a5.08,5.08,0,0,1-1.06-1.86,6.17,6.17,0,0,1-.4-2.26,6,6,0,0,1,.4-2.14,8.25,8.25,0,0,1,1.06-1.86,8.81,8.81,0,0,1,1.74-1.33A6.24,6.24,0,0,1,102,138a5.69,5.69,0,0,1,2.27.4,4.75,4.75,0,0,1,1.6,1.06,3.11,3.11,0,0,1,.79,1.47,7.43,7.43,0,0,1,.27,1.86v.8H98.83a10.54,10.54,0,0,0,.26,2,8.66,8.66,0,0,0,.67,1.6,4.69,4.69,0,0,0,1.2,1.06,4.19,4.19,0,0,0,1.86.4,2.84,2.84,0,0,0,1.87-.53,5.12,5.12,0,0,0,1.59-1.73Zm-42.36-5.2h-.8A2.92,2.92,0,0,0,63,139.86a3,3,0,0,0-2.13-.8,2.81,2.81,0,0,0-1.6.4,1.22,1.22,0,0,0-.53,1.07c0,.4,0,.66.13.8a1.09,1.09,0,0,0,.53.53,8.88,8.88,0,0,0,.93.4c.4.13.8.26,1.34.4s1.06.4,1.59.53a4.56,4.56,0,0,1,1.2.67,1.75,1.75,0,0,1,.8.93,3.78,3.78,0,0,1,.27,1.33,2.89,2.89,0,0,1-1.33,2.53,5.18,5.18,0,0,1-3.33.93,5.29,5.29,0,0,1-2-.4,6.05,6.05,0,0,1-1.33-.66l-.27.66h-.93l-.13-3.86H57a7.89,7.89,0,0,1,.4,1.07,7.68,7.68,0,0,0,.8,1.06,2.69,2.69,0,0,0,1.2.8,2.66,2.66,0,0,0,1.47.4,2.59,2.59,0,0,0,1.86-.53,1.65,1.65,0,0,0,.67-1.33,1,1,0,0,0-.27-.8c-.13-.27-.4-.4-.66-.67a9.5,9.5,0,0,0-1.07-.4c-.4-.13-.8-.27-1.33-.4s-.8-.26-1.33-.4a2.53,2.53,0,0,1-1.2-.66,3.09,3.09,0,0,1-.93-.94,2.23,2.23,0,0,1-.4-1.33,2.85,2.85,0,0,1,1.06-2.26A4.28,4.28,0,0,1,60.2,138a5.67,5.67,0,0,1,1.47.13,6.36,6.36,0,0,1,1.2.4l.26-.53h.93ZM50.08,148l-.67.67a2.53,2.53,0,0,1-.8.53,1.73,1.73,0,0,1-1.06.4,4.36,4.36,0,0,1-1.47.14,3.32,3.32,0,0,1-2.53-.94,4.35,4.35,0,0,1-.8-2.79v-5.33a1,1,0,0,0-.13-.67c-.13-.13-.27-.4-.53-.53a.82.82,0,0,0-.53-.13c-.27,0-.4-.14-.67-.14v-.66l4.13-.27.13.14v7.72a2.57,2.57,0,0,0,.53,1.86,2.16,2.16,0,0,0,1.47.67,3.78,3.78,0,0,0,1.2-.13,8,8,0,0,0,.93-.4,1.05,1.05,0,0,0,.53-.53c.14-.14.27-.4.4-.54v-6.26a1.21,1.21,0,0,0-.13-.66,2.06,2.06,0,0,0-.53-.54,1,1,0,0,0-.67-.13H48v-.67l4.39-.26.14.13v8.79a1,1,0,0,0,.13.67,2.07,2.07,0,0,0,.53.4c.14.13.27.13.54.13h.66v.67l-4,.26-.14-.13L50.08,148Zm21.71-9.45h3.46v1.06H71.79v7.33a1.81,1.81,0,0,0,.27.8,1,1,0,0,0,.53.53,2.61,2.61,0,0,0,1.06.13h.94a5,5,0,0,0,.8-.13v.8a9.61,9.61,0,0,1-1.47.53,6.47,6.47,0,0,1-1.73.27,2.88,2.88,0,0,1-2.13-.67,2.74,2.74,0,0,1-.67-2v-7.46H67.13v-1.07h2.26V135.2h2.27v3.33Zm113.08,0h3.46v1.06H185v7.33a1.81,1.81,0,0,0,.27.8,1,1,0,0,0,.53.53,2.64,2.64,0,0,0,1.06.13h.94a5,5,0,0,0,.8-.13v.8a9.61,9.61,0,0,1-1.47.53,6.4,6.4,0,0,1-1.73.27,2.88,2.88,0,0,1-2.13-.67,2.74,2.74,0,0,1-.67-2v-7.46h-2.26v-1.07h2.26V135.2h2.27ZM16.52,149.58h-6v-.8h.53c.27,0,.4,0,.54-.13s.4-.13.53-.4a1,1,0,0,0,.13-.66v-6.8a1,1,0,0,0-.13-.66,1.07,1.07,0,0,0-.53-.54.84.84,0,0,0-.54-.13c-.26,0-.39-.13-.66-.13v-.67l4-.26.14.13v1.6h0a4.73,4.73,0,0,1,.8-.67c.26-.27.53-.4.8-.67a8.74,8.74,0,0,1,1.06-.39,4.77,4.77,0,0,1,1.47-.14,3.45,3.45,0,0,1,2.66.93,4.26,4.26,0,0,1,.8,2.67v5.73a1,1,0,0,0,.13.66,1.93,1.93,0,0,0,.54.4.8.8,0,0,0,.53.13.76.76,0,0,1,.53.14v.8h-6v-.8h.66c.27,0,.4,0,.54-.14s.4-.13.53-.4a1,1,0,0,0,.13-.66V142a2.86,2.86,0,0,0-.66-1.86,2.16,2.16,0,0,0-1.47-.67,3.78,3.78,0,0,0-1.2.13,8,8,0,0,0-.93.4,3,3,0,0,0-.67.54c-.13.13-.26.4-.4.53v6.39a1.16,1.16,0,0,0,.14.67,1.91,1.91,0,0,0,.53.4.81.81,0,0,0,.53.13,1.24,1.24,0,0,1,.67.13v.8Zm139.58,0h-5.86v-.8h.53c.27,0,.4,0,.53-.13s.4-.13.54-.4a1,1,0,0,0,.13-.66v-6.93a1.24,1.24,0,0,0-.13-.67c-.14-.13-.27-.4-.54-.53s-.4-.13-.53-.27a6.15,6.15,0,0,1-.67-.13v-.66l4.13-.27.14.13v1.6h.13c.27-.13.4-.4.8-.67s.53-.4.8-.66a8.6,8.6,0,0,1,1.06-.4,5.16,5.16,0,0,1,1.47-.13,3.22,3.22,0,0,1,2,.53,3.74,3.74,0,0,1,1.19,1.33,3.89,3.89,0,0,1,.8-.67c.27-.13.54-.4.94-.66a7.44,7.44,0,0,1,1.06-.53,4.77,4.77,0,0,1,1.47-.14,2.85,2.85,0,0,1,2.39.93,4.37,4.37,0,0,1,.94,2.8v5.6a1,1,0,0,0,.13.66,1.87,1.87,0,0,0,.53.4.84.84,0,0,0,.54.13,1.36,1.36,0,0,1,.66.14v.8h-6v-.8h.53a.76.76,0,0,0,.53-.14c.27,0,.4-.13.54-.4a1,1,0,0,0,.13-.66v-5.73a2.8,2.8,0,0,0-.53-1.86,2.16,2.16,0,0,0-1.47-.67,3.78,3.78,0,0,0-1.2.13,2.2,2.2,0,0,0-.93.54c-.27.13-.4.4-.53.53s-.27.4-.4.53v6.4a1,1,0,0,0,.13.66,1.87,1.87,0,0,0,.53.4.84.84,0,0,0,.54.13,1.36,1.36,0,0,1,.66.14v.8H158v-.8h.54a.78.78,0,0,0,.53-.14c.26,0,.4-.13.53-.4a1,1,0,0,0,.13-.66v-5.73a2.8,2.8,0,0,0-.53-1.86,2.14,2.14,0,0,0-1.46-.67,3.78,3.78,0,0,0-1.2.13,2.14,2.14,0,0,0-.93.54c-.27.13-.4.4-.67.53s-.27.4-.4.4v6.39a1,1,0,0,0,.13.67,2.15,2.15,0,0,0,.54.4.81.81,0,0,0,.53.13,1.45,1.45,0,0,1,.66.13Zm-8,0h-5.86v-.8h.53c.27,0,.4,0,.53-.13s.4-.13.53-.4.14-.4.14-.66v-6.8a1.13,1.13,0,0,0-.14-.66,1.91,1.91,0,0,0-.53-.54c-.13-.13-.4-.13-.66-.26s-.54-.14-.8-.14v-.66l4.26-.27.13.14v9a1,1,0,0,0,.13.67,2.15,2.15,0,0,0,.54.4.81.81,0,0,0,.53.13c.13,0,.4.13.53.13v.8Zm-64.33,0h-6.4v-.8h.54c.26,0,.4,0,.53-.13s.4-.13.53-.4a1,1,0,0,0,.13-.66v-6.8a1.21,1.21,0,0,0-.13-.66,1.07,1.07,0,0,0-.53-.54.81.81,0,0,0-.53-.13c-.27,0-.4-.13-.67-.13v-.67l4-.26.13.13v1.6h0a4,4,0,0,1,1.73-1.34,5.26,5.26,0,0,1,1.73-.53,2.3,2.3,0,0,1,1.33.4,1.69,1.69,0,0,1,.54,1.2,3.24,3.24,0,0,1-.27,1.07,1.23,1.23,0,0,1-.93.4,2.59,2.59,0,0,1-1.07-.27c-.26-.27-.4-.4-.4-.67V140a.48.48,0,0,1,.14-.4,3.12,3.12,0,0,0-1.34.4,3.87,3.87,0,0,0-1.33,1.2v6.4a1,1,0,0,0,.13.66,1.93,1.93,0,0,0,.54.4,1.71,1.71,0,0,0,.8.13c.26,0,.66,0,.8.14ZM8,149.58H.13v-.8a2.69,2.69,0,0,0,.94-.13c.4,0,.66-.13.93-.13s.53-.27.53-.4a1,1,0,0,0,.13-.67V136a1,1,0,0,0-.13-.67,1.51,1.51,0,0,0-.67-.4,8.16,8.16,0,0,0-.93-.26,2.46,2.46,0,0,0-.93-.14v-.8H7.86v.67a2.64,2.64,0,0,0-.93.13c-.4,0-.67.14-.94.14a2.6,2.6,0,0,0-.66.4,1.12,1.12,0,0,0-.14.66v11.46a1.13,1.13,0,0,0,.14.66c.13.13.26.4.66.4a5,5,0,0,0,.8.13,2.49,2.49,0,0,0,.93.14v1.06Zm171,0h-5.86v-.8h.53c.27,0,.4,0,.53-.13s.4-.13.53-.4.14-.4.14-.66v-6.8a1.13,1.13,0,0,0-.14-.66,1.91,1.91,0,0,0-.53-.54c-.13-.13-.4-.13-.66-.26s-.54-.14-.8-.14v-.66l4.26-.27.13.14v9a1,1,0,0,0,.13.67,2.15,2.15,0,0,0,.54.4.81.81,0,0,0,.53.13c.13,0,.4.13.53.13Zm-84.85,0H88.3v-.8h.54c.26,0,.4,0,.53-.13s.4-.13.53-.4.14-.4.14-.66v-6.8a1.13,1.13,0,0,0-.14-.66,1.91,1.91,0,0,0-.53-.54c-.13-.13-.4-.13-.67-.26s-.53-.14-.8-.14v-.66l4.27-.27.13.14v9a1,1,0,0,0,.13.67,2.15,2.15,0,0,0,.54.4.81.81,0,0,0,.53.13c.13,0,.4.13.53.13Zm46.09,0H126.53v-.8a2,2,0,0,0,.8-.13,5,5,0,0,0,.8-.13,2.07,2.07,0,0,0,.53-.4,1,1,0,0,0,.13-.67V136.13a1,1,0,0,0-.13-.67,2.2,2.2,0,0,0-.53-.53c-.14-.13-.4-.13-.8-.26a2.25,2.25,0,0,0-.8-.14v-.8H134v.67a2.64,2.64,0,0,0-.93.13,2.25,2.25,0,0,1-.8.14c-.27.13-.54.26-.54.4a1.19,1.19,0,0,0-.13.66v10.66a3,3,0,0,0,.13,1.2.74.74,0,0,0,.4.66,1.5,1.5,0,0,0,.8.27h2.53a2.2,2.2,0,0,0,.94-.14c.26,0,.53-.13.79-.13s.4-.13.54-.27a9.57,9.57,0,0,0,1.2-1.59,7.31,7.31,0,0,0,.93-1.74h.93ZM34.9,147.32v-6.53a2.32,2.32,0,0,0-.27-.66c-.13-.27-.4-.4-.53-.67s-.54-.4-.8-.4a2.69,2.69,0,0,0-1.07-.13,2.23,2.23,0,0,0-1.33.4,3.54,3.54,0,0,0-1.07.93,4.48,4.48,0,0,0-.66,1.6A10.49,10.49,0,0,0,28.9,144c0,.66.14,1.2.14,1.73a7,7,0,0,0,.66,1.47,4.15,4.15,0,0,0,1.07,1.06,3.38,3.38,0,0,0,3.19,0A6.31,6.31,0,0,0,34.9,147.32Zm177.4,0v-6.53a2.23,2.23,0,0,0-.26-.66c-.14-.27-.4-.4-.54-.67s-.53-.4-.79-.4a2.69,2.69,0,0,0-1.07-.13,2.23,2.23,0,0,0-1.33.4,3.54,3.54,0,0,0-1.07.93,4.48,4.48,0,0,0-.66,1.6,9.83,9.83,0,0,0-.27,2.13,6.47,6.47,0,0,0,.27,1.73,7.57,7.57,0,0,0,.66,1.47,4.15,4.15,0,0,0,1.07,1.06,3.38,3.38,0,0,0,3.19,0,4.37,4.37,0,0,1,.8-.93Zm-107.88-4.66a4.59,4.59,0,0,0-.13-1.33,6.59,6.59,0,0,0-.4-1.2,1.21,1.21,0,0,0-.8-.8,2,2,0,0,0-1.33-.27,2.66,2.66,0,0,0-2.13.93,4.27,4.27,0,0,0-.94,2.67Zm94.17,0a4.28,4.28,0,0,0-.14-1.33,5.33,5.33,0,0,0-.4-1.2,1.19,1.19,0,0,0-.8-.8c-.26-.27-.8-.27-1.33-.27a2.5,2.5,0,0,0-2.13.93,4.32,4.32,0,0,0-.93,2.67ZM146.51,134a1.56,1.56,0,0,1-.4,1.07,1.73,1.73,0,0,1-1.2.53,1.38,1.38,0,0,1-1.47-1.47,1.38,1.38,0,0,1,1.47-1.46,1.85,1.85,0,0,1,1.2.4,1.22,1.22,0,0,1,.4.93Zm31,0a1.22,1.22,0,0,1-.53,1.07,1.73,1.73,0,0,1-1.2.53,1.38,1.38,0,0,1-1.47-1.47,1.38,1.38,0,0,1,1.47-1.46,1.85,1.85,0,0,1,1.2.4,1.35,1.35,0,0,1,.53.93ZM92.7,134a1.51,1.51,0,0,1-.4,1.07,1.73,1.73,0,0,1-1.2.53,1.38,1.38,0,0,1-1.46-1.47,1.38,1.38,0,0,1,1.46-1.46,1.85,1.85,0,0,1,1.2.4,1.18,1.18,0,0,1,.4.93Zm85.64-17.71a12.44,12.44,0,0,1-9.59-3.87c-2.26-2.53-3.46-6-3.46-10.39a14.38,14.38,0,0,1,.93-5.32,17.8,17.8,0,0,1,2.66-4.53,11.24,11.24,0,0,1,4.27-3.06,12.57,12.57,0,0,1,5.46-1.2,11,11,0,0,1,6.66,1.86A5.88,5.88,0,0,1,187.8,95a4.56,4.56,0,0,1-.67,2.39,2.5,2.5,0,0,1-2.26,1.07,4.26,4.26,0,0,1-2.67-.8,2.34,2.34,0,0,1-.93-1.87,9,9,0,0,1,.4-2.53,6.53,6.53,0,0,0,.4-1.86,2.41,2.41,0,0,0-1.47-1.07,11.81,11.81,0,0,0-2.13-.26,6.32,6.32,0,0,0-2.66.53,8,8,0,0,0-2.4,2,10.89,10.89,0,0,0-1.73,3.73,21.85,21.85,0,0,0-.67,5.46,13.5,13.5,0,0,0,2.4,8.26,7.3,7.3,0,0,0,6.13,3.19,7.71,7.71,0,0,0,4.66-1.33,12.4,12.4,0,0,0,3.46-3.86l1.87,1.2a13.84,13.84,0,0,1-4.93,5.06,11.25,11.25,0,0,1-6.26,2ZM65.13,109.23a14.34,14.34,0,0,1-4.66,5.06,11.88,11.88,0,0,1-6.79,1.86,14.16,14.16,0,0,1-6-1.2,12.53,12.53,0,0,1-4.26-3.06,16.58,16.58,0,0,1-2.53-4.53,18.74,18.74,0,0,1-.8-5.46,16.19,16.19,0,0,1,.8-5.06,13.59,13.59,0,0,1,2.53-4.53,11.52,11.52,0,0,1,4-3.06,12.13,12.13,0,0,1,5.46-1.2A13.21,13.21,0,0,1,58.2,89a10.36,10.36,0,0,1,3.6,2.53,12.19,12.19,0,0,1,2,3.6,16.13,16.13,0,0,1,.66,4.53v1.86H45.82a18.3,18.3,0,0,0,.53,4.8A10.78,10.78,0,0,0,48.08,110,9.08,9.08,0,0,0,51,112.56a8.83,8.83,0,0,0,4.26.93,8.92,8.92,0,0,0,4.4-1.07,12.52,12.52,0,0,0,3.59-4.13Zm151.57,0a14.34,14.34,0,0,1-4.66,5.06,11.89,11.89,0,0,1-6.8,1.86,14.14,14.14,0,0,1-6-1.2,12.53,12.53,0,0,1-4.26-3.06,16.32,16.32,0,0,1-2.53-4.53,18.74,18.74,0,0,1-.8-5.46,13.24,13.24,0,0,1,.93-5.06,13.76,13.76,0,0,1,2.53-4.53,11.52,11.52,0,0,1,4-3.06,12,12,0,0,1,5.33-1.2,13.21,13.21,0,0,1,5.32.93,10.36,10.36,0,0,1,3.6,2.53,12.19,12.19,0,0,1,2,3.6,16.13,16.13,0,0,1,.66,4.53v1.86H197.39a18.3,18.3,0,0,0,.53,4.8,10.78,10.78,0,0,0,1.73,3.73,9.08,9.08,0,0,0,2.93,2.53,8.8,8.8,0,0,0,4.26.93,8.92,8.92,0,0,0,4.4-1.07,12.52,12.52,0,0,0,3.59-4.13ZM118,112.16a12,12,0,0,1-9.06,4,7.53,7.53,0,0,1-5.2-1.86,6.15,6.15,0,0,1-2-4.8,8.73,8.73,0,0,1,.4-2.79,7.78,7.78,0,0,1,1.33-2.27,7,7,0,0,1,1.86-1.46c.8-.4,1.47-.8,2.13-1.07s2.53-.93,5.2-1.73a29.26,29.26,0,0,0,5.33-2V95.51a5.77,5.77,0,0,0-.14-1.33,4.41,4.41,0,0,0-.66-1.87,6.68,6.68,0,0,0-1.6-1.73,4.81,4.81,0,0,0-2.93-.8,6.42,6.42,0,0,0-2.4.4,3,3,0,0,0-1.6.93,10.18,10.18,0,0,0,.27,1.6,10.56,10.56,0,0,1,.27,2,2.1,2.1,0,0,1-.94,1.73,3.83,3.83,0,0,1-2.53.8,2.5,2.5,0,0,1-2.13-.93,4,4,0,0,1-.66-2.13,3.64,3.64,0,0,1,.93-2.4,8.58,8.58,0,0,1,2.39-2,13.39,13.39,0,0,1,3.07-1.33,11.21,11.21,0,0,1,3.59-.53,36.7,36.7,0,0,1,4.13.26,8.71,8.71,0,0,1,3.2,1.33,7.34,7.34,0,0,1,2.26,2.67,10.66,10.66,0,0,1,.8,4.39c0,2.67,0,4.93-.13,6.93s-.13,4.13-.13,6.53a3.68,3.68,0,0,0,.4,1.73,3,3,0,0,0,1.2,1.06,3.16,3.16,0,0,0,1.33.27h1.86v1.73c-.93.27-1.73.53-2.4.8a11.86,11.86,0,0,1-2.26.27,7.11,7.11,0,0,1-3.6-.94,4.38,4.38,0,0,1-1.73-2.93H118Zm-20,3.33H84.58v-1.73c.39,0,.93-.14,1.33-.14a4,4,0,0,0,1.2-.26,1.94,1.94,0,0,0,1.19-.8,2.83,2.83,0,0,0,.4-1.6V94.58a3.48,3.48,0,0,0-.4-1.6,2.56,2.56,0,0,0-1.19-1.2,4.42,4.42,0,0,0-1.6-.53A9.91,9.91,0,0,0,83.64,91V89.25l9.86-.53.4.4v21.7a2.81,2.81,0,0,0,.4,1.6,2.86,2.86,0,0,0,1.2.94l1.2.4c.39.13.79.13,1.33.26Zm-80.85,0H.13v-1.87c.4,0,1.07-.13,2-.13a14.24,14.24,0,0,0,1.87-.4A2.31,2.31,0,0,0,5.19,112a3.28,3.28,0,0,0,.4-1.73V82.46a7,7,0,0,0-.26-1.74c-.14-.53-.67-.8-1.33-1.06s-1.07-.27-1.87-.4a14.3,14.3,0,0,0-2-.27V77.13H18.78a18.18,18.18,0,0,1,4.79.53,21.68,21.68,0,0,1,4.13,1.6,8,8,0,0,1,2.8,2.8,8.35,8.35,0,0,1,1.07,4.26,12.49,12.49,0,0,1-.67,4,7.93,7.93,0,0,1-2.13,2.93,10.21,10.21,0,0,1-3.06,2,28.6,28.6,0,0,1-4,1.47c2,2.53,3.6,4.66,4.93,6.39s2.93,3.86,4.79,6.26a13.38,13.38,0,0,0,2.27,2.4,8.11,8.11,0,0,0,2,1.2,6.42,6.42,0,0,0,1.87.53c.8.13,1.33.13,1.86.27v1.86H28.5C26.11,112,24,109,22,106.3s-4-5.33-6.4-8.13H11.45v12.26a7,7,0,0,0,.27,1.73,2.2,2.2,0,0,0,1.33,1.06,10.26,10.26,0,0,0,1.73.4,12.4,12.4,0,0,0,2.14.14v1.73Zm63.93,0H67.79v-1.73c.4,0,.94-.14,1.34-.14s.93-.13,1.19-.13a1.89,1.89,0,0,0,1.2-.8,2.81,2.81,0,0,0,.4-1.6l-.4-28.63a15.71,15.71,0,0,0-.26-1.87c-.14-.27-.14-.53-.27-.67l-.27-.26c-.53-.4.14.13-.26-.27s.13-.13-.8-.26-2.27.26-2.93.13V77.39l9.85-.53.54.4v33.43a2.38,2.38,0,0,0,.4,1.47,2.87,2.87,0,0,0,1.19.93l1.2.4a4.23,4.23,0,0,0,1.34.13Zm63.53,0H130.93v-1.73c.39,0,.93-.14,1.33-.14a2.74,2.74,0,0,0,1.2-.26,1.94,1.94,0,0,0,1.19-.8,2.83,2.83,0,0,0,.4-1.6V94.44a3.65,3.65,0,0,0-.4-1.73,3.74,3.74,0,0,0-1.19-1.33,3.84,3.84,0,0,0-1.34-.53c-.53-.14-1.06-.14-1.59-.27V88.85l9.32-.67.4.4v3.73h.13c.4-.4,1.07-.93,1.73-1.6a9.75,9.75,0,0,1,2-1.46,11.39,11.39,0,0,1,2.53-1.07,12.24,12.24,0,0,1,3.33-.4q4,0,6,2.4a9.62,9.62,0,0,1,2,6.39v14a2.91,2.91,0,0,0,.4,1.6,3,3,0,0,0,1.2.93l1.2.4a3.81,3.81,0,0,0,1.33.13v1.73H148.37v-1.73c.4,0,.94-.13,1.47-.13a3.78,3.78,0,0,0,1.33-.27,2,2,0,0,0,1.2-.8,2.89,2.89,0,0,0,.4-1.6V97a6.42,6.42,0,0,0-1.47-4.39,4.46,4.46,0,0,0-3.46-1.6,8.76,8.76,0,0,0-2.8.4,12.38,12.38,0,0,0-2.26,1.06,4.67,4.67,0,0,0-1.47,1.34,4.75,4.75,0,0,0-.8,1.2v15.45a2.43,2.43,0,0,0,.4,1.46,2.89,2.89,0,0,0,1.2.93,13.63,13.63,0,0,0,1.33.4,5.28,5.28,0,0,0,1.47.14Zm-26.5-14.79c-1.6.4-3.06.93-4.26,1.33a13,13,0,0,0-3.33,1.6,8.81,8.81,0,0,0-2.27,2.13,5.56,5.56,0,0,0-.8,3.07,4.25,4.25,0,0,0,1.2,3.33,4.9,4.9,0,0,0,3.2,1.06,6.59,6.59,0,0,0,3.6-.93A8.53,8.53,0,0,0,118,110ZM58.87,99a29,29,0,0,0-.27-3.33,12.74,12.74,0,0,0-.8-2.93,5.38,5.38,0,0,0-1.86-2,5.08,5.08,0,0,0-2.93-.8,6.11,6.11,0,0,0-4.93,2.4C46.75,93.91,46.08,96,46,99Zm151.57,0a29,29,0,0,0-.27-3.33,12.74,12.74,0,0,0-.8-2.93,6.3,6.3,0,0,0-1.73-2,5.08,5.08,0,0,0-2.93-.8,6.12,6.12,0,0,0-4.93,2.4c-1.33,1.6-2,3.73-2.13,6.66ZM16.38,79.13H11.59V95.77h3.73a9.15,9.15,0,0,0,6.52-2.39,8.44,8.44,0,0,0,2.67-6.53,7.33,7.33,0,0,0-2.13-5.59,8.07,8.07,0,0,0-6-2.13Zm78.05-.94a4,4,0,0,1-1.06,2.67,3.36,3.36,0,0,1-2.67,1.2A3.89,3.89,0,0,1,88.17,81a3.55,3.55,0,0,1,0-5.06,3.16,3.16,0,0,1,2.53-1.07,3.72,3.72,0,0,1,2.67,1.07A2.51,2.51,0,0,1,94.43,78.19Z"/></g></g></svg>