<svg xmlns="http://www.w3.org/2000/svg" viewBox="0 0 390.97 103.32"><defs><style>.cls-1{fill:#4885c5;}.cls-2{fill:#010101;}</style></defs><g id="Layer_2" data-name="Layer 2"><g id="Layer_1-2" data-name="Layer 1"><path class="cls-1" d="M227.7,11.53l22.56,8.86-22.56,8.4v12l38.58-15.6V15.6L227.7,0Z"/><path class="cls-2" d="M20.82,56.13C10,56.13,2.12,60.92,1.4,71h12v-.25a6.11,6.11,0,0,1,6.7-5.47c4.53,0,6.69,2.63,6.69,7.21v2.16H21.32C9.58,74.66,0,78.26,0,89.54V90c0,9.12,6.7,13.19,14.88,13.19a14.68,14.68,0,0,0,12.46-6v5.3H39.55V72.28c-.25-11.49-8.14-16.06-18.69-16.06ZM18.15,94.24c-4.33,0-6.24-2.16-6.24-5.3v-.46c0-4.07,3.14-5.77,9.37-5.77h5V87c.25,4.83-3.82,7.2-8.18,7.2Zm50.11-.46c-6,0-9.12-4.07-9.12-13.19V79.15c0-8.86,3.6-13.18,9.12-13.18,4.32,0,6.69,2.88,7.42,7.2h12c-1-11.74-9.58-17-19.67-17-12,0-21.58,8.14-21.58,23.45V80c0,15.35,9.12,23,21.58,23,12.21,0,19.16-7.42,20.14-17.51H76.65c-.93,5.09-4.07,8.19-8.39,8.23Zm46.76,0c-6,0-9.12-4.07-9.12-13.19V79.15C105.9,70.29,109.51,66,115,66c4.32,0,6.7,2.88,7.42,7.2h12c-1-11.74-9.58-17-19.67-17-12,0-21.58,8.14-21.58,23.45V80c0,15.35,9.12,23,21.58,23,12.21,0,19.17-7.42,19.93-17.51H123.41c-.68,5.09-4,8.19-8.39,8.23Zm47.23.21c-5.47,0-8.86-3.14-9.37-11.28h29.25v-5.3c0-14.88-9.37-21.32-20.6-21.32-12.21,0-21.58,8.39-21.58,23.44v1c0,15.09,8.86,22.76,21.83,22.76,11.74,0,18.95-6.48,20.14-15.09H170.17A7,7,0,0,1,162.25,94Zm-.72-29.25c5,0,8.13,2.88,8.39,9.58H153.13C154.11,67.15,157.71,65,161.53,64.74Z"/><path class="cls-1" d="M153.13,74.36h0Z"/><path class="cls-2" d="M216.21,56.13a14.45,14.45,0,0,0-13.65,7.67V57.11H190.1v45.06h12.46V73.39a7.73,7.73,0,0,1,7.93-7.21c4.54,0,6.7,2.42,6.7,7.67v28.28h12.72V71.9c0-11-5.51-15.77-13.7-15.77Zm37.14,31.63V66.43H262V57.06h-8.65V43.41l-12.46,5.3v8.4h-5.47v9.37h5.3V89.24c0,9.12,4.54,13.65,14.37,13.65a24.85,24.85,0,0,0,7.21-1V92a13.51,13.51,0,0,1-4.33.72c-2.88,0-4.53-1.7-4.53-5Zm43.42-2.63v1.19a7.72,7.72,0,0,1-7.93,7.2c-4.54,0-6.49-2.41-6.49-7.67V57.06H269.63V87.5c0,10.56,6,15.6,14.16,15.6A14.08,14.08,0,0,0,297,95.43v6.7H309.7v-45H297Zm34.5-19.93V56.81H318.81v45.07h12.46V78.6c0-7.42,5.05-10.09,13.66-10.09V56.05c-6.19,0-11.71,3.64-13.66,9.15Zm59.7,12c0-14.88-9.37-21.11-20.61-21.11-12.21,0-21.58,8.4-21.58,23.45v1c0,15.09,8.86,22.77,21.84,22.77,11.74,0,18.69-6.49,20.13-15.1H379a8,8,0,0,1-8.39,6c-5.47,0-8.86-3.14-9.37-11.28H390.5V77.16Zm-29.26-2.88c1-7.42,4.54-9.58,8.65-9.58,5.05,0,8.14,2.88,8.4,9.58Z"/></g></g></svg>