<svg xmlns="http://www.w3.org/2000/svg" viewBox="0 0 450.44 96.85"><defs><style>.cls-1{fill:#a4ce4e;}.cls-2{fill:#1992d1;}.cls-3{fill:#0466a6;}.cls-4{fill:#010101;}</style></defs><g id="Layer_2" data-name="Layer 2"><g id="Layer_1-2" data-name="Layer 1"><path class="cls-1" d="M99.91,0a23.06,23.06,0,0,0-6.85,1.53C80.76,5.77,69.77,12.89,59.73,23.11l-7,8.24,2.7,3.88c4.64,6.53,9.46,17.56,11.71,26.89a57.72,57.72,0,0,1,2.16,14.14c.05.95.09,1.89.09,3s0,2.2,0,3.46c0,6.63.13,14.15-.54,14.15h33L103.78,95c1.17-1.67,1.35-7.57,1.35-46.9,0-40.67-.13-45.13-1.39-46.57A5,5,0,0,0,99.91,0Z"/><path class="cls-2" d="M5.41,0A5.17,5.17,0,0,0,1.53,1.35C.05,2.71,0,5.27,0,47.93,0,87.39.18,93.29,1.35,95L2.7,96.85H35.49c25.32,0,32.93-.23,33.47-1.08.36-.59.63-6.49.54-13.07-.09-10-.45-13.46-2.34-20.58-4-15.59-11.71-29.64-22.7-40.14C34.86,12.89,23.87,5.63,12.07,1.53A23.76,23.76,0,0,0,5.41,0Z"/><path class="cls-3" d="M52.75,31.35l-2.08,2.53C47,38.43,40.22,53.43,38,62.12c-1.84,7.12-2.25,10.58-2.3,20.63,0,6.62-.18,14.1.5,14.1H68.92c.67,0,.63-7.57.54-14.15-.09-10-.59-13.42-2.34-20.58C64.86,52.79,60,41.76,55.4,35.23l-2.65-3.88Z"/><path class="cls-4" d="M396.3,15.41A18.71,18.71,0,0,0,384,19.87c-3.83,3.38-5.23,6.12-5.95,11.66L377.47,36h-6.62V47.12h6.84V63.7c0,9.09.23,16.84.54,17.16s3.38.58,6.85.58h6.26V47.12h10.27V36H391.34V33.11c0-4.19,3.16-6.89,7.43-6.4a23.73,23.73,0,0,1,4.64,1c1,.45,2.08-.46,4.06-3.52l2.7-4.14-1.94-1.44c-2.29-1.67-8-3.25-11.93-3.2Zm-40.14,0c-6.66.36-10,10.45-3.42,14.06,3.33,1.8,5.67,1.53,8.6-1,2.12-1.8,2.66-2.88,2.66-5.58a7,7,0,0,0-5.68-7.3A12,12,0,0,0,356.16,15.45ZM200.81,17l-6.94.22-6.94.23-7.65,14.14C175,39.42,171.35,46,171,46.35S166.8,40.23,162.34,32L154.23,17l-6.85.22-6.84.23-1,21.89c-.54,12-1.22,26.4-1.54,31.94l-.54,10.09h13.47l.54-11c.32-6,.63-14.23.68-18.24.18-13.83.27-13.83,8-.09l6.8,12.12h7.16l6.72-12.66,6.66-12.66.63,15c.36,8.24.86,17.79,1.13,21.22l.5,6.21h13.55l0-4c0-2.25-.59-15.45-1.26-29.37s-1.26-26.58-1.26-28.11l.09-2.79Zm100.8,0V48.7c0,17.38.23,31.84.54,32.16s9.73.58,21,.58h20.36v-12H316.12V17.07Zm-35.9,6.81v12l-3.64.22-3.65.27V46.67l3.65.27,3.64.27.05,11.31c0,15,1.53,19.23,7.93,22.38,4.41,2.21,13.47,1.8,18.56-.76L296.48,78l-2.57-4.18-2.57-4.19L287.65,71c-3.47,1.26-3.92,1.21-6-.14-2.25-1.48-2.25-1.53-2.25-12.61V47h11.12V35.86h-11l-.27-5.81L279,24.24,272.38,24l-6.67-.13Zm-33.37,11C223.06,35,215.72,39.69,212,48c-2.57,5.73-2.48,16.13.22,21.94a22.1,22.1,0,0,0,12,11c7.61,2.7,21,1.17,27.12-3.06l2.34-1.62L251.08,72l-2.57-4.19-4.42,2.07c-4.73,2.21-10.81,2.75-14.68,1.26-2.88-1.08-6.44-5-6.44-7,0-1.49,1-1.62,15.81-1.62h15.81V58.43c0-14.06-9-23.61-22.25-23.52Zm.13,10.41a9.44,9.44,0,0,1,6.85,2.56c1.35,1.4,2.52,3.29,2.52,4.28,0,1.72-.45,1.76-9.41,1.76-6,0-9.42-.31-9.42-.9,0-2,2.57-5.68,4.69-6.67a13.67,13.67,0,0,1,4.77-1ZM428.32,35c-13.33,0-22.16,8.2-23.1,21.48-.77,11,3.24,18.83,11.89,23.2,5.18,2.61,5.81,2.75,13.56,2.43,6.8-.27,9-.72,13-2.7,2.71-1.31,4.87-2.7,4.87-3A26.36,26.36,0,0,0,446,71.71l-2.53-4-3.06,1.81c-4.05,2.43-12.84,3.15-16.31,1.35a11.1,11.1,0,0,1-5.85-6.44l-.59-1.94h32.75L449.85,58c-2-15.67-8.87-23-21.53-23Zm-.67,10.4c3,0,4.37.5,6.3,2.34A12.89,12.89,0,0,1,437,52c.54,1.94.49,1.94-9.42,1.94s-10,0-9.41-1.94a12.93,12.93,0,0,1,3.06-4.28,8,8,0,0,1,6.4-2.34ZM363.14,35.9l-6.62.23-6.62.22-.22,21.44c-.14,11.81-.05,21.94.18,22.53.27.76,2.43,1.08,6.84,1.08h6.44V35.9Z"/></g></g></svg>