<svg xmlns="http://www.w3.org/2000/svg" viewBox="0 0 181.17 150.77"><defs><style>.cls-1{fill:#0f3a97;}.cls-2{fill:#fff;}.cls-3{fill:#f7410a;}.cls-4{fill:#ee293d;}</style></defs><g id="Layer_2" data-name="Layer 2"><g id="Layer_1-2" data-name="Layer 1"><path class="cls-1" d="M166.05,75.39c0,41.35-34.06,75.38-75.46,75.38s-75.45-34-75.45-75.38A75.26,75.26,0,0,1,90.59,0c40.6,0,75.46,34,75.46,75.39"/><path class="cls-2" d="M105.8,118.16c32.24,13.26,26.66-20.26,9.47-45.92-9.74-14.53-22.44-26.65-30.45-32.5-26.57-19.39-43-7.63-24.21,30.61,6.07,12.36,13.87,20.72,19.94,28.58,4.65,6,13.7,9,10.5,11.87-3.6,3.22-12.3-11-12.3-11A170.87,170.87,0,0,1,59.89,72.48C45.46,46.57,47.55,20.11,73.64,31.63,95.81,41.41,117,68.85,125.48,88.34c3.93,9,14.65,44.61-19.48,30.2"/><path class="cls-3" d="M0,120.36c14.19-9.45,27.64-15.56,50.51-23.12,32.16-10.62,56.36-17.77,86.05-32.68,13.3-6.69,36.36-21.66,44.61-34.69-2.47,5-10.12,14.85-13.57,19.19C127.32,99.53,41.48,96.66.56,120.88"/><path class="cls-2" d="M25.91,68.32c13,.11,11.7,0,11.86.13.22,0,10.36,17.46,10.36,17.6s-.07-6.21-.07-14.06c0-.91-2.49-3.54-2.42-3.54,3.71,0,8.54.07,8.54.07C52.37,70.63,52,70.46,52,71.77c0,4.2-.09,12,0,20.71,0,1.31,1,1.82,2.58,4.09H42.68c-3.85-6.43-10.92-18.48-10.9-18.44s-.15,7.56.07,13.61c.07,2,1,2.65,2.65,4.45,0,0,1.91,0-9.3.07,3.4-1.81,2.94-4.08,2.94-4.16-.12-8.36,0-15.5,0-20.09,0-.77-.06-.68-2.4-3.56M66.5,81.22c1.09-3.78,2-7.16,2.47-9.38.08-.38-.83-1.74-2.27-3.1l-.11-.22,14.17,0c1.89,4.62,6.2,17.54,9.45,25.48a4,4,0,0,0,2.35,2.49c-5.91-.08-16.85,0-16.79-.08,2.94-2.65,2.58-2.65,1.29-6.5H67.83c-1.89,4.38.58,6.43.91,6.43-2.11.11-9.23,0-9.23,0,3.85-2.72,3.63-3.56,3.63-3.56,1.07-3.74,2.29-7.87,3.36-11.61h3.78l-1.63,5.21H76L71.9,76l-1.64,5.22H66.5m63.41.38c1.09-3.78,2-7.16,2.46-9.38.07-.38-.84-1.74-2.27-3.1L130,68.9l14.17,0c1.89,4.62,6.19,17.54,9.45,25.48A4,4,0,0,0,156,96.92c-5.9-.08-16.84,0-16.79-.08,3-2.65,2.58-2.65,1.29-6.5h-9.23c-1.89,4.38.58,6.43.91,6.43-2.09.11-9.23,0-9.23,0,3.85-2.72,3.63-3.56,3.63-3.56,1.08-3.74,2.29-7.87,3.38-11.61h3.78l-1.61,5.22h7.34l-4.09-10.43s-.82,2.59-1.62,5.21h-3.8M118,75.4c-.15-5.37,0-7.1,0-7.1-2.35,1.89-1.17,1.65-7,.67-16.91-2.8-18.2,13-9,16.56,7.72,3,10.47,3.56,9.3,6.34-.38.9-7.41,4.23-14.68-2.49l.15,9.37a35.44,35.44,0,0,1,3.4-2.65c.07,0,7.86,3.43,14.89-.15,10.82-5.52,5.42-14.44-6.12-18-9.61-3-.53-9.83,9-2.49M89.65,14.3a.62.62,0,0,1-.62.62.62.62,0,0,1-.62-.62.63.63,0,0,1,.62-.62.67.67,0,0,1,.62.62m4.25,9.32a.76.76,0,1,1-.76-.76.76.76,0,0,1,.76.76M105,38.83a.77.77,0,0,1-.77.76.78.78,0,0,1-.76-.76.73.73,0,0,1,.73-.76.79.79,0,0,1,.8.76m-17.79-10a.61.61,0,0,1-.62.62.62.62,0,0,1-.62-.62.63.63,0,0,1,.62-.61.62.62,0,0,1,.62.61m6.63,3.51a.61.61,0,0,1-.62.62.62.62,0,0,1-.62-.62.63.63,0,0,1,.62-.62.62.62,0,0,1,.62.62M85.2,22.57a.77.77,0,1,1-.77-.77.79.79,0,0,1,.77.77m-10,6.1a.62.62,0,0,1-.62.62.61.61,0,0,1-.62-.62.62.62,0,0,1,.62-.62.64.64,0,0,1,.62.62M77,29.89a.62.62,0,0,1-.62.62.62.62,0,0,1-.62-.62.61.61,0,0,1,.64-.58.63.63,0,0,1,.6.58m1.8,1.23a.62.62,0,0,1-.62.62.61.61,0,0,1-.62-.62.62.62,0,0,1,.62-.61.61.61,0,0,1,.62.61M76,33.49a.62.62,0,0,1-1.23,0,.62.62,0,0,1,.61-.62.61.61,0,0,1,.62.62m-14.28,10a.62.62,0,1,1-1.23,0,.61.61,0,0,1,.61-.62.62.62,0,0,1,.62.62m2.65,3.21a.62.62,0,1,1-.61-.61.61.61,0,0,1,.61.61m-2.1,51.86a.62.62,0,0,1-.62.62.61.61,0,0,1-.62-.62.62.62,0,0,1,.62-.62.64.64,0,0,1,.62.62m.38,14.32a.77.77,0,1,1-.77-.76.77.77,0,0,1,.77.76m-8.14,7.32a.62.62,0,0,1-.62.62.61.61,0,0,1-.62-.62.62.62,0,0,1,.62-.62.63.63,0,0,1,.62.62m-9.74,3a.77.77,0,1,1-.76-.76.75.75,0,0,1,.76.76m-2-6.61a.77.77,0,0,1-.77.76.77.77,0,1,1,.77-.76m-1.13,4.19a.62.62,0,1,1-1.23,0,.62.62,0,0,1,1.23,0m-7.28-3.48a.61.61,0,0,1-.62.61.61.61,0,0,1-.62-.61.62.62,0,0,1,.62-.62.63.63,0,0,1,.62.62M59.83,129.1a.59.59,0,0,1-.58.61.62.62,0,1,1,0-1.23.61.61,0,0,1,.6.62m7.67-5.62a.73.73,0,0,1-.73.76.78.78,0,0,1-.78-.76.76.76,0,1,1,1.51,0m.87,7.22a.64.64,0,0,1-.63.61.61.61,0,0,1-.62-.61.62.62,0,0,1,.62-.62.65.65,0,0,1,.63.62m31.49-6.89a.62.62,0,1,1-1.23,0,.61.61,0,0,1,.61-.62.62.62,0,0,1,.62.62M85.2,129a.61.61,0,0,1-.62.61A.61.61,0,0,1,84,129a.63.63,0,0,1,.62-.62.61.61,0,0,1,.62.62m39.43,7.46a.62.62,0,0,1-.62.62.61.61,0,0,1-.62-.62.62.62,0,0,1,.62-.61.61.61,0,0,1,.62.61m3.21-29a.76.76,0,1,1-.76-.76.75.75,0,0,1,.76.76m-6,4.11a.61.61,0,0,1-.62.61.62.62,0,0,1-.61-.61.62.62,0,1,1,1.23,0m6,1.18a.76.76,0,1,1-.76-.77.77.77,0,0,1,.76.77m-6,7.32a.62.62,0,1,1-1.23,0,.62.62,0,1,1,1.23,0m15.43-16.73a.62.62,0,0,1-.62.61.62.62,0,1,1,0-1.23.65.65,0,0,1,.62.62m1.49,3.74a.73.73,0,0,1-.73.76.77.77,0,1,1,.73-.76m10.61,4.43a.77.77,0,1,1-.76-.76.78.78,0,0,1,.76.76m-10.79,7.89a.61.61,0,0,1-.62.61.62.62,0,1,1,0-1.23.63.63,0,0,1,.62.62m6.81-6.42a.61.61,0,0,1-.62.62.62.62,0,0,1-.62-.62.63.63,0,0,1,.62-.61.61.61,0,0,1,.62.61m-1.25,9.92a.62.62,0,0,1-.62.62.61.61,0,0,1-.62-.62.62.62,0,0,1,.62-.61.61.61,0,0,1,.62.61M147,106.37a1,1,0,0,1-.95.94.95.95,0,0,1,0-1.89,1,1,0,0,1,.95,1"/><path class="cls-2" d="M92.94,65.25l-.27,2.6-2.58.29,2.59.27L93,71.1l.3-2.69,2.54-.33-2.58-.23-.29-2.6M87.27,84.56a.95.95,0,1,1-1-.94,1,1,0,0,1,1,.94"/><path class="cls-2" d="M124.92,110.51l-.29,2.6-2.58.29,2.59.29.3,2.69.29-2.69,2.54-.33-2.58-.24-.27-2.61M55.31,35.36a.95.95,0,1,1-1-1,.93.93,0,0,1,1,1"/><path class="cls-2" d="M74,82.93l-.29,2.6-2.58.29,2.6.27L74,88.78l.29-2.69,2.56-.33-2.58-.23L74,82.93m36.12-20a1,1,0,0,1-.94.94.94.94,0,1,1,0-1.88,1,1,0,0,1,.94.94"/><path class="cls-2" d="M111,15.46l-.28,2.6-2.58.29,2.6.29.28,2.69.29-2.69,2.54-.32-2.58-.24L111,15.46M69.19,134.37a.95.95,0,0,1-1.89,0,1,1,0,0,1,1-1,.94.94,0,0,1,.94,1"/><path class="cls-2" d="M90.59,72.46l-.29,2.6-2.58.29,2.6.29.29,2.69.29-2.69,2.57-.33-2.58-.23-.3-2.62"/><path class="cls-3" d="M170.94,8.09c-11.5,34.12-57.58,60.46-96.35,85.61C51.18,108.89,28,126.35,12,141.22c-4.21,3.92.86-1.48-.76.18,22.31-25.69,48-41,62.18-50.64,24-16.3,37.63-20.41,79-58.53"/><path class="cls-4" d="M84.53,49.75c-4.13,2-7.84,4-11,6l1.91.69a84.61,84.61,0,0,1,9.52-5m21.35,36.54c-3.93,3.44-7.8,6.93-11.59,10.51L94.56,101a169.72,169.72,0,0,1,13.06-11.9"/><path class="cls-2" d="M94.46,116.78c32.24,13.26,26.66-20.26,9.47-45.92a137.54,137.54,0,0,0-30.45-32.5c-10.16-7.51-11.16-8.13-11.16-8.13C85,41,105.64,67.46,114.14,86.94c3.93,9,14.65,44.61-19.48,30.2"/></g></g></svg>