<svg xmlns="http://www.w3.org/2000/svg" xmlns:xlink="http://www.w3.org/1999/xlink" viewBox="0 0 436.24 150.9"><defs><style>.cls-1{fill:none;}.cls-2{fill:#0a57a4;}.cls-3{fill:#fff;}.cls-4{fill:#3db2e5;}.cls-5{clip-path:url(#clip-path);}.cls-6{fill:url(#radial-gradient);}.cls-7{clip-path:url(#clip-path-2);}.cls-8{fill:url(#radial-gradient-2);}.cls-9{clip-path:url(#clip-path-3);}.cls-10{fill:url(#radial-gradient-3);}.cls-11{clip-path:url(#clip-path-4);}.cls-12{fill:url(#radial-gradient-4);}.cls-13{clip-path:url(#clip-path-5);}.cls-14{fill:url(#radial-gradient-5);}.cls-15{clip-path:url(#clip-path-6);}.cls-16{fill:url(#radial-gradient-6);}.cls-17{clip-path:url(#clip-path-7);}.cls-18{fill:url(#radial-gradient-7);}.cls-19{clip-path:url(#clip-path-8);}.cls-20{fill:url(#radial-gradient-8);}.cls-21{fill:url(#linear-gradient);}</style><clipPath id="clip-path" transform="translate(0 0)"><path class="cls-1" d="M108.82,20.39a108.13,108.13,0,0,1,6.34,17.81A107.46,107.46,0,0,1,130.41,50,86.29,86.29,0,0,0,121,33.78h0A83.76,83.76,0,0,0,108.82,20.39Z"/></clipPath><radialGradient id="radial-gradient" cx="-625.73" cy="-1828.08" r="3.7" gradientTransform="translate(23871.03 69347.6) scale(37.93)" gradientUnits="userSpaceOnUse"><stop offset="0" stop-color="#3db2e5"/><stop offset="0.17" stop-color="#3db2e5"/><stop offset="0.24" stop-color="#33a1d9"/><stop offset="0.41" stop-color="#1d79bc"/><stop offset="0.54" stop-color="#0f60ab"/><stop offset="0.63" stop-color="#0a57a4"/><stop offset="0.75" stop-color="#11498c"/><stop offset="0.96" stop-color="#1e2d5b"/><stop offset="1" stop-color="#1e2d5b"/></radialGradient><clipPath id="clip-path-2" transform="translate(0 0)"><path class="cls-1" d="M124.61,60.81c6.24,11.77,10.15,23.41,11.63,33.84A82.9,82.9,0,0,0,130.4,50a61.59,61.59,0,0,1-5.79,10.83"/></clipPath><radialGradient id="radial-gradient-2" cx="-625.73" cy="-1828.08" r="3.68" gradientTransform="translate(23870.8 69347.47) scale(37.93)" xlink:href="#radial-gradient"/><clipPath id="clip-path-3" transform="translate(0 0)"><path class="cls-1" d="M67.36,1C76.61,5.67,87,13.18,96.45,22.65a82.54,82.54,0,0,1,12.37-2.26A83.13,83.13,0,0,0,67.36,1Z"/></clipPath><radialGradient id="radial-gradient-3" cx="-625.73" cy="-1828.08" r="3.69" gradientTransform="translate(23870.89 69347.45) scale(37.93)" xlink:href="#radial-gradient"/><clipPath id="clip-path-4" transform="translate(0 0)"><path class="cls-1" d="M14.07,112.47s21.34,4.65,51.51,8.17A379.65,379.65,0,0,0,72.42,70c-19.79-4.85-40.17-8-50.57-8.86-5.75,29.21-7.67,50.19-7.78,51.34"/></clipPath><radialGradient id="radial-gradient-4" cx="-625.72" cy="-1828.09" r="3.69" gradientTransform="translate(23870.65 69347.89) scale(37.93)" xlink:href="#radial-gradient"/><clipPath id="clip-path-5" transform="translate(0 0)"><path class="cls-1" d="M0,31,21.85,61.1h0c.22-.37,19-13.56,40-24.36A283.67,283.67,0,0,0,35.16,10.6C23.23,16.24,13.08,21.25,0,31"/></clipPath><radialGradient id="radial-gradient-5" cx="-625.72" cy="-1828.09" r="3.69" gradientTransform="translate(23870.53 69347.74) scale(37.93)" xlink:href="#radial-gradient"/><clipPath id="clip-path-6" transform="translate(0 0)"><path class="cls-1" d="M38.33,1.51c-1.13,2.93-2.14,6.07-3.2,9.09A284.64,284.64,0,0,1,71,18.88,129.46,129.46,0,0,0,67.36,1,85.43,85.43,0,0,0,54.19,0,82.74,82.74,0,0,0,38.33,1.51"/></clipPath><radialGradient id="radial-gradient-6" cx="-625.71" cy="-1828.08" r="3.69" gradientTransform="translate(23870.34 69347.32) scale(37.93)" xlink:href="#radial-gradient"/><clipPath id="clip-path-7" transform="translate(0 0)"><path class="cls-1" d="M65.58,120.64l22.27,30.29A188.46,188.46,0,0,0,117.33,123,262.08,262.08,0,0,0,100.74,89.8c-20.08,19.54-32.44,28.85-35.16,30.84"/></clipPath><radialGradient id="radial-gradient-7" cx="-625.73" cy="-1828.09" r="3.69" gradientTransform="translate(23870.78 69348.22) scale(37.93)" xlink:href="#radial-gradient"/><clipPath id="clip-path-8" transform="translate(0 0)"><path class="cls-1" d="M117.33,123c3.17-.08,5.22-.12,8.34-.32a95.39,95.39,0,0,0,10.57-28s-10.16-5.75-15.89-8.38a271.59,271.59,0,0,1-3,36.74"/></clipPath><radialGradient id="radial-gradient-8" cx="-625.73" cy="-1828.08" r="3.69" gradientTransform="translate(23870.89 69347.13) scale(37.93)" xlink:href="#radial-gradient"/><linearGradient id="linear-gradient" x1="163.24" y1="-2983.11" x2="436.24" y2="-2983.11" gradientTransform="matrix(1, 0, 0, -1, 0, -2900.75)" gradientUnits="userSpaceOnUse"><stop offset="0" stop-color="#3db2e5"/><stop offset="0.12" stop-color="#3db2e5"/><stop offset="0.15" stop-color="#33a1d9"/><stop offset="0.23" stop-color="#1d79bc"/><stop offset="0.29" stop-color="#0f60ab"/><stop offset="0.33" stop-color="#0a57a4"/><stop offset="0.56" stop-color="#11498c"/><stop offset="0.96" stop-color="#1e2d5b"/><stop offset="1" stop-color="#1e2d5b"/></linearGradient></defs><g id="Layer_2" data-name="Layer 2"><g id="Layer_1-2" data-name="Layer 1"><path class="cls-2" d="M117.41,48.84q-2.66-4.06-5.64-8.17c-2-2.72-4-5.44-6.07-8A171.58,171.58,0,0,0,88.79,25c-5.41,1.83-11,4.09-16.38,6.53.46,6,.67,12.14.68,18.33q4.81,6,9.43,12.24,4.86,6.62,9.26,13.27c5.77,1.82,11.43,3.81,16.82,5.9a175.29,175.29,0,0,0,11.14-13.57,173.49,173.49,0,0,0-2.33-18.88" transform="translate(0 0)"/><path class="cls-3" d="M35.13,10.6A283.77,283.77,0,0,1,61.81,36.74c3.41-1.75,7-3.55,10.55-5.17C72,27.32,71.58,23,71,18.88a284.45,284.45,0,0,0-35.89-8.27" transform="translate(0 0)"/><path class="cls-3" d="M61.83,36.73c-21.1,10.85-39.93,24.1-40,24.37,10.4.82,30.76,4,50.57,8.84.43-6.62.65-13.44.64-20-3.65-4.53-7.48-9-11.23-13.17" transform="translate(0 0)"/><path class="cls-3" d="M72.42,69.94a379.59,379.59,0,0,1-6.84,50.67c2.72-2,15.08-11.29,35.16-30.84-2.75-4.68-5.88-9.63-9-14.36-6.28-2-12.87-3.85-19.31-5.47" transform="translate(0 0)"/><path class="cls-3" d="M100.74,89.77A262.08,262.08,0,0,1,117.33,123a271.27,271.27,0,0,0,3-36.74c-3.7-1.69-7.8-3.41-11.79-5-2.57,2.85-5.19,5.79-7.82,8.46" transform="translate(0 0)"/><path class="cls-3" d="M108.82,20.39a81.29,81.29,0,0,0-12.37,2.26c3.07,3.08,6.29,6.57,9.23,10.07,3.14,1.68,6.48,3.57,9.48,5.48a108.57,108.57,0,0,0-6.34-17.82" transform="translate(0 0)"/><path class="cls-3" d="M136.24,94.65c-1.48-10.42-5.39-22.07-11.63-33.84-1.43,2.27-3.26,4.67-4.89,6.93.43,6.3.7,12.67.65,18.51,5.73,2.63,15.89,8.37,15.89,8.37" transform="translate(0 0)"/><path class="cls-3" d="M130.4,50A106.73,106.73,0,0,0,115.15,38.2c.9,3.39,1.59,7.19,2.22,10.64,2.56,3.94,5.17,8.09,7.23,12A61.15,61.15,0,0,0,130.39,50" transform="translate(0 0)"/><path class="cls-4" d="M73.07,49.9c0,6.6-.22,13.42-.65,20,6.44,1.63,13,3.49,19.31,5.47q-4.38-6.64-9.25-13.27-4.59-6.28-9.41-12.24" transform="translate(0 0)"/><path class="cls-4" d="M100.74,89.77c2.63-2.67,5.25-5.61,7.82-8.46-5.42-2.1-11.06-4.07-16.83-5.9,3.13,4.73,6.26,9.68,9,14.36" transform="translate(0 0)"/><path class="cls-4" d="M119.7,67.74c-3.39,4.62-7.19,9.18-11.14,13.57,4,1.56,8.09,3.27,11.79,5,.06-5.86-.22-12.23-.65-18.51" transform="translate(0 0)"/><path class="cls-4" d="M117.41,48.84a176.34,176.34,0,0,1,2.32,18.9c1.66-2.26,3.48-4.65,4.9-6.93-2.07-3.88-4.68-8-7.24-12" transform="translate(0 0)"/><path class="cls-4" d="M117.41,48.84c-.63-3.46-1.33-7.25-2.22-10.63-3-1.91-6.34-3.81-9.49-5.48,2.1,2.52,4.07,5.24,6.07,8s3.87,5.45,5.64,8.17" transform="translate(0 0)"/><path class="cls-4" d="M71,18.88c.54,4.1,1,8.43,1.35,12.69A175.27,175.27,0,0,1,88.77,25C82.86,22.69,76.71,20.62,71,18.88" transform="translate(0 0)"/><path class="cls-4" d="M61.83,36.73c3.75,4.18,7.58,8.64,11.23,13.17,0-6.19-.22-12.33-.68-18.33-3.54,1.64-7.14,3.42-10.55,5.16" transform="translate(0 0)"/><path class="cls-4" d="M96.45,22.65c-2.49.66-5.14,1.51-7.68,2.38a175,175,0,0,1,16.91,7.69c-2.94-3.49-6.16-7-9.23-10.07" transform="translate(0 0)"/><path class="cls-3" d="M71,18.88c5.68,1.73,11.83,3.81,17.74,6.15,2.54-.86,5.19-1.72,7.68-2.38C87,13.18,76.63,5.67,67.36,1A129.46,129.46,0,0,1,71,18.88" transform="translate(0 0)"/><g class="cls-5"><rect class="cls-6" x="108.82" y="20.39" width="21.57" height="29.59"/></g><g class="cls-7"><rect class="cls-8" x="124.61" y="49.98" width="13.73" height="44.67"/></g><g class="cls-9"><rect class="cls-10" x="67.36" y="1.02" width="41.47" height="21.63"/></g><g class="cls-11"><rect class="cls-12" x="14.07" y="61.1" width="58.35" height="59.51"/></g><g class="cls-13"><rect class="cls-14" y="10.6" width="61.83" height="50.49"/></g><g class="cls-15"><rect class="cls-16" x="35.13" width="35.89" height="18.88"/></g><g class="cls-17"><rect class="cls-18" x="65.58" y="89.77" width="51.74" height="61.13"/></g><g class="cls-19"><rect class="cls-20" x="117.33" y="86.27" width="18.92" height="36.73"/></g><path class="cls-4" d="M173.57,112.24a6.14,6.14,0,0,0-3.2-.87,6.07,6.07,0,0,0-.11,12.13,7.63,7.63,0,0,0,3.38-.76l.13,2.18a9.68,9.68,0,0,1-3.54.54c-4.9,0-8.16-3.15-8.16-8.08,0-4.77,3.47-7.95,8.2-7.95a8.49,8.49,0,0,1,3.48.66Z" transform="translate(0 0)"/><path class="cls-4" d="M180.34,113.59a5.59,5.59,0,0,1,5.75,5.93,5.76,5.76,0,1,1-11.52,0,5.6,5.6,0,0,1,5.78-5.94m0,10.17c2.44,0,3.53-2.21,3.53-4.23,0-2.18-1.31-4.25-3.53-4.25s-3.55,2.09-3.55,4.25,1.09,4.23,3.55,4.23" transform="translate(0 0)"/><path class="cls-4" d="M188,113.86h2v1.79H190a4.08,4.08,0,0,1,3.7-2.06c2.93,0,4.24,1.82,4.24,4.86v6.73h-2.08v-5.86c0-2.64-.58-3.93-2.4-4-2.38,0-3.44,1.9-3.44,4.66v5.24H188Z" transform="translate(0 0)"/><path class="cls-4" d="M200.86,113.86h2v1.79h0a4.06,4.06,0,0,1,3.71-2.06c2.94,0,4.24,1.82,4.24,4.86v6.73h-2.09v-5.86c0-2.64-.58-3.93-2.39-4-2.38,0-3.46,1.9-3.46,4.66v5.24h-2.08Z" transform="translate(0 0)"/><path class="cls-4" d="M222,124.72a8.78,8.78,0,0,1-3.57.73c-4,0-5.87-2.44-5.87-6.13,0-3.35,2.12-5.73,5.31-5.73,3.78,0,5,2.75,5,6.4h-8.09a3.71,3.71,0,0,0,3.64,3.77h.09a6.58,6.58,0,0,0,3.49-1.13Zm-1.35-6.26a2.86,2.86,0,0,0-2.83-3.15c-2,0-2.89,1.68-3,3.15Z" transform="translate(0 0)"/><path class="cls-4" d="M232.49,115.77a6.13,6.13,0,0,0-2.27-.49c-2.34,0-3.65,2.08-3.65,4.24s1.09,4.24,3.77,4.24a4.39,4.39,0,0,0,2.26-.64l.15,1.86a6.37,6.37,0,0,1-2.62.47,5.73,5.73,0,0,1-5.78-5.93,5.6,5.6,0,0,1,5.78-5.93,7.79,7.79,0,0,1,2.53.45Z" transform="translate(0 0)"/><path class="cls-4" d="M238.8,123.76a1.8,1.8,0,0,1-1.76-2v-6.19h3v-1.69h-3v-3.27l-2.07.67v10.93c0,2.26,1.32,3.26,3.48,3.26a6.2,6.2,0,0,0,1.76-.31v-1.78a2.43,2.43,0,0,1-1.41.39" transform="translate(0 0)"/><rect class="cls-4" x="242.22" y="113.86" width="2.08" height="11.32"/><path class="cls-4" d="M247,113.86h2v1.79h0a4.08,4.08,0,0,1,3.71-2.06c2.93,0,4.24,1.82,4.24,4.86v6.73H254.9v-5.86c0-2.64-.58-3.93-2.4-4-2.38,0-3.45,1.9-3.45,4.66v5.24H247Z" transform="translate(0 0)"/><path class="cls-4" d="M269.37,124.7c0,3.44-1.77,5.41-5.84,5.41a11.63,11.63,0,0,1-4-.76l.22-1.93a8.73,8.73,0,0,0,4.09,1c2.18,0,3.5-1.49,3.5-3.89v-1.08h0a4.76,4.76,0,0,1-3.81,1.75c-3.27,0-4.83-2.64-4.83-5.58s1.63-6,5.05-6c2,0,3.11.73,3.73,2h0V113.9h1.94Zm-2.09-5c0-2.36-1.09-4.36-3.31-4.36s-3.15,2.29-3.15,4.22c0,2.13,1.2,4,3.15,4s3.31-1.74,3.31-3.84" transform="translate(0 0)"/><path class="cls-4" d="M282.72,123.76a1.8,1.8,0,0,1-1.76-2v-6.19h3v-1.69h-3v-3.27l-2.08.67v10.93c0,2.26,1.33,3.26,3.49,3.26a6.33,6.33,0,0,0,1.77-.31v-1.78a2.48,2.48,0,0,1-1.42.39" transform="translate(0 0)"/><path class="cls-4" d="M286,108.53H288v7h0a4.16,4.16,0,0,1,3.64-1.89c2.94,0,4.23,1.82,4.23,4.86v6.74h-2.08v-5.87c0-2.64-.57-3.93-2.39-4-2.38,0-3.45,1.9-3.45,4.66v5.25H286Z" transform="translate(0 0)"/><path class="cls-4" d="M306.85,124.72a8.58,8.58,0,0,1-3.57.73c-4,0-5.87-2.44-5.87-6.13,0-3.35,2.11-5.73,5.32-5.73,3.77,0,5,2.75,5,6.4h-8.08a3.71,3.71,0,0,0,3.64,3.77h.1a6.66,6.66,0,0,0,3.48-1.13Zm-1.35-6.26a2.85,2.85,0,0,0-2.81-3.15c-2.05,0-2.89,1.68-3.05,3.15Z" transform="translate(0 0)"/><polygon class="cls-4" points="313.14 109.68 315.58 109.68 319.29 122.96 319.33 122.96 322.65 109.68 325.81 109.68 329.15 122.96 329.2 122.96 332.91 109.68 335.26 109.68 330.49 125.18 327.62 125.18 324.25 111.64 324.2 111.64 320.81 125.18 317.83 125.18 313.14 109.68"/><path class="cls-4" d="M340.68,113.59a5.58,5.58,0,0,1,5.75,5.93,5.76,5.76,0,1,1-11.52,0,5.59,5.59,0,0,1,5.77-5.93m0,10.17c2.44,0,3.53-2.22,3.53-4.24s-1.3-4.24-3.53-4.24-3.55,2.08-3.55,4.24,1.08,4.24,3.55,4.24" transform="translate(0 0)"/><path class="cls-4" d="M348.17,113.86h1.95v1.75h0a3.45,3.45,0,0,1,2.95-2,6.41,6.41,0,0,1,1.38.15v1.87a3.48,3.48,0,0,0-1.15-.2c-1.86,0-3.08,1.77-3.08,4.63v5.14h-2.09Z" transform="translate(0 0)"/><rect class="cls-4" x="356.29" y="108.53" width="2.08" height="16.65"/><path class="cls-4" d="M369,123.59h0a4.51,4.51,0,0,1-3.86,1.86c-3.42,0-4.9-3-4.9-6.13s1.64-5.73,4.9-5.73a4.06,4.06,0,0,1,3.76,1.82h0v-6.88H371v16.65h-2Zm-3.41.17c2.34,0,3.32-2.33,3.32-4.22,0-2.11-1.09-4.26-3.36-4.26s-3.14,2.13-3.1,4.2c0,1.77.89,4.28,3.14,4.28" transform="translate(0 0)"/><polygon class="cls-4" points="245.26 109.69 243.29 111.65 241.34 109.69 243.29 107.73 245.26 109.69"/><path class="cls-21" d="M230.32,70.88c-4.15,0-6.24,1.7-7.49,3.81h-.42V60.31h-4.29v34.5h4.29v-3.5a9.21,9.21,0,0,0,7.91,3.93c7.13,0,10-6.41,10-12.65s-3.27-11.71-10-11.71m-1.23,20.9c-4.6,0-6.68-4.6-6.68-8.77s2.08-8.71,7.08-8.71c4.58,0,6.29,4.55,6.29,8.71,0,3.77-1.71,8.77-6.69,8.77M412.34,65l-4.16,1.24V88.4c0,4.78,2.53,6.87,7.08,6.87,1.25,0,2.48-.43,3.34-.43V90.93a3.61,3.61,0,0,1-2.51.86c-2.06,0-3.76-1.25-3.76-4.19V75.09h6.27V71.28h-6.26Zm13.88,12.2c0-1.64,2.09-2.87,4.25-2.87A15.07,15.07,0,0,1,435,75.52l.41-3.81a21.54,21.54,0,0,0-5.35-.83c-4.63,0-8.53,2.56-8.53,7.08,0,6.7,10.14,6.27,10.14,10.4,0,2.54-2.09,3.39-4.15,3.39a10.82,10.82,0,0,1-5.6-1.68V94c1.69,1.26,4.31,1.26,6.4,1.26,4.2,0,7.93-2.09,7.93-7.27,0-7.47-10-6.22-10-10.84m-216.85,5c0,5.79-2.06,9.58-7.07,9.58-3.88-.45-5.14-2.93-5.14-8.35V71.3H193V85.08c0,6.23,3,10.16,8.9,10.16,3.3,0,6.29-1.26,7.52-4.36v3.91h4.15V71.3h-4.15ZM354,70.88a9.71,9.71,0,0,0-7.92,3.81V71.33h-4.19v33.08h4.18V91.34c1.28,2.67,3.77,3.93,7.92,3.93,7.22,0,10.16-6.42,10.16-12.65S360.78,70.91,354,70.91m-.85,20.87c-5,0-7.07-4.6-7.07-8.77s2.51-8.71,7.07-8.71c4.74,0,6.4,4.55,6.4,8.71,0,3.75-2,8.77-6.4,8.77M253,70.88A15.53,15.53,0,0,0,245,73l.44,3.72a11.93,11.93,0,0,1,6.63-2.46c4.22,0,5.87,2.06,5.87,6.23h-4.61c-4.53,0-11,1.69-11,7.47,0,5.18,3.48,7.27,8.88,7.27a9.09,9.09,0,0,0,7.13-3.48v3h3.7V80.5c0-6.23-2.48-9.62-9.15-9.62m5,14.62c0,3.75-2.48,6.26-6.7,6.26-1.66,0-4.1-1.25-4.1-3.81,0-4.13,5.78-4.56,7.89-4.56.85,0,2.09.43,2.91.43ZM172.39,62.87h-9.15V94.81h9.15c10.56,0,16.82-5.56,16.82-16.39,0-9.76-7.48-15.55-16.82-15.55m0,27.64h-5V67h5.4c6.85,0,11.81,4.28,11.81,11.8,0,7.94-4.14,11.69-12.23,11.69m94.51,4.3h4.57V71.3h-4.56ZM378.71,70.88c-7,0-12.06,5.05-12.06,12.11a12,12,0,1,0,23.93,0c0-7.08-5-12.11-11.87-12.11m0,20.9c-5,0-7.47-4.6-7.47-8.77s2.92-8.71,7.47-8.71c4.36,0,7.26,4.55,7.26,8.71s-2.09,8.77-7.26,8.77m-61.09,3h4.12V71.3h-4.12Zm13.73-19.74V71.28H327.6V94.79h4.17V84.24c0-5.82,2.49-9.57,6.4-9.57h1.24V70.86h-1.67a7.53,7.53,0,0,0-6.39,4.21m65.82,0V71.26h-3.72V94.77h4.14V84.24c0-5.82,2.55-9.57,6.43-9.57h1.25V70.86h-1.68a7.39,7.39,0,0,0-6.42,4.21m-99.71-12.2L284.39,94.81H289l3.46-8H307l2.87,8h5.23L302,62.87ZM293.65,83l5.84-16,5.89,16Z" transform="translate(0 0)"/><polygon class="cls-4" points="320.06 66.16 316.53 62.62 320.06 59.08 323.6 62.62 320.06 66.16"/><polygon class="cls-4" points="269.09 66.16 265.54 62.62 269.09 59.08 272.64 62.62 269.09 66.16"/></g></g></svg>