<svg xmlns="http://www.w3.org/2000/svg" viewBox="0 0 493.12 81.12"><defs><style>.cls-1{fill:#e21f26;fill-rule:evenodd;}</style></defs><g id="Layer_2" data-name="Layer 2"><g id="Layer_1-2" data-name="Layer 1"><path class="cls-1" d="M58.37,77C51.86,72.88,47,58.77,47,42V40.16h0C28.86,37.3,15.74,29.51,15.39,20.23h0l0,.1h0a29.6,29.6,0,0,0-7,18.7c0,20,22,36.41,49.83,37.89h0l.15,0ZM0,40.56C0,18.16,27.88,0,62.27,0s62.27,18.16,62.27,40.56S96.66,81.12,62.27,81.12,0,63,0,40.56ZM62.27,5.87c6.66,0,12.29,10.07,14.36,24.13h0c12.93-2,22-6.66,22-12,0-7.25-16.29-13.12-36.32-13.12S26,10.71,26,18c0,5.38,9,10,22,12h0C50,15.94,55.66,5.87,62.27,5.87Zm4,71.1c27.87-1.43,49.83-17.86,49.83-37.89a29.64,29.64,0,0,0-7-18.7h0l0-.1h0c-.34,9.23-13.47,17.07-31.62,19.93h0V42c0,16.78-4.84,30.89-11.35,35h0l.15,0ZM62.27,31c3,0,5.87-.15,8.63-.4h0c-1.38-9-4.73-15.34-8.63-15.34S55,21.66,53.63,30.64h0c2.77.25,5.68.4,8.64.4Zm0,33.35c5,0,9.08-10.41,9.28-23.44h0q-4.51.45-9.33.45T52.94,41H53c.2,13,4.3,23.44,9.28,23.44Z"/><path class="cls-1" d="M317.71,40.56a31,31,0,1,1,31,31,31,31,0,0,1-31-31Zm31,19.64c9.57,0,17.32-8.79,17.32-19.64s-7.75-19.64-17.32-19.64-17.32,8.78-17.32,19.64S339.13,60.2,348.7,60.2Z"/><polygon class="cls-1" points="414.87 22.5 414.87 70.16 401.84 70.16 401.84 22.5 401.84 22.5 383.58 22.5 383.58 11.69 433.07 11.69 433.07 22.5 414.92 22.5 414.87 22.5"/><path class="cls-1" d="M448.91,57h0l-5,13.17H428.63l24.13-58.47H469l24.08,58.47H477.88l-5-13.12H448.91v0Zm11.94-9.87h8.24L460.9,25.76h-.1l-8.14,21.41h8.19v-.05Z"/><polygon class="cls-1" points="174.13 22.5 174.13 70.16 161.05 70.16 161.05 22.5 161.1 22.5 142.84 22.5 142.84 11.69 192.34 11.69 192.34 22.5 174.18 22.5 174.13 22.5"/><path class="cls-1" d="M195.69,40.56a31,31,0,1,1,31,31,31,31,0,0,1-31-31Zm31,19.64c9.57,0,17.32-8.79,17.32-19.64s-7.75-19.64-17.32-19.64-17.32,8.78-17.32,19.64S217.1,60.2,226.68,60.2Z"/><polygon class="cls-1" points="287.71 70.16 294.32 70.16 294.32 48.21 294.32 47.96 317.12 11.69 301.82 11.69 287.71 36.27 273.55 11.69 258.25 11.69 281.05 47.96 281.05 48.21 281.05 70.16 287.71 70.16"/></g></g></svg>