<svg xmlns="http://www.w3.org/2000/svg" viewBox="0 0 153.52 153.52"><defs><style>.cls-1{fill:#214497;}.cls-2{fill:#fff;fill-rule:evenodd;}</style></defs><g id="Layer_2" data-name="Layer 2"><g id="Layer_1-2" data-name="Layer 1"><circle class="cls-1" cx="76.76" cy="76.76" r="76.76"/><path class="cls-2" d="M42.52,47.37c0,4.43,3.59,5.48,5.56,5.55a2.83,2.83,0,0,0,.77-.07c1.9-.14,5.06-1.82,4.57-6.32a4.57,4.57,0,0,0-4.29-4.29c-.35,0-.77-.07-1.12-.07C45.26,42.31,42.45,44.06,42.52,47.37Zm75.24,57.86a24.34,24.34,0,0,0,3.87-4.71A23.1,23.1,0,0,1,119,113.46a9.62,9.62,0,0,1-1.2,1.83c-4.21,5.62-13.28,7.87-21.23,7.8a40.46,40.46,0,0,1-11.77-1.68,23.33,23.33,0,0,1-4.08-1.83c-9.21-4.22-8.44-18.92-8.44-18.92s5.21,11.89,23.28,12.94A28,28,0,0,0,117.76,105.23Zm0-19.4a7.35,7.35,0,0,0,1.48-.14c1.9-.28,7.81-2.67,7.31-11.74-.42-8.86-5-11.32-8.79-11.39h-.21a7.05,7.05,0,0,0-3.65,1.12c-2.39,1.48-4.92,4.78-4.85,10.83.07,8.3,4.92,10.83,8.08,11.32Zm0-30.87c12.45.35,16.67,11.39,17.23,15.61.42,3,.49,12.73-5.69,18.49a16.25,16.25,0,0,1-11.54,4.29h-.35A16.82,16.82,0,0,1,105.11,88c-5.42-5.91-4.92-14.56-4.92-14.56A19.67,19.67,0,0,1,103,63.54c2.74-4.64,7.17-8.65,14.48-8.58Zm0-19.33a6.07,6.07,0,0,0,1.13-.07,17,17,0,0,1,15.47,8.93V50.6s-3.6-7.52-15.6-8.15h-1C106.51,42.24,102.15,50,102.15,50V44.91C103.91,41.53,107.43,36.12,117.76,35.63ZM23.89,56.3V47.44s-5.69-.77-8.44,6.19v29a15.22,15.22,0,0,0,2.25,5.84,10.71,10.71,0,0,0,9.21,4.78C36.05,93.53,37.6,89,36.76,84c0,0-10.13,5.63-12.59-2.81V63.93h9.14s4.15-.35,3.38-7.59Zm19.69-.21V83.76S44.35,92.69,51,93s8.72-2.74,8.86-7.45c0,0-3.31,1.19-5.42-.35a4.62,4.62,0,0,1-2.1-3.73V60.76s-1.41-5.06-8.72-4.71Zm50.76,9.84a.82.82,0,0,0,1.08-.42.58.58,0,0,0,0-.14c.21-1,.91-7.52-6.82-9.63-9-2.39-19.62.91-23.28,8.5a28.93,28.93,0,0,0-2.81,10.27c-.35,7,2.32,14.55,9.7,18.35,0,0,8.65,4.22,17.16,1.27,0,0,6.33-2.61,6.4-7.32s.7-11.46-3.38-11.53a48.82,48.82,0,0,0-5.41,0s1,7.81.63,8.79-2.6,3.87-9.35,1.76-7.59-10.55-6-16S80.75,62.24,85,62.59s9.28,3.3,9.28,3.3Z"/></g></g></svg>