<svg xmlns="http://www.w3.org/2000/svg" viewBox="0 0 390.2 60.87"><defs><style>.cls-1{fill:#cd2027;}.cls-2{fill:#fff;}</style></defs><g id="Layer_2" data-name="Layer 2"><g id="Layer_1-2" data-name="Layer 1"><path class="cls-1" d="M390.16,30.43A30.66,30.66,0,0,1,332,43.66a30.73,30.73,0,0,1-54.82.74,30.73,30.73,0,0,1-54.82-.74,30.72,30.72,0,0,1-54.81.74,30.73,30.73,0,0,1-54.82-.74,30.73,30.73,0,0,1-54.82.74A30.67,30.67,0,0,1,0,30.43a30.67,30.67,0,0,1,57.86-14,30.73,30.73,0,0,1,54.82.74,30.73,30.73,0,0,1,54.82-.74,30.72,30.72,0,0,1,54.81.74A30.72,30.72,0,0,1,249.9,0a31.22,31.22,0,0,1,9,1.33V18a16.23,16.23,0,0,0-8.35-3.28h-.62a15.69,15.69,0,1,0,15.68,15.68V4.29a30.51,30.51,0,0,1,11.51,12.18,30.73,30.73,0,0,1,54.82.74,30.66,30.66,0,0,1,58.21,13.22Z"/><path class="cls-1" d="M258.91,30.32a9.13,9.13,0,1,1-9.13-9.25A9.16,9.16,0,0,1,258.91,30.32Zm-56-5.27h-16a9.93,9.93,0,0,1,6.83-3.9h0a10.73,10.73,0,0,1,1.13-.08,5.33,5.33,0,0,1,1.14.08h0A10.22,10.22,0,0,1,203,25.05Z"/><path class="cls-1" d="M359.53,0A30.65,30.65,0,0,0,332,17.21a30.73,30.73,0,0,0-54.82-.74A30.79,30.79,0,0,0,265.62,4.29V30.43a15.69,15.69,0,1,1-15.68-15.68h.62A16.58,16.58,0,0,1,258.91,18V1.33a29.41,29.41,0,0,0-9-1.33,30.66,30.66,0,0,0-27.59,17.21,30.72,30.72,0,0,0-54.81-.74,30.76,30.76,0,0,0-54.86.74,30.73,30.73,0,0,0-54.82-.74,30.57,30.57,0,1,0-27.19,44.4A30.7,30.7,0,0,0,57.86,44.4a30.73,30.73,0,0,0,54.82-.74,30.76,30.76,0,0,0,54.85.74,30.73,30.73,0,0,0,54.82-.74,30.73,30.73,0,0,0,54.82.74A30.73,30.73,0,0,0,332,43.66,30.66,30.66,0,0,0,390.2,30.43,30.58,30.58,0,0,0,359.53,0Zm-329,46.28A15.69,15.69,0,1,1,46.23,30.59,15.69,15.69,0,0,1,30.55,46.28Zm54.86-.16a15.69,15.69,0,1,1,15.68-15.69A15.68,15.68,0,0,1,85.41,46.12ZM149,28.87a9.12,9.12,0,0,0-18.14,1.49V45.22h-6.4V30.43a15.68,15.68,0,0,1,31.29-1.52l-6.75,0Zm61.68,1.8H185.79a9.12,9.12,0,0,0,17.48,3.39h7a15.7,15.7,0,1,1,.42-3.63v.24Zm94.07,15.45a15.69,15.69,0,1,1,15.69-15.69A15.68,15.68,0,0,1,304.79,46.12Zm54.58,0a15.69,15.69,0,1,1,15.69-15.69,15.68,15.68,0,0,1-15.69,15.69Z"/><path class="cls-1" d="M368.54,30.32a9.15,9.15,0,1,1-9.13-9.25A9.16,9.16,0,0,1,368.54,30.32Zm-54.74,0a9.13,9.13,0,1,1-9.13-9.25A9.16,9.16,0,0,1,313.8,30.32Zm-219.38,0a9.13,9.13,0,1,1-9.13-9.25A9.16,9.16,0,0,1,94.42,30.32Zm-54.9.15a9.13,9.13,0,1,1-9.13-9.2A9.19,9.19,0,0,1,39.52,30.47Zm210.26-9.36a9.23,9.23,0,1,1-9.13,9.25A9.2,9.2,0,0,1,249.78,21.11Z"/><path class="cls-2" d="M30.55,14.87A15.69,15.69,0,1,0,46.23,30.55,15.68,15.68,0,0,0,30.55,14.87Zm-.16,24.81a9.23,9.23,0,1,1,9.13-9.25A9.19,9.19,0,0,1,30.39,39.68Zm55-25A15.69,15.69,0,1,0,101.09,30.4,15.68,15.68,0,0,0,85.41,14.71Zm-.12,24.85a9.23,9.23,0,1,1,9.13-9.2A9.18,9.18,0,0,1,85.29,39.56Zm219.5-24.85A15.69,15.69,0,1,0,320.48,30.4a15.68,15.68,0,0,0-15.69-15.69Zm-.12,24.85a9.23,9.23,0,1,1,9.13-9.2A9.17,9.17,0,0,1,304.67,39.56Zm54.7-24.85A15.69,15.69,0,1,0,375.06,30.4a15.68,15.68,0,0,0-15.69-15.69Zm0,24.85a9.23,9.23,0,1,1,9.13-9.2,9.21,9.21,0,0,1-9.13,9.2ZM210.72,30.43a15.66,15.66,0,1,0-.42,3.63h-7a9.11,9.11,0,0,1-16.7,0,9.52,9.52,0,0,1-.78-3.39h24.93v-.24Zm-23.8-5.38a9.93,9.93,0,0,1,6.83-3.9h0a10.73,10.73,0,0,1,1.13-.08,5.33,5.33,0,0,1,1.14.08h0a9.92,9.92,0,0,1,6.9,3.9Zm-31.13,3.82H149a9.12,9.12,0,0,0-18.14,1.49V45.22h-6.4V30.43a15.68,15.68,0,0,1,31.29-1.56ZM258.91,1.33V18a16.23,16.23,0,0,0-8.35-3.28h-.62a15.69,15.69,0,1,0,15.68,15.68V4.29A31.76,31.76,0,0,0,258.91,1.33Zm-9.13,38.23a9.23,9.23,0,1,1,9.13-9.2A9.18,9.18,0,0,1,249.78,39.56Z"/></g></g></svg>