<svg xmlns="http://www.w3.org/2000/svg" xmlns:xlink="http://www.w3.org/1999/xlink" viewBox="0 0 441.72 151.67"><defs><style>.cls-1{fill:none;}.cls-2{fill:#fff;}.cls-3{clip-path:url(#clip-path);}.cls-4{fill:url(#radial-gradient);}.cls-5{fill:#a29589;}</style><clipPath id="clip-path"><path class="cls-1" d="M32.07,62c0,6.73,3.93,12,11.1,12,6.28,0,9.54-4.26,9.54-10.26,0-6.56-3.76-11.83-10.77-11.83-6.17,0-9.87,4.09-9.87,10.09M92.8,83.54c0-4.82-5.11-7.17-10.66-9.81C76,70.82,69.41,67.62,69.41,60.16c0-9.08,8.75-13,16.66-13a24.44,24.44,0,0,1,12.11,3.09V56.8A19.58,19.58,0,0,0,85.9,52.43c-4.37,0-8.64,1.73-8.64,5.71,0,4.66,5.56,7.35,11.39,10.27,6.16,3.08,12.56,6.56,12.56,13.28,0,9.82-9.82,13.18-18,13.18A37.08,37.08,0,0,1,68.85,92V85.23c4.83,2.63,10.83,4.26,14.64,4.26,4.15-.11,9.31-1.12,9.31-5.95m15-1.73V41.27c0-6.56-.45-9.53-1.74-11.27l10.1-2.64v39.2l13.29-12.45a46.73,46.73,0,0,0,5-5.39H146c-.56.17-2.64.62-9.93,7.46L123.63,67.9s7.46,8.8,14.47,16.54c5.38,5.83,9.53,7.63,12,7.63a6.84,6.84,0,0,0,1.46-.28,15.17,15.17,0,0,1-8.92,2.46c-4.54,0-8.35-2.46-13-8l-13.45-16.1V81.86c0,8.19.45,9.48,1.17,11.38H106.53c.84-2.41,1.29-3.25,1.29-11.43M9.08,42.16A43.49,43.49,0,0,0,5.16,60a60.24,60.24,0,0,0,5.1,25.46C16.71,99.8,28.26,108,44.07,108a37,37,0,0,0,10.82-1.29c2.47-1,5-2.91,5-6.45a5,5,0,0,0-3.19-4.37c-2-.73-3.82-.9-9.2-1.18s-7.34-.45-11.1-.73c-6-.56-9.08-4.54-9.08-8.35,0-3.37,2.35-6.28,6.72-8.36a15.12,15.12,0,0,1-9.92-14c0-9.09,7.06-16.1,18.56-16.1a30.67,30.67,0,0,1,7.91,1.29,24.65,24.65,0,0,0,6.56,1,31.81,31.81,0,0,0,8.63-.89v5.83a72,72,0,0,0-8.63-.56,15,15,0,0,1,3.64,9.81c0,8.19-6.45,15.08-17.83,15.08-1,0-2,0-3.25-.17A6.63,6.63,0,0,0,36.61,80a4.53,4.53,0,0,0-1.79,3.42c0,1.91,1,3.37,5.72,3.65l10.09.56c9.81.56,15.08,4.54,14.92,11.55-.28,8.07-6.73,13.9-22.26,13.9a53.18,53.18,0,0,1-14.36-2.18,31,31,0,0,1-9.81-5.11c13.18,22.54,36.56,42,63.64,42,13.18,0,24.45-4.65,35-12.45,25.06-18.72,56.91-60.72,56.91-93.35,0-24.45-17.72-35.27-39.92-38.75a142.85,142.85,0,0,0-23.39-1.46C77.71,1.79,25.79,7.63,9.08,42.16"/></clipPath><radialGradient id="radial-gradient" cx="-270.18" cy="-453.57" r="3.63" gradientTransform="matrix(31.56, 0, 0, -31.56, 8649.5, -14270.44)" gradientUnits="userSpaceOnUse"><stop offset="0" stop-color="#faa81b"/><stop offset="0.05" stop-color="#f9a01f"/><stop offset="0.26" stop-color="#f58220"/><stop offset="0.47" stop-color="#f26a24"/><stop offset="0.66" stop-color="#f15725"/><stop offset="0.84" stop-color="#f04923"/><stop offset="1" stop-color="#ef4523"/></radialGradient></defs><g id="Layer_2" data-name="Layer 2"><g id="Layer_1-2" data-name="Layer 1"><g id="layer1"><g id="g2449"><path id="path2384" class="cls-2" d="M176.4,43.06C176.4,15.76,157,5,134.18,1.4A185.7,185.7,0,0,0,109.28,0C76.7,0,22.48,5.16,4.6,41.94A48.17,48.17,0,0,0,0,61.56c0,23.33,12.73,48.28,29.6,66.11,15.87,16.77,33.14,24,51.59,24,14.3,0,26.24-4.77,37.23-12.78,25.18-18.79,58-61.79,58-95.83"/><g id="g2386"><g class="cls-3"><rect id="rect2409" class="cls-4" x="5.16" y="1.79" width="169.56" height="145.95"/></g></g><path id="path2411" class="cls-5" d="M437.79,111.92h-9.47c.28-2.47,1.29-5.56,5-5.56,3.14,0,4.48,2.47,4.48,5.56m3.87,2.8a6.05,6.05,0,0,0,.06-1.07c0-5.88-2.08-10.2-8.47-10.2-5.55,0-8.91,4.26-8.91,10.09,0,6.56,2.91,10.82,9.92,10.82a11.45,11.45,0,0,0,5.83-1.29v-3.64a9.92,9.92,0,0,1-5.72,2c-3.53,0-6.11-2.81-6.11-6.73Z"/><path id="path2413" class="cls-5" d="M420.81,123.91V112.08c0-5.38-2.19-8.63-7.29-8.63-2.81,0-5.27,1.29-6.28,3.64h-.17V103.9h-3.53v20h3.64v-9.19c0-5,1.63-8.47,5.83-8.36,3.2.17,4.09,2.47,4.09,7.18v10.37Z"/><path id="path2415" class="cls-5" d="M398.55,97.34a2.13,2.13,0,0,0-2-2.19,2.23,2.23,0,0,0-2.19,2.19,2.09,2.09,0,0,0,2.19,2,2,2,0,0,0,2-2m-.29,6.56h-3.64v20h3.64Z"/><path id="path2417" class="cls-5" d="M391,123.75c-1.46-.45-1.74-1.46-1.74-2.81V96.1h-3.82v25.35c0,1.9.9,2.91,2.92,2.91a5,5,0,0,0,2.64-.61"/><polygon id="polygon2419" class="cls-5" points="383.07 123.92 371.58 109.56 382.12 96.61 377.63 96.61 367.93 108.72 367.93 96.61 364.12 96.61 364.12 123.92 367.93 123.92 367.93 110.63 378.02 123.92 383.07 123.92"/><path id="path2421" class="cls-5" d="M358.62,123.91V112.08c0-5.38-2.18-8.63-7.29-8.63a6.7,6.7,0,0,0-6.11,3.36h-.17V96.16h-3.64v27.75h3.64v-9.19c0-5,1.63-8.47,5.84-8.36,3.19.17,4.09,2.47,4.09,7.18v10.37Z"/><path id="path2423" class="cls-5" d="M337.93,123.75v-3.09a4.94,4.94,0,0,1-2.46.73c-1.74,0-3.09-1.29-3.09-3.64v-11h5v-2.92h-5V98l-3.64,1.18v4.71h-3.53v2.91h3.53v11.72c0,4.09,2.35,5.83,6.17,5.83a7.93,7.93,0,0,0,3-.61"/><path id="path2425" class="cls-5" d="M322.35,97.34a2.23,2.23,0,0,0-2.19-2.19,2.09,2.09,0,0,0-2,2.19,2,2,0,0,0,2,2,2.13,2.13,0,0,0,2.19-2m-.45,6.56h-3.65v20h3.65Z"/><path id="path2427" class="cls-5" d="M313.32,123.91V111c0-4.37-1.91-7.63-7-7.63a7.17,7.17,0,0,0-6.17,3.82,5.9,5.9,0,0,0-5.72-3.82,6.88,6.88,0,0,0-6.44,3.37v-2.92h-3.54v20h3.65V113.77c0-3.82,1.62-7.46,5.27-7.46,3.08,0,3.64,3.08,3.64,5.55v12h3.65V113.77c0-3.82,1.45-7.46,5.27-7.46,2.91,0,3.53,3.08,3.53,5.55v12h3.87Z"/><path id="path2429" class="cls-5" d="M281.36,116.29c0-5.55-4.65-7.18-8.75-9.08a7.49,7.49,0,0,1-2-1,3.71,3.71,0,0,1-2-3.2c0-2.92,2.91-3.81,5.38-3.81a16.63,16.63,0,0,1,5.55,1.18l.62-3.2A20,20,0,0,0,273.85,96c-5.56,0-9.65,2.64-9.65,7.46,0,5.27,5.1,6.56,8.75,8.35,2,.9,4.37,2.19,4.37,4.66,0,3.53-3.64,4.65-6,4.65a19.9,19.9,0,0,1-6.45-1.29l-.28,3.53a23.86,23.86,0,0,0,6.06,1c5.94,0,10.71-2.35,10.71-8.07"/><polygon id="polygon2431" class="cls-5" points="240.88 123.92 234.43 113.37 240.26 103.9 236.06 103.9 232.24 111.08 228.43 103.9 223.89 103.9 229.72 113.37 223.16 123.92 227.53 123.92 231.96 116.01 236.34 123.92 240.88 123.92"/><path id="path2433" class="cls-5" d="M201.29,123.75c-1.46-.45-1.74-1.46-1.74-2.81V96.1h-3.81v25.35c0,1.9.9,2.91,2.92,2.91a4.53,4.53,0,0,0,2.63-.61"/><path id="path2435" class="cls-5" d="M191.25,123.19v-12h-3.92v9.14a13.51,13.51,0,0,1-4.37.45,10.22,10.22,0,0,1-10.38-10.65c0-6.11,4.26-10.66,10.54-10.66a14.7,14.7,0,0,1,7.63,1.91l.28-3.92a18.87,18.87,0,0,0-8-1.46c-8.35,0-14.46,5.72-14.46,14,0,8.8,5.72,14.29,14.35,14.29a28.19,28.19,0,0,0,8.35-1.17"/><path id="path2437" class="cls-5" d="M261.23,113.82c0-6-3.53-10.37-9.53-10.37s-9.65,4.37-9.65,10.37c0,5.83,3.54,10.54,9.65,10.54s9.53-4.71,9.53-10.54m-3.92,0c0,3.65-1.29,7.63-5.56,7.63s-5.72-3.93-5.72-7.63,1.63-7.46,5.72-7.46c3.82,0,5.56,3.65,5.56,7.46"/><path id="path2439" class="cls-5" d="M220.41,123.91a19.37,19.37,0,0,1-.17-4v-8.29c0-5.44-2.07-8.19-7.73-8.19a11.48,11.48,0,0,0-6.45,1.91l.28,3.08a8.8,8.8,0,0,1,5.55-2c3.64,0,4.54,1.74,4.54,5.27a28.58,28.58,0,0,0-3.81-.17c-3.82,0-8.75,1.63-8.75,6.56,0,4.38,2.8,6.28,7,6.28a6.58,6.58,0,0,0,5.83-3.08h.17v2.63Zm-3.92-7.73c0,2.91-1.63,5.27-5.27,5.27a3.3,3.3,0,0,1-3.37-3.37c0-3.47,4.54-3.81,6.45-3.81.9,0,1.46.17,2.19.17v1.74Z"/></g></g></g></g></svg>