<svg xmlns="http://www.w3.org/2000/svg" viewBox="0 0 458.25 80.84"><defs><style>.cls-1{fill:none;}.cls-2{fill:#231f20;}.cls-3{fill:#ef3825;}</style></defs><g id="Layer_2" data-name="Layer 2"><g id="Layer_1-2" data-name="Layer 1"><rect class="cls-1" width="458.19" height="80.78"/><rect class="cls-1" width="458.19" height="80.78"/><path class="cls-2" d="M59.29,43.43c-.06,0,0,27.93,0,27.93A6.83,6.83,0,0,1,52.34,78H48.55V79.4H80.61V78h-3.8a6.84,6.84,0,0,1-7-6.6V9.14a6.88,6.88,0,0,1,7-6.61h3.8V1.09H48.55V2.53h3.79a6.8,6.8,0,0,1,6.95,6.61V39.47h-38V9.14a7,7,0,0,1,7-6.61h3.79V1.09H0V2.53H3.79a6.83,6.83,0,0,1,7,6.61V71.41A6.83,6.83,0,0,1,3.79,78H0v1.44H32.06V78H28.27a6.83,6.83,0,0,1-6.95-6.61s.05-27.92,0-27.92l38-.06"/><path class="cls-2" d="M135.47,59c.29,4.59-2.58,11.54-6.55,15.16a23.91,23.91,0,0,1-16.43,6.44c-8.21,0-15.28-4.42-17.86-5.4a6,6,0,0,0-4.83.23c-1.44.86-2.3,2.3-2.64,4.94H86V53.2h1.21a29.16,29.16,0,0,0,7.41,16c4,4.54,11.43,7.13,18.61,6,5.69-.92,11.95-7.13,11.26-14.77-.23-2.76-.86-6.78-6.6-10.57-3.62-2.36-8.74-5.69-13.62-9C98.07,36.83,92.5,32.4,91,30.62a15.94,15.94,0,0,1-4.6-11.09A18.94,18.94,0,0,1,91.81,6.15a22.36,22.36,0,0,1,16-6.15c7.24,0,12.75,3.85,14.59,4.71a5.88,5.88,0,0,0,5.12,0c1.14-.63,1.89-1.66,2.24-4.25H131V26.14h-1.2c-1.1-8.33-4.71-14.59-7.24-16.89a16.77,16.77,0,0,0-14.83-4.08C100.66,6.55,97.27,9.71,96.58,15.4c-.52,4.31,1.84,7,3.16,8.56,2.76,3.27,20.16,13.15,28,20,4.07,3.45,7.29,7.64,7.69,15"/><path class="cls-2" d="M186.26,39.47c14,4.77,17.93,14.65,15.34,24.76-3,12-16.49,14.37-20.85,14.94-2,.23-7,.23-11.95.23H139.73V78h4.59a6.37,6.37,0,0,0,6.26-6.2V9.31a6.41,6.41,0,0,0-6.26-6.26h-4.59V1.61h27.8a61.57,61.57,0,0,1,12.7,1.09c4,.75,15.46,4.19,18.21,14.94,2.13,8.27-2.07,18.79-12.18,21.83M161,37.29c3.85,1,15.17,1.26,19.54-1.55,6.83-4.37,9.25-11.38,8-17.58a14.76,14.76,0,0,0-6.14-9.54c-6.73-4.71-16.38-4-21.43-2.42V37.29ZM161,75c5.4,1.66,15.75,3,22.93-2.19,8.62-6.2,10.45-21.25-1.73-29.13-4.88-3.16-17.12-2.93-21.2-2Z"/><path class="cls-2" d="M274.91,2.53,276.06,29l-1.61.06c-.74-6.72-3.27-11.43-6.49-14.48a29.52,29.52,0,0,0-5.17-4.25A24.89,24.89,0,0,0,245,6.72C234,8.68,228.26,16,225.39,23.1c-3.51,8.67-5.75,23.49.23,36a27.85,27.85,0,0,0,21.31,15.45c6.09.92,19.65.64,29.94-13.27l1.66,1.09c-8,11.32-18.67,18.56-30.85,18.45A39.9,39.9,0,0,1,217.8,67c-4.71-5.4-8.33-15.57-8.38-24.47-.06-7.93,1.72-16.72,4.54-21.84,4.88-8.84,15.11-17.63,28.55-19,10.05-1,16.66,1,22.35,4.26,2.81,1.6,4.42,1.78,6,1.14s2.76-1.95,2.76-4.53l1.32-.06"/><polyline class="cls-3" points="301.86 40.33 340.93 79.4 340.93 1.21 301.86 40.33"/><polyline class="cls-3" points="340.93 79.4 419.12 79.4 380.05 40.33 340.93 79.4"/><polyline class="cls-3" points="380.05 40.33 419.12 1.21 340.93 1.21 380.05 40.33"/><polyline class="cls-3" points="419.12 1.21 419.12 79.4 458.25 40.33 419.12 1.21"/></g></g></svg>