<svg xmlns="http://www.w3.org/2000/svg" viewBox="0 0 109.57 157.41"><defs><style>.cls-1{fill:#636569;}.cls-2{fill:#b4bd00;}.cls-3{fill:#bdca8b;}.cls-4{fill:#789904;}</style></defs><g id="Layer_2" data-name="Layer 2"><g id="Layer_1-2" data-name="Layer 1"><path class="cls-1" d="M93.38,113a2.17,2.17,0,0,1,0-.26c0-.1,0-.19,0-.19s-.41.22-.42.23l-1.17.65-1.16.52c-.15.06-.34.15-.36,1v10.33H81.47v-9.08a3.88,3.88,0,0,0-1-3,4.07,4.07,0,0,0-3.18-.85,22.86,22.86,0,0,0-14,4.82l-1.15,1.31-.4.52-.23-.61a6.46,6.46,0,0,0-1.18-1.89l-.39-.42-.32-.27a25.13,25.13,0,0,1,.14,2.79v6.56h-5V102.6c0-.36,0-.49,0-.49l-.42.23-1.17.65-1.15.52c-.16.07-.36.17-.36,1.22V125a3.21,3.21,0,0,0,.59,2.44,2.8,2.8,0,0,0,2.57,1.16h4.76V129a21.45,21.45,0,0,1-.93,4.62l-.06.18a7.86,7.86,0,0,0,1.2-.92,12.25,12.25,0,0,0,2.32-4l.07-.24H89.89a3.94,3.94,0,0,0,2.25-.55c.93-.69,1.24-1.24,1.24-3.1,0,0,0-6.5,0-8.37C93.37,116.3,93.37,113.11,93.38,113ZM78.3,125.21H62.8l0-.25c0-.09,1-8.8,13.44-9.23a1.9,1.9,0,0,1,1.47.54,2.38,2.38,0,0,1,.56,1.7v7.24Z"/><path class="cls-1" d="M28.42,125.13v-7.27c0-1,.21-1.15.36-1.22l1.16-.52,1.53-.85a1.78,1.78,0,0,1,0,.44v10.13a3.07,3.07,0,0,1-.95,2.09,3.2,3.2,0,0,1-2.37.77H11.11A5.44,5.44,0,0,1,6.67,126a7.71,7.71,0,0,1-1-3.95,12.34,12.34,0,0,1,.5-3.32,3.5,3.5,0,0,1,.67-1.42,2.11,2.11,0,0,1,0,.33,19.54,19.54,0,0,0,1.23,4.87c1.37,3.09,5.35,2.88,5.38,2.88H28.4v-.23Zm3.25-10.31Z"/><path class="cls-1" d="M43.52,105.46v-.12c0-1,.2-1.14.37-1.22L45,103.6l1.52-.84a1,1,0,0,1,0,.43v11.73c0,10.54-4.88,13.56-5.27,13.78H36.68a17,17,0,0,0,4-3.64l.09-.11v-.19l-5.54-12.31a9.8,9.8,0,0,1-.77-3.65,5.1,5.1,0,0,1,1.59-3.87c0,.14,0,.28,0,.28a14.51,14.51,0,0,0,1.21,4.87c0,.07,3.4,6.53,4.74,9.77l.4,1.23.22.67.21-.65.11-.34a11,11,0,0,0,.53-3h0v-.36h0C43.52,116.66,43.52,105.46,43.52,105.46Z"/><path class="cls-1" d="M16.52,149l-10.14,1c.4,3.19,2.79,4.4,5.34,4.4h6.5A1.46,1.46,0,0,1,19.76,156v1.3h-8.1c-4.51,0-8.31-2.94-8.31-9A8.26,8.26,0,0,1,12,139.71a7.39,7.39,0,0,1,7.45,5.61C20,147.37,18.85,148.77,16.52,149Zm-1.87-2.3a3.06,3.06,0,0,0,1.72-.54,1.32,1.32,0,0,0,.07-1.37A4.67,4.67,0,0,0,12,142.31c-3.28,0-5.6,2.11-5.6,5.34C6.4,147.66,14.24,146.78,14.65,146.74Z"/><path class="cls-1" d="M51.91,139.72c1,0,1.66.44,1.66,1.41s-.69,1.42-1.66,1.42H44.85c-1.48.11-1.67,1.59-1.55,2.52a1.12,1.12,0,0,0,.39.72,4.72,4.72,0,0,0,2.09.68l5.37.94c2.83.52,3.89,2,3.89,4.5,0,4-2.44,5.43-6.27,5.43H39.85v-1.41c0-1,.66-1.4,1.65-1.4h7.07c2.75,0,3.46-.85,3.46-2.37s-.38-1.88-2.23-2.19l-5.44-.9c-2.76-.44-4-1.89-4.11-3.74-.22-2.71.91-5.59,4.62-5.59h7Z"/><path class="cls-1" d="M71.35,145.92c0-3.07-.83-6.21-5.37-6.21H59.6c-1,0-1.66.45-1.66,1.41s.65,1.42,1.66,1.42h5.92c2.1,0,2.8.48,2.8,2v.44c-.13.91-1.15,1.12-1.66,1.24-4.26,1-10-.1-10,6,0,3.27,2.78,5.2,6.61,5.2,0,0,3.84.19,5.24-1.73,0,0,0,.06,0,.16.1,1,.55,1.48,1.54,1.48h1.26Zm-3,5.09c0,3-1.68,4.07-4.54,4.07-2.58,0-4.07-.93-4.07-3,0-1.54,1.31-2.53,2.87-2.81s3.94-.38,5.74-.8Z"/><path class="cls-1" d="M94.37,145.92c0-3.07-.83-6.21-5.37-6.21H82.62c-1,0-1.66.45-1.66,1.41s.65,1.42,1.66,1.42h5.93c2.1,0,2.8.48,2.8,2v.44c-.13.91-1.15,1.12-1.66,1.24-4.26,1-10-.1-10,6,0,3.27,2.78,5.2,6.61,5.2,0,0,3.84.19,5.24-1.73,0,0,0,.06,0,.16.09,1,.55,1.48,1.54,1.48h1.26Zm-3,5.09c0,3-1.69,4.07-4.55,4.07-2.58,0-4.06-.93-4.06-3,0-1.54,1.31-2.53,2.86-2.81s3.94-.38,5.75-.8Z"/><path class="cls-1" d="M77.36,134.94h-1.7a1.2,1.2,0,0,0-1.34,1.33v16.37h0v4.69h3v-22.4Z"/><path class="cls-1" d="M29.64,154.69c-2.31,0-3.16-.11-3.16-1.79V142.54h2.68c1,0,1.65-.45,1.65-1.41s-.69-1.41-1.65-1.41H26.48V135h-1.3l-.63,0a1.2,1.2,0,0,0-1.11,1.33v3.32h-.82c-1,0-1.66.44-1.66,1.41s.7,1.41,1.66,1.41h.82v8.78h0v2.23c0,3.72,2.58,3.77,6.2,3.77h1.79V156.1C31.43,155.24,30.74,154.69,29.64,154.69Z"/><path class="cls-1" d="M104.67,154.69c-2.31,0-3.16-.11-3.16-1.79V142.54h2.67c1,0,1.65-.45,1.65-1.41s-.68-1.41-1.65-1.41h-2.67V135h-1.3l-.63,0a1.2,1.2,0,0,0-1.11,1.33v3.32h-.82c-1,0-1.66.44-1.66,1.41s.7,1.41,1.66,1.41h.82v8.78h0v2.23c0,3.72,2.58,3.77,6.2,3.77h1.79V156.1C106.46,155.24,105.77,154.69,104.67,154.69Z"/><path class="cls-1" d="M37.08,157.33v-17.6h-1.7A1.19,1.19,0,0,0,34,141.07v16.26Z"/><path class="cls-1" d="M35.23,138.38c.73,0,1.12,0,1.53-.36s.32-.82.32-1.43c0-.36,0-1.55,0-1.55h-1.7c-1.15,0-1.33.72-1.33,1.34,0,.24,0,2,0,2Z"/><path class="cls-2" d="M37.38,81.52a9.92,9.92,0,0,1-4.49-.89c-5.65-2.92-10.13-17-10.06-31.55,0-9.46,6-14.69,15-14.69,4.81,0,10.47,1.49,16.52,4.62,17.4,9,21.88,23.11,10.06,31.56-9.36,6.71-20.17,11-27.06,11m-2.2-61.7a22,22,0,0,0-6.92,1c-7.82,2.41-10.92,9.71-10.32,19.86S21.69,61.34,24,69c2.57,7.77,4.33,12.67,7.51,14.31a7.27,7.27,0,0,0,3.41.72c3.05,0,7.15-1.19,12.62-2.87,7.59-2.53,18-6.06,26.61-11.44S87,57.59,84.41,49.82C82.06,42.17,73,33.49,60.58,27.08c-9.14-4.73-18.22-7.26-25.4-7.26M3.64,11.07C-.84,16.89-.95,26.47,2,38.33,6.19,55.05,13.4,71.94,16.75,83.22c3.87,11.54,3.89,17.45,5.39,18.23a1.24,1.24,0,0,0,.54.1c2,0,6.93-3.08,17.45-6.26,11.13-3.79,29.08-7.7,45.13-14,11.29-4.43,19-10,21.25-17-3.6,4.85-10.15,8.93-18.83,12.33-16.05,6.27-34,10.18-45.14,14C32,93.84,27.08,96.93,25.1,96.93a1.24,1.24,0,0,1-.54-.11c-1.5-.78-1.53-6.69-5.4-18.23C15.8,67.32,8.6,50.43,4.43,33.71,2.16,24.59,1.7,16.82,3.64,11.07"/><path class="cls-3" d="M22.75,0a28,28,0,0,0-8.91,1.27,14.62,14.62,0,0,0-10.2,9.8,14.86,14.86,0,0,1,7.77-5.16,27.61,27.61,0,0,1,8.94-1.28c11.67,0,28,4.88,44.78,13.56,21.73,11.23,37.78,25.41,41.12,36.69a14.87,14.87,0,0,1,.25,9.48,14.65,14.65,0,0,0,2.17-14.11C105.32,39,89.27,24.79,67.54,13.57,50.72,4.88,34.43,0,22.75,0"/><path class="cls-4" d="M34.94,84a7.3,7.3,0,0,1-3.41-.72C28.35,81.66,26.59,76.76,24,69c-2.33-7.65-5.47-18.18-6.08-28.32s2.49-17.45,10.32-19.86a22.27,22.27,0,0,1,6.92-1c7.18,0,16.27,2.53,25.41,7.25C73,33.47,82.07,42.15,84.42,49.8,87,57.57,82.81,64.33,74.18,69.7s-19,8.91-26.61,11.44C42.09,82.83,38,84,34.94,84M20.36,4.64a27.57,27.57,0,0,0-8.94,1.28,14.93,14.93,0,0,0-7.78,5.15c-1.93,5.76-1.47,13.52.81,22.63C8.63,50.42,15.82,67.31,19.18,78.58c3.88,11.55,3.9,17.45,5.4,18.23a1.27,1.27,0,0,0,.54.11c2,0,6.94-3.09,17.45-6.27,11.14-3.79,29.07-7.7,45.13-14,8.67-3.4,15.24-7.47,18.83-12.33a14.87,14.87,0,0,0-.25-9.48C102.93,43.6,86.89,29.41,65.16,18.18,48.32,9.52,32,4.64,20.36,4.64"/><path class="cls-1" d="M98.6,122V105.33c0-1.06.21-1.15.38-1.22l1.15-.52,1.6-.89s0,0,0,.09,0,.19,0,.38v10.26h0v15.31H98.6Z"/><path class="cls-1" d="M16.45,115.29c.74,0,1.13,0,1.54-.36s.32-.84.32-1.45v-1.54H16.59a1.18,1.18,0,0,0-1.34,1.34v2Z"/><path class="cls-1" d="M20.45,115.29c.74,0,1.13,0,1.54-.36s.32-.84.32-1.45v-1.54H20.59a1.18,1.18,0,0,0-1.33,1.34v2Z"/><path class="cls-1" d="M87.52,109.83c.74,0,1.13,0,1.54-.37s.32-.83.32-1.44v-1.56H87.66a1.2,1.2,0,0,0-1.34,1.35v2Z"/><path class="cls-1" d="M91.53,109.83c.74,0,1.13,0,1.54-.37s.32-.83.32-1.44v-1.56H91.67a1.19,1.19,0,0,0-1.34,1.35v2Z"/></g></g></svg>