<svg xmlns="http://www.w3.org/2000/svg" viewBox="0 0 264.75 103.81"><defs><style>.cls-1{fill:#cd202a;fill-rule:evenodd;}</style></defs><g id="Layer_2" data-name="Layer 2"><g id="Layer_1-2" data-name="Layer 1"><path class="cls-1" d="M221.12,103.81V54H192v49.81l29.08,0Zm0-53.94H192V0h29.08ZM258.53,54a32.86,32.86,0,0,1,6.22,18.65,31.22,31.22,0,0,1-31.14,31.13h-8.29V54l33.21,0Zm-33.24-4.13,29.51.06a30.92,30.92,0,0,0-9.74-6.15,23.86,23.86,0,0,0,11.88-20.42A23.53,23.53,0,0,0,233.58,0h-8.29V49.87Zm-85.17,53.94h-29V54h29v49.84Zm0-53.94h-29V0h29Zm4.16,53.94V54l33.25,0a32.85,32.85,0,0,1,6.21,18.65,31.22,31.22,0,0,1-31.13,31.13h-8.33Zm0-53.94V0h8.3A23.56,23.56,0,0,1,176,23.39a23.91,23.91,0,0,1-11.91,20.42A30.24,30.24,0,0,1,173.79,50l-29.51-.09Zm-94.41,0H18.92L36.34.06H49.87V49.87Zm35.08,0L67.5.06H54V49.87Zm18.89,53.94h-26L70.63,83.09H54V54H86.39l17.45,49.81ZM0,103.81H26l7.29-20.72H49.87V54H17.48L0,103.81Z"/></g></g></svg>