<svg xmlns="http://www.w3.org/2000/svg" viewBox="0 0 421.81 79.63"><defs><style>.cls-1{fill:#b11e44;}</style></defs><g id="Layer_2" data-name="Layer 2"><g id="Layer_1-2" data-name="Layer 1"><path class="cls-1" d="M215.42,39.31c0-13.64-10.2-24.6-24.35-24.65H191c-14.15.05-24.24,11.67-24.24,25.31s10,24.35,24.24,24.35c10.86,0,22.67-4.92,24.2-14.87h-8.42c-1.73,11.37-21.82,11.27-22.53.31-.1-1.83-.1-6.9-.1-6.9h31.5c.1-1-.2-2.54-.2-3.55Zm-31.14-2.69.3-8.32s-.1-7.61,6.39-7.66c5.73.05,5.88,7.82,5.88,7.82l.26,8.21-12.83-.05ZM380.42,0H398V62.14H380.42Zm23.84,0h17.55V62.14H404.26ZM83.64,14.71c-8.93,0-25.46,6.24-25.46,25,0,20.69,16.59,24.6,25.46,24.6s25.52-5.18,25.46-24.76c0-19-16.58-24.8-25.46-24.8Zm0,43.62c-4.82,0-6.64-7.4-6.64-18.66s1-18.82,6.64-18.82C89,20.85,90,28.4,90,39.67S89,58.33,83.64,58.33ZM0,0H19V25.56H33.83V0h20V62.14h-20V34.75H19.17V62.24H0V0M114.63,62.14V16.38h17.3V20.8s6.29-5.23,13.85-5.23c7.05,0,13.64,4.87,15,10.45a11.44,11.44,0,0,1,.36,3.25V62.14H144V32s.61-6.8-4.56-6.55c-4.11.26-6.8,2.39-7.56,3.86V62.14H114.63"/><path class="cls-1" d="M211.11,69.49c0,4.11,2.38,10.14,10.09,10.14,6.29,0,12.23-3.6,14.41-8.52,1.77-4,21.86-54.63,21.86-54.63l13.29,45.76h14.3l7.36-27.39,8.72,27.39h13.64L326.5,16.48h-7.91l-6.29,24-8.12-23.95h-14.1L283,41.14l-7.3-24.66h-25l-8.82,22-8.37-22h-20S232,58.89,231.9,62.08a13.1,13.1,0,0,1-6.74,11.27h.05a8.45,8.45,0,0,0,1.27-4.21,7.6,7.6,0,0,0-7.61-7.61,7.8,7.8,0,0,0-7.66,8l-.1-.05m165-30.18c0-13.64-10.2-24.6-24.35-24.65h-.1c-14.15.05-24.25,11.72-24.25,25.31s10,24.35,24.25,24.35c10.85,0,22.67-4.92,24.2-14.87h-8.42c-1.73,11.37-21.82,11.27-22.53.31-.1-1.83-.1-6.9-.1-6.9h31.45a28.51,28.51,0,0,0-.15-3.55ZM345,36.62l.31-8.32s-.1-7.61,6.39-7.66c5.73.05,5.88,7.82,5.88,7.82l.26,8.21L345,36.62Z"/></g></g></svg>