<svg xmlns="http://www.w3.org/2000/svg" viewBox="0 0 451.18 62.3"><defs><style>.cls-1{fill:#0165b0;}</style></defs><g id="Layer_2" data-name="Layer 2"><g id="Layer_1-2" data-name="Layer 1"><g id="layer1"><g id="g3188"><path id="path2396" class="cls-1" d="M0,62.3H16.56V44.45H47.9V35.94H16.56V25.23h34.1V14.69H15.41C9.13,14.69.24,22.91.24,29.86Z"/><path id="path2398" class="cls-1" d="M71.94,15.14c-5.47,0-14.62,8.75-14.62,13.66V48.43c0,5.25,9.18,13.78,13.61,13.78h32.78c3.62,0,13.25-7.72,13.25-13.78V29.67c0-5.87-8.33-14.53-14-14.53Zm1.79,10.4h27.42s.21,25.67,0,26.36-27.42,0-27.42,0Z"/><path id="path2402" class="cls-1" d="M121.61,14.38h18.84l10.4,12.51,11.52-12.51H182l-21.11,24L181.38,62H162.69L150.85,48.88,140,62.3H120.49l20.94-23.7Z"/><path id="path2404" class="cls-1" d="M235.77,25.83H201.34V52.19h34.43V62.3H201.34c-3.5,0-15.74-7.9-15.74-14V28.71c0-4.2,9.84-13.66,15.74-13.66h34.58Z"/><path id="path2406" class="cls-1" d="M310,62.3h16.78V25.69h26.79V62.3H369.7V30.55c0-6.3-7.95-16-15.6-15.84H310.3Z"/><path id="text2408" class="cls-1" d="M443.2,0a8.17,8.17,0,0,1,3.93,1,7.45,7.45,0,0,1,3,3,8.32,8.32,0,0,1,1.06,4,7.83,7.83,0,0,1-1.06,4,7.44,7.44,0,0,1-2.94,3,8.06,8.06,0,0,1-8,0,7.46,7.46,0,0,1-2.95-3,8,8,0,0,1-1.08-4,8.2,8.2,0,0,1,1.08-4,7.53,7.53,0,0,1,3-2.95A8.17,8.17,0,0,1,443.2,0Zm0,1.32a6.72,6.72,0,0,0-3.28.86,6.2,6.2,0,0,0-2.52,2.4,6.91,6.91,0,0,0-.89,3.35,6.65,6.65,0,0,0,.89,3.31,6.36,6.36,0,0,0,2.4,2.4,6.8,6.8,0,0,0,6.63,0,6.36,6.36,0,0,0,2.4-2.4,6.65,6.65,0,0,0,.89-3.31,7.16,7.16,0,0,0-.89-3.35,6.2,6.2,0,0,0-2.52-2.4,6.72,6.72,0,0,0-3.25-.86Zm-3.52,11.12V3.81h3a8,8,0,0,1,2.18.24,2.14,2.14,0,0,1,1.08.84,2.25,2.25,0,0,1-.27,2.9,2.58,2.58,0,0,1-1.79.79,2.45,2.45,0,0,1,.74.45,11.14,11.14,0,0,1,1.27,1.71l1.05,1.7h-1.7l-.76-1.37a7.39,7.39,0,0,0-1.44-2,2,2,0,0,0-1.13-.29h-.81v3.67Zm1.39-4.8h1.67a2.68,2.68,0,0,0,1.66-.36,1.17,1.17,0,0,0,.45-1,1.13,1.13,0,0,0-.21-.67,1.18,1.18,0,0,0-.6-.46,4.33,4.33,0,0,0-1.39-.14h-1.58Z"/><path id="path2413" class="cls-1" d="M257.8,15.14c-5.44,0-14.6,8.75-14.6,13.66V48.43c0,5.25,9.18,13.78,13.61,13.78h32.76c3.64,0,13.28-7.72,13.28-13.78V29.67c0-5.87-8.34-14.53-14.05-14.53Zm1.79,10.4H287s.21,25.67,0,26.36-27.42,0-27.42,0Z"/><path id="path2415" class="cls-1" d="M376.13,62.3H392.9V25.69h26.79V62.3h16.18V30.55c.12-6.3-8-16-15.6-15.84H376.56Z"/></g></g></g></g></svg>