<svg xmlns="http://www.w3.org/2000/svg" viewBox="0 0 352.63 65.92"><defs><style>.cls-1{fill:#87bd40;}.cls-2{fill:#110e0f;}</style></defs><g id="Layer_2" data-name="Layer 2"><g id="Layer_1-2" data-name="Layer 1"><path class="cls-1" d="M334,56.59a9.33,9.33,0,1,1,9.33,9.33A9.33,9.33,0,0,1,334,56.59"/><path class="cls-2" d="M35.91,31.81c0-5.89-1.15-10.31-3.44-13.15s-5.79-4.31-10.42-4.31h-5V50.53H20.9c5.18,0,9-1.53,11.41-4.64s3.6-7.75,3.6-14.08m17.68-.6c0,10.81-2.89,19.1-8.68,24.94s-14,8.73-24.45,8.73H0V.27H21.83c10.15,0,18,2.68,23.46,8s8.3,12.93,8.3,23m56.53,33.67h16.26V0H110.12ZM149.2,40.71c0,4.15.54,7.31,1.63,9.44a5.62,5.62,0,0,0,5.46,3.27,5.48,5.48,0,0,0,5.35-3.27c1-2.18,1.53-5.35,1.53-9.44s-.55-7.2-1.59-9.33a5.49,5.49,0,0,0-5.4-3.17,5.57,5.57,0,0,0-5.35,3.11c-1.09,2.13-1.63,5.24-1.63,9.39m30.5,0q0,11.79-6.22,18.44c-4.15,4.42-9.93,6.61-17.41,6.61-7.15,0-12.82-2.24-17.08-6.77s-6.33-10.59-6.33-18.28q0-11.79,6.22-18.34c4.15-4.36,9.93-6.54,17.41-6.54a24.37,24.37,0,0,1,12.28,3,20.35,20.35,0,0,1,8.18,8.67,27.59,27.59,0,0,1,2.95,13.21m6.44,24.17H202.4V16.7H186.14Zm0-54H202.4V0H186.14Zm49.17,41.75A24.14,24.14,0,0,0,243.17,51V63.08a31.17,31.17,0,0,1-6.28,2.08,33.4,33.4,0,0,1-7,.6q-8.18,0-11.78-4.1c-2.4-2.72-3.6-6.93-3.6-12.6V29.2h-5.68V16.75h5.68V4.42l16.37-2.84V16.75h10.37V29.2H230.89V48c.05,3.05,1.52,4.64,4.42,4.64m37.6,0A24,24,0,0,0,280.76,51V63.08a30.89,30.89,0,0,1-6.27,2.08,33.46,33.46,0,0,1-7,.6q-8.17,0-11.78-4.1c-2.4-2.72-3.61-6.93-3.61-12.6V29.2h-5.67V16.75h5.67V4.26l16.38-2.68V16.75h10.36V29.2H268.49V48c.05,3.05,1.52,4.64,4.42,4.64m28.37-17.79c.22-2.62,1-4.59,2.24-5.79a6.64,6.64,0,0,1,4.8-1.85,6.44,6.44,0,0,1,5,2.07,8.22,8.22,0,0,1,1.91,5.57ZM324.2,21.5c-3.87-3.76-9.33-5.67-16.42-5.67q-11.22,0-17.19,6.54c-4,4.37-6,10.59-6,18.72,0,7.86,2.19,14,6.5,18.23s10.42,6.38,18.28,6.38a55.37,55.37,0,0,0,9.71-.76,28.5,28.5,0,0,0,7.86-2.73l-2.51-10.86A34.34,34.34,0,0,1,319.18,53a35.19,35.19,0,0,1-7.86.82,11.16,11.16,0,0,1-7.42-2.29A8.39,8.39,0,0,1,301,45.24h29V37.82c-.05-7-2-12.5-5.84-16.32M75.14,34.82c.22-2.62,1-4.59,2.24-5.79a6.64,6.64,0,0,1,4.8-1.85,6.44,6.44,0,0,1,5,2.07,8.22,8.22,0,0,1,1.91,5.57ZM98.06,21.5c-3.87-3.76-9.33-5.67-16.42-5.67q-11.22,0-17.19,6.54c-4,4.37-6,10.59-6,18.72,0,7.86,2.19,14,6.5,18.23S75.36,65.7,83.22,65.7a55.29,55.29,0,0,0,9.71-.76,28.5,28.5,0,0,0,7.86-2.73L98.23,51.35A34.7,34.7,0,0,1,93,53a35.19,35.19,0,0,1-7.86.82,11.16,11.16,0,0,1-7.42-2.29,8.36,8.36,0,0,1-2.89-6.33h29V37.82c0-7-1.91-12.5-5.79-16.32"/></g></g></svg>