<svg version="1.1" id="Layer_1" xmlns="http://www.w3.org/2000/svg" xmlns:xlink="http://www.w3.org/1999/xlink" x="0px" y="0px"
	 width="100%" viewBox="0 0 1600 355" enable-background="new 0 0 1600 355" xml:space="preserve">
<path fill="#F6F6F6" opacity="1.000000" stroke="none" 
	d="
M1424.000000,356.000000 
	C1296.311279,356.000000 1168.622681,356.000000 1040.604004,355.603088 
	C1057.390625,353.707855 1073.692383,349.525970 1088.361084,340.234558 
	C1113.815674,324.111053 1126.035767,300.264343 1128.431763,270.832672 
	C1130.735474,242.534729 1121.057861,219.901443 1096.476440,204.574692 
	C1080.977905,194.911240 1063.479736,190.011597 1046.535278,183.744385 
	C1033.671753,178.986588 1020.498901,174.501572 1008.565125,167.903168 
	C976.928894,150.410950 987.147034,110.721657 1008.886658,98.881165 
	C1029.260498,87.784538 1050.352661,87.459457 1071.417969,95.789101 
	C1080.418823,99.348213 1088.515137,105.227806 1096.948364,110.179008 
	C1103.294434,113.904831 1107.989258,113.496513 1111.550049,107.685333 
	C1115.505249,101.230415 1118.709839,94.315567 1122.386230,87.325150 
	C1121.550415,86.781723 1121.089355,86.553032 1120.712646,86.226967 
	C1086.747314,56.823513 1047.671875,50.354713 1005.905029,63.640598 
	C977.494263,72.677986 959.195374,93.300842 953.544800,123.208160 
	C948.965454,147.445389 953.131409,170.008789 970.539795,188.719681 
	C982.114990,201.160797 997.403748,207.395706 1013.008057,212.832581 
	C1028.651367,218.283051 1044.534546,223.071274 1060.050781,228.852188 
	C1071.110962,232.972931 1080.832031,239.500290 1086.921631,250.090942 
	C1098.093994,269.521027 1089.522095,300.514221 1068.882812,312.807617 
	C1046.859619,325.925323 1023.286987,325.889221 1000.283447,316.257019 
	C988.972717,311.520874 978.917480,303.640991 968.597839,296.730103 
	C960.627930,291.392761 954.915833,292.149445 949.781616,300.281830 
	C947.030273,304.639923 944.595215,309.212250 941.636169,313.419708 
	C939.590210,316.328918 939.908691,318.130890 942.471313,320.555664 
	C960.203430,337.334167 980.881470,348.307922 1004.896484,352.935852 
	C1009.619080,353.845947 1014.299927,354.973022 1019.000000,356.000000 
	C955.311340,356.000000 891.622620,356.000000 827.591064,355.602234 
	C842.257812,353.659485 856.800842,350.373932 870.062073,342.880585 
	C900.496521,325.683411 914.016724,298.676056 914.861206,264.563507 
	C915.514221,238.181839 904.954773,217.295288 881.864014,204.395752 
	C868.658020,197.018234 854.159729,191.833206 839.970764,186.368607 
	C824.697510,180.486435 808.739807,176.524170 794.420898,168.064316 
	C764.215637,150.218552 772.913391,111.708710 794.512756,99.217857 
	C812.809998,88.636589 832.361633,87.518898 851.835693,93.779663 
	C862.381470,97.170074 872.066467,103.573891 881.707336,109.341232 
	C890.019104,114.313499 895.013000,113.534531 899.565552,104.906914 
	C902.571289,99.210678 905.394592,93.418190 908.348572,87.571915 
	C906.917175,86.244568 905.763489,85.047470 904.483154,84.005981 
	C871.677063,57.318478 834.579346,51.346359 794.652588,62.704670 
	C762.554565,71.835861 740.870056,99.311531 738.503479,132.383087 
	C736.565125,159.468994 744.695435,182.685760 768.204895,198.047226 
	C777.667664,204.230392 788.477356,208.626144 799.117493,212.668396 
	C814.453979,218.494827 830.358765,222.822266 845.710754,228.612137 
	C857.880493,233.201859 868.828186,240.178619 874.401306,252.674271 
	C882.032166,269.783813 877.635559,299.252930 855.591248,312.526398 
	C833.425171,325.873199 809.763977,325.908997 786.544312,316.277039 
	C775.518677,311.703400 765.681396,304.084747 755.666382,297.312347 
	C747.772034,291.973969 741.633362,291.839752 737.099731,298.546021 
	C733.023193,304.576111 729.462341,310.954834 725.587646,317.321716 
	C743.855835,336.052185 765.509888,347.895660 790.914612,352.916046 
	C795.628784,353.847626 800.305847,354.967194 805.000000,356.000000 
	C755.977966,356.000000 706.955994,356.000000 657.588135,355.544739 
	C657.242371,309.580383 657.242371,264.071289 657.242371,218.673859 
	C633.112244,218.673859 609.760315,218.673859 585.989441,218.673859 
	C585.989441,241.063828 585.989441,263.021790 585.521729,284.987610 
	C507.328583,284.995422 429.603119,284.995422 351.560486,284.995422 
	C351.705902,287.065125 351.809448,288.538605 351.793884,290.467285 
	C351.658966,300.866058 351.587982,310.809906 351.641541,320.753082 
	C351.704834,332.502350 351.875732,344.251068 352.000000,356.000000 
	C337.311310,356.000000 322.622650,356.000000 307.487396,355.531708 
	C307.040833,331.815491 307.040833,308.567566 307.040833,284.745056 
	C228.441269,284.745056 150.461761,284.745056 71.912308,284.745056 
	C71.912308,262.301361 71.912308,240.433792 71.912308,218.263306 
	C69.033173,218.263306 66.720192,218.271393 64.407288,218.262024 
	C43.271515,218.176407 22.135759,218.087769 1.000000,218.000000 
	C1.000000,210.311310 1.000000,202.622635 1.240277,194.579208 
	C1.651510,194.179398 1.822466,194.134323 2.448521,194.209717 
	C25.911896,194.330170 48.920174,194.330170 72.006973,194.330170 
	C72.006973,172.136902 72.006973,150.576828 72.220345,128.696808 
	C73.950745,128.174408 75.467773,127.971970 77.448059,127.853584 
	C154.138733,127.937637 230.366150,127.937637 306.828491,127.937637 
	C306.828491,104.122505 306.828491,80.735588 306.828491,56.875710 
	C305.001160,56.875710 303.383636,56.875710 301.766113,56.875710 
	C203.507935,56.875607 105.249741,56.874519 6.991559,56.883720 
	C5.331376,56.883877 3.671205,57.008755 1.762138,57.004753 
	C1.342165,56.956051 1.171082,56.978027 1.000000,57.000000 
	C1.000000,38.338417 1.000000,19.676834 1.000000,1.000000 
	C513.355347,1.000000 1025.710693,1.000000 1538.413208,1.367322 
	C1535.899292,2.579818 1532.997803,3.308503 1530.183594,4.288525 
	C1507.310181,12.254282 1493.449097,33.683460 1495.002808,58.783527 
	C1496.253540,78.993561 1511.554443,101.154282 1538.929565,106.589027 
	C1559.789185,110.730293 1584.253540,99.139465 1594.562866,78.960068 
	C1597.297485,73.607552 1598.885620,67.669350 1601.000000,62.000008 
	C1601.000000,160.000000 1601.000000,258.000000 1601.000000,356.000000 
	C1598.987061,356.000000 1596.990356,356.000000 1594.476807,355.728088 
	C1593.896118,355.286072 1593.832153,355.115936 1593.865723,354.489624 
	C1593.963135,343.413666 1593.963135,332.793884 1593.963135,321.569946 
	C1550.510986,321.569946 1507.483643,321.569946 1463.934326,321.569946 
	C1463.934326,232.946793 1463.934326,144.932526 1463.934326,57.012726 
	C1450.311890,57.012726 1437.219604,57.012726 1423.779419,57.012726 
	C1423.779419,58.739479 1423.779297,60.203789 1423.779297,61.668102 
	C1423.778931,158.119797 1423.777710,254.571503 1423.788330,351.023193 
	C1423.788452,352.346924 1423.938232,353.670624 1423.934448,355.244324 
	C1423.900513,355.662872 1423.950317,355.831451 1424.000000,356.000000 
M459.500000,127.941429 
	C501.589081,127.941429 543.678162,127.941429 586.252686,127.941429 
	C586.252686,150.292038 586.252686,172.037003 586.252686,194.034302 
	C610.108398,194.034302 633.474854,194.034302 656.867310,194.034302 
	C656.867310,148.151413 656.867310,102.639511 656.867310,57.281185 
	C554.924438,57.281185 453.398224,57.281185 351.879974,57.281185 
	C351.879974,80.933189 351.879974,104.195084 351.879974,127.941422 
	C387.614380,127.941422 423.057190,127.941422 459.500000,127.941429 
M1296.377197,240.999634 
	C1298.160034,240.645493 1299.946655,240.308563 1301.725220,239.934570 
	C1323.146973,235.430222 1342.593872,227.028946 1357.620850,210.520081 
	C1377.709229,188.450790 1382.573730,161.931152 1379.038696,133.316513 
	C1375.559692,105.154610 1361.725220,83.763573 1336.272461,70.489349 
	C1318.992065,61.477249 1300.356079,57.320206 1281.037354,57.065636 
	C1248.057007,56.631027 1215.067749,56.861607 1182.082275,56.833389 
	C1181.815430,56.833160 1181.548340,57.118435 1181.180664,57.327789 
	C1181.180664,156.155396 1181.180664,255.038666 1181.180664,354.084412 
	C1194.494629,354.084412 1207.571289,354.084412 1221.183105,354.084412 
	C1221.183105,317.028107 1221.183105,280.155212 1221.183105,243.017258 
	C1232.190918,243.017258 1242.672974,243.264404 1253.138550,242.956726 
	C1267.266479,242.541397 1281.381958,241.699387 1296.377197,240.999634 
z"/>
<path fill="#447809" opacity="1.000000" stroke="none" 
	d="
M1.000000,218.333328 
	C22.135759,218.087769 43.271515,218.176407 64.407288,218.262024 
	C66.720192,218.271393 69.033173,218.263306 71.912308,218.263306 
	C71.912308,240.433792 71.912308,262.301361 71.912308,284.745056 
	C150.461761,284.745056 228.441269,284.745056 307.040833,284.745056 
	C307.040833,308.567566 307.040833,331.815491 307.020416,355.531708 
	C205.645767,356.000000 104.291542,356.000000 2.455021,355.531494 
	C1.970038,311.940979 1.979605,268.818939 1.923807,225.697006 
	C1.921349,223.797607 1.321553,221.898987 1.000000,220.000000 
	C1.000000,219.555557 1.000000,219.111099 1.000000,218.333328 
z"/>
<path fill="#0D3E67" opacity="1.000000" stroke="none" 
	d="
M352.468658,356.000000 
	C351.875732,344.251068 351.704834,332.502350 351.641541,320.753082 
	C351.587982,310.809906 351.658966,300.866058 352.089417,290.217773 
	C352.876312,285.237915 356.056915,286.001709 358.808685,286.001648 
	C432.474640,285.999817 506.140625,286.006897 579.806580,285.954681 
	C581.867737,285.953217 583.928467,285.318939 585.989441,284.979767 
	C585.989441,263.021790 585.989441,241.063828 585.989441,218.673859 
	C609.760315,218.673859 633.112244,218.673859 657.242371,218.673859 
	C657.242371,264.071289 657.242371,309.580383 657.121216,355.544739 
	C555.645752,356.000000 454.291534,356.000000 352.468658,356.000000 
z"/>
<path fill="#020202" opacity="1.000000" stroke="none" 
	d="
M805.468567,356.000000 
	C800.305847,354.967194 795.628784,353.847626 790.914612,352.916046 
	C765.509888,347.895660 743.855835,336.052185 725.587646,317.321716 
	C729.462341,310.954834 733.023193,304.576111 737.099731,298.546021 
	C741.633362,291.839752 747.772034,291.973969 755.666382,297.312347 
	C765.681396,304.084747 775.518677,311.703400 786.544312,316.277039 
	C809.763977,325.908997 833.425171,325.873199 855.591248,312.526398 
	C877.635559,299.252930 882.032166,269.783813 874.401306,252.674271 
	C868.828186,240.178619 857.880493,233.201859 845.710754,228.612137 
	C830.358765,222.822266 814.453979,218.494827 799.117493,212.668396 
	C788.477356,208.626144 777.667664,204.230392 768.204895,198.047226 
	C744.695435,182.685760 736.565125,159.468994 738.503479,132.383087 
	C740.870056,99.311531 762.554565,71.835861 794.652588,62.704670 
	C834.579346,51.346359 871.677063,57.318478 904.483154,84.005981 
	C905.763489,85.047470 906.917175,86.244568 908.348572,87.571915 
	C905.394592,93.418190 902.571289,99.210678 899.565552,104.906914 
	C895.013000,113.534531 890.019104,114.313499 881.707336,109.341232 
	C872.066467,103.573891 862.381470,97.170074 851.835693,93.779663 
	C832.361633,87.518898 812.809998,88.636589 794.512756,99.217857 
	C772.913391,111.708710 764.215637,150.218552 794.420898,168.064316 
	C808.739807,176.524170 824.697510,180.486435 839.970764,186.368607 
	C854.159729,191.833206 868.658020,197.018234 881.864014,204.395752 
	C904.954773,217.295288 915.514221,238.181839 914.861206,264.563507 
	C914.016724,298.676056 900.496521,325.683411 870.062073,342.880585 
	C856.800842,350.373932 842.257812,353.659485 827.124084,355.602234 
	C819.979065,356.000000 812.958069,356.000000 805.468567,356.000000 
z"/>
<path fill="#020202" opacity="1.000000" stroke="none" 
	d="
M1019.468506,356.000000 
	C1014.299927,354.973022 1009.619080,353.845947 1004.896484,352.935852 
	C980.881470,348.307922 960.203430,337.334167 942.471313,320.555664 
	C939.908691,318.130890 939.590210,316.328918 941.636169,313.419708 
	C944.595215,309.212250 947.030273,304.639923 949.781616,300.281830 
	C954.915833,292.149445 960.627930,291.392761 968.597839,296.730103 
	C978.917480,303.640991 988.972717,311.520874 1000.283447,316.257019 
	C1023.286987,325.889221 1046.859619,325.925323 1068.882812,312.807617 
	C1089.522095,300.514221 1098.093994,269.521027 1086.921631,250.090942 
	C1080.832031,239.500290 1071.110962,232.972931 1060.050781,228.852188 
	C1044.534546,223.071274 1028.651367,218.283051 1013.008057,212.832581 
	C997.403748,207.395706 982.114990,201.160797 970.539795,188.719681 
	C953.131409,170.008789 948.965454,147.445389 953.544800,123.208160 
	C959.195374,93.300842 977.494263,72.677986 1005.905029,63.640598 
	C1047.671875,50.354713 1086.747314,56.823513 1120.712646,86.226967 
	C1121.089355,86.553032 1121.550415,86.781723 1122.386230,87.325150 
	C1118.709839,94.315567 1115.505249,101.230415 1111.550049,107.685333 
	C1107.989258,113.496513 1103.294434,113.904831 1096.948364,110.179008 
	C1088.515137,105.227806 1080.418823,99.348213 1071.417969,95.789101 
	C1050.352661,87.459457 1029.260498,87.784538 1008.886658,98.881165 
	C987.147034,110.721657 976.928894,150.410950 1008.565125,167.903168 
	C1020.498901,174.501572 1033.671753,178.986588 1046.535278,183.744385 
	C1063.479736,190.011597 1080.977905,194.911240 1096.476440,204.574692 
	C1121.057861,219.901443 1130.735474,242.534729 1128.431763,270.832672 
	C1126.035767,300.264343 1113.815674,324.111053 1088.361084,340.234558 
	C1073.692383,349.525970 1057.390625,353.707855 1040.136963,355.603088 
	C1033.312378,356.000000 1026.624756,356.000000 1019.468506,356.000000 
z"/>
<path fill="#0D0D0D" opacity="1.000000" stroke="none" 
	d="
M1601.000000,61.532402 
	C1598.885620,67.669350 1597.297485,73.607552 1594.562866,78.960068 
	C1584.253540,99.139465 1559.789185,110.730293 1538.929565,106.589027 
	C1511.554443,101.154282 1496.253540,78.993561 1495.002808,58.783527 
	C1493.449097,33.683460 1507.310181,12.254282 1530.183594,4.288525 
	C1532.997803,3.308503 1535.899292,2.579818 1538.880127,1.367322 
	C1544.354980,1.000000 1549.709839,1.000000 1555.644043,1.372128 
	C1574.308472,5.391264 1587.763306,15.210001 1595.887085,31.885532 
	C1597.935303,36.089489 1599.313843,40.619694 1601.000000,45.000000 
	C1601.000000,50.354931 1601.000000,55.709858 1601.000000,61.532402 
M1517.757690,17.206003 
	C1500.737671,31.723410 1495.551270,52.804077 1504.000366,73.122398 
	C1513.582642,96.165443 1541.591919,108.013214 1564.749756,98.819160 
	C1589.161865,89.127136 1601.649292,62.072853 1592.753052,38.212524 
	C1580.788208,6.122006 1542.635498,-2.466394 1517.757690,17.206003 
z"/>
<path fill="#F4F4F4" opacity="1.000000" stroke="none" 
	d="
M1601.000000,44.531342 
	C1599.313843,40.619694 1597.935303,36.089489 1595.887085,31.885532 
	C1587.763306,15.210001 1574.308472,5.391264 1556.111572,1.372128 
	C1570.925903,1.000000 1585.851685,1.000000 1601.000000,1.000000 
	C1601.000000,15.353462 1601.000000,29.708073 1601.000000,44.531342 
z"/>
<path fill="#303030" opacity="1.000000" stroke="none" 
	d="
M1593.768188,354.945770 
	C1593.832153,355.115936 1593.896118,355.286072 1593.979980,355.728088 
	C1537.645752,356.000000 1481.291504,356.000000 1424.468628,356.000000 
	C1423.950317,355.831451 1423.900513,355.662872 1424.401855,355.244507 
	C1481.224854,354.978363 1537.496460,354.962067 1593.768188,354.945770 
z"/>
<path fill="#35658B" opacity="1.000000" stroke="none" 
	d="
M1.000000,57.468658 
	C1.171082,56.978027 1.342165,56.956051 1.757935,57.241112 
	C2.002622,57.548149 2.038634,58.019604 2.026243,58.486877 
	C2.020988,103.632332 2.028125,148.310516 2.018398,193.263580 
	C1.998831,193.722076 1.996127,193.905670 1.993423,194.089249 
	C1.822466,194.134323 1.651510,194.179398 1.240277,194.112244 
	C1.000000,148.645767 1.000000,103.291542 1.000000,57.468658 
z"/>
<path fill="#6F9841" opacity="1.000000" stroke="none" 
	d="
M1.000000,220.468658 
	C1.321553,221.898987 1.921349,223.797607 1.923807,225.697006 
	C1.979605,268.818939 1.970038,311.940979 1.986365,355.531494 
	C1.666668,354.671997 1.043538,353.344360 1.041993,352.015961 
	C0.991191,308.323120 1.000000,264.630219 1.000000,220.468658 
z"/>
<path fill="#45780A" opacity="1.000000" stroke="none" 
	d="
M459.000000,127.941422 
	C423.057190,127.941422 387.614380,127.941422 351.879974,127.941422 
	C351.879974,104.195084 351.879974,80.933189 351.879974,57.281185 
	C453.398224,57.281185 554.924438,57.281185 656.867310,57.281185 
	C656.867310,102.639511 656.867310,148.151413 656.867310,194.034302 
	C633.474854,194.034302 610.108398,194.034302 586.252686,194.034302 
	C586.252686,172.037003 586.252686,150.292038 586.252686,127.941429 
	C543.678162,127.941429 501.589081,127.941429 459.000000,127.941422 
z"/>
<path fill="#0D3E67" opacity="1.000000" stroke="none" 
	d="
M2.035262,192.988678 
	C2.028125,148.310516 2.020988,103.632332 2.490718,58.479332 
	C101.760986,58.001762 200.554382,57.997978 299.347778,57.998554 
	C305.990967,57.998592 306.000824,58.013901 306.002838,64.682442 
	C306.008453,83.341568 305.838837,102.003189 306.117584,120.658150 
	C306.191010,125.572647 305.096924,127.134094 299.844818,127.119507 
	C230.040237,126.925674 160.234924,127.001564 90.429810,126.955902 
	C86.969460,126.953636 83.511391,126.319473 80.048042,126.269203 
	C79.034439,126.254486 78.006287,127.241600 76.984802,127.769531 
	C75.467773,127.971970 73.950745,128.174408 71.926582,128.991135 
	C71.280342,131.415085 71.023506,133.224548 71.020386,135.034424 
	C70.989990,152.692047 70.891190,170.350967 71.086914,188.006470 
	C71.130844,191.968689 69.952133,193.120743 66.001923,193.087311 
	C44.680954,192.906860 23.357716,192.993896 2.035262,192.988678 
z"/>
<path fill="#010101" opacity="1.000000" stroke="none" 
	d="
M1295.939941,241.020050 
	C1281.381958,241.699387 1267.266479,242.541397 1253.138550,242.956726 
	C1242.672974,243.264404 1232.190918,243.017258 1221.183105,243.017258 
	C1221.183105,280.155212 1221.183105,317.028107 1221.183105,354.084412 
	C1207.571289,354.084412 1194.494629,354.084412 1181.180664,354.084412 
	C1181.180664,255.038666 1181.180664,156.155396 1181.180664,57.327789 
	C1181.548340,57.118435 1181.815430,56.833160 1182.082275,56.833389 
	C1215.067749,56.861607 1248.057007,56.631027 1281.037354,57.065636 
	C1300.356079,57.320206 1318.992065,61.477249 1336.272461,70.489349 
	C1361.725220,83.763573 1375.559692,105.154610 1379.038696,133.316513 
	C1382.573730,161.931152 1377.709229,188.450790 1357.620850,210.520081 
	C1342.593872,227.028946 1323.146973,235.430222 1301.725220,239.934570 
	C1299.946655,240.308563 1298.160034,240.645493 1295.939941,241.020050 
M1327.089844,187.554962 
	C1342.853394,165.545303 1343.968262,141.888107 1332.573242,118.216133 
	C1322.958618,98.243011 1304.130737,90.716324 1283.321289,89.380569 
	C1263.404175,88.102097 1243.362183,88.768478 1223.374878,88.600868 
	C1222.753540,88.595657 1222.130493,88.821449 1221.498535,88.941383 
	C1221.498535,129.658752 1221.498535,170.187851 1221.498535,210.189331 
	C1241.848389,210.189331 1261.866455,211.034698 1281.777222,209.935699 
	C1299.344116,208.966080 1314.917114,202.014297 1327.089844,187.554962 
z"/>
<path fill="#000000" opacity="1.000000" stroke="none" 
	d="
M1593.865723,354.489624 
	C1537.496460,354.962067 1481.224854,354.978363 1424.485596,354.994507 
	C1423.938232,353.670624 1423.788452,352.346924 1423.788330,351.023193 
	C1423.777710,254.571503 1423.778931,158.119797 1423.779297,61.668102 
	C1423.779297,60.203789 1423.779419,58.739479 1423.779419,57.012726 
	C1437.219604,57.012726 1450.311890,57.012726 1463.934326,57.012726 
	C1463.934326,144.932526 1463.934326,232.946793 1463.934326,321.569946 
	C1507.483643,321.569946 1550.510986,321.569946 1593.963135,321.569946 
	C1593.963135,332.793884 1593.963135,343.413666 1593.865723,354.489624 
z"/>
<path fill="#1F415F" opacity="1.000000" stroke="none" 
	d="
M77.448059,127.853584 
	C78.006287,127.241600 79.034439,126.254486 80.048042,126.269203 
	C83.511391,126.319473 86.969460,126.953636 90.429810,126.955902 
	C160.234924,127.001564 230.040237,126.925674 299.844818,127.119507 
	C305.096924,127.134094 306.191010,125.572647 306.117584,120.658150 
	C305.838837,102.003189 306.008453,83.341568 306.002838,64.682442 
	C306.000824,58.013901 305.990967,57.998592 299.347778,57.998554 
	C200.554382,57.997978 101.760986,58.001762 2.503109,58.012058 
	C2.038634,58.019604 2.002622,57.548149 2.006825,57.311790 
	C3.671205,57.008755 5.331376,56.883877 6.991559,56.883720 
	C105.249741,56.874519 203.507935,56.875607 301.766113,56.875710 
	C303.383636,56.875710 305.001160,56.875710 306.828491,56.875710 
	C306.828491,80.735588 306.828491,104.122505 306.828491,127.937637 
	C230.366150,127.937637 154.138733,127.937637 77.448059,127.853584 
z"/>
<path fill="#173C5A" opacity="1.000000" stroke="none" 
	d="
M585.521729,284.987610 
	C583.928467,285.318939 581.867737,285.953217 579.806580,285.954681 
	C506.140625,286.006897 432.474640,285.999817 358.808685,286.001648 
	C356.056915,286.001709 352.876312,285.237915 352.208496,289.762573 
	C351.809448,288.538605 351.705902,287.065125 351.560486,284.995422 
	C429.603119,284.995422 507.328583,284.995422 585.521729,284.987610 
z"/>
<path fill="#1F415F" opacity="1.000000" stroke="none" 
	d="
M2.018398,193.263580 
	C23.357716,192.993896 44.680954,192.906860 66.001923,193.087311 
	C69.952133,193.120743 71.130844,191.968689 71.086914,188.006470 
	C70.891190,170.350967 70.989990,152.692047 71.020386,135.034424 
	C71.023506,133.224548 71.280342,131.415085 71.713211,129.311096 
	C72.006973,150.576828 72.006973,172.136902 72.006973,194.330170 
	C48.920174,194.330170 25.911896,194.330170 2.448521,194.209717 
	C1.996127,193.905670 1.998831,193.722076 2.018398,193.263580 
z"/>
<path fill="#F4F4F4" opacity="1.000000" stroke="none" 
	d="
M1518.040039,16.983147 
	C1542.635498,-2.466394 1580.788208,6.122006 1592.753052,38.212524 
	C1601.649292,62.072853 1589.161865,89.127136 1564.749756,98.819160 
	C1541.591919,108.013214 1513.582642,96.165443 1504.000366,73.122398 
	C1495.551270,52.804077 1500.737671,31.723410 1518.040039,16.983147 
M1527.786377,61.499657 
	C1527.786377,67.944084 1527.786377,74.388519 1527.786377,80.926308 
	C1530.471558,80.926308 1532.666748,80.926308 1535.188477,80.926308 
	C1535.188477,73.502419 1535.188477,66.397896 1535.188477,59.385643 
	C1540.414673,57.872292 1543.960815,59.196442 1546.749512,63.731552 
	C1549.698364,68.526741 1553.675171,72.696434 1556.552856,77.526642 
	C1559.328125,82.185356 1562.944336,81.392059 1567.599976,80.897163 
	C1561.601074,72.712479 1556.091064,65.194885 1550.638672,57.755909 
	C1553.082642,56.422413 1555.107056,55.577160 1556.837280,54.325272 
	C1562.118530,50.504116 1563.701538,45.137085 1562.651123,38.917191 
	C1561.684937,33.196728 1558.029053,29.326860 1552.578003,28.500156 
	C1544.470947,27.270687 1536.204834,27.089615 1527.786011,26.445498 
	C1527.786011,38.554276 1527.786011,49.527046 1527.786377,61.499657 
z"/>
<path fill="#F6F6F6" opacity="1.000000" stroke="none" 
	d="
M1326.876465,187.841919 
	C1314.917114,202.014297 1299.344116,208.966080 1281.777222,209.935699 
	C1261.866455,211.034698 1241.848389,210.189331 1221.498535,210.189331 
	C1221.498535,170.187851 1221.498535,129.658752 1221.498535,88.941383 
	C1222.130493,88.821449 1222.753540,88.595657 1223.374878,88.600868 
	C1243.362183,88.768478 1263.404175,88.102097 1283.321289,89.380569 
	C1304.130737,90.716324 1322.958618,98.243011 1332.573242,118.216133 
	C1343.968262,141.888107 1342.853394,165.545303 1326.876465,187.841919 
z"/>
<path fill="#080808" opacity="1.000000" stroke="none" 
	d="
M1527.786133,60.999737 
	C1527.786011,49.527046 1527.786011,38.554276 1527.786011,26.445498 
	C1536.204834,27.089615 1544.470947,27.270687 1552.578003,28.500156 
	C1558.029053,29.326860 1561.684937,33.196728 1562.651123,38.917191 
	C1563.701538,45.137085 1562.118530,50.504116 1556.837280,54.325272 
	C1555.107056,55.577160 1553.082642,56.422413 1550.638672,57.755909 
	C1556.091064,65.194885 1561.601074,72.712479 1567.599976,80.897163 
	C1562.944336,81.392059 1559.328125,82.185356 1556.552856,77.526642 
	C1553.675171,72.696434 1549.698364,68.526741 1546.749512,63.731552 
	C1543.960815,59.196442 1540.414673,57.872292 1535.188477,59.385643 
	C1535.188477,66.397896 1535.188477,73.502419 1535.188477,80.926308 
	C1532.666748,80.926308 1530.471558,80.926308 1527.786377,80.926308 
	C1527.786377,74.388519 1527.786377,67.944084 1527.786133,60.999737 
M1552.538208,50.128204 
	C1555.896973,46.857925 1557.082275,42.527843 1554.695068,38.861347 
	C1552.984009,36.233318 1549.283691,34.287781 1546.092651,33.404842 
	C1542.761475,32.483143 1538.977051,33.199051 1535.376587,33.199051 
	C1535.376587,40.038673 1535.376587,46.422424 1535.376587,54.206875 
	C1541.271484,52.950493 1546.624878,51.809536 1552.538208,50.128204 
z"/>
<path fill="#F1F1F1" opacity="1.000000" stroke="none" 
	d="
M1552.258301,50.398392 
	C1546.624878,51.809536 1541.271484,52.950493 1535.376587,54.206875 
	C1535.376587,46.422424 1535.376587,40.038673 1535.376587,33.199051 
	C1538.977051,33.199051 1542.761475,32.483143 1546.092651,33.404842 
	C1549.283691,34.287781 1552.984009,36.233318 1554.695068,38.861347 
	C1557.082275,42.527843 1555.896973,46.857925 1552.258301,50.398392 
z"/>
</svg>