<svg xmlns="http://www.w3.org/2000/svg" width="300" height="86" fill-rule="evenodd" stroke-linejoin="round" stroke-miterlimit="2" clip-rule="evenodd" viewBox="0 0 192 55"><path fill="#004e7d" fill-rule="nonzero" d="M33.139.273c-4.061 8.582-7.619 13.028-14.852 16.318a36 36 0 0 1-1.68-3.179c-.949 2.016-1.858 3.627-2.877 4.955-2.773.936-5.994 1.817-9.8 2.732 1.762.427 3.4.84 4.928 1.26C6.669 23.46 3.861 24.327 0 25.256c10.31 2.478 13.132 4.494 16.607 11.845 3.476-7.35 6.298-9.367 16.608-11.845-6.015-1.445-9.477-2.739-12.01-5.017 3.297-1.982 5.231-4.694 7.392-9.264 3.861 8.163 6.992 10.393 18.438 13.153-10.482 2.52-13.985 4.611-17.468 11.211 1.218 1.893 2.375 4.061 3.572 6.6 6.119-12.925 11.074-16.469 29.202-20.833-18.128-4.37-23.09-7.9-29.202-20.833"/><path d="M60.841 32.435v.007c-6.683 0-7.991 8.678-7.991 13.331 0 5.478 3.201 7.371 6.959 7.371 1.899 0 3.517-.585 4.514-.929l-.275 1.48c-.619.206-2.897 1.032-5.616 1.032-6.862 0-8.995-4.308-8.995-9.477 0-5.857 2.271-14.157 11.507-14.157 3.338 0 6.683 1.066 7.199 1.239l-.86 5.203h-.723c-.206-1.762-1.239-5.1-5.719-5.1m13.951 4.866-.007-.007c3.992 0 5.458 2.202 5.458 5.561 0 6.394-2.196 11.776-8.287 11.776-4.439 0-5.403-2.726-5.403-5.582 0-3.916 1.012-11.748 8.239-11.748m-2.629 16.346c4.721 0 5.581-8.314 5.581-11.597 0-2.272-1.011-3.765-3.055-3.765-4.804 0-5.637 8.589-5.637 11.597 0 2.044 1.067 3.765 3.111 3.765m19.126-2.224c.785 1.921 1.315 2.451 2.98 2.451l-.103.502h-6.745l.103-.502c1.005 0 1.714-.227 1.714-.985 0-.426-.227-.936-.406-1.362l-1.769-4.446-3.964 4.776c-.434.509-.812.991-.812 1.342 0 .482.454.682 1.466.682l-.104.502H77.71l.103-.502c1.748 0 2.705-.833 4.247-2.705l4.473-5.382-2.374-5.912c-.578-1.466-1.108-1.817-2.753-1.817l.103-.503h6.772l-.103.503c-.908 0-1.665.206-1.665 1.087 0 .379.151.785.302 1.163l1.542 3.841 3.565-4.343c.351-.461.606-.84.606-1.039 0-.51-.379-.709-1.542-.709l.103-.503h5.94l-.103.503c-1.769 0-2.726.777-4.068 2.422l-3.992 4.873zm26.903-15.74-2.98 14.839c-.068.406-.206 1.053-.206 1.425 0 1.527 1.253 1.761 2.574 1.761l-.138.675h-9.009l.138-.675c2.546 0 3.152-.915 3.627-3.186l1.425-7.117h-9.891l-1.424 7.117c-.097.406-.234 1.053-.234 1.425 0 1.527 1.287 1.761 2.608 1.761l-.137.675h-9.044l.138-.675c2.608 0 3.214-.915 3.654-3.186l2.98-14.839c.069-.406.207-1.087.207-1.424 0-1.528-1.253-1.762-2.609-1.762l.138-.675h9.044l-.138.675c-2.54 0-3.187.915-3.627 3.186l-1.287 6.401h9.89l1.287-6.401c.069-.406.206-1.087.206-1.424 0-1.528-1.252-1.762-2.574-1.762l.138-.675h9.009l-.137.675c-2.581 0-3.187.915-3.628 3.186m12.492 15.389v.007h.53l-.654 3.311h-12.23l.103-.503c1.921 0 2.375-.681 2.705-2.374l2.223-11.067c.048-.303.152-.805.152-1.06 0-1.136-.936-1.314-1.921-1.314l.104-.503h11.521l-.33 3.056h-.53c0-1.569-1.012-2.072-2.753-2.072h-1.948c-1.514 0-1.741.303-2.044 1.893l-.936 4.673h3.51c1.163 0 2.271-.358 2.677-2.099h.53l-1.039 5.176h-.53c.021-.131.048-.331.048-.558 0-.86-.351-1.542-1.893-1.542h-3.51l-1.087 5.41c-.048.303-.152.785-.152 1.06 0 .578.331.833 1.645.833h2.196c2.072 0 3.056-.764 3.613-2.327m25.569 2.327c2.092 0 3.083-.861 3.661-2.629h.53l-.736 3.613h-17.805l.103-.502c1.06 0 1.996-.179 1.996-1.239 0-.351-.076-.709-.124-1.06l-.454-2.781h-6.243l-1.769 3.084c-.323.557-.53.984-.53 1.238 0 .579.606.758 1.618.758l-.103.502h-5.713l.103-.502c1.749 0 2.299-.585 3.159-2.1l8.59-14.226h1.06l2.704 14.123c.262 1.452.613 2.127 2.072 2.189 1.721-.055 2.161-.744 2.478-2.361l2.223-11.067c.048-.303.151-.805.151-1.06 0-1.135-.936-1.314-1.92-1.314l.103-.503h6.718l-.104.503c-1.92 0-2.374.681-2.705 2.374l-2.223 11.067c-.048.303-.151.785-.151 1.06 0 .578.33.833 1.645.833zm-18.521-5.582h5.506l-1.212-7.405h-.048zm36.002-6.752c0-1.741-.434-2.525-3.035-2.525h-1.287l-2.602 12.959c-.048.303-.151.785-.151 1.06 0 1.136.936 1.315 1.92 1.315l-.103.502h-6.718l.104-.502c1.92 0 2.374-.682 2.705-2.375l2.601-12.959h-1.514c-2.65 0-3.235.984-3.689 2.525h-.709l.709-3.51h12.808l-.33 3.51zm11.549-3.51H192l-.103.503c-1.92 0-2.375.681-2.705 2.374l-2.223 11.067c-.048.303-.151.785-.151 1.06 0 1.136.936 1.315 1.92 1.315l-.104.502h-6.717l.103-.502c1.9 0 2.354-.682 2.705-2.375l1.06-5.306h-7.378l-1.06 5.306c-.075.303-.179.785-.179 1.06 0 1.136.964 1.315 1.948 1.315l-.103.502h-6.745l.103-.502c1.948 0 2.402-.682 2.733-2.375l2.223-11.067c.048-.303.151-.805.151-1.06 0-1.135-.936-1.314-1.948-1.314l.104-.503h6.744l-.103.503c-1.899 0-2.374.681-2.705 2.374l-.963 4.777h7.378l.963-4.777c.048-.303.152-.805.152-1.06 0-1.135-.936-1.314-1.921-1.314z"/></svg>